<?xml version="1.0" standalone="no"?>
<!DOCTYPE svg PUBLIC "-//W3C//DTD SVG 1.1//EN" "http://www.w3.org/Graphics/SVG/1.1/DTD/svg11.dtd">
<svg xmlns="http://www.w3.org/2000/svg" xmlns:inkscape="http://www.inkscape.org/namespaces/inkscape" xmlns:xlink="http://www.w3.org/1999/xlink" viewBox = "0 0 1635 933" version = "1.1">
<!-- svg generated using QGIS www.qgis.org -->
<g id="alberta-generalized" groupmode="layer" label="alberta-generalized">
<g stroke="rgb(35,35,35)" fill="rgb(152,125,183)" strokeLineJoin="round" strokeWidth="0.40">
<g id="alberta-generalized_1" label="Lethbridge--Medicine_Hat">
<path d="M 918,779 L 918,781 L 918,782 L 917,786 L 913,802 L 911,808 L 910,812 L 910,813 L 909,816 L 907,824 L 907,825 L 904,837 L 904,840 L 902,846 L 900,854 L 899,858 L 898,864 L 896,870 L 895,876 L 894,879 L 893,884 L 887,908 L 884,908 L 877,906 L 875,905 L 871,904 L 865,903 L 862,902 L 856,901 L 852,900 L 841,897 L 840,897 L 837,896 L 829,894 L 824,893 L 822,892 L 817,890 L 816,890 L 815,890 L 808,888 L 805,887 L 804,887 L 794,884 L 791,883 L 788,883 L 784,882 L 781,881 L 774,879 L 770,878 L 769,877 L 765,876 L 760,875 L 759,874 L 758,874 L 749,872 L 746,871 L 735,868 L 725,865 L 724,864 L 722,864 L 714,861 L 709,860 L 708,860 L 704,858 L 702,858 L 701,857 L 700,857 L 699,856 L 698,855 L 698,854 L 698,852 L 697,851 L 696,849 L 696,848 L 696,847 L 696,845 L 696,844 L 696,843 L 695,842 L 691,840 L 688,837 L 687,833 L 686,829 L 686,827 L 684,824 L 682,822 L 682,820 L 682,819 L 683,817 L 685,813 L 685,812 L 686,811 L 687,811 L 688,811 L 690,811 L 692,814 L 692,815 L 693,815 L 693,816 L 695,816 L 696,816 L 698,815 L 699,813 L 699,811 L 701,805 L 702,802 L 702,800 L 703,793 L 703,792 L 704,792 L 705,792 L 706,792 L 707,793 L 709,795 L 710,795 L 715,797 L 717,798 L 718,798 L 719,798 L 719,797 L 719,796 L 720,795 L 721,791 L 723,784 L 725,779 L 725,777 L 725,775 L 725,772 L 724,772 L 724,771 L 724,770 L 724,769 L 725,767 L 725,766 L 725,765 L 724,764 L 723,763 L 721,763 L 720,762 L 720,761 L 720,760 L 720,758 L 721,758 L 723,757 L 725,757 L 728,758 L 735,760 L 742,761 L 747,763 L 749,764 L 750,765 L 751,767 L 751,770 L 754,780 L 757,783 L 758,786 L 758,787 L 757,789 L 756,790 L 756,791 L 756,792 L 757,793 L 758,794 L 762,794 L 770,797 L 774,797 L 775,797 L 776,797 L 777,797 L 777,796 L 778,795 L 779,794 L 780,794 L 781,794 L 783,795 L 784,795 L 785,795 L 786,795 L 786,794 L 787,793 L 788,792 L 789,792 L 791,792 L 792,792 L 793,791 L 794,790 L 797,788 L 800,787 L 804,787 L 807,788 L 808,789 L 810,789 L 810,788 L 811,788 L 812,787 L 813,784 L 813,782 L 813,781 L 813,780 L 812,780 L 811,780 L 809,780 L 808,779 L 808,778 L 807,776 L 806,774 L 806,773 L 807,773 L 807,772 L 808,769 L 807,767 L 806,765 L 804,763 L 803,759 L 803,758 L 803,756 L 804,755 L 805,753 L 805,752 L 805,751 L 804,750 L 802,749 L 801,748 L 801,746 L 801,745 L 801,744 L 801,743 L 802,742 L 803,741 L 804,741 L 805,741 L 807,741 L 807,742 L 808,741 L 808,740 L 809,736 L 810,736 L 811,736 L 812,737 L 813,737 L 814,737 L 815,736 L 816,736 L 816,735 L 817,734 L 817,733 L 818,732 L 819,732 L 821,732 L 822,733 L 823,733 L 824,732 L 824,731 L 825,726 L 826,725 L 827,725 L 831,733 L 834,737 L 835,739 L 836,742 L 835,745 L 834,746 L 833,747 L 832,748 L 833,749 L 837,751 L 837,752 L 837,756 L 838,756 L 838,757 L 844,757 L 845,757 L 846,757 L 846,758 L 846,759 L 846,760 L 846,761 L 847,764 L 849,765 L 852,766 L 853,766 L 854,767 L 855,767 L 855,768 L 854,769 L 854,770 L 855,771 L 856,772 L 857,772 L 858,772 L 863,773 L 866,774 L 868,774 L 869,775 L 878,777 L 887,779 L 900,783 L 901,782 L 901,783 L 902,783 L 903,783 L 903,784 L 903,785 L 902,786 L 902,787 L 903,788 L 904,789 L 905,790 L 906,790 L 908,789 L 909,788 L 910,788 L 910,787 L 910,786 L 911,785 L 911,784 L 912,784 L 913,784 L 914,784 L 915,784 L 915,783 L 915,782 L 915,781 L 915,780 L 916,778 L 917,778 L 918,777 L 918,778 L 919,778 L 919,779 L 918,779 " />
</g>
<g id="alberta-generalized_2" label="Calgary">
<path d="M 774,658 L 775,659 L 775,660 L 774,661 L 772,668 L 772,669 L 773,676 L 773,677 L 771,680 L 770,685 L 769,687 L 769,689 L 768,689 L 768,690 L 769,690 L 769,691 L 770,691 L 771,691 L 773,692 L 774,692 L 777,693 L 778,693 L 779,693 L 780,694 L 780,695 L 779,698 L 777,704 L 776,708 L 774,707 L 772,707 L 771,708 L 770,708 L 770,709 L 769,710 L 768,711 L 767,711 L 765,711 L 764,711 L 763,712 L 763,714 L 762,715 L 761,719 L 760,723 L 759,724 L 758,731 L 758,733 L 757,735 L 757,736 L 758,737 L 759,737 L 760,737 L 761,737 L 761,738 L 762,738 L 762,739 L 759,747 L 759,749 L 758,751 L 757,752 L 757,753 L 755,753 L 754,753 L 753,752 L 752,753 L 751,756 L 751,758 L 750,759 L 750,760 L 751,761 L 751,763 L 750,763 L 750,764 L 749,764 L 747,763 L 746,762 L 743,762 L 734,760 L 728,758 L 726,757 L 725,757 L 723,757 L 722,757 L 721,758 L 720,760 L 720,762 L 719,762 L 718,762 L 714,761 L 711,759 L 709,757 L 708,755 L 708,753 L 709,746 L 710,743 L 712,741 L 714,741 L 715,739 L 716,737 L 716,734 L 715,730 L 714,728 L 715,726 L 715,725 L 716,724 L 716,720 L 715,717 L 713,714 L 713,711 L 713,708 L 715,700 L 716,699 L 716,698 L 716,697 L 717,697 L 718,696 L 719,696 L 720,697 L 722,697 L 723,697 L 724,697 L 724,696 L 724,695 L 723,694 L 721,694 L 720,694 L 719,693 L 718,691 L 718,689 L 719,685 L 721,681 L 722,678 L 724,670 L 726,666 L 726,661 L 724,657 L 720,649 L 720,648 L 720,645 L 720,643 L 722,642 L 723,642 L 725,642 L 728,643 L 730,643 L 731,643 L 732,643 L 733,643 L 750,649 L 751,649 L 753,650 L 755,651 L 756,652 L 756,653 L 757,653 L 760,654 L 764,656 L 768,657 L 772,657 L 774,658 " />
</g>
<g id="alberta-generalized_3" label="Banff--Jasper--Rocky_Mountain_House">
<path d="M 765,518 L 765,519 L 762,520 L 759,523 L 757,526 L 756,530 L 756,531 L 755,531 L 754,532 L 753,532 L 751,533 L 750,535 L 748,537 L 746,537 L 745,537 L 743,536 L 740,535 L 740,534 L 734,533 L 733,532 L 731,531 L 729,531 L 728,531 L 722,549 L 719,560 L 718,562 L 717,565 L 717,566 L 717,567 L 718,568 L 719,568 L 722,568 L 726,569 L 734,573 L 735,573 L 735,572 L 735,571 L 735,570 L 734,569 L 734,568 L 734,566 L 735,565 L 736,563 L 736,562 L 736,560 L 737,559 L 737,558 L 738,558 L 739,558 L 740,558 L 743,559 L 744,560 L 745,561 L 745,562 L 744,564 L 743,567 L 742,571 L 741,572 L 741,573 L 742,574 L 743,576 L 744,577 L 745,577 L 747,577 L 751,578 L 754,579 L 756,580 L 758,582 L 758,585 L 758,587 L 757,588 L 756,589 L 754,589 L 752,591 L 751,592 L 751,594 L 751,596 L 753,598 L 755,600 L 756,600 L 757,601 L 757,602 L 757,603 L 756,604 L 755,606 L 754,608 L 753,610 L 752,612 L 753,617 L 752,624 L 752,625 L 752,628 L 751,629 L 750,630 L 749,631 L 747,631 L 745,631 L 744,631 L 743,631 L 743,632 L 743,633 L 743,635 L 744,635 L 745,637 L 745,638 L 744,640 L 742,644 L 742,646 L 741,646 L 740,646 L 733,643 L 732,643 L 731,643 L 730,643 L 727,643 L 725,642 L 723,642 L 722,642 L 720,643 L 720,645 L 720,648 L 720,649 L 724,657 L 726,661 L 726,666 L 724,670 L 722,678 L 721,681 L 719,685 L 718,689 L 718,691 L 719,693 L 720,694 L 721,694 L 723,694 L 724,695 L 724,696 L 724,697 L 723,697 L 722,697 L 720,697 L 719,696 L 718,696 L 717,696 L 717,697 L 716,698 L 716,699 L 715,700 L 713,708 L 713,711 L 713,714 L 715,717 L 716,720 L 716,724 L 715,725 L 715,726 L 714,728 L 715,730 L 716,734 L 716,737 L 715,739 L 714,741 L 712,741 L 710,743 L 709,746 L 708,753 L 709,756 L 710,758 L 712,760 L 714,761 L 721,763 L 723,763 L 724,764 L 725,765 L 725,766 L 725,767 L 724,769 L 724,770 L 724,771 L 724,772 L 725,772 L 725,775 L 725,777 L 725,779 L 723,784 L 721,791 L 720,795 L 719,796 L 719,797 L 719,798 L 718,798 L 717,798 L 715,797 L 710,795 L 709,795 L 707,793 L 706,792 L 705,792 L 704,792 L 703,792 L 703,793 L 702,800 L 701,805 L 699,811 L 699,813 L 698,814 L 697,815 L 696,816 L 695,816 L 693,815 L 690,813 L 689,811 L 688,810 L 686,809 L 685,809 L 684,810 L 683,810 L 682,809 L 680,808 L 680,806 L 679,805 L 679,804 L 680,804 L 680,803 L 681,803 L 683,802 L 683,803 L 684,802 L 685,802 L 688,793 L 689,790 L 689,784 L 689,782 L 690,781 L 691,780 L 693,777 L 693,775 L 693,774 L 692,768 L 694,763 L 693,760 L 693,758 L 694,755 L 695,753 L 694,750 L 691,741 L 689,733 L 689,732 L 688,731 L 687,731 L 683,731 L 681,731 L 680,731 L 679,730 L 678,729 L 678,728 L 679,727 L 678,720 L 675,714 L 671,709 L 670,707 L 669,705 L 669,704 L 668,703 L 668,702 L 669,702 L 670,702 L 671,701 L 672,700 L 672,698 L 672,696 L 671,695 L 666,686 L 661,683 L 660,681 L 659,679 L 659,678 L 659,677 L 660,676 L 660,674 L 660,673 L 659,671 L 658,670 L 655,666 L 653,664 L 652,661 L 652,658 L 653,656 L 654,654 L 654,653 L 654,652 L 653,652 L 652,651 L 651,649 L 651,647 L 651,644 L 649,638 L 647,636 L 647,633 L 647,631 L 647,627 L 647,625 L 646,624 L 646,623 L 645,623 L 644,623 L 643,622 L 641,623 L 640,624 L 639,625 L 637,626 L 636,627 L 635,627 L 634,626 L 633,625 L 633,624 L 633,623 L 633,616 L 633,609 L 629,603 L 627,599 L 627,594 L 628,590 L 628,589 L 628,588 L 627,588 L 626,589 L 625,589 L 624,589 L 617,585 L 613,582 L 610,578 L 609,576 L 610,573 L 611,571 L 613,570 L 614,570 L 615,569 L 616,569 L 616,568 L 616,567 L 616,566 L 616,565 L 614,563 L 612,562 L 611,562 L 610,561 L 610,559 L 609,557 L 608,557 L 608,556 L 607,556 L 606,557 L 605,558 L 604,559 L 604,560 L 603,560 L 602,560 L 601,560 L 600,559 L 599,559 L 598,559 L 597,560 L 596,560 L 595,560 L 595,559 L 596,559 L 596,558 L 596,557 L 597,555 L 597,551 L 596,547 L 597,542 L 600,539 L 600,538 L 600,537 L 600,535 L 599,533 L 599,529 L 599,524 L 599,522 L 598,520 L 597,519 L 596,519 L 595,519 L 594,519 L 594,518 L 593,517 L 593,516 L 593,515 L 593,512 L 594,510 L 594,509 L 594,508 L 593,507 L 592,507 L 592,505 L 592,504 L 592,503 L 593,502 L 593,501 L 593,499 L 592,497 L 588,489 L 587,489 L 586,489 L 586,490 L 586,491 L 585,492 L 585,493 L 584,493 L 583,493 L 582,493 L 580,492 L 576,489 L 574,484 L 574,479 L 574,478 L 574,476 L 574,475 L 573,474 L 572,473 L 569,471 L 566,470 L 563,469 L 562,467 L 561,465 L 561,462 L 561,461 L 561,459 L 561,458 L 560,458 L 560,457 L 559,457 L 558,456 L 558,455 L 558,454 L 559,454 L 559,453 L 560,452 L 560,451 L 559,450 L 559,449 L 559,448 L 560,448 L 561,448 L 562,451 L 565,452 L 566,452 L 567,452 L 567,451 L 568,450 L 568,449 L 567,447 L 567,446 L 567,445 L 567,444 L 566,444 L 565,444 L 564,443 L 563,443 L 563,442 L 563,441 L 564,441 L 564,440 L 564,439 L 564,438 L 564,437 L 563,437 L 562,436 L 562,435 L 562,433 L 563,430 L 564,428 L 565,426 L 566,426 L 567,426 L 568,426 L 569,427 L 569,428 L 570,430 L 571,431 L 572,431 L 573,432 L 575,431 L 577,431 L 584,427 L 586,427 L 587,428 L 588,428 L 588,429 L 587,430 L 586,433 L 585,436 L 584,437 L 584,438 L 584,439 L 584,440 L 585,441 L 586,441 L 587,442 L 589,442 L 598,446 L 606,452 L 612,455 L 619,457 L 620,458 L 624,459 L 626,460 L 632,462 L 634,463 L 635,463 L 636,463 L 637,463 L 638,461 L 638,460 L 640,458 L 642,458 L 649,458 L 655,458 L 659,456 L 663,456 L 666,457 L 668,458 L 671,459 L 673,460 L 675,460 L 676,460 L 677,460 L 677,461 L 677,462 L 676,463 L 677,464 L 677,465 L 678,466 L 679,466 L 681,466 L 682,467 L 684,467 L 685,467 L 688,467 L 690,469 L 693,469 L 695,468 L 696,467 L 699,464 L 700,464 L 701,463 L 701,464 L 701,465 L 700,465 L 700,466 L 701,467 L 701,468 L 702,468 L 704,468 L 705,469 L 706,469 L 706,470 L 706,471 L 706,472 L 706,473 L 705,475 L 705,476 L 706,476 L 708,477 L 710,477 L 711,478 L 712,478 L 716,480 L 717,480 L 721,482 L 725,483 L 726,483 L 728,483 L 729,484 L 730,485 L 731,486 L 731,488 L 730,489 L 730,490 L 730,491 L 731,492 L 732,492 L 732,493 L 732,494 L 732,496 L 732,497 L 733,498 L 735,499 L 736,499 L 740,500 L 746,503 L 752,505 L 757,508 L 761,509 L 762,509 L 763,510 L 764,511 L 764,512 L 765,518 " />
</g>
<g id="alberta-generalized_4" label="Red_Deer">
<path d="M 818,605 L 819,606 L 820,607 L 821,609 L 820,611 L 819,613 L 819,614 L 819,615 L 818,615 L 817,615 L 816,615 L 815,615 L 814,616 L 815,617 L 815,618 L 817,620 L 819,621 L 820,622 L 821,624 L 821,625 L 819,627 L 818,628 L 815,631 L 812,635 L 811,636 L 810,652 L 811,655 L 811,659 L 812,660 L 811,661 L 811,662 L 811,663 L 810,663 L 809,663 L 807,662 L 803,661 L 802,661 L 802,660 L 799,660 L 792,656 L 791,656 L 790,656 L 789,656 L 787,656 L 785,656 L 783,656 L 781,655 L 780,656 L 779,656 L 779,657 L 778,658 L 777,659 L 776,659 L 775,659 L 773,658 L 772,657 L 770,657 L 768,657 L 764,656 L 760,655 L 757,653 L 756,653 L 756,652 L 755,651 L 752,650 L 748,648 L 745,648 L 744,647 L 744,646 L 743,644 L 743,642 L 743,641 L 745,637 L 744,636 L 744,635 L 743,634 L 743,633 L 743,632 L 743,631 L 744,631 L 745,631 L 747,631 L 749,631 L 750,630 L 751,629 L 752,627 L 752,625 L 752,624 L 753,617 L 753,614 L 753,610 L 753,608 L 753,607 L 754,606 L 755,605 L 756,604 L 757,603 L 757,602 L 757,601 L 756,600 L 755,600 L 753,598 L 752,597 L 751,595 L 751,593 L 752,591 L 754,589 L 755,589 L 757,587 L 758,586 L 758,582 L 759,581 L 761,580 L 763,579 L 764,579 L 766,580 L 769,580 L 769,581 L 773,582 L 776,583 L 784,588 L 785,589 L 786,589 L 787,589 L 789,590 L 791,591 L 792,591 L 793,591 L 797,593 L 799,593 L 803,594 L 804,595 L 805,596 L 806,597 L 807,597 L 808,596 L 809,596 L 810,596 L 811,597 L 811,598 L 812,598 L 812,599 L 811,601 L 811,602 L 812,603 L 813,603 L 814,604 L 816,605 L 818,605 " />
</g>
<g id="alberta-generalized_5" label="Camrose--Drumheller">
<path d="M 968,560 L 970,561 L 970,562 L 970,563 L 970,564 L 969,568 L 969,569 L 968,574 L 967,578 L 966,581 L 963,592 L 962,599 L 958,613 L 957,617 L 956,621 L 955,625 L 954,630 L 953,635 L 951,642 L 950,646 L 949,651 L 947,658 L 946,663 L 945,667 L 944,671 L 943,675 L 942,680 L 942,683 L 941,684 L 940,691 L 939,692 L 938,696 L 938,697 L 937,702 L 935,711 L 934,715 L 933,719 L 932,723 L 931,728 L 930,732 L 928,737 L 928,741 L 927,741 L 926,747 L 926,748 L 925,753 L 924,754 L 923,759 L 921,766 L 920,772 L 920,774 L 919,777 L 916,778 L 915,779 L 915,781 L 915,783 L 915,784 L 914,784 L 913,784 L 912,784 L 911,784 L 911,785 L 910,786 L 910,787 L 910,788 L 909,788 L 908,789 L 907,790 L 905,790 L 904,789 L 903,788 L 903,787 L 903,785 L 903,784 L 902,783 L 901,783 L 900,783 L 891,780 L 876,777 L 869,775 L 868,774 L 866,774 L 863,773 L 858,772 L 857,772 L 856,772 L 855,771 L 855,770 L 854,769 L 855,768 L 854,767 L 854,766 L 853,766 L 852,766 L 849,765 L 847,764 L 846,761 L 846,760 L 846,759 L 846,758 L 846,757 L 845,757 L 844,757 L 838,757 L 838,756 L 837,756 L 837,752 L 837,751 L 833,749 L 832,748 L 833,747 L 834,746 L 835,745 L 836,742 L 835,739 L 834,737 L 831,733 L 827,725 L 826,725 L 825,726 L 824,731 L 824,732 L 823,733 L 822,733 L 821,732 L 819,732 L 818,732 L 817,733 L 817,734 L 816,735 L 816,736 L 815,736 L 814,737 L 813,737 L 812,737 L 811,736 L 810,736 L 809,736 L 808,740 L 808,741 L 807,741 L 805,741 L 804,741 L 803,741 L 802,742 L 802,743 L 801,744 L 801,745 L 801,746 L 801,748 L 802,749 L 804,750 L 805,751 L 805,752 L 805,753 L 804,755 L 803,756 L 803,758 L 803,759 L 803,761 L 804,763 L 806,764 L 807,766 L 808,768 L 807,771 L 806,774 L 807,776 L 808,778 L 808,779 L 809,780 L 811,780 L 812,780 L 813,780 L 813,781 L 813,782 L 813,784 L 812,787 L 811,788 L 810,789 L 809,789 L 808,789 L 807,788 L 804,787 L 800,787 L 797,788 L 794,790 L 793,791 L 792,792 L 791,792 L 789,792 L 788,792 L 787,793 L 786,794 L 786,795 L 785,795 L 784,795 L 783,795 L 781,794 L 780,794 L 779,794 L 778,795 L 777,796 L 777,797 L 776,797 L 775,797 L 774,797 L 770,797 L 762,794 L 758,794 L 757,793 L 756,792 L 756,791 L 756,790 L 757,789 L 758,787 L 758,786 L 757,783 L 754,780 L 751,770 L 750,767 L 751,758 L 751,756 L 752,753 L 753,752 L 754,753 L 755,753 L 756,753 L 757,753 L 758,751 L 759,749 L 759,747 L 762,739 L 762,738 L 761,738 L 761,737 L 760,737 L 759,737 L 758,737 L 757,736 L 757,735 L 758,733 L 758,731 L 759,724 L 760,723 L 761,719 L 762,715 L 763,714 L 763,712 L 764,712 L 765,711 L 766,711 L 768,711 L 769,710 L 770,709 L 770,708 L 771,708 L 772,707 L 774,707 L 776,708 L 777,704 L 779,698 L 780,695 L 780,694 L 779,693 L 778,693 L 777,693 L 774,692 L 773,692 L 771,691 L 770,691 L 769,691 L 769,690 L 768,690 L 768,689 L 769,689 L 769,687 L 770,685 L 771,680 L 773,677 L 773,676 L 772,669 L 772,668 L 774,661 L 776,659 L 778,657 L 779,656 L 781,655 L 783,655 L 785,656 L 787,656 L 788,656 L 790,656 L 791,656 L 792,656 L 799,660 L 802,660 L 802,661 L 803,661 L 807,662 L 809,663 L 810,663 L 811,663 L 811,662 L 811,661 L 812,660 L 811,659 L 811,655 L 810,652 L 811,636 L 812,635 L 815,631 L 818,628 L 819,627 L 820,626 L 821,624 L 820,622 L 819,621 L 817,620 L 815,618 L 815,617 L 814,616 L 815,615 L 816,615 L 817,615 L 818,615 L 819,615 L 819,614 L 819,613 L 821,606 L 822,593 L 825,588 L 826,587 L 827,584 L 826,582 L 825,579 L 824,577 L 825,575 L 825,574 L 825,573 L 826,572 L 827,572 L 831,571 L 833,570 L 834,569 L 835,567 L 835,566 L 836,566 L 837,565 L 839,565 L 841,565 L 842,565 L 843,564 L 844,563 L 844,561 L 844,560 L 843,559 L 842,558 L 841,556 L 841,554 L 841,551 L 843,550 L 843,548 L 845,547 L 846,545 L 847,543 L 847,541 L 847,539 L 847,535 L 848,531 L 850,528 L 853,526 L 854,525 L 855,525 L 856,521 L 856,520 L 856,519 L 857,519 L 858,519 L 859,519 L 861,520 L 862,521 L 865,524 L 870,527 L 872,528 L 873,528 L 876,526 L 878,525 L 880,525 L 881,526 L 882,527 L 883,529 L 883,530 L 883,531 L 883,532 L 884,533 L 886,534 L 887,535 L 888,536 L 888,537 L 889,538 L 891,539 L 893,539 L 895,539 L 900,541 L 904,545 L 906,550 L 910,555 L 916,557 L 921,559 L 923,558 L 925,557 L 927,558 L 929,559 L 934,561 L 938,562 L 942,563 L 946,563 L 947,564 L 948,565 L 948,566 L 949,567 L 950,568 L 951,568 L 952,568 L 953,567 L 953,566 L 954,564 L 955,563 L 957,562 L 961,560 L 966,560 L 968,560 " />
</g>
<g id="alberta-generalized_6" label="Edmonton">
<path d="M 854,523 L 855,524 L 855,525 L 854,525 L 853,526 L 850,528 L 848,530 L 847,533 L 847,535 L 847,539 L 847,541 L 847,543 L 846,545 L 845,547 L 843,548 L 843,550 L 841,551 L 841,554 L 841,556 L 842,558 L 843,559 L 844,560 L 844,561 L 844,563 L 843,564 L 842,565 L 841,565 L 839,565 L 837,565 L 836,566 L 835,566 L 835,567 L 834,569 L 833,570 L 831,571 L 827,572 L 826,572 L 826,573 L 825,573 L 825,574 L 825,575 L 825,576 L 827,585 L 825,588 L 822,593 L 821,596 L 822,604 L 822,605 L 822,606 L 821,606 L 820,606 L 816,605 L 814,604 L 813,603 L 812,603 L 811,602 L 811,601 L 812,599 L 812,598 L 811,598 L 811,597 L 810,596 L 809,596 L 808,596 L 807,597 L 806,597 L 805,596 L 804,595 L 803,594 L 799,593 L 797,593 L 793,591 L 792,591 L 791,591 L 789,590 L 787,589 L 786,589 L 785,589 L 784,588 L 776,583 L 773,582 L 769,581 L 769,580 L 765,579 L 758,580 L 757,580 L 756,580 L 754,579 L 751,578 L 747,577 L 745,577 L 744,577 L 743,576 L 742,574 L 741,573 L 741,572 L 742,571 L 743,567 L 744,564 L 745,562 L 745,561 L 744,560 L 743,559 L 740,558 L 739,558 L 738,558 L 737,558 L 737,559 L 736,560 L 736,562 L 736,563 L 735,565 L 734,566 L 734,568 L 734,569 L 735,570 L 735,571 L 735,572 L 735,573 L 734,573 L 726,569 L 722,568 L 719,568 L 718,568 L 717,567 L 717,566 L 717,565 L 718,562 L 722,548 L 724,543 L 724,539 L 725,536 L 727,534 L 730,533 L 733,532 L 734,533 L 740,534 L 740,535 L 743,536 L 745,537 L 746,537 L 748,537 L 750,535 L 751,533 L 753,532 L 754,532 L 755,531 L 756,531 L 756,530 L 757,526 L 759,523 L 762,520 L 763,519 L 764,518 L 766,518 L 767,518 L 768,519 L 768,520 L 768,521 L 767,523 L 766,523 L 766,524 L 767,525 L 768,525 L 771,525 L 772,526 L 774,527 L 775,527 L 776,528 L 782,529 L 788,531 L 791,533 L 792,534 L 793,534 L 794,534 L 795,534 L 795,533 L 795,532 L 796,531 L 797,530 L 798,531 L 799,531 L 800,531 L 802,525 L 802,522 L 804,514 L 804,513 L 805,513 L 806,514 L 808,514 L 809,516 L 810,516 L 813,516 L 815,515 L 816,513 L 818,512 L 820,511 L 824,512 L 828,513 L 830,513 L 832,514 L 834,515 L 836,517 L 840,520 L 844,521 L 845,521 L 849,522 L 853,523 L 854,523 " />
</g>
<g id="alberta-generalized_7" label="Athabasca--Grande_Prairie--Peace_River">
<path d="M 880,77 L 881,77 L 881,78 L 881,79 L 881,81 L 880,82 L 878,88 L 877,91 L 874,99 L 873,104 L 872,107 L 871,110 L 871,112 L 871,113 L 872,114 L 873,114 L 876,115 L 877,116 L 883,118 L 889,120 L 890,120 L 896,122 L 900,123 L 901,123 L 906,125 L 911,126 L 915,128 L 920,130 L 922,130 L 923,130 L 923,131 L 924,132 L 923,133 L 923,135 L 922,138 L 920,143 L 917,153 L 914,163 L 914,164 L 913,167 L 910,176 L 908,185 L 905,193 L 904,198 L 901,205 L 897,218 L 895,226 L 893,232 L 891,239 L 889,246 L 888,249 L 886,253 L 884,263 L 882,267 L 881,271 L 881,272 L 881,274 L 882,275 L 884,276 L 893,279 L 894,279 L 898,280 L 908,283 L 909,283 L 911,283 L 912,284 L 912,285 L 913,286 L 912,288 L 912,289 L 913,290 L 915,292 L 917,292 L 920,293 L 922,294 L 923,295 L 924,297 L 923,300 L 923,303 L 920,311 L 919,315 L 917,322 L 916,329 L 916,331 L 915,332 L 915,334 L 912,344 L 911,348 L 911,351 L 909,355 L 910,358 L 912,370 L 912,372 L 911,375 L 909,376 L 905,382 L 903,387 L 901,394 L 901,397 L 900,401 L 899,403 L 896,405 L 893,406 L 891,408 L 888,418 L 888,419 L 888,420 L 888,421 L 889,422 L 890,422 L 893,423 L 894,423 L 900,425 L 902,425 L 903,426 L 904,427 L 905,428 L 905,430 L 904,434 L 903,437 L 902,439 L 900,445 L 900,448 L 899,449 L 898,450 L 897,452 L 897,454 L 897,455 L 896,455 L 895,456 L 894,456 L 893,456 L 892,456 L 891,456 L 891,457 L 890,461 L 889,465 L 889,466 L 888,470 L 886,477 L 886,481 L 885,483 L 883,485 L 882,486 L 880,486 L 878,487 L 877,488 L 876,490 L 876,493 L 875,497 L 874,499 L 872,500 L 870,501 L 867,502 L 866,505 L 863,508 L 859,509 L 858,511 L 857,513 L 857,515 L 856,520 L 856,521 L 855,522 L 854,523 L 853,523 L 851,523 L 849,522 L 845,521 L 840,520 L 836,518 L 834,515 L 832,514 L 830,513 L 828,513 L 824,512 L 820,511 L 818,512 L 816,513 L 815,515 L 813,516 L 810,516 L 809,516 L 808,514 L 806,514 L 805,513 L 804,513 L 804,514 L 802,522 L 802,525 L 800,531 L 799,531 L 798,531 L 797,530 L 796,531 L 795,532 L 795,533 L 795,534 L 794,534 L 793,534 L 792,534 L 791,533 L 788,531 L 783,529 L 776,528 L 775,527 L 774,527 L 772,526 L 771,525 L 768,525 L 767,525 L 766,524 L 766,523 L 767,523 L 768,522 L 768,520 L 768,519 L 768,518 L 767,517 L 765,516 L 765,515 L 764,514 L 764,512 L 764,511 L 763,510 L 762,509 L 761,509 L 757,508 L 752,505 L 746,503 L 740,500 L 736,499 L 735,499 L 733,498 L 732,497 L 732,496 L 732,494 L 732,493 L 732,492 L 731,492 L 730,491 L 730,490 L 730,489 L 731,488 L 731,486 L 730,485 L 729,484 L 728,483 L 726,483 L 725,483 L 721,482 L 717,480 L 716,480 L 712,478 L 711,478 L 710,477 L 708,477 L 706,476 L 705,476 L 705,475 L 706,473 L 706,472 L 706,471 L 706,470 L 705,469 L 704,468 L 703,468 L 702,468 L 701,468 L 701,467 L 700,466 L 700,465 L 701,465 L 701,464 L 701,463 L 700,464 L 699,464 L 696,467 L 695,468 L 693,469 L 690,469 L 688,467 L 685,467 L 684,467 L 682,467 L 681,466 L 679,466 L 678,466 L 677,465 L 677,464 L 676,463 L 677,462 L 677,461 L 677,460 L 676,460 L 675,460 L 673,460 L 671,459 L 668,458 L 666,457 L 663,456 L 659,456 L 655,458 L 649,458 L 642,458 L 640,458 L 638,460 L 638,461 L 637,463 L 636,463 L 635,463 L 634,463 L 632,462 L 626,460 L 624,459 L 620,458 L 619,457 L 612,455 L 606,452 L 598,446 L 589,442 L 587,442 L 586,441 L 585,441 L 584,440 L 584,439 L 584,438 L 584,437 L 585,436 L 586,433 L 587,430 L 588,429 L 587,428 L 586,427 L 584,427 L 577,431 L 575,431 L 573,431 L 572,431 L 570,430 L 568,427 L 566,424 L 574,403 L 579,392 L 583,382 L 587,373 L 590,366 L 590,365 L 592,360 L 598,346 L 602,335 L 605,330 L 606,326 L 611,314 L 618,297 L 622,289 L 624,283 L 625,280 L 627,276 L 627,275 L 628,273 L 632,263 L 634,260 L 635,256 L 637,252 L 644,234 L 648,224 L 650,221 L 657,204 L 659,199 L 661,195 L 667,180 L 671,171 L 674,162 L 676,159 L 678,154 L 680,149 L 682,144 L 682,143 L 684,139 L 691,121 L 693,117 L 695,112 L 698,106 L 698,105 L 704,90 L 707,82 L 712,71 L 716,61 L 721,50 L 722,46 L 724,41 L 732,22 L 734,22 L 736,23 L 738,24 L 741,25 L 749,28 L 749,29 L 757,32 L 758,32 L 762,34 L 766,35 L 774,38 L 775,39 L 782,42 L 783,42 L 784,42 L 791,45 L 792,46 L 799,48 L 807,51 L 808,51 L 816,54 L 820,56 L 824,57 L 825,58 L 829,59 L 832,60 L 833,61 L 841,64 L 842,64 L 848,66 L 849,66 L 850,67 L 855,68 L 858,69 L 858,70 L 867,72 L 875,75 L 877,76 L 879,77 L 880,77 " />
</g>
<g id="alberta-generalized_8" label="Wood_Buffalo--Cold_Lake">
<path d="M 1068,131 L 1071,132 L 1072,133 L 1074,134 L 1074,135 L 1073,137 L 1073,138 L 1070,149 L 1068,158 L 1065,168 L 1062,181 L 1061,186 L 1053,218 L 1052,225 L 1047,244 L 1046,248 L 1044,255 L 1043,259 L 1043,262 L 1041,268 L 1039,280 L 1037,284 L 1033,303 L 1032,307 L 1031,312 L 1029,317 L 1026,331 L 1026,332 L 1022,348 L 1021,354 L 1019,360 L 1018,365 L 1016,373 L 1015,377 L 1014,382 L 1013,387 L 1012,391 L 1010,400 L 1008,406 L 1006,416 L 1004,424 L 1002,433 L 1001,437 L 999,443 L 998,448 L 998,450 L 997,452 L 995,460 L 994,463 L 989,486 L 985,500 L 984,504 L 981,518 L 979,526 L 977,535 L 975,542 L 974,549 L 973,553 L 971,558 L 971,559 L 971,560 L 970,560 L 969,561 L 968,561 L 967,561 L 967,560 L 966,560 L 961,560 L 957,562 L 955,563 L 954,564 L 953,566 L 953,567 L 952,568 L 951,568 L 950,568 L 949,567 L 948,566 L 948,565 L 947,564 L 946,563 L 942,563 L 938,562 L 934,561 L 929,559 L 928,558 L 926,557 L 924,557 L 921,559 L 916,557 L 910,555 L 906,550 L 904,545 L 900,541 L 895,539 L 893,539 L 891,539 L 889,538 L 888,537 L 888,536 L 887,535 L 886,534 L 884,533 L 883,532 L 883,531 L 883,530 L 883,529 L 882,527 L 881,526 L 880,525 L 878,525 L 876,526 L 873,528 L 872,528 L 870,527 L 865,524 L 862,521 L 862,520 L 859,520 L 858,518 L 857,516 L 856,514 L 857,511 L 859,509 L 863,508 L 866,505 L 867,502 L 870,501 L 872,500 L 874,499 L 875,497 L 876,493 L 876,491 L 876,489 L 878,487 L 879,487 L 881,487 L 883,485 L 885,483 L 885,481 L 886,477 L 888,470 L 889,466 L 889,465 L 890,461 L 891,457 L 891,456 L 892,456 L 893,456 L 894,456 L 895,456 L 896,455 L 897,455 L 897,454 L 897,452 L 898,450 L 899,449 L 900,448 L 900,445 L 902,439 L 903,437 L 904,434 L 905,430 L 905,428 L 904,427 L 903,426 L 902,425 L 900,425 L 894,423 L 893,423 L 890,422 L 889,422 L 888,421 L 888,420 L 888,419 L 888,418 L 891,408 L 893,406 L 897,405 L 899,402 L 901,400 L 901,397 L 901,393 L 902,390 L 903,387 L 905,382 L 909,376 L 911,375 L 912,372 L 912,370 L 910,358 L 909,355 L 911,351 L 911,348 L 912,344 L 915,334 L 915,332 L 916,331 L 916,329 L 917,322 L 919,315 L 920,311 L 923,303 L 923,300 L 924,297 L 923,294 L 921,293 L 919,292 L 917,292 L 915,292 L 913,290 L 912,289 L 912,288 L 913,286 L 912,285 L 912,284 L 911,283 L 909,283 L 908,283 L 898,280 L 894,279 L 893,279 L 884,276 L 882,275 L 881,274 L 881,272 L 881,271 L 882,267 L 884,263 L 886,253 L 888,249 L 889,246 L 891,239 L 893,232 L 895,226 L 897,218 L 901,205 L 904,198 L 905,193 L 908,185 L 910,176 L 913,167 L 914,164 L 914,163 L 917,153 L 920,143 L 922,138 L 923,135 L 923,133 L 924,132 L 923,131 L 923,130 L 922,130 L 920,130 L 915,128 L 911,126 L 906,125 L 901,123 L 900,123 L 896,122 L 890,120 L 889,120 L 883,118 L 877,116 L 876,115 L 873,114 L 872,114 L 871,113 L 871,112 L 871,110 L 872,107 L 873,104 L 874,99 L 877,91 L 878,88 L 880,81 L 881,80 L 882,78 L 883,78 L 884,78 L 885,78 L 887,79 L 892,81 L 897,83 L 901,84 L 902,84 L 908,86 L 909,87 L 910,87 L 914,88 L 917,89 L 918,89 L 920,90 L 925,92 L 926,92 L 927,92 L 931,93 L 935,95 L 944,97 L 951,100 L 952,100 L 961,102 L 961,103 L 963,103 L 970,105 L 972,106 L 976,107 L 978,108 L 980,108 L 982,109 L 987,110 L 994,112 L 995,112 L 996,112 L 1004,115 L 1006,115 L 1013,117 L 1014,117 L 1015,118 L 1022,119 L 1029,121 L 1030,122 L 1031,122 L 1039,124 L 1048,126 L 1052,127 L 1056,128 L 1065,131 L 1068,131 " />
</g>
</g>
</g>
</svg>