<?xml version="1.0" standalone="no"?>
<!DOCTYPE svg PUBLIC "-//W3C//DTD SVG 1.1//EN" "http://www.w3.org/Graphics/SVG/1.1/DTD/svg11.dtd">
<svg xmlns="http://www.w3.org/2000/svg" xmlns:inkscape="http://www.inkscape.org/namespaces/inkscape" xmlns:xlink="http://www.w3.org/1999/xlink" viewBox = "0 0 1635 933" version = "1.1">
<!-- svg generated using QGIS www.qgis.org -->
<g id="bc-generalized" groupmode="layer" label="bc-generalized">
<g stroke="rgb(35,35,35)" fill="rgb(114,155,111)" strokeLineJoin="round" strokeWidth="0.40">
<g id="bc-generalized_1" className="bc-generalized_1" label="Northeast___Nord-est">
<path d="M 976,243 L 977,243 L 981,245 L 983,246 L 989,249 L 994,251 L 994,252 L 995,252 L 996,252 L 1000,254 L 1001,255 L 1007,257 L 1013,260 L 1015,261 L 1018,262 L 1019,263 L 1020,263 L 1025,266 L 1026,266 L 1031,269 L 1038,271 L 1041,273 L 1043,274 L 1044,274 L 1045,274 L 1049,276 L 1050,277 L 1056,279 L 1059,280 L 1062,282 L 1064,282 L 1068,284 L 1062,299 L 1060,306 L 1054,320 L 1053,322 L 1050,330 L 1047,336 L 1043,346 L 1042,347 L 1040,352 L 1039,356 L 1038,359 L 1037,361 L 1032,372 L 1031,375 L 1030,376 L 1029,380 L 1027,384 L 1026,387 L 1025,389 L 1022,396 L 1019,403 L 1015,414 L 1013,417 L 1012,421 L 1007,433 L 1006,436 L 1003,443 L 997,457 L 996,460 L 995,463 L 994,465 L 990,473 L 990,474 L 990,475 L 988,478 L 987,480 L 986,484 L 983,490 L 978,503 L 974,512 L 973,515 L 971,519 L 968,527 L 964,537 L 962,541 L 962,542 L 960,547 L 957,554 L 954,562 L 950,570 L 943,586 L 942,589 L 940,593 L 940,592 L 940,591 L 941,588 L 942,585 L 942,584 L 942,583 L 941,583 L 940,583 L 939,584 L 938,584 L 938,583 L 937,581 L 937,580 L 938,579 L 940,578 L 941,578 L 942,578 L 942,577 L 942,576 L 942,575 L 941,575 L 940,575 L 939,574 L 936,573 L 934,572 L 933,570 L 932,568 L 932,566 L 933,563 L 933,562 L 932,561 L 931,561 L 931,560 L 931,559 L 932,557 L 933,556 L 933,555 L 932,555 L 932,554 L 931,553 L 930,553 L 930,552 L 931,551 L 931,550 L 931,549 L 930,549 L 929,548 L 928,548 L 926,548 L 924,548 L 923,547 L 922,546 L 922,544 L 923,543 L 923,542 L 922,541 L 921,541 L 920,541 L 919,541 L 917,541 L 916,540 L 916,539 L 915,536 L 915,534 L 914,532 L 915,530 L 916,529 L 917,528 L 917,526 L 917,524 L 917,522 L 916,521 L 915,520 L 914,519 L 912,519 L 910,518 L 909,517 L 909,516 L 911,514 L 911,512 L 910,510 L 908,504 L 906,498 L 905,492 L 905,489 L 902,483 L 902,482 L 901,481 L 901,480 L 900,481 L 899,482 L 898,483 L 897,483 L 896,482 L 895,479 L 893,478 L 892,477 L 891,475 L 891,473 L 892,472 L 894,470 L 895,469 L 894,468 L 893,467 L 892,467 L 892,466 L 891,465 L 891,464 L 891,463 L 892,462 L 893,460 L 893,459 L 892,459 L 892,458 L 891,457 L 890,457 L 890,458 L 889,458 L 888,457 L 888,456 L 888,455 L 889,454 L 889,453 L 890,452 L 890,451 L 889,449 L 889,448 L 888,447 L 887,446 L 886,446 L 885,446 L 883,444 L 882,441 L 881,439 L 881,438 L 880,437 L 879,437 L 878,437 L 877,438 L 876,439 L 875,440 L 875,442 L 876,444 L 876,446 L 875,448 L 874,450 L 872,451 L 870,451 L 869,451 L 868,452 L 868,453 L 867,454 L 867,455 L 866,456 L 865,456 L 864,456 L 864,455 L 863,455 L 863,454 L 863,453 L 863,452 L 864,450 L 863,448 L 862,446 L 861,445 L 860,444 L 860,441 L 861,439 L 862,437 L 863,436 L 863,434 L 864,424 L 864,423 L 866,421 L 866,420 L 861,419 L 860,418 L 860,417 L 859,411 L 858,410 L 857,409 L 856,409 L 854,410 L 853,410 L 853,409 L 853,408 L 853,407 L 853,405 L 853,404 L 852,403 L 851,403 L 850,404 L 849,404 L 848,404 L 847,404 L 846,404 L 846,403 L 845,403 L 844,402 L 842,402 L 840,403 L 838,404 L 837,404 L 836,404 L 835,404 L 835,403 L 836,402 L 837,401 L 837,400 L 836,400 L 835,400 L 834,400 L 829,401 L 828,400 L 827,400 L 827,399 L 827,398 L 827,397 L 828,396 L 828,395 L 828,394 L 826,392 L 826,391 L 826,389 L 825,388 L 826,387 L 826,386 L 828,386 L 829,386 L 830,385 L 830,384 L 829,381 L 829,380 L 831,379 L 832,377 L 833,375 L 833,374 L 833,373 L 832,372 L 831,370 L 830,369 L 828,368 L 827,368 L 826,367 L 825,363 L 824,360 L 824,359 L 823,359 L 822,360 L 821,360 L 820,361 L 818,362 L 817,361 L 816,361 L 815,361 L 814,361 L 813,361 L 812,362 L 810,362 L 809,361 L 808,361 L 808,360 L 808,359 L 808,357 L 809,356 L 809,355 L 809,354 L 808,353 L 807,353 L 806,353 L 803,354 L 802,354 L 802,353 L 802,352 L 801,350 L 802,343 L 802,342 L 803,341 L 804,340 L 805,340 L 806,339 L 806,338 L 806,337 L 803,336 L 803,335 L 803,334 L 803,333 L 803,332 L 804,331 L 805,329 L 806,328 L 807,328 L 808,328 L 809,328 L 810,329 L 811,329 L 812,329 L 814,328 L 815,328 L 815,326 L 816,323 L 817,323 L 817,322 L 818,322 L 822,320 L 823,319 L 824,319 L 825,318 L 826,318 L 827,316 L 827,314 L 827,313 L 828,313 L 830,312 L 831,312 L 832,313 L 832,314 L 832,315 L 832,316 L 832,317 L 832,318 L 833,319 L 835,319 L 838,320 L 841,320 L 842,320 L 841,318 L 841,317 L 842,316 L 842,315 L 843,315 L 843,314 L 842,313 L 842,312 L 841,311 L 842,309 L 842,308 L 843,307 L 844,308 L 845,308 L 845,309 L 846,309 L 846,308 L 846,307 L 846,306 L 847,304 L 846,301 L 847,300 L 847,299 L 848,299 L 849,298 L 851,299 L 852,299 L 854,300 L 855,301 L 856,302 L 856,304 L 857,305 L 859,307 L 861,309 L 861,312 L 861,313 L 861,314 L 862,314 L 865,311 L 866,311 L 867,312 L 867,313 L 868,313 L 869,313 L 870,313 L 870,312 L 871,312 L 872,312 L 874,313 L 875,313 L 876,314 L 876,315 L 876,316 L 876,318 L 875,320 L 875,321 L 876,321 L 877,321 L 878,320 L 879,320 L 880,319 L 881,320 L 882,320 L 883,320 L 886,319 L 887,319 L 890,320 L 893,320 L 894,320 L 895,321 L 896,322 L 896,323 L 897,324 L 898,325 L 899,325 L 899,324 L 900,323 L 901,322 L 904,320 L 905,318 L 906,316 L 905,314 L 902,311 L 900,310 L 898,308 L 897,306 L 895,303 L 893,302 L 889,301 L 887,300 L 886,298 L 886,297 L 886,295 L 886,294 L 886,293 L 885,293 L 884,292 L 883,292 L 882,291 L 881,289 L 881,287 L 880,284 L 879,281 L 879,280 L 880,279 L 880,278 L 880,277 L 879,277 L 878,277 L 877,276 L 875,276 L 874,276 L 873,275 L 872,275 L 872,274 L 872,271 L 871,270 L 871,269 L 870,269 L 870,268 L 869,268 L 868,269 L 867,269 L 866,268 L 866,267 L 867,267 L 870,266 L 870,265 L 870,262 L 868,257 L 868,256 L 871,255 L 873,252 L 877,245 L 876,244 L 876,243 L 874,243 L 874,242 L 873,242 L 873,241 L 873,240 L 873,239 L 873,238 L 874,237 L 875,225 L 875,220 L 874,214 L 873,212 L 872,209 L 872,207 L 874,204 L 875,202 L 877,201 L 878,201 L 879,201 L 880,200 L 880,199 L 880,198 L 880,197 L 880,196 L 880,195 L 882,194 L 884,194 L 884,195 L 886,195 L 887,196 L 892,199 L 893,200 L 898,202 L 899,203 L 902,205 L 905,206 L 911,209 L 916,212 L 917,213 L 919,214 L 923,216 L 924,216 L 929,219 L 935,222 L 940,225 L 941,225 L 947,228 L 952,231 L 953,231 L 958,234 L 959,234 L 964,237 L 965,237 L 969,239 L 971,240 L 972,241 L 976,243 " />
</g>
<g id="bc-generalized_2" label="Lower_Mainland--Southwest___Lower_Mainland--Sud-ouest">
<path d="M 747,777 L 748,778 L 749,778 L 750,778 L 750,779 L 751,778 L 750,778 L 750,777 L 753,775 L 755,773 L 755,772 L 756,772 L 755,772 L 755,771 L 755,772 L 754,772 L 753,774 L 753,775 L 751,776 L 749,777 L 747,776 L 745,775 L 744,774 L 742,773 L 741,771 L 740,770 L 741,769 L 741,768 L 743,767 L 744,762 L 746,760 L 748,758 L 750,757 L 750,756 L 751,756 L 751,755 L 750,755 L 749,754 L 748,755 L 747,755 L 747,756 L 747,757 L 746,758 L 745,758 L 743,758 L 742,758 L 740,758 L 739,758 L 737,758 L 736,759 L 736,761 L 736,762 L 735,763 L 734,764 L 733,764 L 732,764 L 731,763 L 730,762 L 728,759 L 726,756 L 724,754 L 722,752 L 721,748 L 722,742 L 723,740 L 725,739 L 726,739 L 727,738 L 728,739 L 729,741 L 729,743 L 728,744 L 728,751 L 727,754 L 727,755 L 727,756 L 728,756 L 728,755 L 729,751 L 729,750 L 730,749 L 731,749 L 738,749 L 739,749 L 737,749 L 736,749 L 734,748 L 731,748 L 730,748 L 729,747 L 729,746 L 730,746 L 730,745 L 731,745 L 734,744 L 735,742 L 736,742 L 735,742 L 735,743 L 734,743 L 734,744 L 732,744 L 731,744 L 730,744 L 729,743 L 729,742 L 729,741 L 729,740 L 729,739 L 729,738 L 730,738 L 731,737 L 732,736 L 733,734 L 733,733 L 733,731 L 732,731 L 732,730 L 732,729 L 732,728 L 733,728 L 734,727 L 735,727 L 736,727 L 740,727 L 741,727 L 742,726 L 742,725 L 742,724 L 741,723 L 741,721 L 744,721 L 744,720 L 743,720 L 742,720 L 741,720 L 740,720 L 739,719 L 739,718 L 738,717 L 737,717 L 737,718 L 738,720 L 740,722 L 740,723 L 740,724 L 740,725 L 739,725 L 738,726 L 737,726 L 733,726 L 732,726 L 732,727 L 731,727 L 731,728 L 731,730 L 731,731 L 732,732 L 732,733 L 732,734 L 731,735 L 730,736 L 729,736 L 728,736 L 730,724 L 729,722 L 729,720 L 730,719 L 731,718 L 732,717 L 734,716 L 734,714 L 734,713 L 734,712 L 734,711 L 734,709 L 735,707 L 736,707 L 737,707 L 739,708 L 739,709 L 740,709 L 742,710 L 743,709 L 744,708 L 745,707 L 745,705 L 744,704 L 744,703 L 744,702 L 745,702 L 745,701 L 746,701 L 748,702 L 750,703 L 751,703 L 752,704 L 753,704 L 755,699 L 757,696 L 757,695 L 756,695 L 755,694 L 755,692 L 755,691 L 757,689 L 759,688 L 768,687 L 771,687 L 772,687 L 773,686 L 774,687 L 778,688 L 782,687 L 786,684 L 787,684 L 789,684 L 790,683 L 791,682 L 792,682 L 793,682 L 794,683 L 795,685 L 795,687 L 796,687 L 797,688 L 798,688 L 799,688 L 799,689 L 800,690 L 800,692 L 800,693 L 801,694 L 802,694 L 802,693 L 803,693 L 803,692 L 803,690 L 804,690 L 804,689 L 805,689 L 806,689 L 807,690 L 807,691 L 807,693 L 809,698 L 811,701 L 815,706 L 818,707 L 819,707 L 819,708 L 820,708 L 823,709 L 824,709 L 825,709 L 827,710 L 828,711 L 829,713 L 829,714 L 829,716 L 828,717 L 826,718 L 824,719 L 821,721 L 820,724 L 818,729 L 817,730 L 817,731 L 816,732 L 815,733 L 814,733 L 812,735 L 811,736 L 810,737 L 809,737 L 808,737 L 807,737 L 805,735 L 804,735 L 804,734 L 803,734 L 802,734 L 801,734 L 800,735 L 799,737 L 797,737 L 795,738 L 793,740 L 791,742 L 790,745 L 790,746 L 791,747 L 792,748 L 793,748 L 795,749 L 797,751 L 798,753 L 799,754 L 801,755 L 805,755 L 806,756 L 807,756 L 810,760 L 813,761 L 817,763 L 818,763 L 819,764 L 819,765 L 819,766 L 819,768 L 818,770 L 817,771 L 816,772 L 816,773 L 817,773 L 818,774 L 819,773 L 820,774 L 821,776 L 821,777 L 820,778 L 819,778 L 818,778 L 817,779 L 817,780 L 816,780 L 817,781 L 817,782 L 817,784 L 816,786 L 816,787 L 815,787 L 815,788 L 816,788 L 818,789 L 819,789 L 820,788 L 821,788 L 822,788 L 822,789 L 821,790 L 820,791 L 818,793 L 815,796 L 813,798 L 811,802 L 811,803 L 812,805 L 813,806 L 814,807 L 815,808 L 816,808 L 817,808 L 818,808 L 818,809 L 819,809 L 819,810 L 818,811 L 817,812 L 816,813 L 815,813 L 814,813 L 814,814 L 814,815 L 814,816 L 814,817 L 813,817 L 812,817 L 811,817 L 810,817 L 810,818 L 811,819 L 812,819 L 812,820 L 813,821 L 813,822 L 813,823 L 812,823 L 811,823 L 810,823 L 808,822 L 807,821 L 802,819 L 798,818 L 798,817 L 790,814 L 788,813 L 782,810 L 778,809 L 775,808 L 774,807 L 770,805 L 768,804 L 765,803 L 759,800 L 754,798 L 749,796 L 749,795 L 748,795 L 747,794 L 746,793 L 746,792 L 746,791 L 747,790 L 747,789 L 746,789 L 745,788 L 742,788 L 740,789 L 740,790 L 739,789 L 738,789 L 737,788 L 737,786 L 737,784 L 737,783 L 739,778 L 738,777 L 738,775 L 738,774 L 739,774 L 747,777 " />
</g>
<g id="bc-generalized_3" label="Vancouver_Island_and_Coast___ele_de_Vancouver_et_la_c">
<path d="M 640,687 L 642,688 L 643,689 L 644,690 L 644,692 L 643,693 L 642,697 L 641,700 L 641,701 L 640,702 L 640,703 L 638,703 L 637,703 L 635,701 L 634,699 L 633,697 L 633,694 L 633,692 L 634,691 L 636,690 L 638,691 L 639,691 L 640,691 L 641,692 L 641,691 L 640,691 L 639,691 L 638,690 L 637,690 L 636,690 L 635,690 L 635,689 L 634,689 L 634,688 L 635,687 L 636,687 L 638,686 L 640,687 " />
<path d="M 680,649 L 682,649 L 683,651 L 683,652 L 683,653 L 683,654 L 681,655 L 680,656 L 679,656 L 679,657 L 678,658 L 677,658 L 676,658 L 675,657 L 672,654 L 672,653 L 671,653 L 671,654 L 672,655 L 672,656 L 670,655 L 669,654 L 668,653 L 668,652 L 668,651 L 669,651 L 670,650 L 678,648 L 680,649 " />
<path d="M 628,617 L 633,620 L 637,624 L 637,625 L 640,627 L 641,630 L 642,633 L 642,634 L 642,635 L 643,635 L 644,635 L 644,636 L 645,637 L 646,640 L 647,642 L 649,645 L 651,648 L 659,655 L 660,656 L 663,661 L 667,664 L 670,665 L 671,665 L 673,667 L 678,671 L 679,673 L 680,674 L 680,675 L 682,677 L 683,678 L 687,682 L 691,683 L 693,686 L 694,689 L 694,692 L 692,698 L 694,704 L 694,705 L 693,708 L 693,712 L 694,718 L 696,723 L 697,726 L 697,727 L 697,728 L 696,728 L 695,728 L 694,727 L 693,727 L 693,728 L 694,730 L 694,732 L 693,735 L 693,736 L 694,738 L 695,741 L 697,743 L 698,746 L 698,747 L 701,750 L 704,752 L 711,760 L 710,761 L 710,760 L 709,760 L 708,760 L 709,761 L 711,762 L 712,762 L 713,763 L 714,764 L 714,765 L 714,766 L 714,767 L 714,768 L 714,769 L 715,771 L 717,772 L 716,777 L 717,778 L 716,779 L 715,779 L 714,779 L 714,778 L 713,777 L 717,790 L 717,791 L 716,793 L 715,795 L 716,798 L 714,803 L 713,804 L 712,806 L 713,806 L 714,805 L 715,805 L 716,803 L 717,802 L 717,801 L 717,800 L 718,800 L 718,799 L 718,800 L 719,800 L 719,801 L 719,803 L 719,805 L 718,807 L 718,810 L 719,812 L 718,815 L 717,816 L 716,816 L 715,815 L 714,814 L 714,812 L 714,813 L 714,814 L 713,813 L 712,813 L 711,813 L 710,814 L 709,814 L 708,815 L 708,816 L 707,816 L 706,816 L 705,816 L 704,816 L 703,815 L 702,813 L 701,813 L 702,812 L 703,812 L 703,813 L 704,813 L 705,813 L 705,812 L 704,812 L 703,811 L 702,811 L 700,811 L 695,808 L 694,805 L 687,798 L 685,795 L 682,792 L 681,792 L 682,791 L 683,791 L 684,791 L 684,790 L 683,790 L 682,790 L 680,790 L 678,789 L 677,787 L 675,785 L 674,783 L 673,779 L 672,778 L 669,775 L 667,773 L 666,772 L 666,771 L 665,771 L 665,770 L 666,769 L 665,768 L 664,767 L 664,766 L 665,766 L 666,766 L 667,765 L 672,764 L 674,762 L 677,762 L 679,762 L 681,761 L 685,756 L 686,754 L 687,752 L 687,751 L 687,750 L 686,753 L 685,756 L 679,761 L 678,762 L 677,761 L 676,761 L 676,760 L 675,759 L 674,759 L 674,760 L 673,760 L 672,760 L 671,759 L 671,758 L 671,757 L 671,756 L 671,755 L 672,755 L 672,754 L 671,754 L 671,755 L 670,756 L 668,758 L 667,758 L 666,758 L 666,757 L 665,756 L 665,755 L 666,754 L 667,754 L 668,754 L 669,754 L 670,754 L 670,755 L 670,754 L 669,754 L 668,754 L 666,753 L 665,753 L 663,753 L 662,754 L 661,755 L 659,755 L 658,755 L 657,755 L 657,754 L 657,753 L 656,752 L 656,753 L 656,754 L 657,754 L 656,754 L 656,753 L 654,747 L 653,745 L 653,744 L 651,743 L 650,742 L 650,741 L 649,740 L 650,739 L 650,738 L 651,739 L 651,740 L 653,741 L 654,742 L 656,742 L 659,741 L 660,741 L 660,740 L 660,739 L 659,739 L 658,739 L 657,739 L 654,741 L 654,740 L 655,739 L 656,739 L 657,738 L 657,737 L 657,736 L 656,735 L 656,734 L 657,732 L 658,731 L 659,730 L 658,730 L 657,730 L 656,731 L 655,732 L 654,732 L 652,732 L 651,732 L 650,732 L 650,731 L 649,731 L 649,730 L 650,729 L 651,728 L 653,728 L 654,727 L 656,725 L 657,725 L 657,724 L 656,724 L 652,727 L 651,727 L 650,726 L 650,725 L 650,724 L 651,723 L 652,722 L 653,721 L 652,721 L 652,720 L 651,720 L 650,720 L 649,720 L 648,721 L 648,720 L 647,720 L 647,719 L 647,718 L 647,717 L 647,716 L 646,716 L 646,717 L 646,718 L 646,719 L 645,719 L 645,720 L 645,721 L 644,721 L 643,720 L 643,719 L 642,717 L 642,716 L 642,714 L 642,713 L 641,713 L 640,713 L 639,714 L 639,715 L 638,716 L 637,716 L 636,715 L 636,714 L 636,713 L 637,711 L 639,709 L 640,706 L 641,705 L 643,704 L 645,704 L 647,705 L 649,706 L 655,708 L 656,709 L 657,709 L 657,710 L 657,711 L 657,712 L 658,712 L 658,711 L 657,709 L 657,708 L 656,707 L 651,706 L 650,706 L 646,703 L 646,702 L 646,701 L 647,700 L 648,700 L 649,699 L 649,698 L 649,697 L 649,696 L 648,696 L 648,697 L 648,698 L 647,699 L 646,700 L 645,700 L 643,699 L 643,698 L 643,697 L 644,692 L 645,690 L 647,688 L 647,687 L 646,687 L 646,688 L 645,689 L 644,689 L 643,689 L 643,688 L 642,687 L 642,685 L 642,683 L 642,682 L 642,681 L 642,682 L 642,684 L 642,685 L 641,685 L 641,686 L 640,686 L 639,686 L 637,685 L 639,681 L 640,680 L 639,679 L 638,682 L 638,683 L 637,684 L 636,685 L 635,685 L 635,684 L 635,683 L 635,682 L 635,681 L 635,680 L 635,679 L 635,681 L 635,682 L 634,683 L 633,683 L 632,684 L 631,683 L 630,682 L 629,681 L 629,679 L 630,676 L 631,675 L 631,674 L 632,674 L 633,674 L 635,675 L 635,674 L 634,674 L 631,674 L 630,673 L 629,673 L 629,672 L 629,671 L 630,671 L 633,671 L 635,672 L 636,672 L 637,671 L 637,670 L 636,669 L 635,670 L 634,670 L 634,669 L 634,668 L 634,667 L 633,667 L 633,666 L 632,666 L 632,667 L 631,667 L 631,668 L 632,668 L 631,669 L 631,670 L 630,670 L 629,670 L 627,670 L 626,669 L 626,668 L 625,666 L 626,664 L 627,662 L 628,662 L 628,661 L 627,661 L 625,662 L 624,662 L 623,662 L 622,661 L 622,660 L 623,660 L 623,659 L 623,658 L 622,658 L 620,659 L 619,659 L 617,659 L 616,660 L 615,659 L 614,659 L 614,658 L 613,657 L 613,656 L 614,655 L 615,655 L 617,655 L 618,655 L 619,654 L 620,654 L 620,653 L 620,652 L 619,651 L 619,650 L 619,649 L 620,649 L 621,649 L 622,649 L 622,648 L 621,648 L 620,647 L 618,646 L 618,645 L 618,644 L 618,643 L 619,642 L 621,641 L 623,640 L 626,641 L 629,642 L 631,643 L 632,644 L 633,645 L 633,646 L 634,649 L 633,652 L 633,653 L 634,653 L 634,648 L 634,645 L 634,644 L 634,643 L 633,642 L 633,641 L 632,641 L 628,640 L 623,639 L 622,638 L 621,638 L 620,638 L 620,637 L 620,636 L 621,635 L 622,635 L 623,635 L 622,634 L 622,635 L 621,635 L 620,635 L 619,635 L 619,636 L 618,636 L 616,635 L 615,634 L 615,633 L 615,631 L 616,630 L 615,628 L 615,627 L 615,626 L 615,625 L 616,624 L 616,623 L 616,622 L 615,622 L 615,621 L 615,620 L 615,619 L 616,619 L 617,618 L 616,618 L 616,617 L 617,616 L 619,616 L 620,616 L 623,617 L 625,618 L 628,617 " />
<path d="M 660,561 L 662,561 L 663,562 L 664,563 L 664,565 L 663,566 L 662,567 L 656,572 L 655,573 L 654,574 L 653,574 L 653,573 L 653,572 L 653,571 L 654,570 L 656,569 L 657,568 L 657,567 L 658,566 L 657,566 L 656,566 L 656,567 L 656,568 L 655,569 L 654,569 L 653,569 L 652,569 L 652,568 L 652,567 L 652,566 L 653,565 L 656,563 L 658,561 L 659,560 L 660,561 " />
<path d="M 690,556 L 691,556 L 693,557 L 694,558 L 694,560 L 694,561 L 693,562 L 693,563 L 689,564 L 685,563 L 681,564 L 675,565 L 671,568 L 670,571 L 669,571 L 668,571 L 667,571 L 665,571 L 664,570 L 664,569 L 664,568 L 664,566 L 665,565 L 667,564 L 669,563 L 670,563 L 670,564 L 671,564 L 670,563 L 669,563 L 669,562 L 669,561 L 670,560 L 673,558 L 676,558 L 679,558 L 685,559 L 686,558 L 687,557 L 689,556 L 690,556 " />
<path d="M 724,522 L 723,522 L 722,522 L 722,523 L 721,523 L 721,524 L 721,525 L 721,526 L 720,527 L 719,528 L 719,530 L 720,530 L 721,531 L 722,532 L 723,532 L 724,532 L 725,532 L 725,533 L 725,534 L 724,534 L 724,535 L 723,536 L 723,537 L 724,538 L 725,538 L 726,538 L 727,538 L 728,539 L 728,540 L 727,541 L 726,541 L 726,542 L 726,543 L 726,544 L 726,545 L 725,546 L 724,548 L 724,550 L 724,551 L 725,552 L 727,552 L 728,553 L 729,552 L 730,552 L 731,553 L 731,554 L 730,556 L 729,557 L 726,558 L 724,561 L 724,565 L 724,566 L 725,567 L 726,568 L 727,569 L 728,570 L 729,570 L 730,570 L 731,569 L 732,568 L 734,567 L 736,568 L 737,568 L 738,569 L 740,571 L 740,574 L 740,576 L 740,577 L 741,578 L 743,579 L 744,579 L 745,579 L 746,580 L 746,581 L 747,581 L 748,582 L 748,583 L 747,584 L 747,585 L 746,585 L 746,586 L 747,587 L 747,588 L 749,588 L 749,589 L 749,590 L 748,591 L 747,592 L 745,592 L 744,592 L 742,593 L 742,594 L 741,594 L 741,595 L 741,596 L 742,596 L 741,597 L 740,597 L 737,596 L 735,596 L 734,597 L 733,597 L 733,598 L 732,599 L 733,600 L 733,601 L 733,603 L 732,604 L 731,605 L 731,606 L 731,607 L 732,608 L 733,609 L 733,610 L 733,611 L 732,611 L 732,612 L 732,613 L 733,614 L 734,616 L 734,617 L 734,618 L 735,619 L 736,620 L 736,621 L 736,622 L 736,623 L 735,625 L 734,626 L 729,633 L 726,635 L 725,636 L 725,637 L 725,638 L 726,638 L 726,639 L 727,639 L 728,639 L 729,639 L 730,640 L 730,642 L 731,642 L 733,644 L 735,646 L 737,648 L 738,649 L 739,650 L 739,651 L 739,653 L 739,654 L 739,655 L 740,655 L 740,656 L 742,658 L 743,660 L 745,662 L 747,662 L 748,662 L 748,663 L 748,664 L 749,665 L 750,665 L 751,665 L 753,667 L 753,668 L 753,669 L 753,671 L 752,672 L 752,673 L 754,678 L 760,684 L 761,686 L 762,687 L 762,688 L 761,688 L 761,689 L 760,689 L 758,689 L 756,690 L 755,691 L 755,692 L 755,693 L 755,694 L 756,694 L 756,695 L 757,695 L 757,696 L 755,699 L 753,704 L 752,704 L 751,703 L 750,703 L 748,702 L 746,701 L 745,701 L 745,702 L 744,702 L 744,703 L 744,704 L 745,705 L 745,707 L 744,708 L 743,709 L 742,710 L 740,709 L 739,709 L 739,708 L 737,707 L 736,707 L 735,707 L 734,709 L 734,711 L 734,712 L 734,713 L 734,714 L 734,716 L 732,717 L 731,718 L 730,719 L 729,720 L 729,722 L 730,726 L 728,730 L 725,734 L 724,735 L 723,735 L 719,734 L 713,731 L 712,730 L 711,727 L 711,725 L 711,724 L 710,721 L 708,718 L 708,717 L 707,713 L 707,710 L 708,711 L 709,713 L 709,714 L 709,715 L 709,716 L 710,717 L 710,716 L 710,715 L 710,714 L 711,714 L 711,713 L 711,712 L 710,712 L 710,711 L 710,710 L 711,710 L 712,709 L 713,709 L 715,709 L 716,708 L 717,708 L 717,707 L 719,704 L 719,702 L 718,701 L 718,700 L 718,699 L 719,698 L 720,697 L 721,697 L 722,697 L 723,698 L 725,698 L 727,698 L 728,698 L 731,698 L 732,697 L 732,696 L 731,696 L 731,697 L 730,697 L 729,697 L 727,697 L 725,697 L 723,696 L 722,695 L 720,696 L 719,696 L 718,697 L 714,698 L 713,698 L 712,698 L 711,697 L 711,696 L 711,694 L 712,692 L 712,690 L 712,689 L 711,689 L 711,690 L 711,691 L 711,692 L 711,693 L 710,693 L 709,694 L 708,694 L 707,694 L 706,694 L 706,693 L 707,692 L 709,690 L 710,688 L 710,687 L 711,687 L 712,686 L 713,686 L 715,686 L 717,685 L 719,684 L 721,680 L 722,679 L 723,678 L 724,677 L 724,676 L 723,676 L 723,675 L 723,674 L 724,673 L 725,672 L 727,671 L 728,670 L 729,669 L 729,668 L 728,668 L 727,669 L 726,670 L 725,671 L 723,671 L 722,671 L 721,671 L 721,672 L 721,673 L 721,674 L 721,677 L 720,680 L 718,682 L 715,684 L 712,685 L 711,685 L 710,685 L 709,685 L 709,686 L 708,686 L 708,687 L 708,688 L 707,688 L 706,688 L 705,688 L 704,687 L 704,685 L 704,684 L 704,683 L 704,682 L 703,682 L 703,683 L 702,683 L 702,682 L 702,681 L 702,680 L 702,679 L 703,678 L 702,678 L 701,681 L 700,681 L 699,682 L 698,682 L 696,681 L 695,680 L 694,680 L 694,679 L 694,678 L 695,678 L 696,677 L 697,676 L 700,672 L 700,671 L 705,669 L 704,669 L 702,669 L 701,669 L 699,671 L 697,674 L 692,679 L 691,679 L 690,679 L 689,679 L 689,678 L 689,677 L 689,676 L 688,675 L 688,674 L 689,673 L 690,673 L 691,673 L 690,673 L 689,672 L 685,673 L 682,672 L 679,669 L 680,669 L 681,669 L 682,669 L 683,669 L 683,668 L 682,668 L 681,668 L 680,668 L 679,669 L 677,668 L 676,668 L 675,667 L 675,666 L 675,665 L 675,664 L 676,664 L 677,664 L 680,664 L 683,664 L 686,665 L 687,665 L 687,664 L 686,664 L 685,664 L 684,663 L 681,663 L 680,663 L 678,663 L 676,662 L 676,661 L 677,661 L 678,660 L 679,660 L 680,660 L 682,660 L 683,661 L 686,662 L 690,664 L 694,665 L 696,665 L 699,664 L 700,663 L 701,661 L 701,660 L 702,659 L 702,658 L 704,659 L 706,659 L 707,658 L 708,657 L 709,655 L 709,654 L 709,653 L 710,650 L 709,648 L 709,647 L 708,647 L 708,650 L 708,652 L 707,654 L 707,656 L 705,656 L 703,657 L 702,657 L 701,658 L 700,659 L 700,660 L 699,661 L 699,662 L 696,663 L 694,664 L 691,663 L 689,662 L 686,661 L 683,660 L 682,659 L 681,658 L 681,657 L 682,657 L 683,656 L 684,656 L 686,656 L 687,656 L 688,656 L 689,656 L 689,655 L 688,655 L 686,655 L 685,655 L 684,654 L 684,653 L 683,652 L 683,650 L 683,649 L 681,647 L 679,647 L 678,647 L 676,647 L 675,647 L 674,646 L 674,645 L 674,644 L 675,643 L 675,642 L 676,642 L 677,642 L 678,642 L 679,643 L 680,644 L 681,644 L 682,645 L 683,645 L 684,646 L 685,646 L 685,647 L 686,647 L 686,646 L 685,645 L 684,644 L 681,642 L 680,642 L 679,641 L 679,640 L 679,638 L 680,637 L 680,636 L 679,636 L 678,636 L 678,637 L 678,638 L 678,639 L 677,640 L 676,641 L 675,641 L 673,641 L 672,641 L 670,641 L 669,640 L 668,638 L 668,637 L 667,637 L 668,637 L 669,637 L 670,637 L 671,638 L 672,638 L 673,638 L 673,639 L 673,638 L 672,638 L 671,637 L 670,636 L 669,636 L 669,635 L 668,634 L 667,634 L 666,634 L 666,635 L 665,635 L 664,636 L 663,635 L 662,635 L 661,633 L 659,631 L 657,630 L 657,631 L 658,631 L 660,634 L 661,634 L 664,636 L 664,637 L 663,637 L 662,638 L 660,638 L 659,637 L 658,636 L 657,635 L 656,634 L 654,630 L 652,628 L 650,626 L 650,623 L 649,623 L 649,622 L 649,621 L 649,620 L 651,617 L 652,617 L 653,618 L 653,619 L 655,622 L 655,623 L 656,624 L 656,623 L 657,623 L 658,623 L 659,624 L 662,625 L 665,626 L 670,629 L 673,629 L 676,629 L 679,628 L 680,627 L 680,626 L 679,626 L 678,627 L 677,628 L 675,628 L 674,628 L 669,628 L 666,625 L 663,625 L 660,624 L 659,623 L 655,621 L 654,620 L 654,619 L 653,618 L 654,618 L 655,618 L 655,619 L 657,620 L 659,621 L 660,621 L 660,622 L 660,621 L 659,621 L 657,619 L 655,618 L 651,616 L 650,616 L 648,615 L 648,614 L 647,613 L 647,612 L 647,611 L 646,610 L 646,609 L 645,608 L 646,607 L 647,606 L 648,605 L 649,605 L 651,605 L 652,605 L 655,608 L 661,610 L 664,611 L 666,612 L 667,612 L 668,612 L 668,611 L 669,611 L 669,610 L 668,610 L 667,610 L 666,610 L 666,611 L 665,610 L 664,610 L 663,610 L 662,609 L 660,608 L 659,607 L 659,606 L 659,605 L 660,605 L 661,604 L 662,604 L 663,604 L 664,604 L 663,604 L 662,604 L 659,604 L 657,604 L 654,603 L 652,602 L 651,602 L 651,601 L 651,600 L 652,599 L 653,599 L 654,598 L 655,599 L 656,599 L 658,598 L 659,598 L 660,598 L 661,599 L 661,600 L 662,601 L 663,601 L 664,602 L 664,603 L 665,603 L 665,602 L 664,601 L 663,601 L 662,600 L 661,600 L 661,599 L 661,598 L 662,597 L 663,595 L 665,593 L 665,592 L 666,591 L 666,592 L 667,592 L 668,592 L 669,592 L 671,592 L 673,593 L 674,593 L 674,592 L 673,591 L 672,590 L 671,590 L 670,590 L 669,590 L 669,589 L 670,588 L 670,587 L 676,584 L 676,583 L 675,584 L 674,585 L 673,585 L 672,585 L 671,586 L 670,587 L 669,589 L 668,590 L 666,590 L 665,590 L 664,591 L 663,592 L 661,593 L 659,593 L 658,593 L 657,593 L 656,592 L 656,590 L 656,589 L 656,588 L 657,588 L 657,587 L 658,587 L 659,586 L 659,585 L 658,584 L 657,584 L 656,584 L 656,583 L 656,582 L 660,575 L 661,573 L 663,572 L 665,571 L 667,572 L 668,572 L 669,572 L 670,572 L 671,571 L 673,569 L 674,568 L 675,567 L 677,566 L 679,566 L 680,566 L 680,567 L 681,567 L 680,568 L 680,569 L 679,569 L 678,568 L 677,568 L 677,567 L 676,567 L 676,568 L 675,569 L 674,569 L 674,570 L 675,569 L 676,569 L 677,568 L 677,569 L 678,570 L 679,570 L 680,570 L 681,569 L 682,568 L 682,567 L 683,566 L 683,565 L 684,565 L 685,565 L 688,566 L 690,565 L 692,565 L 694,564 L 696,565 L 698,567 L 699,568 L 699,570 L 698,572 L 698,573 L 698,574 L 699,577 L 700,581 L 700,585 L 700,586 L 699,587 L 699,588 L 700,588 L 700,587 L 701,586 L 701,584 L 700,578 L 700,577 L 699,574 L 699,573 L 700,570 L 700,569 L 700,568 L 701,567 L 702,567 L 704,566 L 705,567 L 706,567 L 707,567 L 707,566 L 706,566 L 705,566 L 705,565 L 699,565 L 697,564 L 696,563 L 695,562 L 695,561 L 695,557 L 697,554 L 700,552 L 704,551 L 707,551 L 709,550 L 711,549 L 712,548 L 712,547 L 712,546 L 713,543 L 713,541 L 712,538 L 711,538 L 711,539 L 712,542 L 712,543 L 711,546 L 709,548 L 706,550 L 700,551 L 698,552 L 697,552 L 695,554 L 694,556 L 692,556 L 691,556 L 690,555 L 689,554 L 688,545 L 689,544 L 689,543 L 688,543 L 688,544 L 688,545 L 689,550 L 689,553 L 687,555 L 685,557 L 681,558 L 677,557 L 676,557 L 676,556 L 677,555 L 678,554 L 679,554 L 679,553 L 678,553 L 675,556 L 674,556 L 672,557 L 671,558 L 670,558 L 670,557 L 671,555 L 671,553 L 672,552 L 672,551 L 673,551 L 674,550 L 675,550 L 676,549 L 676,548 L 676,547 L 676,546 L 676,545 L 677,545 L 678,544 L 679,544 L 679,545 L 679,546 L 680,546 L 680,545 L 680,544 L 679,544 L 678,544 L 676,544 L 676,545 L 675,545 L 675,546 L 675,547 L 675,549 L 674,549 L 674,550 L 673,550 L 672,550 L 671,550 L 671,549 L 671,547 L 672,546 L 673,545 L 674,544 L 675,544 L 675,543 L 674,543 L 674,544 L 670,550 L 669,550 L 669,549 L 669,548 L 670,544 L 671,543 L 672,543 L 673,543 L 673,542 L 674,542 L 674,541 L 674,540 L 673,539 L 673,538 L 673,537 L 674,536 L 675,536 L 676,535 L 677,535 L 676,535 L 675,535 L 674,535 L 674,536 L 672,539 L 671,540 L 663,546 L 660,548 L 659,547 L 659,546 L 660,544 L 660,543 L 662,542 L 666,541 L 668,539 L 671,535 L 675,532 L 677,531 L 679,531 L 680,532 L 681,532 L 682,533 L 683,535 L 684,536 L 686,536 L 687,536 L 688,535 L 690,534 L 690,533 L 691,533 L 692,533 L 693,534 L 693,535 L 693,536 L 693,538 L 693,539 L 694,540 L 695,541 L 696,541 L 698,540 L 699,540 L 701,538 L 702,538 L 703,538 L 704,538 L 705,539 L 706,539 L 706,538 L 706,536 L 707,533 L 709,531 L 710,531 L 710,530 L 710,528 L 710,527 L 710,526 L 709,526 L 709,524 L 708,524 L 707,523 L 707,522 L 707,521 L 707,520 L 708,520 L 709,519 L 710,519 L 712,519 L 713,518 L 715,517 L 716,517 L 717,517 L 719,518 L 720,519 L 720,521 L 723,519 L 724,519 L 725,519 L 725,520 L 725,521 L 724,521 L 724,522 " />
</g>
<g id="bc-generalized_4" label="Thompson--Okanagan">
<path d="M 972,687 L 973,685 L 974,684 L 975,684 L 976,684 L 976,685 L 977,686 L 977,687 L 978,688 L 979,689 L 980,689 L 981,690 L 981,691 L 982,692 L 981,693 L 981,694 L 980,694 L 979,695 L 978,695 L 977,697 L 976,699 L 977,701 L 979,704 L 982,706 L 988,709 L 989,709 L 989,708 L 990,708 L 991,708 L 990,709 L 989,712 L 990,716 L 991,719 L 994,724 L 994,729 L 994,734 L 994,735 L 994,736 L 995,736 L 995,737 L 996,737 L 997,737 L 998,736 L 999,735 L 1000,734 L 1001,734 L 1002,734 L 1003,734 L 1004,734 L 1004,735 L 1004,736 L 1004,737 L 1004,740 L 1004,742 L 1005,744 L 1006,745 L 1007,750 L 1007,752 L 1008,754 L 1009,755 L 1009,756 L 1010,756 L 1010,757 L 1009,758 L 1009,760 L 1008,762 L 1007,765 L 1007,766 L 1007,767 L 1007,768 L 1006,768 L 1006,769 L 1005,769 L 1004,769 L 1004,770 L 1004,771 L 1005,772 L 1005,773 L 1005,774 L 1002,775 L 1001,775 L 1000,776 L 999,777 L 999,778 L 999,779 L 999,780 L 1000,781 L 1000,782 L 999,782 L 998,781 L 997,781 L 989,780 L 986,781 L 985,781 L 985,782 L 984,784 L 983,785 L 982,785 L 980,786 L 979,785 L 976,784 L 975,782 L 974,780 L 974,777 L 975,775 L 976,774 L 976,773 L 976,772 L 975,772 L 974,771 L 973,771 L 973,770 L 974,770 L 974,769 L 974,768 L 974,767 L 973,766 L 971,765 L 970,765 L 967,766 L 961,772 L 961,774 L 960,777 L 961,779 L 961,780 L 961,781 L 962,782 L 963,782 L 964,782 L 964,781 L 965,781 L 965,782 L 965,783 L 964,784 L 964,785 L 964,786 L 964,787 L 964,788 L 963,789 L 962,789 L 961,789 L 961,790 L 961,791 L 962,792 L 961,793 L 961,794 L 960,794 L 959,794 L 958,794 L 955,793 L 953,792 L 951,791 L 950,788 L 948,787 L 946,786 L 945,785 L 941,785 L 940,785 L 939,784 L 938,784 L 938,783 L 938,782 L 938,781 L 939,779 L 939,776 L 938,776 L 937,775 L 936,774 L 935,774 L 934,774 L 933,774 L 933,775 L 933,776 L 932,779 L 931,782 L 930,783 L 929,784 L 928,785 L 926,786 L 925,787 L 924,789 L 924,790 L 924,792 L 923,793 L 923,794 L 923,798 L 921,800 L 920,801 L 919,801 L 918,802 L 916,802 L 915,803 L 914,804 L 913,805 L 912,806 L 911,808 L 911,809 L 912,811 L 912,812 L 912,813 L 911,814 L 911,815 L 912,815 L 912,816 L 913,816 L 911,816 L 908,814 L 907,814 L 906,814 L 902,812 L 900,811 L 898,811 L 897,811 L 895,810 L 895,809 L 889,807 L 888,807 L 881,808 L 878,808 L 876,809 L 875,811 L 874,813 L 874,815 L 874,819 L 873,821 L 872,824 L 872,825 L 872,827 L 873,828 L 873,829 L 873,830 L 873,831 L 872,831 L 871,832 L 871,834 L 871,835 L 871,836 L 870,837 L 869,838 L 868,838 L 865,841 L 864,843 L 864,844 L 863,844 L 863,845 L 862,845 L 861,845 L 860,844 L 855,842 L 853,841 L 850,840 L 849,839 L 844,837 L 843,837 L 841,836 L 832,832 L 828,830 L 827,830 L 824,829 L 823,828 L 818,826 L 815,825 L 814,825 L 813,824 L 813,823 L 812,821 L 812,820 L 812,819 L 811,819 L 810,818 L 810,817 L 811,817 L 812,817 L 813,817 L 814,817 L 814,816 L 814,815 L 814,814 L 814,813 L 815,813 L 816,813 L 817,812 L 818,811 L 819,810 L 819,809 L 818,809 L 818,808 L 817,808 L 816,807 L 815,808 L 813,807 L 812,806 L 811,805 L 811,803 L 811,802 L 813,798 L 815,796 L 818,793 L 820,791 L 821,790 L 822,789 L 822,788 L 821,788 L 820,788 L 819,789 L 818,789 L 816,788 L 815,788 L 815,787 L 816,787 L 816,786 L 817,784 L 817,782 L 817,781 L 816,780 L 817,780 L 817,779 L 818,778 L 819,778 L 820,778 L 821,777 L 821,776 L 820,774 L 819,773 L 818,774 L 817,773 L 816,773 L 816,772 L 817,771 L 818,770 L 819,768 L 819,766 L 819,765 L 819,764 L 818,763 L 817,763 L 813,761 L 810,760 L 807,756 L 806,756 L 805,755 L 801,755 L 799,754 L 798,753 L 797,751 L 795,749 L 793,748 L 792,748 L 791,747 L 790,746 L 790,745 L 791,742 L 793,740 L 795,738 L 797,737 L 799,737 L 800,735 L 801,734 L 802,734 L 803,734 L 804,734 L 804,735 L 805,735 L 807,737 L 808,737 L 809,737 L 810,737 L 811,736 L 812,735 L 814,733 L 815,733 L 816,732 L 817,731 L 817,730 L 818,729 L 820,724 L 821,722 L 824,720 L 826,718 L 828,717 L 829,716 L 829,715 L 829,713 L 829,712 L 828,711 L 827,710 L 825,709 L 824,709 L 823,709 L 820,708 L 819,708 L 819,707 L 818,707 L 815,706 L 811,701 L 810,700 L 810,698 L 809,697 L 809,696 L 808,695 L 807,695 L 807,694 L 807,693 L 807,691 L 807,689 L 807,688 L 806,686 L 805,685 L 804,684 L 804,683 L 804,682 L 805,682 L 807,680 L 808,678 L 810,677 L 812,676 L 818,675 L 820,676 L 824,678 L 831,681 L 832,682 L 833,682 L 834,682 L 834,681 L 835,681 L 835,680 L 836,681 L 837,681 L 838,681 L 841,683 L 843,684 L 844,685 L 845,687 L 845,688 L 845,689 L 844,689 L 844,690 L 844,691 L 845,692 L 846,693 L 846,694 L 846,695 L 846,696 L 847,697 L 848,698 L 849,698 L 851,698 L 852,697 L 853,697 L 854,697 L 855,697 L 856,697 L 858,698 L 862,699 L 863,700 L 865,701 L 866,702 L 867,702 L 873,704 L 873,705 L 874,704 L 874,703 L 877,696 L 878,695 L 879,693 L 880,692 L 881,692 L 882,692 L 883,693 L 885,693 L 887,692 L 888,690 L 889,690 L 889,689 L 890,688 L 893,686 L 894,684 L 894,682 L 894,680 L 894,678 L 895,675 L 896,673 L 894,670 L 894,663 L 894,661 L 894,660 L 894,659 L 895,658 L 896,658 L 897,657 L 897,656 L 897,654 L 896,654 L 896,653 L 897,653 L 898,652 L 902,652 L 904,652 L 909,649 L 910,637 L 912,636 L 915,637 L 917,638 L 918,640 L 918,642 L 918,646 L 919,647 L 923,652 L 923,653 L 924,653 L 925,653 L 926,653 L 927,653 L 929,654 L 930,656 L 931,657 L 941,662 L 944,663 L 946,666 L 947,669 L 947,671 L 947,673 L 946,674 L 944,677 L 944,678 L 944,679 L 944,680 L 945,681 L 946,681 L 946,682 L 947,682 L 947,683 L 946,683 L 946,684 L 944,684 L 943,684 L 943,685 L 943,686 L 943,687 L 943,688 L 944,689 L 945,690 L 946,691 L 947,692 L 949,692 L 951,691 L 952,690 L 954,688 L 956,687 L 958,687 L 972,687 " />
</g>
<g id="bc-generalized_5" label="Nechako">
<path d="M 881,193 L 881,194 L 881,195 L 880,196 L 880,198 L 880,199 L 880,200 L 879,201 L 878,201 L 876,201 L 875,202 L 874,204 L 872,207 L 872,209 L 873,212 L 874,214 L 875,220 L 875,225 L 874,237 L 873,238 L 873,239 L 873,240 L 873,241 L 873,242 L 874,242 L 874,243 L 876,243 L 876,244 L 877,245 L 873,252 L 871,255 L 868,256 L 868,257 L 870,262 L 870,265 L 870,266 L 867,267 L 866,267 L 866,268 L 867,269 L 868,269 L 869,268 L 870,268 L 870,269 L 871,269 L 871,270 L 872,271 L 872,274 L 872,275 L 873,275 L 874,276 L 875,276 L 877,276 L 878,277 L 879,277 L 880,277 L 880,278 L 880,279 L 879,280 L 879,281 L 880,284 L 881,287 L 882,291 L 883,292 L 884,292 L 885,292 L 886,293 L 886,294 L 886,295 L 886,297 L 886,298 L 887,300 L 889,301 L 893,302 L 895,303 L 897,306 L 898,308 L 900,310 L 902,311 L 905,314 L 906,316 L 905,318 L 904,320 L 901,322 L 900,323 L 899,324 L 899,325 L 898,325 L 897,324 L 896,323 L 896,322 L 895,321 L 894,320 L 893,320 L 890,320 L 887,319 L 886,319 L 883,320 L 882,320 L 881,320 L 880,319 L 879,320 L 878,320 L 877,321 L 876,321 L 875,321 L 875,320 L 876,318 L 876,316 L 876,315 L 876,314 L 875,313 L 874,313 L 872,312 L 871,312 L 870,312 L 870,313 L 869,313 L 868,313 L 867,313 L 867,312 L 866,311 L 865,311 L 862,314 L 861,314 L 861,313 L 861,312 L 861,309 L 859,307 L 857,305 L 856,304 L 856,303 L 855,301 L 854,300 L 853,299 L 851,299 L 849,298 L 848,299 L 847,299 L 847,300 L 846,301 L 847,304 L 846,306 L 846,307 L 846,308 L 846,309 L 845,309 L 845,308 L 844,308 L 843,307 L 842,308 L 842,309 L 841,311 L 842,312 L 842,313 L 843,314 L 843,315 L 842,315 L 842,316 L 841,317 L 841,318 L 842,320 L 841,320 L 838,320 L 835,319 L 833,319 L 832,318 L 832,317 L 832,316 L 832,315 L 832,314 L 832,313 L 831,312 L 830,312 L 828,313 L 827,313 L 827,314 L 827,316 L 826,318 L 825,318 L 824,319 L 823,319 L 822,320 L 818,322 L 817,322 L 817,323 L 816,323 L 815,326 L 815,328 L 814,328 L 812,329 L 811,329 L 810,329 L 809,328 L 808,328 L 807,328 L 806,328 L 805,329 L 804,331 L 803,332 L 803,333 L 803,334 L 803,335 L 803,336 L 806,337 L 806,338 L 806,339 L 805,340 L 804,340 L 803,341 L 802,342 L 802,343 L 801,350 L 802,352 L 802,353 L 802,354 L 803,354 L 806,353 L 807,353 L 808,353 L 809,354 L 809,355 L 809,356 L 808,357 L 808,359 L 808,360 L 808,361 L 809,361 L 810,362 L 812,362 L 813,361 L 814,361 L 815,361 L 816,361 L 817,362 L 818,362 L 820,361 L 821,360 L 822,360 L 823,359 L 824,359 L 824,360 L 825,363 L 826,367 L 827,368 L 828,368 L 830,369 L 831,370 L 832,372 L 833,373 L 833,374 L 833,375 L 832,377 L 831,379 L 829,380 L 829,381 L 830,384 L 830,385 L 829,386 L 828,386 L 826,386 L 826,387 L 825,387 L 825,388 L 826,389 L 826,391 L 826,392 L 828,394 L 828,395 L 828,396 L 827,397 L 827,398 L 827,399 L 827,400 L 828,400 L 829,401 L 834,400 L 835,400 L 836,400 L 837,400 L 837,401 L 836,402 L 835,403 L 835,404 L 836,404 L 837,404 L 838,404 L 840,403 L 842,402 L 844,402 L 845,403 L 846,403 L 846,404 L 847,404 L 848,404 L 849,404 L 850,404 L 851,403 L 852,403 L 853,404 L 853,405 L 853,407 L 853,408 L 853,409 L 853,410 L 854,410 L 856,409 L 857,409 L 858,410 L 859,411 L 860,417 L 860,418 L 861,419 L 866,420 L 866,421 L 864,423 L 864,424 L 863,434 L 863,436 L 862,437 L 861,439 L 860,441 L 860,444 L 861,445 L 862,446 L 863,448 L 864,450 L 863,452 L 863,453 L 863,454 L 863,455 L 864,455 L 865,455 L 866,456 L 867,456 L 867,457 L 867,458 L 867,459 L 865,462 L 864,467 L 865,469 L 866,470 L 867,471 L 868,472 L 870,472 L 871,472 L 872,473 L 873,473 L 874,473 L 874,475 L 873,480 L 870,488 L 869,488 L 868,488 L 867,488 L 866,488 L 865,488 L 865,489 L 864,490 L 862,490 L 861,490 L 860,490 L 859,488 L 858,487 L 858,485 L 858,484 L 857,483 L 856,482 L 855,481 L 853,481 L 852,482 L 850,483 L 849,485 L 849,486 L 849,487 L 849,488 L 850,489 L 851,490 L 851,491 L 850,493 L 849,493 L 848,494 L 848,495 L 849,496 L 849,498 L 850,501 L 850,502 L 849,504 L 846,507 L 843,508 L 842,508 L 841,509 L 840,509 L 839,511 L 839,512 L 840,515 L 842,517 L 843,518 L 846,520 L 848,521 L 848,522 L 848,523 L 848,525 L 847,526 L 847,528 L 846,529 L 845,530 L 844,531 L 844,532 L 844,533 L 845,533 L 845,534 L 844,534 L 843,534 L 842,533 L 841,533 L 841,534 L 841,535 L 841,536 L 842,537 L 843,539 L 844,540 L 843,543 L 842,544 L 840,548 L 839,548 L 838,548 L 837,548 L 836,549 L 836,550 L 836,551 L 837,554 L 838,555 L 839,557 L 839,559 L 839,560 L 838,561 L 838,562 L 837,563 L 837,564 L 837,565 L 836,566 L 835,566 L 834,565 L 831,563 L 826,561 L 824,560 L 822,559 L 822,558 L 821,558 L 818,557 L 815,557 L 812,557 L 811,557 L 810,557 L 809,557 L 809,556 L 808,555 L 807,553 L 807,551 L 805,549 L 804,548 L 802,548 L 801,549 L 800,550 L 800,551 L 799,551 L 798,552 L 797,552 L 796,551 L 794,551 L 793,551 L 792,551 L 791,551 L 790,550 L 789,548 L 789,547 L 789,546 L 788,545 L 788,544 L 787,544 L 786,544 L 785,545 L 784,545 L 784,546 L 782,551 L 780,554 L 777,561 L 775,563 L 775,564 L 774,564 L 773,564 L 772,563 L 769,562 L 767,560 L 763,558 L 762,558 L 761,557 L 754,554 L 753,553 L 750,551 L 748,551 L 746,549 L 743,548 L 741,547 L 738,546 L 737,545 L 733,543 L 731,542 L 730,541 L 729,540 L 727,540 L 725,539 L 724,537 L 724,536 L 724,534 L 725,534 L 725,533 L 725,532 L 724,532 L 723,532 L 722,532 L 721,531 L 720,530 L 719,530 L 719,528 L 720,527 L 721,526 L 721,525 L 721,524 L 721,523 L 722,523 L 722,522 L 723,522 L 724,522 L 724,521 L 725,521 L 725,520 L 725,519 L 724,519 L 723,519 L 720,521 L 720,520 L 720,519 L 719,518 L 718,518 L 717,518 L 717,517 L 717,516 L 717,515 L 717,512 L 717,509 L 717,506 L 718,506 L 718,505 L 717,504 L 716,504 L 715,503 L 714,503 L 714,502 L 714,501 L 715,500 L 715,499 L 714,499 L 714,498 L 713,498 L 712,497 L 711,497 L 711,496 L 711,495 L 711,494 L 712,493 L 712,482 L 712,480 L 712,478 L 712,476 L 713,474 L 714,473 L 715,472 L 716,471 L 719,471 L 721,470 L 722,470 L 722,469 L 723,469 L 724,469 L 725,469 L 726,469 L 727,468 L 727,467 L 727,466 L 728,465 L 729,465 L 730,465 L 731,464 L 732,463 L 734,462 L 736,461 L 737,461 L 738,460 L 739,458 L 739,457 L 739,456 L 738,455 L 737,454 L 736,454 L 735,454 L 734,453 L 734,452 L 734,451 L 735,450 L 736,449 L 737,449 L 738,449 L 739,449 L 739,448 L 739,447 L 738,447 L 738,446 L 737,445 L 738,443 L 739,442 L 741,439 L 744,433 L 744,431 L 745,429 L 747,428 L 748,428 L 750,428 L 752,429 L 757,432 L 767,438 L 769,439 L 770,439 L 771,439 L 772,439 L 773,438 L 775,438 L 776,438 L 777,439 L 778,439 L 779,440 L 780,440 L 781,440 L 781,439 L 781,438 L 781,437 L 781,436 L 781,433 L 780,429 L 778,427 L 778,426 L 779,426 L 780,426 L 781,426 L 782,425 L 782,424 L 782,423 L 782,422 L 779,421 L 777,418 L 777,415 L 776,412 L 774,410 L 771,409 L 770,407 L 769,404 L 769,398 L 769,397 L 769,396 L 768,395 L 767,394 L 766,394 L 764,392 L 763,389 L 762,388 L 760,388 L 759,388 L 758,388 L 757,387 L 757,386 L 756,385 L 757,384 L 759,382 L 760,381 L 761,380 L 762,379 L 762,378 L 761,377 L 761,376 L 760,376 L 759,375 L 757,375 L 756,375 L 755,373 L 755,372 L 755,371 L 756,371 L 757,371 L 758,370 L 759,370 L 759,369 L 759,368 L 758,367 L 758,365 L 757,365 L 758,365 L 759,364 L 759,365 L 760,365 L 761,366 L 762,366 L 763,367 L 764,367 L 765,366 L 767,364 L 767,362 L 769,361 L 770,360 L 772,360 L 773,360 L 774,360 L 775,360 L 775,359 L 775,358 L 773,356 L 772,355 L 772,354 L 773,353 L 774,353 L 775,353 L 776,354 L 777,355 L 777,356 L 778,356 L 780,357 L 781,357 L 782,356 L 782,355 L 783,354 L 783,353 L 784,352 L 785,353 L 786,353 L 787,353 L 788,352 L 787,351 L 787,348 L 784,345 L 782,344 L 784,341 L 784,340 L 783,339 L 781,337 L 780,336 L 779,335 L 777,328 L 776,326 L 776,324 L 778,322 L 778,318 L 777,313 L 777,311 L 776,310 L 775,308 L 775,306 L 776,305 L 777,303 L 780,298 L 785,290 L 787,286 L 793,277 L 794,275 L 795,272 L 798,269 L 819,235 L 826,223 L 823,221 L 819,219 L 816,217 L 813,215 L 811,214 L 808,212 L 807,212 L 806,211 L 802,208 L 796,205 L 792,202 L 785,198 L 784,197 L 783,197 L 782,196 L 781,195 L 780,194 L 779,194 L 778,194 L 777,195 L 776,196 L 773,200 L 767,211 L 751,236 L 750,237 L 749,238 L 748,238 L 747,238 L 746,237 L 743,235 L 741,234 L 737,231 L 731,227 L 729,226 L 725,223 L 719,219 L 714,216 L 713,215 L 710,213 L 707,211 L 703,209 L 701,207 L 700,207 L 700,206 L 700,205 L 700,202 L 701,200 L 702,198 L 702,197 L 702,190 L 702,189 L 702,186 L 702,185 L 702,184 L 703,183 L 704,182 L 705,182 L 705,181 L 705,179 L 705,177 L 704,171 L 703,169 L 704,162 L 702,157 L 701,156 L 698,149 L 699,149 L 702,134 L 700,131 L 700,130 L 699,129 L 700,128 L 700,127 L 700,126 L 700,125 L 700,124 L 699,124 L 699,123 L 698,122 L 697,120 L 696,119 L 696,118 L 696,117 L 698,112 L 703,107 L 703,106 L 703,105 L 703,104 L 703,103 L 702,100 L 703,96 L 701,93 L 701,92 L 701,91 L 701,90 L 701,89 L 700,89 L 699,88 L 699,89 L 691,88 L 686,87 L 685,86 L 680,84 L 679,83 L 678,83 L 677,83 L 677,84 L 676,85 L 676,86 L 676,87 L 676,88 L 672,90 L 671,90 L 671,89 L 670,89 L 670,88 L 669,88 L 668,88 L 667,89 L 667,90 L 666,90 L 664,94 L 661,95 L 660,96 L 657,98 L 656,98 L 656,97 L 655,97 L 651,94 L 650,94 L 648,94 L 647,94 L 645,94 L 642,94 L 641,94 L 639,94 L 635,93 L 633,94 L 631,94 L 630,94 L 629,94 L 628,93 L 628,92 L 629,91 L 630,90 L 637,77 L 636,67 L 635,64 L 634,53 L 634,48 L 634,46 L 633,39 L 633,38 L 633,37 L 633,36 L 634,34 L 635,32 L 635,30 L 634,28 L 634,26 L 633,26 L 632,23 L 632,22 L 633,22 L 634,23 L 635,23 L 636,25 L 638,26 L 639,27 L 641,28 L 643,30 L 645,31 L 648,34 L 648,35 L 649,35 L 653,38 L 654,39 L 655,40 L 658,42 L 659,43 L 664,47 L 665,48 L 669,51 L 670,51 L 674,55 L 675,55 L 676,56 L 680,60 L 685,63 L 685,64 L 687,64 L 690,68 L 691,68 L 695,71 L 696,72 L 697,72 L 698,73 L 701,76 L 702,76 L 705,78 L 707,80 L 712,84 L 714,85 L 718,88 L 720,89 L 723,92 L 728,95 L 729,96 L 731,97 L 731,98 L 734,99 L 735,100 L 737,102 L 740,103 L 741,105 L 744,107 L 745,107 L 747,108 L 751,111 L 753,113 L 756,115 L 761,118 L 761,119 L 762,119 L 767,122 L 772,125 L 773,126 L 775,127 L 778,130 L 779,130 L 783,133 L 784,134 L 786,135 L 789,137 L 790,137 L 793,140 L 795,141 L 797,142 L 801,145 L 807,148 L 808,149 L 812,152 L 813,152 L 817,155 L 818,155 L 822,158 L 824,159 L 829,162 L 830,163 L 835,166 L 840,169 L 841,169 L 846,173 L 847,173 L 852,176 L 858,179 L 858,180 L 859,180 L 861,182 L 864,183 L 865,184 L 866,184 L 870,186 L 873,188 L 875,189 L 876,190 L 879,192 L 881,193 " />
</g>
<g id="bc-generalized_6" label="North_Coast___C_te-nord">
<path d="M 647,505 L 648,505 L 648,506 L 649,511 L 651,519 L 651,520 L 651,521 L 647,526 L 647,527 L 646,527 L 646,526 L 645,526 L 645,525 L 645,523 L 645,522 L 644,520 L 644,515 L 645,507 L 646,506 L 647,505 " />
<path d="M 589,442 L 589,443 L 589,444 L 588,446 L 588,448 L 588,449 L 589,450 L 589,451 L 589,452 L 589,453 L 588,453 L 587,453 L 586,453 L 584,452 L 583,449 L 582,449 L 581,448 L 580,448 L 579,448 L 578,449 L 578,450 L 578,451 L 578,452 L 578,453 L 577,454 L 576,455 L 575,455 L 574,455 L 574,456 L 575,456 L 576,456 L 576,457 L 576,458 L 576,459 L 575,460 L 576,461 L 576,462 L 577,463 L 578,463 L 578,464 L 579,464 L 580,464 L 580,465 L 580,464 L 578,464 L 576,463 L 575,464 L 574,464 L 573,465 L 573,466 L 574,468 L 573,470 L 573,472 L 573,476 L 576,480 L 576,483 L 576,485 L 575,488 L 575,493 L 575,494 L 575,496 L 575,497 L 576,497 L 576,496 L 577,495 L 578,495 L 579,495 L 579,496 L 580,497 L 580,498 L 580,499 L 579,499 L 578,499 L 578,500 L 578,501 L 579,501 L 580,502 L 581,502 L 581,503 L 580,503 L 580,504 L 579,504 L 578,504 L 577,504 L 576,504 L 575,504 L 574,504 L 573,503 L 573,502 L 573,501 L 574,501 L 574,500 L 574,499 L 574,498 L 574,497 L 573,497 L 573,498 L 573,501 L 573,502 L 572,502 L 571,502 L 571,501 L 571,499 L 571,497 L 572,495 L 572,494 L 572,495 L 571,496 L 571,497 L 570,497 L 569,496 L 569,495 L 570,493 L 570,492 L 569,487 L 569,486 L 569,485 L 569,484 L 570,484 L 571,484 L 572,485 L 572,484 L 572,483 L 571,482 L 568,476 L 567,466 L 566,462 L 565,460 L 566,459 L 568,459 L 568,460 L 569,460 L 570,460 L 569,459 L 570,459 L 570,460 L 570,461 L 570,462 L 570,463 L 570,462 L 571,462 L 571,460 L 570,457 L 570,456 L 569,456 L 569,457 L 568,458 L 567,458 L 566,458 L 565,457 L 564,454 L 564,452 L 565,452 L 565,451 L 566,452 L 567,452 L 566,451 L 566,450 L 565,450 L 565,449 L 565,448 L 565,447 L 565,446 L 566,446 L 567,446 L 568,447 L 570,447 L 570,448 L 571,448 L 572,448 L 572,447 L 572,446 L 571,446 L 571,445 L 570,444 L 569,443 L 568,442 L 569,442 L 570,442 L 570,441 L 569,441 L 568,441 L 567,441 L 565,440 L 564,439 L 564,437 L 564,436 L 564,435 L 565,435 L 567,437 L 568,437 L 570,437 L 571,437 L 572,437 L 576,439 L 578,440 L 581,441 L 583,440 L 584,440 L 586,440 L 587,441 L 588,441 L 589,442 " />
<path d="M 668,487 L 671,490 L 672,494 L 673,497 L 675,501 L 675,503 L 674,508 L 673,509 L 672,512 L 667,518 L 663,523 L 662,523 L 661,524 L 660,524 L 660,525 L 660,524 L 661,524 L 662,524 L 663,524 L 663,525 L 662,525 L 661,526 L 660,526 L 659,526 L 657,525 L 657,524 L 656,524 L 656,523 L 657,523 L 658,521 L 660,517 L 664,513 L 667,512 L 667,511 L 668,511 L 668,510 L 667,510 L 666,510 L 664,512 L 661,514 L 659,517 L 658,518 L 658,519 L 656,520 L 655,520 L 654,520 L 653,519 L 653,518 L 652,516 L 651,514 L 651,511 L 652,508 L 654,506 L 657,504 L 660,503 L 661,503 L 662,502 L 663,502 L 663,501 L 661,502 L 658,504 L 657,504 L 656,504 L 656,505 L 655,504 L 654,504 L 655,503 L 654,503 L 654,502 L 653,502 L 653,501 L 653,500 L 654,498 L 655,498 L 655,497 L 656,496 L 657,496 L 658,496 L 660,495 L 661,494 L 662,493 L 662,492 L 663,491 L 664,491 L 664,492 L 665,493 L 666,493 L 666,492 L 665,492 L 665,491 L 664,490 L 665,489 L 665,488 L 665,487 L 666,486 L 667,486 L 668,487 " />
<path d="M 637,447 L 638,448 L 640,451 L 642,454 L 642,455 L 643,458 L 645,464 L 646,468 L 645,476 L 645,478 L 645,479 L 644,479 L 643,479 L 642,479 L 640,479 L 638,478 L 637,465 L 635,461 L 634,457 L 634,453 L 633,450 L 633,448 L 634,447 L 635,447 L 635,446 L 636,446 L 636,447 L 637,447 " />
<path d="M 684,471 L 684,472 L 683,472 L 682,472 L 682,473 L 681,473 L 680,474 L 679,476 L 678,476 L 677,476 L 677,475 L 676,475 L 675,475 L 674,475 L 673,476 L 668,479 L 668,480 L 667,480 L 666,480 L 666,479 L 670,473 L 671,470 L 672,469 L 673,469 L 676,469 L 680,469 L 684,471 " />
<path d="M 650,439 L 651,439 L 652,439 L 653,440 L 654,444 L 656,450 L 657,454 L 657,455 L 657,457 L 657,462 L 658,464 L 658,467 L 659,470 L 659,472 L 659,474 L 659,475 L 658,476 L 657,477 L 656,477 L 656,478 L 655,479 L 655,480 L 654,480 L 654,479 L 654,478 L 654,477 L 654,478 L 653,479 L 653,480 L 653,481 L 653,482 L 652,482 L 651,482 L 650,482 L 650,481 L 649,481 L 649,479 L 649,477 L 649,476 L 650,476 L 650,477 L 651,477 L 651,476 L 650,475 L 649,474 L 649,473 L 648,469 L 648,466 L 650,463 L 651,462 L 651,460 L 650,460 L 650,459 L 649,459 L 649,458 L 648,458 L 647,457 L 647,456 L 647,455 L 648,455 L 649,455 L 651,455 L 652,456 L 653,457 L 653,458 L 654,458 L 653,456 L 651,455 L 648,454 L 648,453 L 648,452 L 649,451 L 649,450 L 648,449 L 648,448 L 647,448 L 647,447 L 648,445 L 649,444 L 649,443 L 648,443 L 648,442 L 648,441 L 648,440 L 649,439 L 650,439 " />
<path d="M 647,426 L 649,426 L 651,427 L 653,430 L 653,432 L 653,434 L 652,436 L 651,437 L 648,439 L 647,439 L 646,440 L 645,440 L 644,440 L 644,439 L 643,438 L 643,437 L 643,436 L 644,435 L 646,434 L 648,433 L 649,433 L 650,433 L 651,432 L 650,431 L 650,430 L 650,431 L 650,432 L 649,432 L 648,432 L 647,432 L 646,433 L 646,434 L 645,435 L 644,435 L 643,435 L 643,434 L 642,434 L 642,433 L 643,432 L 642,431 L 642,430 L 641,430 L 639,430 L 638,431 L 638,432 L 639,433 L 639,434 L 639,435 L 638,435 L 638,434 L 637,434 L 637,433 L 637,432 L 638,431 L 638,430 L 639,429 L 642,427 L 645,427 L 647,426 " />
<path d="M 616,408 L 614,409 L 613,410 L 612,411 L 610,412 L 608,413 L 604,415 L 603,416 L 601,419 L 598,421 L 597,422 L 593,428 L 592,431 L 591,432 L 589,434 L 585,437 L 584,438 L 583,438 L 582,437 L 582,436 L 581,436 L 579,435 L 577,435 L 576,435 L 575,436 L 576,436 L 576,437 L 577,437 L 578,437 L 578,438 L 579,438 L 578,438 L 578,439 L 577,439 L 575,439 L 574,438 L 573,437 L 568,435 L 568,434 L 569,434 L 569,433 L 568,433 L 567,433 L 567,432 L 567,431 L 567,429 L 567,428 L 568,427 L 569,427 L 571,427 L 568,427 L 567,426 L 566,426 L 565,425 L 565,424 L 566,424 L 567,424 L 568,425 L 569,424 L 569,423 L 569,422 L 568,422 L 567,422 L 567,421 L 566,421 L 566,420 L 567,420 L 568,420 L 569,420 L 570,421 L 572,423 L 573,425 L 573,426 L 574,427 L 575,427 L 575,426 L 575,423 L 574,421 L 572,418 L 571,417 L 571,415 L 571,414 L 571,413 L 570,413 L 569,412 L 568,411 L 567,410 L 567,409 L 567,408 L 568,407 L 567,406 L 567,405 L 568,404 L 568,405 L 569,405 L 569,406 L 570,406 L 571,407 L 572,407 L 571,407 L 571,406 L 570,406 L 570,405 L 570,404 L 570,403 L 570,402 L 570,401 L 570,400 L 571,400 L 571,401 L 572,401 L 572,400 L 572,399 L 572,398 L 571,396 L 571,395 L 571,394 L 571,393 L 572,392 L 572,390 L 572,389 L 573,388 L 580,383 L 581,379 L 582,378 L 583,378 L 584,378 L 585,378 L 586,379 L 588,384 L 591,384 L 593,386 L 594,387 L 594,388 L 594,390 L 593,391 L 592,391 L 591,392 L 590,392 L 589,392 L 588,393 L 587,394 L 590,394 L 591,394 L 593,392 L 596,392 L 599,392 L 600,392 L 601,393 L 601,394 L 602,394 L 602,396 L 601,397 L 602,400 L 601,402 L 600,405 L 600,406 L 600,407 L 599,408 L 595,409 L 592,409 L 588,408 L 586,409 L 585,409 L 583,408 L 582,407 L 581,407 L 580,407 L 580,408 L 581,408 L 581,409 L 582,410 L 582,411 L 584,411 L 585,412 L 586,412 L 587,412 L 586,412 L 586,413 L 585,413 L 584,413 L 582,413 L 580,415 L 581,415 L 581,414 L 582,414 L 583,414 L 584,415 L 585,415 L 586,415 L 587,414 L 588,414 L 589,413 L 589,414 L 590,414 L 590,415 L 591,415 L 592,415 L 595,412 L 597,410 L 598,409 L 599,409 L 600,408 L 600,406 L 600,405 L 601,403 L 602,402 L 603,401 L 605,401 L 607,403 L 608,403 L 609,403 L 615,404 L 616,404 L 617,404 L 618,404 L 619,405 L 618,406 L 617,407 L 616,408 " />
<path d="M 684,387 L 684,388 L 684,389 L 684,390 L 683,391 L 683,392 L 682,392 L 676,395 L 673,395 L 672,395 L 671,396 L 669,397 L 668,397 L 667,397 L 666,397 L 665,395 L 665,393 L 665,392 L 666,392 L 667,392 L 668,392 L 669,392 L 671,392 L 675,391 L 677,390 L 680,389 L 684,387 " />
<path d="M 826,223 L 819,235 L 798,269 L 795,272 L 794,275 L 793,277 L 787,286 L 785,290 L 780,298 L 777,303 L 776,305 L 775,307 L 775,308 L 776,310 L 777,311 L 777,313 L 778,318 L 778,322 L 776,324 L 776,326 L 777,328 L 779,335 L 780,336 L 781,337 L 783,339 L 784,340 L 784,341 L 782,344 L 784,345 L 787,348 L 787,351 L 788,352 L 787,353 L 786,353 L 785,353 L 784,352 L 783,353 L 783,354 L 782,355 L 782,356 L 781,357 L 780,357 L 778,356 L 777,356 L 777,355 L 776,354 L 775,353 L 774,353 L 773,353 L 772,354 L 772,355 L 773,356 L 775,358 L 775,359 L 775,360 L 774,360 L 773,360 L 772,360 L 770,360 L 769,361 L 767,362 L 767,364 L 765,366 L 764,367 L 763,367 L 762,366 L 761,366 L 760,365 L 759,365 L 759,364 L 758,365 L 757,365 L 758,365 L 758,367 L 759,368 L 759,369 L 759,370 L 758,370 L 757,371 L 756,371 L 755,371 L 755,372 L 755,373 L 756,375 L 757,375 L 759,375 L 760,376 L 761,376 L 761,377 L 762,378 L 762,379 L 761,380 L 760,381 L 759,382 L 757,384 L 756,385 L 757,386 L 757,387 L 758,388 L 759,388 L 760,388 L 762,388 L 763,389 L 764,392 L 765,393 L 766,394 L 767,394 L 768,395 L 769,396 L 769,397 L 769,398 L 769,404 L 770,407 L 771,409 L 774,410 L 776,412 L 777,415 L 777,418 L 779,421 L 782,422 L 782,423 L 782,424 L 782,425 L 781,426 L 780,426 L 779,426 L 778,426 L 778,427 L 780,429 L 781,433 L 781,436 L 781,437 L 781,438 L 781,439 L 781,440 L 780,440 L 779,440 L 778,439 L 777,439 L 776,438 L 775,438 L 773,438 L 772,439 L 771,439 L 770,439 L 769,439 L 767,438 L 757,432 L 752,429 L 750,428 L 748,428 L 745,429 L 743,432 L 743,435 L 742,437 L 739,442 L 738,443 L 737,444 L 737,445 L 738,447 L 739,447 L 739,448 L 739,449 L 738,449 L 737,449 L 736,449 L 735,450 L 734,451 L 734,452 L 734,453 L 735,454 L 736,454 L 737,454 L 738,455 L 739,456 L 739,457 L 739,458 L 738,460 L 737,461 L 736,461 L 734,462 L 732,463 L 731,464 L 730,465 L 729,465 L 728,465 L 727,466 L 727,467 L 727,468 L 726,469 L 725,469 L 724,469 L 723,469 L 722,469 L 722,470 L 721,470 L 719,471 L 716,471 L 715,472 L 714,473 L 713,474 L 712,476 L 712,478 L 712,480 L 712,482 L 712,493 L 711,494 L 711,495 L 711,496 L 711,497 L 712,497 L 713,498 L 714,498 L 714,499 L 715,499 L 715,500 L 714,501 L 714,502 L 714,503 L 715,503 L 716,504 L 717,504 L 717,505 L 717,507 L 717,508 L 717,511 L 717,514 L 717,515 L 716,516 L 715,517 L 714,518 L 712,519 L 710,519 L 709,519 L 708,520 L 707,521 L 707,522 L 707,523 L 708,524 L 709,524 L 709,526 L 710,526 L 710,527 L 710,528 L 710,530 L 710,531 L 709,531 L 707,533 L 706,536 L 706,538 L 706,539 L 705,539 L 704,538 L 703,538 L 702,538 L 701,538 L 699,540 L 698,540 L 696,541 L 695,541 L 694,540 L 693,539 L 693,538 L 693,536 L 693,535 L 693,534 L 692,533 L 691,533 L 690,533 L 690,534 L 688,535 L 687,536 L 686,536 L 684,536 L 683,535 L 682,533 L 681,532 L 680,531 L 678,531 L 677,531 L 676,531 L 674,532 L 674,534 L 671,536 L 670,537 L 669,538 L 668,538 L 668,537 L 668,536 L 669,535 L 672,533 L 674,531 L 676,529 L 677,528 L 678,528 L 679,528 L 680,528 L 681,529 L 682,530 L 682,531 L 683,531 L 684,531 L 684,530 L 683,530 L 682,529 L 681,528 L 680,527 L 679,525 L 679,524 L 680,522 L 681,521 L 682,521 L 683,521 L 684,521 L 683,520 L 682,520 L 681,521 L 679,522 L 677,523 L 676,523 L 675,523 L 673,522 L 672,520 L 671,518 L 671,516 L 671,515 L 671,514 L 672,514 L 673,514 L 674,514 L 673,514 L 672,514 L 672,513 L 674,509 L 674,507 L 675,506 L 675,505 L 676,505 L 676,506 L 678,506 L 679,506 L 678,506 L 676,505 L 675,505 L 675,504 L 675,503 L 676,503 L 677,503 L 678,503 L 677,503 L 676,503 L 676,502 L 676,501 L 675,500 L 675,499 L 675,498 L 675,496 L 675,497 L 675,498 L 674,498 L 673,496 L 672,491 L 672,489 L 674,486 L 674,484 L 675,483 L 676,483 L 676,482 L 676,481 L 675,481 L 674,481 L 674,480 L 675,478 L 675,477 L 676,477 L 677,478 L 678,479 L 679,479 L 679,478 L 680,478 L 681,478 L 681,479 L 681,480 L 681,483 L 682,485 L 683,487 L 684,489 L 684,491 L 684,492 L 684,493 L 684,494 L 684,493 L 685,492 L 685,491 L 685,489 L 682,478 L 682,476 L 682,475 L 683,474 L 683,473 L 685,472 L 686,471 L 686,470 L 686,469 L 687,468 L 688,468 L 690,467 L 693,468 L 695,469 L 695,470 L 696,471 L 697,471 L 697,470 L 696,469 L 695,468 L 694,468 L 694,467 L 693,466 L 693,465 L 693,464 L 694,463 L 695,463 L 696,463 L 697,462 L 697,461 L 697,460 L 696,460 L 695,460 L 694,461 L 694,462 L 683,466 L 683,464 L 685,461 L 685,460 L 684,460 L 684,461 L 684,462 L 683,464 L 682,465 L 679,466 L 677,466 L 676,466 L 675,467 L 674,467 L 672,467 L 671,467 L 670,468 L 669,469 L 669,471 L 669,472 L 668,472 L 668,473 L 667,473 L 667,472 L 666,472 L 666,471 L 666,470 L 666,469 L 666,470 L 666,471 L 667,473 L 667,474 L 667,475 L 666,476 L 665,477 L 664,478 L 664,479 L 663,478 L 662,478 L 661,477 L 661,476 L 660,474 L 660,471 L 658,463 L 657,462 L 657,458 L 658,457 L 658,458 L 659,459 L 659,458 L 657,453 L 656,450 L 656,449 L 656,448 L 657,448 L 658,449 L 658,448 L 657,448 L 656,446 L 655,444 L 655,442 L 656,440 L 657,438 L 658,436 L 659,434 L 660,433 L 661,431 L 661,430 L 660,427 L 660,426 L 658,424 L 658,423 L 659,423 L 659,422 L 660,422 L 661,422 L 662,421 L 663,421 L 663,420 L 663,419 L 663,418 L 664,417 L 664,416 L 665,415 L 664,413 L 664,414 L 664,415 L 664,416 L 663,416 L 663,417 L 662,417 L 661,417 L 659,417 L 658,416 L 658,414 L 658,413 L 658,411 L 659,411 L 660,410 L 661,410 L 662,410 L 662,409 L 663,408 L 663,407 L 663,406 L 664,406 L 665,406 L 665,405 L 666,404 L 666,403 L 666,402 L 667,402 L 667,403 L 667,411 L 668,418 L 668,422 L 668,423 L 669,423 L 669,422 L 669,421 L 669,418 L 669,417 L 668,413 L 668,405 L 668,404 L 668,403 L 668,402 L 669,401 L 670,400 L 671,401 L 673,401 L 674,401 L 675,402 L 676,403 L 676,404 L 677,407 L 677,409 L 677,410 L 678,410 L 679,410 L 678,409 L 678,408 L 678,407 L 677,406 L 677,404 L 676,402 L 676,401 L 677,400 L 678,398 L 679,398 L 682,397 L 683,397 L 683,396 L 684,396 L 681,397 L 680,397 L 680,396 L 684,394 L 688,392 L 691,389 L 693,388 L 696,387 L 699,384 L 703,382 L 710,377 L 711,377 L 713,379 L 714,379 L 715,379 L 715,378 L 714,378 L 713,378 L 712,377 L 711,377 L 710,377 L 709,377 L 708,377 L 708,376 L 708,375 L 709,375 L 710,371 L 711,367 L 712,366 L 711,366 L 709,370 L 708,373 L 708,374 L 707,375 L 706,375 L 706,376 L 705,376 L 704,377 L 703,377 L 703,378 L 704,378 L 704,377 L 705,376 L 706,376 L 705,377 L 702,380 L 696,386 L 693,387 L 690,388 L 688,390 L 687,391 L 686,391 L 685,391 L 687,385 L 690,382 L 692,382 L 694,382 L 695,381 L 697,380 L 698,378 L 698,376 L 700,371 L 702,364 L 702,363 L 705,360 L 706,355 L 707,355 L 712,352 L 713,351 L 714,351 L 717,345 L 717,342 L 717,340 L 717,339 L 716,338 L 713,337 L 711,335 L 711,334 L 710,333 L 710,332 L 711,329 L 711,328 L 711,327 L 711,326 L 710,326 L 710,325 L 709,325 L 708,323 L 708,319 L 706,315 L 703,312 L 701,311 L 700,309 L 700,307 L 699,304 L 697,301 L 696,299 L 695,297 L 695,295 L 694,293 L 692,292 L 692,291 L 690,291 L 689,289 L 688,288 L 688,287 L 689,286 L 690,285 L 690,284 L 690,283 L 691,281 L 692,280 L 692,278 L 692,277 L 691,276 L 690,275 L 690,274 L 689,273 L 689,272 L 690,271 L 691,270 L 693,268 L 694,267 L 695,266 L 695,265 L 694,264 L 692,263 L 692,262 L 691,261 L 691,260 L 691,259 L 691,258 L 692,257 L 693,256 L 695,255 L 696,255 L 696,254 L 696,253 L 696,249 L 697,247 L 697,244 L 697,237 L 698,229 L 698,224 L 698,222 L 699,218 L 700,217 L 700,214 L 700,210 L 700,209 L 700,208 L 700,207 L 701,207 L 702,208 L 703,209 L 707,211 L 710,213 L 713,215 L 714,216 L 719,219 L 725,223 L 729,226 L 731,227 L 737,231 L 741,234 L 743,235 L 746,237 L 747,238 L 748,238 L 749,238 L 750,237 L 751,236 L 767,211 L 773,200 L 776,196 L 777,195 L 778,194 L 779,194 L 780,194 L 781,195 L 782,196 L 783,197 L 784,197 L 785,198 L 792,202 L 796,205 L 802,208 L 806,211 L 807,212 L 808,212 L 811,214 L 813,215 L 816,217 L 819,219 L 823,221 L 826,223 " />
</g>
<g id="bc-generalized_7" label="Kootenay">
<path d="M 1032,873 L 1032,874 L 1033,874 L 1033,875 L 1033,876 L 1032,878 L 1031,879 L 1031,881 L 1031,882 L 1031,883 L 1032,884 L 1033,886 L 1034,889 L 1034,891 L 1035,894 L 1037,897 L 1040,898 L 1041,898 L 1041,899 L 1041,900 L 1041,901 L 1041,902 L 1041,903 L 1043,906 L 1043,907 L 1043,908 L 1042,908 L 1041,908 L 1040,908 L 1037,907 L 1034,906 L 1031,905 L 1027,904 L 1023,903 L 1023,902 L 1016,900 L 1013,899 L 1011,899 L 1008,898 L 1006,897 L 1002,896 L 1001,895 L 997,894 L 994,893 L 991,892 L 988,891 L 984,890 L 980,888 L 976,887 L 973,886 L 971,885 L 966,884 L 962,882 L 959,881 L 952,879 L 950,878 L 946,877 L 944,876 L 942,875 L 941,875 L 940,874 L 935,872 L 932,871 L 931,871 L 927,870 L 923,868 L 920,867 L 916,865 L 914,865 L 911,864 L 907,862 L 905,861 L 902,860 L 901,860 L 897,858 L 890,856 L 889,855 L 884,853 L 883,853 L 882,852 L 880,852 L 879,851 L 872,849 L 865,846 L 864,846 L 864,845 L 864,844 L 864,843 L 865,841 L 868,838 L 869,838 L 870,837 L 871,836 L 871,835 L 871,834 L 871,832 L 872,831 L 873,831 L 873,830 L 873,829 L 873,828 L 872,827 L 872,825 L 872,824 L 873,821 L 874,819 L 874,815 L 874,813 L 875,811 L 876,809 L 878,808 L 881,808 L 888,807 L 889,807 L 895,809 L 895,810 L 897,811 L 898,811 L 900,811 L 902,812 L 906,814 L 907,814 L 908,814 L 911,816 L 913,816 L 912,816 L 912,815 L 911,815 L 911,814 L 912,813 L 912,812 L 912,811 L 911,809 L 911,808 L 912,806 L 913,805 L 914,804 L 915,803 L 916,802 L 918,802 L 919,801 L 920,801 L 921,800 L 923,798 L 923,794 L 923,793 L 924,792 L 924,791 L 924,789 L 925,788 L 926,786 L 927,785 L 929,784 L 930,783 L 931,782 L 932,779 L 933,776 L 933,775 L 933,774 L 934,774 L 935,774 L 936,774 L 937,775 L 938,776 L 939,776 L 939,779 L 938,781 L 938,782 L 938,783 L 938,784 L 939,784 L 940,785 L 941,785 L 945,785 L 946,786 L 948,787 L 950,788 L 951,791 L 953,792 L 955,793 L 958,794 L 959,794 L 960,794 L 961,794 L 961,793 L 962,792 L 961,791 L 961,790 L 961,789 L 962,789 L 963,789 L 964,788 L 964,787 L 964,786 L 964,785 L 964,784 L 965,783 L 965,782 L 965,781 L 964,781 L 964,782 L 963,782 L 962,782 L 962,781 L 961,781 L 961,780 L 961,779 L 960,777 L 961,774 L 961,772 L 967,766 L 970,765 L 971,765 L 973,766 L 974,767 L 974,768 L 974,769 L 974,770 L 973,770 L 973,771 L 974,771 L 975,772 L 976,772 L 976,773 L 976,774 L 975,775 L 974,777 L 974,780 L 975,782 L 976,784 L 979,785 L 980,786 L 982,785 L 983,785 L 984,784 L 985,782 L 985,781 L 986,781 L 989,780 L 997,781 L 998,781 L 999,782 L 1000,782 L 1000,781 L 999,780 L 999,779 L 999,778 L 999,777 L 1000,776 L 1001,775 L 1002,775 L 1005,774 L 1005,773 L 1005,772 L 1004,771 L 1004,770 L 1004,769 L 1005,769 L 1006,769 L 1006,768 L 1007,768 L 1007,767 L 1007,766 L 1007,764 L 1007,763 L 1008,763 L 1009,764 L 1010,765 L 1011,766 L 1013,770 L 1013,774 L 1014,776 L 1014,778 L 1015,779 L 1019,781 L 1023,788 L 1024,790 L 1023,791 L 1023,792 L 1022,793 L 1021,793 L 1020,793 L 1020,794 L 1021,794 L 1021,795 L 1022,797 L 1022,798 L 1026,802 L 1028,807 L 1028,812 L 1028,813 L 1028,814 L 1029,815 L 1030,815 L 1031,815 L 1035,815 L 1036,816 L 1036,817 L 1037,823 L 1040,829 L 1040,831 L 1040,833 L 1039,835 L 1039,837 L 1039,839 L 1038,843 L 1039,847 L 1039,848 L 1039,850 L 1038,851 L 1037,852 L 1036,853 L 1036,855 L 1036,859 L 1035,861 L 1033,868 L 1032,868 L 1031,868 L 1030,869 L 1029,869 L 1029,870 L 1029,871 L 1029,872 L 1030,873 L 1031,873 L 1032,873 " />
</g>
<g id="bc-generalized_8" label="Cariboo">
<path d="M 940,588 L 940,591 L 940,593 L 941,594 L 942,594 L 942,595 L 943,596 L 943,597 L 942,598 L 942,599 L 944,600 L 945,601 L 945,602 L 945,604 L 945,605 L 945,606 L 944,606 L 943,606 L 941,605 L 940,604 L 940,603 L 939,603 L 939,604 L 939,606 L 939,607 L 938,608 L 938,609 L 939,610 L 940,610 L 940,611 L 940,612 L 940,613 L 940,614 L 940,616 L 941,618 L 942,619 L 944,620 L 946,621 L 948,622 L 949,623 L 950,623 L 950,625 L 950,626 L 950,627 L 950,631 L 952,634 L 955,636 L 956,637 L 957,637 L 958,637 L 958,636 L 959,635 L 959,634 L 960,634 L 964,640 L 964,642 L 964,643 L 964,644 L 963,645 L 963,646 L 964,647 L 964,648 L 965,648 L 965,649 L 965,650 L 964,651 L 964,654 L 964,655 L 965,656 L 966,656 L 967,656 L 968,657 L 969,659 L 968,660 L 969,664 L 969,667 L 969,668 L 969,670 L 969,671 L 967,674 L 966,677 L 967,680 L 967,683 L 966,686 L 965,687 L 964,687 L 963,687 L 962,687 L 962,686 L 961,686 L 960,686 L 958,687 L 956,687 L 954,688 L 952,690 L 951,691 L 949,692 L 947,692 L 946,691 L 945,690 L 944,689 L 943,688 L 943,687 L 943,686 L 943,685 L 943,684 L 944,684 L 946,684 L 946,683 L 947,683 L 947,682 L 946,682 L 946,681 L 945,681 L 944,680 L 944,679 L 944,678 L 944,677 L 946,674 L 947,673 L 947,671 L 947,669 L 946,666 L 944,663 L 941,662 L 931,657 L 930,656 L 929,654 L 927,653 L 926,653 L 925,653 L 924,653 L 923,653 L 923,652 L 919,647 L 918,646 L 918,642 L 917,639 L 916,638 L 914,637 L 912,636 L 910,637 L 909,649 L 904,652 L 902,652 L 898,652 L 897,653 L 896,653 L 896,654 L 897,654 L 897,656 L 897,657 L 896,658 L 895,658 L 894,659 L 894,660 L 894,661 L 894,663 L 894,670 L 896,673 L 895,675 L 894,678 L 894,680 L 894,682 L 894,684 L 893,686 L 890,688 L 889,689 L 889,690 L 888,690 L 887,692 L 885,693 L 883,693 L 882,692 L 881,692 L 880,692 L 879,693 L 878,695 L 877,696 L 874,703 L 874,704 L 873,705 L 873,704 L 867,702 L 866,702 L 865,701 L 863,700 L 862,699 L 858,698 L 856,697 L 855,697 L 854,697 L 853,697 L 852,697 L 851,698 L 849,698 L 848,698 L 847,697 L 846,696 L 846,695 L 846,694 L 846,693 L 845,692 L 844,691 L 844,690 L 844,689 L 845,689 L 845,688 L 845,687 L 844,685 L 843,684 L 841,683 L 838,681 L 837,681 L 836,681 L 835,680 L 835,681 L 834,681 L 834,682 L 833,682 L 832,682 L 831,681 L 824,678 L 820,676 L 818,675 L 812,676 L 810,677 L 808,678 L 807,680 L 805,682 L 804,682 L 804,683 L 804,684 L 805,684 L 805,685 L 806,687 L 806,688 L 806,689 L 805,690 L 804,690 L 804,691 L 803,691 L 803,692 L 803,693 L 802,693 L 802,694 L 801,694 L 800,693 L 800,692 L 800,690 L 799,689 L 799,688 L 798,688 L 797,688 L 796,687 L 795,687 L 795,685 L 794,683 L 793,682 L 792,682 L 791,682 L 790,683 L 789,684 L 787,684 L 786,684 L 782,687 L 778,688 L 774,687 L 773,686 L 772,687 L 771,687 L 765,688 L 763,687 L 762,687 L 759,683 L 754,678 L 752,673 L 752,672 L 753,671 L 753,669 L 753,668 L 753,667 L 751,665 L 750,665 L 749,665 L 748,664 L 748,663 L 748,662 L 747,662 L 745,662 L 743,660 L 742,658 L 740,656 L 740,655 L 739,655 L 739,654 L 739,653 L 739,651 L 739,650 L 738,649 L 737,648 L 735,646 L 733,644 L 731,642 L 730,642 L 730,640 L 729,639 L 728,639 L 727,639 L 726,639 L 726,638 L 725,638 L 725,637 L 725,636 L 726,635 L 729,633 L 734,626 L 735,625 L 736,623 L 736,622 L 736,621 L 736,620 L 735,619 L 734,618 L 734,617 L 734,616 L 733,614 L 732,613 L 732,612 L 732,611 L 733,611 L 733,610 L 733,609 L 732,608 L 731,607 L 731,606 L 731,605 L 732,604 L 733,603 L 733,601 L 733,600 L 732,599 L 733,598 L 733,597 L 734,597 L 735,596 L 737,596 L 740,597 L 741,597 L 742,596 L 741,596 L 741,595 L 741,594 L 742,594 L 742,593 L 744,592 L 745,592 L 747,592 L 748,591 L 749,590 L 749,589 L 749,588 L 747,588 L 747,587 L 746,586 L 746,585 L 747,585 L 747,584 L 748,583 L 748,582 L 747,581 L 746,581 L 746,580 L 745,579 L 744,579 L 743,579 L 742,579 L 740,578 L 740,576 L 740,574 L 740,571 L 738,569 L 737,568 L 736,568 L 734,567 L 732,568 L 731,569 L 730,570 L 729,570 L 728,570 L 727,569 L 726,568 L 725,567 L 724,566 L 724,565 L 724,561 L 726,558 L 729,557 L 730,556 L 731,554 L 731,553 L 730,552 L 729,552 L 728,553 L 727,552 L 725,552 L 724,550 L 724,549 L 724,548 L 724,547 L 725,546 L 726,544 L 726,543 L 726,541 L 727,541 L 727,540 L 728,540 L 729,540 L 731,542 L 733,543 L 737,545 L 738,546 L 741,547 L 743,548 L 746,549 L 748,551 L 750,551 L 753,553 L 754,554 L 761,557 L 762,558 L 763,558 L 767,560 L 769,562 L 772,563 L 773,564 L 774,564 L 775,564 L 775,563 L 777,561 L 780,554 L 782,551 L 784,546 L 784,545 L 785,545 L 786,544 L 787,544 L 788,544 L 788,545 L 789,546 L 789,547 L 789,548 L 790,550 L 791,551 L 792,551 L 793,551 L 794,551 L 796,551 L 797,552 L 798,552 L 799,551 L 800,551 L 800,550 L 801,549 L 802,548 L 804,548 L 805,549 L 807,551 L 807,553 L 808,555 L 809,556 L 809,557 L 810,557 L 811,557 L 812,557 L 815,557 L 818,557 L 821,558 L 822,558 L 822,559 L 824,560 L 826,561 L 831,563 L 834,565 L 835,566 L 836,566 L 837,565 L 837,564 L 837,563 L 838,562 L 838,561 L 839,560 L 839,559 L 839,557 L 838,555 L 837,554 L 836,551 L 836,550 L 836,549 L 837,548 L 838,548 L 839,548 L 840,548 L 842,544 L 843,543 L 843,541 L 843,539 L 842,537 L 841,536 L 841,535 L 841,534 L 841,533 L 842,533 L 843,534 L 844,534 L 845,534 L 845,533 L 844,533 L 844,532 L 844,531 L 845,530 L 846,529 L 847,528 L 847,526 L 848,525 L 848,523 L 848,522 L 848,521 L 846,520 L 843,518 L 842,517 L 840,515 L 839,512 L 839,511 L 840,509 L 841,509 L 842,508 L 843,508 L 846,507 L 849,504 L 850,502 L 850,501 L 849,498 L 849,496 L 848,495 L 848,494 L 849,493 L 850,493 L 851,491 L 851,490 L 851,489 L 850,489 L 849,488 L 849,487 L 849,486 L 849,485 L 850,483 L 852,482 L 853,481 L 855,481 L 856,482 L 857,483 L 858,484 L 858,485 L 858,487 L 859,488 L 860,490 L 861,490 L 862,490 L 864,490 L 865,489 L 865,488 L 866,488 L 867,488 L 868,488 L 869,488 L 870,488 L 873,480 L 874,475 L 874,473 L 873,473 L 872,473 L 871,472 L 870,472 L 868,472 L 867,471 L 866,470 L 865,469 L 864,467 L 865,462 L 867,459 L 867,457 L 867,455 L 867,454 L 868,453 L 868,452 L 869,451 L 870,451 L 872,451 L 874,450 L 875,448 L 876,446 L 876,444 L 875,442 L 875,440 L 876,439 L 877,438 L 878,437 L 879,437 L 880,437 L 881,438 L 881,439 L 882,441 L 883,444 L 885,446 L 886,446 L 887,446 L 888,447 L 889,448 L 889,449 L 890,451 L 890,452 L 889,453 L 889,454 L 888,455 L 888,456 L 888,457 L 889,458 L 890,458 L 890,457 L 891,457 L 891,458 L 892,458 L 893,459 L 893,460 L 892,462 L 891,463 L 891,464 L 891,465 L 892,466 L 892,467 L 893,467 L 894,468 L 895,469 L 894,470 L 892,472 L 891,474 L 891,475 L 892,477 L 892,478 L 895,479 L 896,482 L 896,483 L 897,483 L 898,483 L 899,482 L 900,481 L 901,480 L 901,481 L 902,482 L 902,483 L 905,489 L 905,492 L 906,498 L 908,504 L 910,510 L 911,512 L 911,514 L 909,516 L 909,517 L 910,518 L 912,519 L 914,519 L 915,520 L 916,521 L 917,522 L 917,524 L 917,526 L 917,528 L 916,529 L 915,530 L 914,532 L 915,534 L 915,536 L 916,539 L 916,540 L 917,541 L 919,541 L 920,541 L 921,541 L 922,541 L 923,542 L 923,543 L 922,544 L 922,546 L 923,547 L 924,548 L 926,548 L 928,548 L 929,548 L 930,549 L 931,549 L 931,550 L 931,551 L 930,552 L 930,553 L 931,553 L 932,554 L 932,555 L 933,555 L 933,556 L 932,557 L 931,559 L 931,560 L 931,561 L 932,561 L 933,562 L 933,563 L 932,566 L 932,568 L 933,570 L 934,572 L 936,573 L 939,574 L 940,575 L 941,575 L 942,575 L 942,576 L 942,577 L 942,578 L 941,578 L 940,578 L 938,579 L 937,580 L 937,581 L 938,583 L 938,584 L 939,584 L 940,583 L 941,583 L 942,583 L 942,584 L 942,585 L 940,588 " />
</g>
</g>
</g></svg>