<?xml version="1.0" standalone="no"?>
<!DOCTYPE svg PUBLIC "-//W3C//DTD SVG 1.1//EN" "http://www.w3.org/Graphics/SVG/1.1/DTD/svg11.dtd">
<svg xmlns="http://www.w3.org/2000/svg" xmlns:inkscape="http://www.inkscape.org/namespaces/inkscape" xmlns:xlink="http://www.w3.org/1999/xlink" viewBox = "0 0 1635 933" version = "1.1">
<!-- svg generated using QGIS www.qgis.org -->
<g id="manitoba-generalized" inkscape:groupmode="layer" inkscape:label="manitoba-generalized">
<g stroke="rgb(35,35,35)" fill="rgb(225,89,137)" stroke-linejoin="round" stroke-width="0.40">
<g id="manitoba-generalized_1" inkscape:label="North_Central___Centre_nord">
<path d="M 669,775 L 670,776 L 671,776 L 672,778 L 672,782 L 673,783 L 675,787 L 675,789 L 676,790 L 675,791 L 675,792 L 673,794 L 672,794 L 672,795 L 671,798 L 671,801 L 672,801 L 672,802 L 673,804 L 676,806 L 676,807 L 679,808 L 682,809 L 683,809 L 685,808 L 689,807 L 692,806 L 693,806 L 695,805 L 696,804 L 697,802 L 698,802 L 698,801 L 699,801 L 701,802 L 701,803 L 702,805 L 702,807 L 701,809 L 701,818 L 701,819 L 706,818 L 709,818 L 712,819 L 715,821 L 717,823 L 722,825 L 726,829 L 728,831 L 729,833 L 729,835 L 729,837 L 729,839 L 730,840 L 731,841 L 733,842 L 734,842 L 736,841 L 740,841 L 741,841 L 741,842 L 741,843 L 741,844 L 740,848 L 741,848 L 741,849 L 742,850 L 743,853 L 743,856 L 742,858 L 740,861 L 737,863 L 733,863 L 729,863 L 725,864 L 722,865 L 720,864 L 718,863 L 717,862 L 715,859 L 714,856 L 711,855 L 702,855 L 696,855 L 693,854 L 688,854 L 678,854 L 678,860 L 677,860 L 677,861 L 676,861 L 653,859 L 644,859 L 643,858 L 642,858 L 642,857 L 642,856 L 642,854 L 642,853 L 642,852 L 643,844 L 643,841 L 643,834 L 643,827 L 644,822 L 644,820 L 644,819 L 644,817 L 643,817 L 642,816 L 641,816 L 639,815 L 637,814 L 636,812 L 636,810 L 637,808 L 637,806 L 638,805 L 638,804 L 638,803 L 637,802 L 635,801 L 631,801 L 630,801 L 630,800 L 630,798 L 630,797 L 631,787 L 631,780 L 632,775 L 631,774 L 631,772 L 631,771 L 632,770 L 634,769 L 636,769 L 639,769 L 643,770 L 644,770 L 648,770 L 649,770 L 650,770 L 651,770 L 651,771 L 652,772 L 652,773 L 653,774 L 654,776 L 655,776 L 658,777 L 659,777 L 660,777 L 660,778 L 660,779 L 660,780 L 660,781 L 661,781 L 661,782 L 662,782 L 663,782 L 665,782 L 666,782 L 667,781 L 667,780 L 667,779 L 667,778 L 667,777 L 667,776 L 668,776 L 668,775 L 669,775 " />
</g>
<g id="manitoba-generalized_2" inkscape:label="North___Nord">
<path d="M 782,36 L 787,36 L 797,36 L 806,36 L 807,36 L 812,36 L 816,36 L 817,36 L 818,36 L 819,36 L 820,36 L 820,37 L 821,37 L 822,37 L 823,37 L 824,37 L 825,37 L 826,37 L 827,37 L 828,37 L 829,37 L 830,37 L 831,37 L 832,37 L 833,37 L 834,37 L 835,37 L 836,37 L 837,37 L 838,37 L 839,37 L 840,37 L 841,37 L 842,37 L 843,37 L 844,37 L 845,37 L 846,37 L 847,37 L 848,37 L 849,37 L 850,37 L 851,37 L 852,37 L 853,37 L 854,37 L 855,37 L 856,37 L 857,37 L 858,37 L 860,37 L 862,39 L 863,41 L 864,43 L 863,45 L 864,52 L 862,65 L 864,75 L 866,79 L 867,88 L 864,95 L 864,96 L 864,109 L 864,112 L 866,115 L 869,116 L 871,120 L 872,124 L 872,126 L 873,126 L 875,129 L 877,132 L 878,135 L 878,136 L 878,137 L 879,138 L 880,138 L 881,138 L 882,138 L 883,137 L 884,137 L 884,136 L 884,135 L 885,133 L 886,132 L 887,131 L 888,131 L 889,132 L 891,133 L 893,133 L 894,133 L 902,133 L 907,132 L 912,132 L 916,134 L 919,137 L 920,138 L 921,137 L 922,135 L 923,134 L 924,133 L 925,133 L 927,133 L 928,133 L 929,133 L 930,133 L 930,134 L 930,135 L 931,138 L 934,155 L 940,170 L 945,182 L 947,188 L 948,194 L 949,199 L 949,200 L 950,201 L 952,210 L 953,212 L 953,213 L 956,218 L 963,232 L 964,234 L 965,243 L 965,250 L 965,251 L 965,252 L 963,256 L 962,258 L 961,262 L 961,263 L 960,264 L 960,265 L 959,266 L 955,272 L 954,273 L 953,275 L 953,276 L 954,276 L 956,275 L 959,272 L 964,267 L 965,267 L 965,266 L 967,266 L 971,265 L 975,264 L 979,266 L 981,266 L 982,266 L 985,265 L 989,263 L 995,260 L 1003,256 L 1006,255 L 1010,253 L 1011,252 L 1018,249 L 1020,248 L 1022,247 L 1025,246 L 1032,246 L 1045,248 L 1052,251 L 1056,254 L 1064,259 L 1073,263 L 1078,265 L 1081,266 L 1089,267 L 1093,268 L 1097,267 L 1098,267 L 1098,268 L 1103,270 L 1104,270 L 1106,270 L 1108,270 L 1110,270 L 1111,271 L 1112,272 L 1113,274 L 1112,276 L 1111,278 L 1109,280 L 1105,285 L 1101,290 L 1097,296 L 1096,298 L 1095,298 L 1093,302 L 1089,306 L 1086,311 L 1080,317 L 1077,323 L 1069,332 L 1064,339 L 1061,344 L 1058,347 L 1048,360 L 1045,364 L 1043,367 L 1041,370 L 1038,373 L 1028,386 L 1017,401 L 1016,402 L 1007,414 L 1003,420 L 999,425 L 998,427 L 993,434 L 987,441 L 984,445 L 980,450 L 976,456 L 975,457 L 973,459 L 973,460 L 970,463 L 964,471 L 963,472 L 963,473 L 952,487 L 950,489 L 945,496 L 942,499 L 941,501 L 940,503 L 936,508 L 934,511 L 925,522 L 920,528 L 920,529 L 917,532 L 913,536 L 905,544 L 900,550 L 895,554 L 891,558 L 890,559 L 883,566 L 878,571 L 873,576 L 868,581 L 857,593 L 854,596 L 851,598 L 849,602 L 849,606 L 848,624 L 848,629 L 848,637 L 848,642 L 848,648 L 848,655 L 848,661 L 848,666 L 848,671 L 848,677 L 848,681 L 848,689 L 848,696 L 848,711 L 848,714 L 848,719 L 848,723 L 848,733 L 848,737 L 848,743 L 848,744 L 848,750 L 848,754 L 848,758 L 848,767 L 848,773 L 848,777 L 848,778 L 848,787 L 848,792 L 848,793 L 848,795 L 847,796 L 845,797 L 844,797 L 840,798 L 838,798 L 833,799 L 832,799 L 830,799 L 829,798 L 829,797 L 828,796 L 829,794 L 829,792 L 828,790 L 827,789 L 826,789 L 824,789 L 823,789 L 818,790 L 812,789 L 809,788 L 807,785 L 806,783 L 804,781 L 802,780 L 798,780 L 797,780 L 796,780 L 795,780 L 794,781 L 793,782 L 792,782 L 790,782 L 788,781 L 784,778 L 781,774 L 780,773 L 779,772 L 778,770 L 778,769 L 778,767 L 779,766 L 778,766 L 778,765 L 777,765 L 777,766 L 776,766 L 776,767 L 777,767 L 777,768 L 777,770 L 777,771 L 777,772 L 775,775 L 774,776 L 774,778 L 775,779 L 775,781 L 774,783 L 774,787 L 775,790 L 775,791 L 775,792 L 771,795 L 770,795 L 769,796 L 768,796 L 766,796 L 760,794 L 759,794 L 756,792 L 756,788 L 755,783 L 755,777 L 755,772 L 755,764 L 756,762 L 757,761 L 757,759 L 756,758 L 756,757 L 755,757 L 755,756 L 755,755 L 758,750 L 758,748 L 758,747 L 758,746 L 757,745 L 757,744 L 758,744 L 759,745 L 762,747 L 764,749 L 765,750 L 765,749 L 766,749 L 767,749 L 768,748 L 770,746 L 774,743 L 781,736 L 789,733 L 790,731 L 791,728 L 791,726 L 789,723 L 787,721 L 784,720 L 783,718 L 782,716 L 779,714 L 777,713 L 775,713 L 773,714 L 770,716 L 770,717 L 769,718 L 760,730 L 760,731 L 759,731 L 758,731 L 757,731 L 756,731 L 755,730 L 755,729 L 756,727 L 758,724 L 759,723 L 759,722 L 758,722 L 746,722 L 740,722 L 739,721 L 737,721 L 735,721 L 734,722 L 733,724 L 732,726 L 731,727 L 730,728 L 729,729 L 727,729 L 725,728 L 719,728 L 718,728 L 718,727 L 719,725 L 719,723 L 719,722 L 718,721 L 717,720 L 716,720 L 714,720 L 713,721 L 712,721 L 712,722 L 712,723 L 712,724 L 712,725 L 710,726 L 709,727 L 707,727 L 705,728 L 703,728 L 701,727 L 700,725 L 699,723 L 699,720 L 699,718 L 697,716 L 695,716 L 693,715 L 692,715 L 691,714 L 691,712 L 691,711 L 691,710 L 691,709 L 690,708 L 689,708 L 685,707 L 684,707 L 684,706 L 684,705 L 684,704 L 684,703 L 685,701 L 685,698 L 684,697 L 683,693 L 681,687 L 681,685 L 683,684 L 684,683 L 685,683 L 686,684 L 687,684 L 689,683 L 690,682 L 690,680 L 689,679 L 689,678 L 688,677 L 686,677 L 684,677 L 683,677 L 681,677 L 680,677 L 678,675 L 678,674 L 677,672 L 676,672 L 675,671 L 674,671 L 673,672 L 672,673 L 671,674 L 671,675 L 671,677 L 671,681 L 671,682 L 670,682 L 669,682 L 667,682 L 666,683 L 665,684 L 665,685 L 665,686 L 665,687 L 666,688 L 667,689 L 667,691 L 668,693 L 669,695 L 670,696 L 670,697 L 670,698 L 669,699 L 668,699 L 668,700 L 668,701 L 668,702 L 668,703 L 668,705 L 667,706 L 667,707 L 666,708 L 666,709 L 666,710 L 667,712 L 668,715 L 670,719 L 673,719 L 675,720 L 676,720 L 677,720 L 677,721 L 678,721 L 678,722 L 678,723 L 677,726 L 674,728 L 673,730 L 673,732 L 672,734 L 672,735 L 671,735 L 671,736 L 670,736 L 670,735 L 669,734 L 668,733 L 667,733 L 666,733 L 664,734 L 663,734 L 662,734 L 662,733 L 662,731 L 662,730 L 663,726 L 663,724 L 662,723 L 662,722 L 661,722 L 660,722 L 659,723 L 659,724 L 659,725 L 659,726 L 658,727 L 657,727 L 657,726 L 656,726 L 656,725 L 651,715 L 651,713 L 651,709 L 651,708 L 651,707 L 651,706 L 650,706 L 650,705 L 649,705 L 644,705 L 641,705 L 638,705 L 637,705 L 636,704 L 635,704 L 635,703 L 635,702 L 635,701 L 635,700 L 635,699 L 633,697 L 631,696 L 629,696 L 627,697 L 625,697 L 624,697 L 623,696 L 622,694 L 622,693 L 622,692 L 621,691 L 620,692 L 620,693 L 619,693 L 618,693 L 618,692 L 617,691 L 616,690 L 613,687 L 612,685 L 611,683 L 611,681 L 611,679 L 612,677 L 613,671 L 614,664 L 612,658 L 612,657 L 612,655 L 611,655 L 610,655 L 609,657 L 609,659 L 609,662 L 609,664 L 609,665 L 609,666 L 610,666 L 611,666 L 611,665 L 611,664 L 611,666 L 610,671 L 609,674 L 609,676 L 609,679 L 609,680 L 609,681 L 608,681 L 608,682 L 607,682 L 603,665 L 603,663 L 603,660 L 602,658 L 600,657 L 598,657 L 593,656 L 589,655 L 585,653 L 583,651 L 581,648 L 580,645 L 582,641 L 582,640 L 582,639 L 582,638 L 581,638 L 578,638 L 577,637 L 576,636 L 575,635 L 574,633 L 574,630 L 572,612 L 572,610 L 573,609 L 574,608 L 575,607 L 576,605 L 576,604 L 575,603 L 574,602 L 573,601 L 570,602 L 569,601 L 569,600 L 569,597 L 570,595 L 570,592 L 569,589 L 568,588 L 567,587 L 566,586 L 564,587 L 563,587 L 563,588 L 562,588 L 562,589 L 562,591 L 562,592 L 561,593 L 560,594 L 558,594 L 557,593 L 555,592 L 553,590 L 552,589 L 550,588 L 549,588 L 540,589 L 537,588 L 536,587 L 535,585 L 535,583 L 536,581 L 536,578 L 536,564 L 538,550 L 537,536 L 538,532 L 538,527 L 539,517 L 538,513 L 539,507 L 539,501 L 541,492 L 540,483 L 541,473 L 541,471 L 541,467 L 541,452 L 542,442 L 543,441 L 543,438 L 543,435 L 542,429 L 543,418 L 543,417 L 544,411 L 544,398 L 544,396 L 544,393 L 545,387 L 546,380 L 545,373 L 545,371 L 546,365 L 547,356 L 547,351 L 546,347 L 547,338 L 547,335 L 548,327 L 549,322 L 550,309 L 550,305 L 553,280 L 554,276 L 554,274 L 556,258 L 556,252 L 558,238 L 559,226 L 560,221 L 561,213 L 561,208 L 563,192 L 564,181 L 566,166 L 567,158 L 567,151 L 568,149 L 568,142 L 569,136 L 570,130 L 570,126 L 571,122 L 571,120 L 572,105 L 574,90 L 575,85 L 576,69 L 577,60 L 578,55 L 582,22 L 583,22 L 584,22 L 585,22 L 589,22 L 591,23 L 601,24 L 609,25 L 610,25 L 611,25 L 612,25 L 616,25 L 621,26 L 629,26 L 631,27 L 640,27 L 641,27 L 646,28 L 649,28 L 650,28 L 652,28 L 659,29 L 660,29 L 661,29 L 669,30 L 670,30 L 677,30 L 679,31 L 680,31 L 681,31 L 689,31 L 695,32 L 699,32 L 709,32 L 718,33 L 719,33 L 724,33 L 728,34 L 729,34 L 731,34 L 738,34 L 739,34 L 748,34 L 752,35 L 758,35 L 768,35 L 772,35 L 774,35 L 777,36 L 782,36 " />
</g>
<g id="manitoba-generalized_3" inkscape:label="Southwest___Sud-ouest">
<path d="M 630,770 L 631,771 L 632,772 L 632,774 L 632,775 L 631,779 L 631,785 L 630,797 L 630,798 L 630,800 L 630,801 L 631,801 L 635,801 L 637,802 L 638,804 L 638,805 L 637,806 L 637,808 L 636,811 L 636,813 L 637,814 L 639,815 L 641,816 L 642,816 L 643,817 L 644,818 L 644,819 L 644,821 L 644,822 L 643,827 L 643,834 L 643,841 L 643,844 L 642,852 L 642,853 L 642,855 L 642,857 L 642,858 L 641,858 L 641,859 L 640,859 L 640,858 L 628,858 L 628,859 L 628,863 L 627,868 L 627,875 L 627,877 L 626,881 L 627,882 L 626,882 L 626,883 L 625,882 L 623,881 L 622,880 L 621,879 L 620,879 L 619,879 L 620,879 L 619,883 L 620,888 L 619,893 L 619,895 L 619,896 L 619,898 L 619,899 L 618,899 L 618,900 L 617,900 L 616,900 L 615,900 L 611,900 L 608,899 L 600,899 L 595,898 L 588,898 L 584,897 L 579,897 L 578,897 L 576,897 L 574,896 L 568,896 L 565,896 L 562,895 L 555,895 L 549,894 L 548,894 L 542,894 L 533,893 L 528,892 L 525,892 L 522,892 L 521,891 L 520,890 L 519,888 L 519,887 L 520,885 L 521,879 L 520,875 L 520,869 L 521,859 L 522,855 L 522,853 L 522,851 L 521,846 L 522,836 L 522,834 L 523,832 L 523,827 L 523,823 L 522,817 L 523,816 L 523,815 L 523,814 L 523,813 L 523,809 L 524,805 L 525,798 L 525,797 L 525,796 L 524,788 L 525,782 L 525,778 L 525,774 L 526,770 L 527,764 L 532,764 L 543,765 L 549,766 L 554,766 L 559,767 L 562,768 L 566,769 L 570,768 L 572,766 L 574,765 L 574,764 L 575,762 L 575,761 L 575,760 L 576,759 L 577,758 L 579,757 L 581,758 L 583,760 L 585,761 L 587,762 L 590,761 L 591,760 L 593,760 L 595,760 L 597,761 L 598,762 L 599,763 L 600,764 L 601,765 L 602,765 L 603,765 L 605,765 L 607,766 L 609,768 L 610,771 L 611,771 L 612,771 L 613,772 L 615,771 L 618,769 L 619,768 L 621,768 L 623,768 L 626,768 L 629,769 L 630,770 " />
</g>
<g id="manitoba-generalized_4" inkscape:label="Interlake">
<path d="M 774,785 L 774,784 L 775,783 L 776,783 L 777,784 L 777,785 L 778,787 L 777,788 L 777,792 L 777,793 L 777,794 L 778,794 L 779,793 L 780,793 L 781,794 L 782,795 L 782,796 L 781,797 L 781,798 L 782,799 L 782,800 L 783,800 L 784,800 L 785,801 L 786,802 L 786,803 L 785,804 L 784,804 L 783,805 L 780,805 L 776,804 L 775,804 L 773,805 L 772,805 L 771,807 L 770,809 L 768,816 L 769,818 L 768,819 L 768,820 L 767,821 L 765,822 L 761,822 L 758,824 L 755,827 L 754,829 L 751,830 L 749,830 L 748,830 L 747,828 L 745,828 L 744,827 L 741,828 L 739,829 L 737,831 L 735,833 L 733,833 L 728,832 L 722,825 L 717,823 L 715,821 L 712,819 L 709,818 L 706,818 L 701,819 L 701,818 L 701,809 L 702,806 L 702,804 L 701,803 L 701,802 L 700,802 L 699,801 L 698,801 L 698,802 L 697,803 L 696,804 L 694,805 L 693,806 L 692,806 L 689,807 L 685,808 L 683,809 L 682,809 L 679,808 L 676,807 L 676,806 L 673,804 L 672,802 L 672,801 L 671,801 L 671,798 L 672,795 L 672,794 L 673,794 L 675,792 L 675,791 L 676,790 L 675,789 L 675,787 L 673,783 L 672,779 L 670,771 L 665,759 L 662,752 L 661,745 L 663,738 L 663,736 L 664,735 L 665,734 L 666,734 L 668,734 L 669,735 L 669,736 L 670,736 L 671,736 L 672,735 L 673,732 L 673,731 L 673,729 L 674,728 L 677,726 L 678,723 L 678,722 L 678,721 L 677,721 L 677,720 L 676,720 L 675,720 L 673,719 L 670,719 L 668,715 L 667,712 L 666,710 L 666,709 L 666,708 L 667,707 L 667,706 L 668,705 L 668,703 L 668,702 L 668,701 L 668,700 L 668,699 L 669,699 L 670,698 L 670,697 L 670,696 L 669,695 L 668,693 L 667,691 L 667,689 L 666,688 L 665,687 L 665,686 L 665,685 L 665,684 L 666,683 L 667,682 L 669,682 L 670,682 L 671,682 L 671,681 L 671,677 L 671,675 L 671,674 L 672,673 L 673,672 L 674,671 L 675,671 L 676,672 L 677,672 L 678,674 L 678,675 L 680,677 L 681,677 L 683,677 L 684,677 L 686,677 L 688,677 L 689,678 L 689,679 L 690,680 L 690,682 L 689,683 L 687,684 L 686,684 L 685,683 L 684,683 L 683,684 L 681,685 L 681,687 L 683,693 L 684,697 L 685,698 L 685,701 L 684,703 L 684,704 L 684,705 L 684,706 L 684,707 L 685,707 L 689,708 L 690,708 L 691,709 L 691,710 L 691,712 L 691,713 L 692,714 L 692,715 L 693,715 L 695,716 L 697,716 L 699,718 L 699,720 L 699,723 L 700,725 L 701,727 L 703,728 L 705,728 L 707,727 L 709,727 L 710,726 L 712,725 L 712,724 L 712,723 L 712,722 L 712,721 L 713,721 L 714,720 L 716,720 L 717,720 L 718,721 L 719,722 L 719,723 L 719,725 L 718,727 L 718,728 L 719,728 L 725,728 L 727,729 L 729,729 L 730,728 L 731,727 L 732,726 L 733,724 L 734,722 L 735,721 L 736,721 L 738,721 L 740,722 L 746,722 L 758,722 L 759,722 L 759,723 L 758,724 L 756,727 L 755,729 L 755,730 L 756,731 L 757,731 L 758,731 L 759,731 L 760,731 L 760,730 L 769,718 L 770,717 L 770,716 L 773,714 L 775,713 L 777,713 L 779,714 L 782,716 L 783,718 L 784,720 L 787,721 L 789,723 L 790,725 L 791,727 L 790,729 L 789,731 L 788,733 L 784,735 L 781,736 L 774,743 L 770,746 L 768,748 L 767,749 L 766,749 L 765,749 L 765,750 L 764,749 L 762,747 L 759,745 L 758,744 L 757,744 L 757,745 L 758,746 L 758,747 L 758,748 L 758,750 L 755,755 L 755,756 L 755,757 L 756,757 L 756,758 L 757,759 L 757,761 L 756,762 L 755,764 L 755,772 L 755,777 L 755,783 L 756,788 L 756,792 L 759,794 L 760,794 L 766,796 L 768,796 L 769,796 L 770,795 L 771,795 L 775,792 L 775,791 L 775,790 L 774,787 L 774,786 L 774,785 " />
</g>
<g id="manitoba-generalized_5" inkscape:label="Parklands">
<path d="M 665,734 L 666,734 L 666,735 L 665,735 L 665,736 L 664,736 L 663,737 L 662,739 L 662,741 L 661,747 L 662,753 L 665,758 L 670,772 L 671,773 L 671,774 L 670,774 L 669,774 L 669,775 L 668,775 L 668,776 L 667,777 L 668,778 L 668,779 L 667,780 L 665,781 L 663,782 L 662,782 L 661,782 L 661,781 L 660,781 L 660,780 L 660,779 L 660,778 L 660,777 L 659,777 L 658,777 L 655,776 L 654,776 L 653,774 L 652,773 L 652,771 L 651,771 L 651,770 L 650,770 L 649,770 L 648,770 L 644,770 L 643,770 L 639,769 L 628,769 L 623,768 L 621,768 L 619,768 L 618,769 L 615,771 L 613,772 L 612,771 L 611,771 L 610,771 L 609,768 L 607,766 L 605,765 L 603,765 L 602,765 L 601,765 L 600,764 L 599,763 L 598,762 L 597,761 L 595,760 L 593,760 L 591,760 L 590,761 L 587,762 L 585,761 L 583,760 L 581,758 L 579,757 L 577,758 L 576,759 L 575,760 L 575,761 L 575,762 L 574,764 L 574,765 L 572,766 L 570,768 L 566,769 L 562,768 L 559,767 L 554,766 L 549,766 L 543,765 L 531,764 L 529,764 L 528,764 L 526,763 L 525,762 L 525,760 L 525,758 L 526,756 L 526,751 L 527,747 L 527,743 L 528,738 L 527,732 L 527,729 L 528,723 L 528,719 L 528,715 L 529,712 L 528,702 L 529,698 L 529,691 L 530,687 L 531,671 L 532,665 L 532,660 L 532,657 L 532,651 L 532,643 L 533,638 L 534,632 L 534,629 L 533,623 L 533,621 L 534,616 L 534,612 L 534,611 L 535,607 L 535,605 L 535,592 L 535,590 L 535,589 L 536,589 L 537,588 L 539,589 L 540,589 L 549,588 L 550,588 L 552,589 L 553,590 L 555,592 L 557,593 L 558,594 L 560,594 L 561,593 L 562,592 L 562,591 L 562,589 L 562,588 L 563,588 L 563,587 L 564,587 L 566,586 L 567,587 L 568,588 L 569,589 L 570,592 L 570,595 L 569,597 L 569,599 L 569,600 L 569,601 L 570,602 L 573,601 L 574,602 L 575,603 L 576,604 L 576,605 L 575,607 L 574,608 L 573,609 L 572,610 L 572,612 L 573,620 L 572,623 L 573,627 L 574,629 L 575,632 L 575,634 L 575,635 L 576,636 L 577,637 L 579,638 L 581,638 L 582,638 L 582,639 L 582,640 L 582,641 L 580,645 L 581,648 L 583,651 L 585,653 L 589,655 L 593,656 L 598,657 L 600,657 L 602,658 L 603,660 L 603,663 L 603,665 L 607,682 L 608,682 L 608,681 L 609,681 L 609,680 L 609,679 L 609,676 L 609,674 L 610,671 L 611,666 L 611,664 L 611,665 L 611,666 L 610,666 L 609,666 L 609,665 L 609,664 L 609,662 L 609,659 L 609,657 L 610,655 L 611,655 L 612,655 L 612,657 L 612,658 L 614,664 L 613,671 L 612,677 L 611,679 L 611,681 L 611,683 L 612,685 L 613,687 L 616,690 L 617,691 L 618,692 L 618,693 L 619,693 L 620,693 L 620,692 L 620,691 L 621,691 L 622,692 L 622,693 L 622,694 L 623,696 L 624,697 L 625,697 L 626,697 L 627,697 L 629,696 L 632,696 L 634,698 L 635,700 L 635,702 L 635,703 L 635,704 L 636,704 L 637,705 L 638,705 L 641,705 L 644,705 L 649,705 L 650,705 L 650,706 L 651,706 L 651,707 L 651,708 L 651,709 L 651,713 L 651,715 L 656,725 L 656,726 L 657,726 L 657,727 L 658,727 L 659,726 L 659,725 L 659,724 L 659,723 L 660,722 L 661,722 L 662,722 L 662,723 L 663,724 L 663,726 L 662,730 L 662,731 L 662,733 L 662,734 L 662,735 L 663,735 L 664,734 L 665,734 " />
</g>
<g id="manitoba-generalized_6" inkscape:label="South_Central___Centre_sud">
<path d="M 739,863 L 740,863 L 741,864 L 742,865 L 742,866 L 742,867 L 741,868 L 741,869 L 741,878 L 741,884 L 740,885 L 739,885 L 738,885 L 737,885 L 736,886 L 736,887 L 736,889 L 736,890 L 736,891 L 736,892 L 736,894 L 737,896 L 738,897 L 739,900 L 740,903 L 741,904 L 740,905 L 740,906 L 739,906 L 738,906 L 737,906 L 736,906 L 732,906 L 726,906 L 725,906 L 723,906 L 716,905 L 708,905 L 700,905 L 699,905 L 695,904 L 694,904 L 690,904 L 688,904 L 687,904 L 678,904 L 668,903 L 664,903 L 658,903 L 657,902 L 655,902 L 645,902 L 644,902 L 633,901 L 631,901 L 619,900 L 619,899 L 619,896 L 619,895 L 619,893 L 620,888 L 619,883 L 620,879 L 621,879 L 622,880 L 623,881 L 625,882 L 626,883 L 626,882 L 627,882 L 626,881 L 627,877 L 627,875 L 627,868 L 628,863 L 628,859 L 628,858 L 629,858 L 630,858 L 632,858 L 635,858 L 638,858 L 653,859 L 676,861 L 677,861 L 677,860 L 678,860 L 678,854 L 688,854 L 693,854 L 696,855 L 702,855 L 711,855 L 712,856 L 713,857 L 714,858 L 714,860 L 715,862 L 716,863 L 717,863 L 720,863 L 722,863 L 728,863 L 732,863 L 739,863 " />
</g>
<g id="manitoba-generalized_7" inkscape:label="Southeast___Sud-est">
<path d="M 778,767 L 778,769 L 778,770 L 779,772 L 780,773 L 781,774 L 784,778 L 788,781 L 790,782 L 792,782 L 793,782 L 794,781 L 795,780 L 796,780 L 797,780 L 798,780 L 802,780 L 804,781 L 806,783 L 807,785 L 809,788 L 812,789 L 818,790 L 823,789 L 825,789 L 826,789 L 827,789 L 828,790 L 829,792 L 829,794 L 828,796 L 829,797 L 829,798 L 830,799 L 832,799 L 833,799 L 838,798 L 840,798 L 842,797 L 844,797 L 846,797 L 847,797 L 848,798 L 849,799 L 849,801 L 848,802 L 848,816 L 848,827 L 848,833 L 848,839 L 848,843 L 848,844 L 848,854 L 847,858 L 847,862 L 848,866 L 848,874 L 848,880 L 848,887 L 848,890 L 848,892 L 847,894 L 845,895 L 843,895 L 841,897 L 841,900 L 840,900 L 841,900 L 841,902 L 841,904 L 843,905 L 844,906 L 844,907 L 844,908 L 843,908 L 842,908 L 836,908 L 829,908 L 822,908 L 816,908 L 815,908 L 811,908 L 804,908 L 803,908 L 800,908 L 790,908 L 789,908 L 783,908 L 779,907 L 777,907 L 776,907 L 775,907 L 761,907 L 750,907 L 747,907 L 743,906 L 741,905 L 740,903 L 739,900 L 738,897 L 737,896 L 736,894 L 736,892 L 736,891 L 736,890 L 736,889 L 736,887 L 736,886 L 737,885 L 738,885 L 739,885 L 740,885 L 741,884 L 741,878 L 741,869 L 741,868 L 742,867 L 742,866 L 742,865 L 742,864 L 741,864 L 740,864 L 739,863 L 738,863 L 739,862 L 739,861 L 741,859 L 742,858 L 743,856 L 743,855 L 743,853 L 743,851 L 743,849 L 743,848 L 744,847 L 746,846 L 747,846 L 749,845 L 750,844 L 750,843 L 751,841 L 750,840 L 750,839 L 751,838 L 752,837 L 753,836 L 754,836 L 754,835 L 754,834 L 754,833 L 753,833 L 752,832 L 752,831 L 752,830 L 753,829 L 754,828 L 755,827 L 758,824 L 761,822 L 763,822 L 766,821 L 767,821 L 768,820 L 768,819 L 769,817 L 769,815 L 770,810 L 770,808 L 771,806 L 773,805 L 775,804 L 776,804 L 780,805 L 783,805 L 784,805 L 785,804 L 786,803 L 786,802 L 786,801 L 785,801 L 784,800 L 783,800 L 782,800 L 782,799 L 781,798 L 781,797 L 782,796 L 782,795 L 781,794 L 780,793 L 779,793 L 778,794 L 777,794 L 777,793 L 777,792 L 777,788 L 775,781 L 774,778 L 775,776 L 775,774 L 777,772 L 777,771 L 777,770 L 777,768 L 777,767 L 776,767 L 776,766 L 777,766 L 777,765 L 778,765 L 778,766 L 779,766 L 778,767 " />
</g>
<g id="manitoba-generalized_8" inkscape:label="Winnipeg">
<path d="M 748,829 L 749,830 L 751,831 L 753,833 L 753,834 L 754,834 L 754,835 L 753,836 L 752,837 L 751,837 L 751,838 L 750,839 L 750,840 L 750,841 L 750,843 L 750,844 L 747,846 L 745,847 L 743,848 L 742,848 L 741,848 L 741,847 L 740,845 L 741,844 L 741,843 L 741,842 L 741,841 L 740,841 L 736,841 L 734,842 L 732,842 L 730,841 L 729,840 L 729,838 L 729,836 L 729,834 L 729,833 L 730,832 L 731,831 L 732,831 L 732,832 L 735,832 L 737,832 L 739,832 L 740,830 L 740,829 L 741,828 L 743,827 L 745,827 L 746,828 L 748,829 " />
</g>
</g>
</g>
</svg>