<?xml version="1.0" standalone="no"?>
<!DOCTYPE svg PUBLIC "-//W3C//DTD SVG 1.1//EN" "http://www.w3.org/Graphics/SVG/1.1/DTD/svg11.dtd">
<svg xmlns="http://www.w3.org/2000/svg" xmlns:inkscape="http://www.inkscape.org/namespaces/inkscape" xmlns:xlink="http://www.w3.org/1999/xlink" viewBox = "0 0 1635 933" version = "1.1">
<!-- svg generated using QGIS www.qgis.org -->
<g id="new-brunswick-generalized" inkscape:groupmode="layer" inkscape:label="new-brunswick-generalized">
<g stroke="rgb(35,35,35)" fill="rgb(190,178,151)" stroke-linejoin="round" stroke-width="0.40">
<g id="new-brunswick-generalized_1" inkscape:label="Fredericton--Oromocto">
<path d="M 952,477 L 980,471 L 987,470 L 1000,467 L 1003,466 L 1008,465 L 1022,463 L 1028,461 L 1035,460 L 1044,462 L 1051,467 L 1057,474 L 1057,475 L 1073,490 L 1073,491 L 1074,492 L 1073,493 L 1068,509 L 1067,511 L 1062,526 L 1061,530 L 1055,549 L 1054,550 L 1048,570 L 1045,577 L 1038,599 L 1024,641 L 1012,674 L 1008,687 L 1007,690 L 1007,691 L 998,715 L 986,751 L 986,753 L 981,767 L 980,770 L 979,773 L 980,775 L 979,779 L 977,780 L 975,781 L 973,781 L 971,779 L 970,778 L 969,775 L 966,769 L 958,752 L 951,746 L 943,743 L 935,743 L 928,747 L 923,752 L 911,758 L 902,762 L 886,770 L 869,777 L 847,787 L 829,796 L 813,803 L 801,809 L 789,813 L 785,814 L 780,814 L 776,813 L 773,810 L 771,806 L 770,803 L 768,800 L 766,798 L 763,797 L 758,799 L 755,801 L 752,804 L 747,807 L 740,807 L 730,808 L 720,807 L 711,802 L 700,801 L 690,805 L 668,749 L 669,743 L 678,720 L 682,716 L 686,713 L 694,713 L 701,714 L 703,716 L 705,718 L 706,719 L 707,719 L 708,718 L 709,718 L 709,717 L 710,715 L 709,713 L 707,697 L 707,696 L 707,695 L 710,665 L 712,651 L 712,645 L 714,627 L 715,625 L 716,609 L 717,593 L 718,564 L 720,541 L 721,528 L 723,499 L 724,478 L 725,465 L 726,451 L 728,418 L 729,415 L 729,411 L 729,408 L 729,405 L 729,404 L 729,403 L 730,403 L 731,404 L 749,419 L 774,441 L 776,443 L 807,471 L 810,475 L 814,478 L 818,482 L 819,482 L 819,483 L 819,484 L 818,485 L 816,485 L 814,484 L 808,482 L 803,478 L 797,475 L 791,475 L 785,477 L 774,488 L 759,498 L 755,505 L 753,513 L 754,520 L 757,526 L 762,530 L 765,534 L 768,537 L 769,538 L 771,539 L 771,540 L 772,540 L 773,539 L 774,538 L 775,536 L 777,533 L 782,527 L 787,522 L 795,521 L 801,523 L 805,523 L 809,521 L 812,519 L 817,516 L 820,514 L 823,514 L 826,514 L 828,516 L 830,519 L 830,522 L 829,525 L 828,527 L 826,533 L 827,537 L 829,540 L 833,543 L 840,544 L 846,543 L 847,542 L 852,538 L 853,537 L 869,522 L 882,511 L 893,501 L 896,494 L 901,488 L 907,483 L 916,481 L 926,482 L 952,477 " />
</g>
<g id="new-brunswick-generalized_2" inkscape:label="Saint_John--St__Stephen">
<path d="M 1157,575 L 1158,575 L 1161,578 L 1163,581 L 1164,582 L 1178,597 L 1183,603 L 1186,610 L 1186,617 L 1182,625 L 1175,630 L 1165,643 L 1164,644 L 1156,656 L 1125,717 L 1097,747 L 1092,762 L 1091,764 L 1083,768 L 1075,769 L 1066,768 L 1059,765 L 1054,766 L 1049,768 L 1046,771 L 1043,778 L 1043,784 L 1043,789 L 1044,794 L 1043,798 L 1042,803 L 1039,806 L 1023,819 L 1019,822 L 1017,825 L 1017,829 L 1017,832 L 1016,835 L 1014,838 L 1011,841 L 1007,842 L 1003,841 L 1000,839 L 998,837 L 995,836 L 992,835 L 987,836 L 982,838 L 978,842 L 968,862 L 956,875 L 940,884 L 934,885 L 927,885 L 925,886 L 923,886 L 922,885 L 921,883 L 921,880 L 920,875 L 918,872 L 915,869 L 911,869 L 903,867 L 896,870 L 893,873 L 891,876 L 890,880 L 891,884 L 894,888 L 896,890 L 897,892 L 896,894 L 895,896 L 893,897 L 891,897 L 889,896 L 885,894 L 881,890 L 858,870 L 856,869 L 855,869 L 854,869 L 854,870 L 854,871 L 855,871 L 857,873 L 860,875 L 861,877 L 861,879 L 860,882 L 859,884 L 856,885 L 853,886 L 849,885 L 846,886 L 843,889 L 842,892 L 841,896 L 842,899 L 842,901 L 841,904 L 840,906 L 839,907 L 839,908 L 838,908 L 837,908 L 835,908 L 827,905 L 819,900 L 804,891 L 795,875 L 796,857 L 792,849 L 792,848 L 778,842 L 775,840 L 772,836 L 770,832 L 771,826 L 774,821 L 781,816 L 790,813 L 811,804 L 829,796 L 847,787 L 869,777 L 886,769 L 900,763 L 902,762 L 911,758 L 923,752 L 928,747 L 935,743 L 943,743 L 951,746 L 958,752 L 966,769 L 969,775 L 970,778 L 971,779 L 973,781 L 975,781 L 977,780 L 979,779 L 980,775 L 979,773 L 980,770 L 981,767 L 986,753 L 986,751 L 998,715 L 1007,691 L 1007,690 L 1012,675 L 1024,641 L 1038,599 L 1042,587 L 1045,577 L 1048,570 L 1054,550 L 1055,549 L 1061,530 L 1063,526 L 1067,511 L 1069,506 L 1070,501 L 1072,496 L 1074,494 L 1075,494 L 1077,494 L 1078,494 L 1079,496 L 1080,498 L 1092,510 L 1093,511 L 1093,512 L 1107,526 L 1110,528 L 1114,532 L 1128,546 L 1142,560 L 1152,570 L 1157,575 " />
</g>
<g id="new-brunswick-generalized_3" inkscape:label="Moncton--Richibucto">
<path d="M 1048,246 L 1047,260 L 1052,273 L 1062,282 L 1072,289 L 1083,294 L 1088,296 L 1093,297 L 1098,295 L 1102,292 L 1103,291 L 1105,290 L 1106,290 L 1107,290 L 1108,291 L 1109,292 L 1110,294 L 1121,318 L 1122,320 L 1125,322 L 1125,323 L 1129,325 L 1151,332 L 1151,333 L 1153,334 L 1153,335 L 1154,335 L 1154,336 L 1153,336 L 1152,335 L 1151,334 L 1147,332 L 1143,330 L 1142,330 L 1140,330 L 1138,330 L 1136,331 L 1135,333 L 1135,334 L 1135,336 L 1135,337 L 1136,339 L 1138,340 L 1140,341 L 1154,344 L 1158,347 L 1161,353 L 1164,358 L 1167,363 L 1168,365 L 1169,366 L 1170,366 L 1171,366 L 1172,366 L 1174,363 L 1176,360 L 1179,358 L 1181,358 L 1184,359 L 1186,360 L 1188,364 L 1188,367 L 1188,369 L 1187,371 L 1186,373 L 1187,375 L 1188,378 L 1190,381 L 1195,383 L 1200,384 L 1215,382 L 1228,373 L 1233,368 L 1239,365 L 1241,363 L 1244,362 L 1247,362 L 1249,363 L 1255,364 L 1260,366 L 1276,364 L 1288,355 L 1293,353 L 1298,350 L 1313,346 L 1328,345 L 1333,345 L 1339,346 L 1341,347 L 1343,348 L 1344,349 L 1344,350 L 1344,351 L 1326,374 L 1304,388 L 1302,389 L 1301,390 L 1300,392 L 1300,396 L 1301,398 L 1302,400 L 1304,401 L 1307,402 L 1310,402 L 1311,402 L 1313,403 L 1313,405 L 1313,406 L 1312,407 L 1311,408 L 1304,410 L 1298,415 L 1295,420 L 1294,426 L 1295,432 L 1294,435 L 1294,443 L 1292,451 L 1287,457 L 1277,465 L 1271,476 L 1270,489 L 1271,495 L 1271,500 L 1268,505 L 1266,507 L 1263,507 L 1261,507 L 1260,506 L 1259,505 L 1258,503 L 1257,501 L 1258,497 L 1259,495 L 1259,492 L 1259,489 L 1256,486 L 1252,484 L 1251,483 L 1248,483 L 1246,485 L 1244,487 L 1243,489 L 1241,500 L 1238,511 L 1237,514 L 1235,518 L 1233,521 L 1232,522 L 1232,523 L 1233,524 L 1236,525 L 1237,526 L 1238,529 L 1240,534 L 1240,540 L 1240,549 L 1236,557 L 1233,561 L 1230,563 L 1225,564 L 1221,565 L 1219,565 L 1218,566 L 1216,567 L 1214,569 L 1213,571 L 1200,602 L 1199,604 L 1196,608 L 1193,609 L 1191,609 L 1188,608 L 1185,606 L 1183,603 L 1180,600 L 1163,581 L 1161,578 L 1158,575 L 1157,575 L 1152,570 L 1142,560 L 1128,546 L 1114,532 L 1110,528 L 1108,526 L 1093,512 L 1093,511 L 1092,510 L 1074,492 L 1073,490 L 1057,474 L 1051,467 L 1044,462 L 1035,460 L 1028,461 L 1022,463 L 1008,465 L 1003,466 L 1000,467 L 987,470 L 980,471 L 966,474 L 964,475 L 962,475 L 960,475 L 958,473 L 957,472 L 956,469 L 956,463 L 958,456 L 959,440 L 959,434 L 961,421 L 964,389 L 965,382 L 965,379 L 966,377 L 973,362 L 980,346 L 987,332 L 1005,290 L 1014,271 L 1021,255 L 1024,247 L 1025,245 L 1029,236 L 1034,225 L 1034,220 L 1036,216 L 1038,214 L 1040,213 L 1043,213 L 1047,215 L 1050,219 L 1052,223 L 1053,227 L 1052,232 L 1051,239 L 1048,246 " />
</g>
<g id="new-brunswick-generalized_4" inkscape:label="Edmundston--Woodstock">
<path d="M 728,419 L 727,435 L 726,451 L 725,465 L 724,478 L 723,499 L 722,512 L 721,525 L 720,539 L 720,541 L 718,564 L 717,593 L 716,609 L 715,625 L 714,627 L 712,645 L 712,651 L 710,665 L 707,695 L 707,696 L 707,697 L 709,713 L 710,715 L 709,717 L 709,718 L 708,718 L 708,719 L 707,719 L 706,718 L 705,718 L 703,716 L 701,715 L 694,713 L 690,712 L 687,713 L 684,715 L 680,718 L 678,724 L 675,729 L 670,734 L 669,735 L 667,735 L 665,735 L 663,734 L 662,732 L 659,727 L 657,722 L 651,709 L 632,666 L 631,665 L 625,652 L 620,640 L 608,615 L 604,606 L 587,571 L 583,563 L 570,535 L 566,525 L 560,513 L 542,473 L 537,461 L 535,457 L 534,455 L 532,452 L 532,451 L 514,449 L 484,430 L 429,415 L 419,415 L 406,419 L 405,419 L 402,422 L 400,423 L 399,424 L 399,425 L 399,426 L 399,427 L 399,428 L 400,429 L 401,430 L 403,434 L 403,438 L 401,441 L 399,444 L 396,446 L 389,448 L 383,449 L 377,452 L 373,457 L 371,463 L 369,468 L 365,473 L 359,477 L 353,479 L 343,488 L 338,497 L 331,503 L 326,506 L 321,507 L 315,506 L 310,505 L 295,503 L 293,501 L 291,497 L 289,493 L 288,492 L 288,490 L 288,489 L 289,487 L 290,486 L 299,479 L 308,472 L 325,458 L 335,446 L 344,435 L 356,420 L 364,400 L 371,387 L 372,373 L 367,359 L 357,335 L 354,328 L 351,321 L 349,319 L 349,318 L 349,316 L 349,315 L 350,314 L 351,314 L 354,314 L 357,314 L 364,314 L 372,314 L 387,315 L 389,315 L 410,315 L 417,315 L 420,315 L 432,316 L 461,316 L 463,316 L 476,316 L 479,316 L 496,317 L 528,317 L 535,317 L 544,318 L 590,318 L 607,318 L 620,318 L 633,323 L 643,332 L 644,333 L 659,345 L 661,347 L 673,357 L 681,363 L 683,365 L 689,370 L 696,376 L 710,386 L 711,387 L 711,388 L 713,389 L 723,396 L 729,407 L 728,419 " />
</g>
<g id="new-brunswick-generalized_5" inkscape:label="Campbellton--Miramichi">
<path d="M 661,86 L 661,88 L 660,89 L 659,90 L 658,92 L 658,94 L 659,97 L 661,98 L 665,99 L 669,99 L 707,94 L 724,95 L 741,92 L 756,84 L 762,83 L 764,83 L 782,87 L 792,94 L 802,105 L 809,117 L 812,120 L 813,120 L 819,122 L 824,126 L 826,132 L 828,137 L 828,139 L 829,140 L 830,141 L 831,140 L 832,140 L 832,139 L 832,138 L 834,131 L 836,124 L 838,121 L 850,114 L 851,113 L 851,112 L 852,111 L 855,105 L 856,104 L 858,100 L 863,83 L 872,71 L 879,58 L 882,53 L 890,46 L 893,44 L 912,30 L 916,29 L 917,29 L 917,30 L 918,31 L 917,31 L 913,37 L 910,43 L 909,45 L 909,48 L 910,50 L 911,51 L 912,51 L 913,51 L 914,51 L 915,50 L 916,48 L 921,42 L 927,37 L 943,23 L 946,22 L 949,22 L 952,23 L 953,24 L 954,26 L 953,30 L 954,33 L 956,36 L 958,38 L 960,39 L 962,39 L 963,38 L 965,37 L 966,34 L 965,32 L 966,30 L 967,29 L 970,27 L 973,27 L 977,28 L 981,30 L 982,31 L 983,32 L 983,33 L 982,34 L 976,39 L 971,46 L 970,54 L 970,61 L 973,67 L 973,68 L 967,85 L 968,94 L 972,102 L 978,109 L 982,118 L 984,127 L 982,136 L 982,144 L 985,153 L 987,160 L 985,167 L 981,172 L 978,176 L 976,179 L 976,180 L 972,200 L 970,206 L 962,224 L 960,228 L 955,233 L 952,239 L 951,242 L 951,244 L 952,246 L 953,247 L 954,248 L 955,248 L 957,248 L 960,247 L 962,245 L 964,242 L 968,239 L 970,239 L 973,239 L 976,241 L 980,241 L 985,240 L 990,237 L 993,231 L 1032,205 L 1033,204 L 1042,201 L 1043,201 L 1044,201 L 1044,202 L 1029,236 L 1025,245 L 1024,247 L 1021,255 L 1014,271 L 1005,290 L 987,332 L 980,346 L 973,362 L 966,377 L 965,379 L 965,382 L 964,389 L 961,421 L 959,434 L 959,440 L 958,456 L 957,465 L 953,473 L 947,479 L 937,482 L 927,482 L 919,480 L 911,482 L 903,485 L 897,492 L 893,501 L 882,511 L 869,522 L 853,537 L 852,538 L 847,542 L 846,543 L 840,544 L 833,543 L 829,540 L 827,537 L 826,533 L 828,527 L 829,525 L 830,522 L 830,520 L 829,517 L 828,516 L 826,514 L 824,514 L 821,514 L 818,516 L 812,519 L 809,521 L 805,523 L 801,523 L 795,521 L 787,522 L 782,527 L 777,533 L 775,536 L 774,538 L 773,539 L 772,540 L 771,540 L 771,539 L 769,538 L 768,537 L 765,534 L 762,530 L 756,524 L 753,517 L 753,510 L 755,504 L 759,498 L 774,488 L 785,477 L 791,475 L 797,475 L 803,478 L 808,482 L 814,484 L 816,485 L 818,485 L 819,484 L 819,483 L 819,482 L 818,482 L 814,478 L 810,475 L 806,471 L 776,443 L 774,441 L 749,419 L 726,400 L 713,389 L 711,388 L 711,387 L 710,386 L 696,376 L 689,370 L 683,365 L 681,363 L 673,357 L 661,347 L 659,345 L 644,333 L 643,332 L 633,323 L 620,318 L 607,318 L 590,318 L 544,318 L 535,317 L 528,317 L 496,317 L 479,316 L 476,316 L 463,316 L 461,316 L 432,316 L 420,315 L 417,315 L 410,315 L 389,315 L 387,315 L 373,314 L 363,316 L 354,314 L 349,312 L 345,308 L 343,303 L 339,295 L 335,286 L 334,285 L 334,284 L 334,283 L 334,282 L 335,281 L 337,280 L 339,279 L 354,273 L 358,271 L 364,269 L 370,266 L 373,262 L 375,258 L 374,255 L 373,252 L 372,250 L 370,247 L 370,244 L 371,241 L 373,239 L 378,237 L 401,226 L 404,225 L 428,214 L 441,208 L 447,204 L 451,203 L 455,204 L 458,206 L 460,208 L 461,210 L 462,213 L 462,215 L 464,216 L 466,218 L 469,218 L 475,218 L 481,216 L 502,216 L 523,210 L 540,198 L 542,195 L 545,188 L 550,182 L 556,178 L 565,176 L 574,178 L 575,178 L 576,178 L 577,177 L 577,176 L 577,175 L 577,174 L 576,173 L 573,169 L 572,164 L 571,158 L 574,152 L 579,147 L 585,143 L 598,133 L 611,124 L 613,123 L 619,116 L 626,109 L 629,106 L 635,91 L 636,90 L 637,90 L 645,85 L 646,84 L 648,83 L 649,82 L 650,82 L 651,82 L 653,82 L 655,82 L 658,82 L 660,83 L 661,83 L 661,84 L 662,84 L 662,85 L 661,86 " />
</g>
</g>
</g></svg>