<?xml version="1.0" standalone="no"?>
<!DOCTYPE svg PUBLIC "-//W3C//DTD SVG 1.1//EN" "http://www.w3.org/Graphics/SVG/1.1/DTD/svg11.dtd">
<svg xmlns="http://www.w3.org/2000/svg" xmlns:inkscape="http://www.inkscape.org/namespaces/inkscape" xmlns:xlink="http://www.w3.org/1999/xlink" viewBox = "0 0 1635 933" version = "1.1">
<!-- svg generated using QGIS www.qgis.org -->
<g id="newfoundland-and-labrador-generalized" inkscape:groupmode="layer" inkscape:label="newfoundland-and-labrador-generalized">
<g stroke="rgb(35,35,35)" fill="rgb(133,182,111)" stroke-linejoin="round" stroke-width="0.40">
<g id="newfoundland-and-labrador-generalized_1" inkscape:label="Notre_Dame--Central_Bonavista_Bay">
<path d="M 1079,602 L 1080,600 L 1079,600 L 1080,599 L 1081,599 L 1083,600 L 1085,601 L 1087,602 L 1088,604 L 1088,606 L 1088,608 L 1089,610 L 1090,611 L 1090,612 L 1091,612 L 1092,612 L 1093,611 L 1093,610 L 1092,609 L 1091,608 L 1092,607 L 1092,606 L 1093,605 L 1093,604 L 1094,604 L 1094,605 L 1095,606 L 1096,606 L 1097,605 L 1097,604 L 1097,603 L 1097,602 L 1097,601 L 1098,600 L 1099,600 L 1100,600 L 1103,601 L 1105,602 L 1108,603 L 1111,602 L 1112,602 L 1113,600 L 1114,599 L 1114,597 L 1115,596 L 1116,595 L 1118,593 L 1119,591 L 1119,590 L 1120,589 L 1121,589 L 1121,588 L 1123,589 L 1125,590 L 1125,593 L 1123,598 L 1121,606 L 1118,612 L 1110,630 L 1109,630 L 1109,631 L 1108,631 L 1108,632 L 1109,632 L 1110,631 L 1111,631 L 1111,632 L 1110,633 L 1110,635 L 1109,639 L 1109,640 L 1109,642 L 1110,644 L 1111,644 L 1111,643 L 1111,641 L 1110,639 L 1111,633 L 1112,631 L 1114,629 L 1116,626 L 1116,625 L 1117,624 L 1118,624 L 1118,625 L 1117,625 L 1116,627 L 1115,629 L 1115,630 L 1115,631 L 1116,630 L 1117,628 L 1118,627 L 1119,626 L 1119,625 L 1120,625 L 1118,631 L 1118,632 L 1118,631 L 1119,631 L 1119,630 L 1120,628 L 1120,626 L 1120,625 L 1121,625 L 1122,625 L 1120,629 L 1120,630 L 1121,632 L 1122,633 L 1123,633 L 1124,633 L 1125,632 L 1125,631 L 1125,630 L 1125,629 L 1126,629 L 1127,629 L 1127,630 L 1127,631 L 1127,633 L 1127,634 L 1121,647 L 1120,649 L 1121,652 L 1121,653 L 1122,654 L 1122,653 L 1123,653 L 1123,652 L 1124,646 L 1124,645 L 1131,636 L 1132,636 L 1134,636 L 1136,636 L 1136,638 L 1137,639 L 1137,641 L 1136,641 L 1137,642 L 1137,641 L 1137,640 L 1138,639 L 1139,638 L 1140,638 L 1142,638 L 1143,639 L 1144,640 L 1145,641 L 1146,642 L 1147,641 L 1146,634 L 1146,630 L 1146,629 L 1147,629 L 1148,629 L 1148,630 L 1149,632 L 1149,635 L 1150,638 L 1152,640 L 1152,639 L 1152,638 L 1151,635 L 1151,632 L 1151,629 L 1152,626 L 1153,623 L 1154,622 L 1155,622 L 1156,622 L 1156,623 L 1156,624 L 1156,625 L 1155,625 L 1155,626 L 1156,626 L 1156,627 L 1157,627 L 1158,626 L 1159,625 L 1158,624 L 1159,623 L 1159,624 L 1160,624 L 1160,626 L 1160,629 L 1159,630 L 1159,632 L 1160,634 L 1161,634 L 1162,634 L 1163,634 L 1163,632 L 1163,631 L 1162,630 L 1162,629 L 1162,628 L 1163,628 L 1164,628 L 1165,629 L 1165,630 L 1165,631 L 1166,632 L 1167,632 L 1167,631 L 1168,631 L 1168,630 L 1168,629 L 1168,627 L 1167,626 L 1160,620 L 1155,618 L 1155,617 L 1160,615 L 1161,613 L 1163,612 L 1164,612 L 1165,612 L 1167,613 L 1168,614 L 1169,616 L 1170,627 L 1171,630 L 1173,632 L 1174,634 L 1175,637 L 1175,640 L 1174,642 L 1174,644 L 1175,647 L 1178,650 L 1182,652 L 1183,652 L 1185,645 L 1185,644 L 1185,645 L 1184,645 L 1184,646 L 1183,647 L 1183,648 L 1183,649 L 1182,649 L 1181,649 L 1180,648 L 1179,647 L 1177,642 L 1177,638 L 1179,633 L 1182,627 L 1182,626 L 1180,625 L 1178,624 L 1178,623 L 1179,622 L 1180,622 L 1180,623 L 1182,623 L 1185,624 L 1186,626 L 1186,628 L 1186,629 L 1186,630 L 1186,631 L 1187,631 L 1187,630 L 1186,628 L 1186,626 L 1187,624 L 1188,623 L 1189,622 L 1190,621 L 1190,620 L 1190,619 L 1190,618 L 1190,617 L 1188,616 L 1187,616 L 1186,614 L 1185,612 L 1186,610 L 1187,610 L 1187,611 L 1188,612 L 1189,614 L 1189,615 L 1189,616 L 1190,617 L 1191,617 L 1193,617 L 1194,615 L 1195,613 L 1195,611 L 1196,604 L 1195,597 L 1194,589 L 1195,587 L 1196,585 L 1196,584 L 1197,584 L 1197,585 L 1198,586 L 1198,589 L 1199,592 L 1199,593 L 1199,594 L 1200,594 L 1200,593 L 1201,593 L 1201,592 L 1202,592 L 1203,592 L 1204,593 L 1205,594 L 1206,595 L 1206,598 L 1207,600 L 1208,601 L 1209,602 L 1210,603 L 1210,604 L 1211,606 L 1211,607 L 1212,607 L 1212,606 L 1212,605 L 1212,602 L 1212,601 L 1212,599 L 1210,598 L 1210,596 L 1209,594 L 1209,593 L 1209,591 L 1210,590 L 1211,589 L 1211,588 L 1212,588 L 1213,588 L 1214,589 L 1216,589 L 1217,588 L 1219,586 L 1220,585 L 1220,583 L 1220,582 L 1220,580 L 1220,579 L 1223,575 L 1224,575 L 1224,574 L 1225,574 L 1225,575 L 1225,576 L 1226,576 L 1227,576 L 1228,575 L 1231,573 L 1234,572 L 1238,572 L 1242,571 L 1250,572 L 1255,571 L 1260,571 L 1262,571 L 1264,572 L 1264,573 L 1264,574 L 1264,576 L 1264,577 L 1265,579 L 1265,582 L 1264,585 L 1263,587 L 1263,588 L 1264,588 L 1265,587 L 1267,587 L 1268,588 L 1269,589 L 1269,592 L 1268,594 L 1267,595 L 1265,596 L 1262,598 L 1261,598 L 1261,599 L 1260,600 L 1260,601 L 1261,601 L 1262,601 L 1263,601 L 1263,600 L 1263,599 L 1264,599 L 1264,600 L 1264,601 L 1263,602 L 1263,603 L 1262,604 L 1261,604 L 1260,605 L 1260,606 L 1260,607 L 1261,607 L 1262,607 L 1263,607 L 1264,607 L 1265,607 L 1265,608 L 1264,610 L 1260,614 L 1259,615 L 1258,616 L 1258,617 L 1259,617 L 1260,617 L 1260,616 L 1261,615 L 1261,614 L 1262,614 L 1263,614 L 1263,615 L 1263,616 L 1262,617 L 1261,620 L 1260,623 L 1259,625 L 1257,626 L 1255,629 L 1254,632 L 1254,633 L 1254,634 L 1255,635 L 1256,635 L 1256,634 L 1257,634 L 1257,632 L 1258,630 L 1263,623 L 1264,620 L 1266,618 L 1269,616 L 1270,616 L 1271,616 L 1272,616 L 1272,617 L 1271,618 L 1271,619 L 1270,620 L 1270,621 L 1271,622 L 1271,624 L 1271,625 L 1270,626 L 1268,628 L 1267,628 L 1267,629 L 1268,630 L 1269,630 L 1269,629 L 1270,629 L 1271,630 L 1270,630 L 1270,631 L 1270,632 L 1269,634 L 1269,635 L 1270,635 L 1273,629 L 1273,628 L 1274,623 L 1274,622 L 1274,623 L 1274,624 L 1275,626 L 1275,627 L 1276,627 L 1276,626 L 1277,626 L 1277,625 L 1278,624 L 1279,623 L 1280,623 L 1282,623 L 1283,624 L 1284,624 L 1285,624 L 1286,623 L 1287,623 L 1287,621 L 1287,620 L 1288,619 L 1288,618 L 1289,618 L 1289,619 L 1289,620 L 1289,621 L 1289,624 L 1285,628 L 1284,630 L 1283,634 L 1282,637 L 1279,639 L 1279,640 L 1279,641 L 1280,641 L 1281,640 L 1281,639 L 1284,637 L 1285,635 L 1286,635 L 1288,634 L 1289,634 L 1290,635 L 1291,636 L 1291,638 L 1291,639 L 1290,640 L 1290,641 L 1286,645 L 1284,655 L 1283,656 L 1281,656 L 1279,658 L 1279,659 L 1278,661 L 1279,662 L 1280,664 L 1280,665 L 1281,665 L 1282,665 L 1282,664 L 1282,663 L 1282,662 L 1281,662 L 1281,661 L 1282,659 L 1283,657 L 1286,655 L 1289,644 L 1290,644 L 1290,643 L 1291,643 L 1291,644 L 1292,645 L 1292,646 L 1292,649 L 1293,652 L 1293,653 L 1294,653 L 1294,652 L 1295,651 L 1295,649 L 1294,647 L 1293,640 L 1294,634 L 1296,632 L 1296,631 L 1297,630 L 1297,631 L 1299,638 L 1299,639 L 1299,640 L 1300,640 L 1300,641 L 1301,641 L 1301,640 L 1302,640 L 1302,639 L 1302,638 L 1301,637 L 1300,637 L 1300,636 L 1300,635 L 1300,634 L 1301,633 L 1302,633 L 1303,633 L 1303,634 L 1304,635 L 1304,636 L 1305,638 L 1304,638 L 1304,639 L 1305,640 L 1306,640 L 1306,639 L 1306,638 L 1306,634 L 1306,631 L 1305,627 L 1303,624 L 1302,621 L 1302,620 L 1302,618 L 1303,616 L 1306,615 L 1308,615 L 1309,616 L 1310,617 L 1312,617 L 1313,617 L 1314,617 L 1315,616 L 1316,615 L 1316,614 L 1316,613 L 1314,610 L 1314,607 L 1316,604 L 1317,602 L 1319,601 L 1321,600 L 1323,600 L 1324,601 L 1325,601 L 1326,602 L 1326,603 L 1328,611 L 1331,616 L 1331,620 L 1331,621 L 1330,623 L 1329,626 L 1328,628 L 1327,629 L 1326,629 L 1324,629 L 1323,630 L 1322,631 L 1322,632 L 1321,633 L 1321,635 L 1322,643 L 1320,651 L 1317,658 L 1315,661 L 1313,662 L 1309,662 L 1304,664 L 1302,665 L 1300,666 L 1299,666 L 1299,667 L 1299,668 L 1300,670 L 1302,672 L 1304,674 L 1307,675 L 1310,675 L 1313,673 L 1315,671 L 1319,669 L 1320,669 L 1321,668 L 1322,668 L 1323,668 L 1323,669 L 1321,673 L 1318,677 L 1311,681 L 1310,681 L 1310,682 L 1311,682 L 1312,682 L 1319,678 L 1324,672 L 1325,667 L 1326,667 L 1326,668 L 1327,670 L 1328,671 L 1329,676 L 1330,678 L 1330,680 L 1330,682 L 1328,683 L 1327,684 L 1324,685 L 1322,684 L 1320,684 L 1319,684 L 1317,685 L 1316,686 L 1314,687 L 1311,687 L 1307,686 L 1305,685 L 1302,684 L 1300,684 L 1297,686 L 1295,689 L 1292,691 L 1289,692 L 1283,691 L 1281,689 L 1279,688 L 1278,687 L 1277,687 L 1276,687 L 1275,687 L 1274,688 L 1273,689 L 1269,692 L 1268,693 L 1267,695 L 1267,697 L 1268,699 L 1268,700 L 1267,702 L 1265,705 L 1263,706 L 1261,706 L 1260,705 L 1259,704 L 1258,703 L 1257,704 L 1256,705 L 1255,705 L 1254,705 L 1253,704 L 1252,704 L 1252,703 L 1251,702 L 1250,701 L 1249,701 L 1248,702 L 1246,703 L 1245,704 L 1245,705 L 1246,706 L 1247,708 L 1247,709 L 1247,710 L 1247,711 L 1246,711 L 1245,711 L 1244,710 L 1244,709 L 1244,708 L 1243,708 L 1243,707 L 1240,707 L 1238,707 L 1236,709 L 1233,713 L 1229,716 L 1224,718 L 1218,721 L 1212,725 L 1208,730 L 1205,734 L 1201,736 L 1198,736 L 1195,735 L 1192,734 L 1190,730 L 1187,727 L 1183,726 L 1176,725 L 1172,725 L 1168,726 L 1166,727 L 1164,730 L 1163,733 L 1162,733 L 1152,738 L 1151,738 L 1150,739 L 1150,740 L 1150,742 L 1151,749 L 1149,756 L 1147,762 L 1146,765 L 1143,768 L 1141,769 L 1139,771 L 1138,773 L 1138,774 L 1137,774 L 1136,774 L 1136,773 L 1135,773 L 1135,772 L 1134,770 L 1133,770 L 1132,770 L 1131,770 L 1129,771 L 1128,772 L 1128,773 L 1127,774 L 1126,774 L 1125,774 L 1124,774 L 1123,773 L 1121,773 L 1120,774 L 1119,776 L 1119,777 L 1119,778 L 1118,778 L 1118,779 L 1118,778 L 1117,778 L 1117,777 L 1118,771 L 1118,770 L 1118,769 L 1117,769 L 1116,769 L 1116,770 L 1115,771 L 1114,772 L 1113,776 L 1112,781 L 1111,783 L 1111,785 L 1110,787 L 1109,787 L 1108,788 L 1107,787 L 1106,787 L 1105,787 L 1105,788 L 1104,789 L 1105,789 L 1105,791 L 1106,793 L 1105,797 L 1104,801 L 1102,804 L 1096,810 L 1094,811 L 1092,812 L 1091,812 L 1090,811 L 1089,810 L 1088,809 L 1088,808 L 1089,806 L 1091,803 L 1094,801 L 1097,799 L 1098,799 L 1099,797 L 1100,795 L 1101,795 L 1101,794 L 1101,788 L 1102,786 L 1101,784 L 1101,783 L 1100,783 L 1099,783 L 1098,784 L 1097,784 L 1096,783 L 1095,783 L 1095,782 L 1094,781 L 1095,779 L 1096,778 L 1097,776 L 1099,774 L 1101,773 L 1103,771 L 1103,770 L 1103,769 L 1102,768 L 1101,767 L 1099,767 L 1098,768 L 1098,769 L 1097,768 L 1098,766 L 1098,765 L 1098,764 L 1097,764 L 1096,763 L 1094,763 L 1093,762 L 1092,762 L 1091,761 L 1091,760 L 1091,759 L 1092,757 L 1092,755 L 1092,754 L 1090,751 L 1089,746 L 1090,741 L 1094,736 L 1095,735 L 1096,734 L 1098,734 L 1100,734 L 1101,734 L 1103,734 L 1104,733 L 1106,730 L 1108,728 L 1111,718 L 1113,711 L 1112,704 L 1109,698 L 1109,695 L 1109,693 L 1108,692 L 1107,692 L 1107,691 L 1106,691 L 1105,691 L 1104,691 L 1096,697 L 1094,698 L 1092,699 L 1090,699 L 1089,699 L 1088,699 L 1087,699 L 1084,695 L 1083,691 L 1084,687 L 1086,683 L 1087,680 L 1086,676 L 1087,672 L 1087,667 L 1086,665 L 1085,664 L 1083,663 L 1081,662 L 1080,662 L 1079,662 L 1078,662 L 1078,661 L 1077,660 L 1077,658 L 1077,656 L 1076,646 L 1076,641 L 1078,632 L 1080,627 L 1079,613 L 1079,604 L 1079,602 " />
</g>
<g id="newfoundland-and-labrador-generalized_2" inkscape:label="Avalon_Peninsula">
<path d="M 1353,631 L 1354,631 L 1355,631 L 1358,632 L 1360,632 L 1361,632 L 1361,633 L 1362,633 L 1362,634 L 1360,636 L 1359,638 L 1359,641 L 1362,646 L 1362,647 L 1361,651 L 1361,655 L 1364,658 L 1365,662 L 1366,669 L 1366,675 L 1366,677 L 1366,678 L 1366,679 L 1367,679 L 1368,680 L 1368,679 L 1369,679 L 1369,678 L 1369,677 L 1370,677 L 1370,678 L 1370,679 L 1371,681 L 1369,686 L 1369,688 L 1370,686 L 1371,685 L 1372,684 L 1372,683 L 1371,685 L 1371,687 L 1371,688 L 1372,688 L 1372,689 L 1373,688 L 1374,683 L 1374,684 L 1374,685 L 1374,687 L 1373,689 L 1373,690 L 1372,691 L 1373,692 L 1372,692 L 1373,692 L 1374,690 L 1375,688 L 1375,687 L 1376,687 L 1377,687 L 1379,692 L 1380,693 L 1380,695 L 1381,696 L 1382,695 L 1383,694 L 1384,694 L 1386,694 L 1387,695 L 1389,696 L 1389,697 L 1389,698 L 1390,698 L 1389,697 L 1389,696 L 1388,694 L 1387,692 L 1387,690 L 1388,686 L 1390,679 L 1391,678 L 1389,669 L 1386,663 L 1384,659 L 1382,654 L 1383,653 L 1384,653 L 1386,653 L 1388,654 L 1394,657 L 1398,661 L 1402,666 L 1403,667 L 1404,668 L 1406,669 L 1407,669 L 1408,669 L 1414,696 L 1415,701 L 1418,706 L 1418,707 L 1419,707 L 1419,708 L 1419,709 L 1418,710 L 1418,711 L 1418,712 L 1419,712 L 1420,712 L 1421,712 L 1421,711 L 1422,712 L 1423,712 L 1423,713 L 1423,715 L 1423,717 L 1422,717 L 1422,718 L 1423,719 L 1424,719 L 1425,720 L 1427,721 L 1428,723 L 1429,728 L 1430,729 L 1433,734 L 1433,737 L 1433,740 L 1433,744 L 1433,748 L 1434,749 L 1435,751 L 1434,753 L 1434,755 L 1432,757 L 1430,758 L 1429,758 L 1428,758 L 1426,757 L 1424,756 L 1422,755 L 1420,755 L 1419,755 L 1418,756 L 1417,757 L 1416,759 L 1416,760 L 1416,761 L 1416,760 L 1415,758 L 1415,757 L 1415,756 L 1415,757 L 1415,758 L 1415,759 L 1415,762 L 1415,765 L 1414,772 L 1414,773 L 1413,774 L 1412,774 L 1410,774 L 1409,774 L 1407,774 L 1405,773 L 1403,771 L 1402,768 L 1401,766 L 1401,765 L 1400,764 L 1399,764 L 1398,764 L 1397,764 L 1396,763 L 1395,761 L 1393,752 L 1394,751 L 1393,749 L 1392,748 L 1391,748 L 1390,748 L 1389,749 L 1388,749 L 1387,749 L 1387,748 L 1386,748 L 1386,747 L 1384,742 L 1384,737 L 1386,732 L 1387,730 L 1386,729 L 1385,730 L 1385,731 L 1385,732 L 1385,733 L 1384,734 L 1383,734 L 1382,733 L 1381,732 L 1379,730 L 1379,729 L 1378,729 L 1377,730 L 1377,731 L 1377,732 L 1377,733 L 1378,733 L 1380,738 L 1379,739 L 1379,741 L 1378,740 L 1378,739 L 1377,738 L 1377,737 L 1377,736 L 1376,736 L 1376,737 L 1377,742 L 1378,760 L 1378,765 L 1377,770 L 1376,775 L 1375,777 L 1374,780 L 1372,781 L 1370,782 L 1368,782 L 1365,781 L 1363,779 L 1359,769 L 1359,767 L 1358,761 L 1357,758 L 1357,757 L 1353,748 L 1353,745 L 1354,742 L 1355,739 L 1359,736 L 1360,735 L 1359,735 L 1359,736 L 1357,737 L 1356,738 L 1355,740 L 1354,741 L 1353,742 L 1352,742 L 1351,741 L 1351,740 L 1351,738 L 1352,736 L 1352,734 L 1352,732 L 1351,731 L 1350,730 L 1349,730 L 1349,729 L 1349,728 L 1350,728 L 1351,726 L 1351,725 L 1350,724 L 1350,723 L 1349,723 L 1348,723 L 1347,724 L 1347,725 L 1346,725 L 1345,725 L 1344,724 L 1344,723 L 1342,719 L 1340,716 L 1320,700 L 1318,701 L 1317,702 L 1316,702 L 1314,701 L 1313,700 L 1312,698 L 1312,692 L 1314,687 L 1319,684 L 1324,683 L 1328,685 L 1331,686 L 1332,689 L 1333,692 L 1333,694 L 1332,695 L 1331,695 L 1328,693 L 1326,693 L 1325,692 L 1324,692 L 1323,693 L 1323,694 L 1324,694 L 1324,695 L 1326,695 L 1327,696 L 1329,696 L 1332,699 L 1335,702 L 1338,704 L 1340,704 L 1342,704 L 1343,703 L 1344,702 L 1344,700 L 1343,699 L 1343,698 L 1343,697 L 1344,697 L 1345,698 L 1346,701 L 1347,703 L 1349,705 L 1352,707 L 1353,707 L 1353,708 L 1354,707 L 1355,707 L 1355,706 L 1356,705 L 1356,704 L 1357,704 L 1358,704 L 1359,704 L 1359,705 L 1360,705 L 1360,704 L 1357,700 L 1350,686 L 1349,682 L 1345,660 L 1345,658 L 1345,657 L 1348,651 L 1350,649 L 1352,647 L 1354,645 L 1355,643 L 1355,640 L 1353,633 L 1353,632 L 1353,631 " />
</g>
<g id="newfoundland-and-labrador-generalized_3" inkscape:label="South_Coast--Burin_Peninsula___Cate-sud--Burin_Peninsula">
<path d="M 1165,728 L 1168,726 L 1172,725 L 1176,725 L 1183,726 L 1187,727 L 1190,730 L 1192,732 L 1194,734 L 1196,736 L 1200,736 L 1204,734 L 1209,730 L 1214,724 L 1218,721 L 1224,718 L 1229,716 L 1233,713 L 1236,709 L 1238,707 L 1240,707 L 1243,707 L 1243,708 L 1244,708 L 1244,709 L 1244,710 L 1245,711 L 1246,711 L 1247,711 L 1247,710 L 1247,709 L 1247,708 L 1246,706 L 1245,705 L 1245,704 L 1246,703 L 1248,702 L 1249,701 L 1250,701 L 1251,702 L 1252,703 L 1252,704 L 1253,704 L 1254,705 L 1255,705 L 1256,705 L 1257,704 L 1258,703 L 1259,704 L 1260,705 L 1261,706 L 1263,706 L 1265,705 L 1267,702 L 1268,700 L 1268,699 L 1267,697 L 1267,695 L 1268,693 L 1269,692 L 1273,689 L 1274,688 L 1275,687 L 1276,687 L 1277,687 L 1278,687 L 1279,688 L 1281,689 L 1283,691 L 1289,692 L 1292,691 L 1295,689 L 1296,686 L 1300,684 L 1303,684 L 1306,685 L 1309,686 L 1312,689 L 1313,692 L 1312,695 L 1312,697 L 1313,700 L 1314,700 L 1314,701 L 1314,702 L 1313,702 L 1312,703 L 1312,702 L 1310,702 L 1308,702 L 1307,702 L 1306,702 L 1305,703 L 1305,704 L 1306,704 L 1307,704 L 1308,704 L 1311,710 L 1313,725 L 1314,732 L 1314,736 L 1316,740 L 1318,743 L 1319,745 L 1319,747 L 1319,749 L 1317,754 L 1317,755 L 1316,756 L 1316,757 L 1315,757 L 1314,757 L 1313,757 L 1314,751 L 1314,748 L 1314,747 L 1312,739 L 1312,737 L 1311,737 L 1312,735 L 1311,734 L 1311,733 L 1310,733 L 1310,734 L 1310,736 L 1310,738 L 1312,746 L 1312,749 L 1312,754 L 1309,759 L 1306,762 L 1305,763 L 1305,764 L 1304,764 L 1303,764 L 1302,764 L 1301,763 L 1301,762 L 1301,761 L 1301,760 L 1301,759 L 1301,758 L 1301,759 L 1301,761 L 1301,763 L 1302,764 L 1302,765 L 1301,765 L 1301,764 L 1300,763 L 1299,764 L 1299,765 L 1300,766 L 1300,767 L 1299,768 L 1300,771 L 1299,781 L 1300,784 L 1301,788 L 1302,788 L 1302,789 L 1301,790 L 1300,790 L 1299,789 L 1298,789 L 1297,789 L 1297,790 L 1296,790 L 1296,791 L 1296,792 L 1297,792 L 1298,793 L 1299,793 L 1301,793 L 1302,793 L 1304,794 L 1305,797 L 1306,799 L 1306,800 L 1305,802 L 1304,802 L 1302,803 L 1301,802 L 1300,802 L 1299,802 L 1299,803 L 1300,804 L 1302,805 L 1303,807 L 1304,811 L 1305,817 L 1304,818 L 1304,819 L 1296,828 L 1296,829 L 1295,829 L 1294,827 L 1292,826 L 1291,826 L 1290,827 L 1289,828 L 1288,830 L 1287,835 L 1284,838 L 1279,843 L 1271,844 L 1268,844 L 1266,844 L 1264,842 L 1263,839 L 1264,828 L 1277,813 L 1279,809 L 1280,801 L 1283,794 L 1282,791 L 1279,786 L 1278,781 L 1277,776 L 1279,771 L 1282,766 L 1286,761 L 1288,759 L 1289,757 L 1290,754 L 1289,751 L 1288,750 L 1288,749 L 1287,749 L 1287,748 L 1288,748 L 1288,746 L 1290,743 L 1291,741 L 1291,740 L 1290,739 L 1289,739 L 1288,740 L 1283,751 L 1281,754 L 1279,756 L 1278,757 L 1277,757 L 1276,757 L 1276,756 L 1275,754 L 1274,752 L 1274,745 L 1273,739 L 1274,738 L 1273,738 L 1273,739 L 1273,742 L 1273,744 L 1274,750 L 1274,755 L 1274,757 L 1275,759 L 1275,760 L 1274,761 L 1273,761 L 1272,760 L 1272,759 L 1272,758 L 1272,757 L 1271,757 L 1271,756 L 1270,756 L 1270,757 L 1269,757 L 1269,758 L 1269,759 L 1267,759 L 1266,759 L 1264,761 L 1261,762 L 1260,763 L 1259,763 L 1258,763 L 1257,762 L 1256,761 L 1256,760 L 1255,760 L 1254,760 L 1253,760 L 1253,761 L 1253,762 L 1255,767 L 1258,771 L 1262,774 L 1265,778 L 1265,779 L 1265,780 L 1265,781 L 1264,782 L 1262,784 L 1260,786 L 1260,787 L 1260,788 L 1260,789 L 1261,789 L 1260,790 L 1260,791 L 1259,791 L 1258,791 L 1257,790 L 1256,790 L 1255,789 L 1255,788 L 1254,786 L 1254,785 L 1253,784 L 1252,784 L 1250,784 L 1249,784 L 1249,785 L 1248,787 L 1249,788 L 1250,789 L 1250,790 L 1250,791 L 1250,792 L 1249,793 L 1248,793 L 1247,793 L 1246,793 L 1245,792 L 1245,791 L 1245,788 L 1244,787 L 1244,786 L 1244,785 L 1243,785 L 1243,786 L 1243,787 L 1244,789 L 1244,790 L 1244,791 L 1244,792 L 1244,793 L 1242,794 L 1241,794 L 1240,793 L 1238,789 L 1239,787 L 1239,786 L 1240,785 L 1241,783 L 1242,782 L 1242,781 L 1241,781 L 1241,782 L 1241,784 L 1240,786 L 1235,797 L 1230,805 L 1230,806 L 1228,807 L 1226,807 L 1225,807 L 1224,807 L 1224,806 L 1224,805 L 1224,804 L 1226,802 L 1228,800 L 1232,794 L 1233,792 L 1235,787 L 1238,782 L 1240,777 L 1241,776 L 1242,774 L 1242,773 L 1239,777 L 1237,782 L 1235,784 L 1232,786 L 1231,786 L 1229,785 L 1228,784 L 1227,783 L 1228,778 L 1228,772 L 1230,767 L 1230,765 L 1230,764 L 1230,765 L 1229,768 L 1229,769 L 1228,770 L 1227,770 L 1225,769 L 1224,768 L 1224,767 L 1224,766 L 1227,760 L 1227,759 L 1228,759 L 1227,759 L 1226,760 L 1226,762 L 1225,763 L 1224,763 L 1223,763 L 1222,763 L 1222,762 L 1223,762 L 1223,761 L 1224,761 L 1224,760 L 1223,760 L 1223,759 L 1222,759 L 1221,760 L 1221,761 L 1220,762 L 1221,763 L 1221,764 L 1222,765 L 1224,768 L 1224,772 L 1224,774 L 1222,777 L 1221,778 L 1219,782 L 1219,787 L 1218,788 L 1217,788 L 1216,788 L 1216,787 L 1215,787 L 1215,785 L 1215,784 L 1215,783 L 1215,782 L 1216,782 L 1216,781 L 1215,781 L 1214,781 L 1214,782 L 1214,783 L 1214,784 L 1213,784 L 1208,780 L 1204,777 L 1205,778 L 1210,783 L 1213,787 L 1215,791 L 1215,796 L 1214,797 L 1213,798 L 1212,799 L 1210,800 L 1209,799 L 1208,798 L 1207,797 L 1205,795 L 1204,793 L 1202,791 L 1202,790 L 1201,791 L 1202,791 L 1203,794 L 1206,798 L 1208,800 L 1208,802 L 1208,805 L 1205,807 L 1203,809 L 1202,809 L 1201,809 L 1200,809 L 1200,810 L 1200,809 L 1199,809 L 1199,808 L 1198,807 L 1196,805 L 1195,804 L 1193,803 L 1192,803 L 1191,803 L 1191,804 L 1192,804 L 1194,804 L 1195,805 L 1196,805 L 1197,806 L 1198,808 L 1198,809 L 1199,809 L 1199,810 L 1198,810 L 1197,810 L 1195,811 L 1194,811 L 1194,812 L 1193,813 L 1193,814 L 1193,815 L 1194,816 L 1194,817 L 1194,818 L 1193,818 L 1192,819 L 1190,819 L 1188,818 L 1186,817 L 1185,817 L 1184,817 L 1184,818 L 1185,818 L 1187,819 L 1189,820 L 1190,821 L 1191,821 L 1191,822 L 1191,824 L 1190,825 L 1188,826 L 1186,826 L 1184,826 L 1183,825 L 1182,824 L 1181,823 L 1181,822 L 1180,822 L 1180,823 L 1181,823 L 1182,823 L 1182,824 L 1183,826 L 1183,827 L 1182,829 L 1180,829 L 1179,830 L 1176,829 L 1174,830 L 1172,832 L 1172,834 L 1171,834 L 1169,835 L 1168,835 L 1167,835 L 1166,834 L 1165,833 L 1162,830 L 1161,829 L 1160,828 L 1160,829 L 1161,830 L 1162,831 L 1163,832 L 1164,833 L 1164,834 L 1163,835 L 1163,836 L 1161,839 L 1159,841 L 1158,842 L 1157,842 L 1157,841 L 1156,840 L 1155,839 L 1155,838 L 1154,836 L 1154,833 L 1153,829 L 1152,828 L 1151,828 L 1151,827 L 1150,828 L 1151,829 L 1151,830 L 1152,832 L 1154,835 L 1154,837 L 1154,838 L 1152,840 L 1147,843 L 1145,844 L 1143,845 L 1143,846 L 1142,848 L 1141,849 L 1140,850 L 1138,851 L 1137,850 L 1135,850 L 1134,851 L 1132,852 L 1131,855 L 1129,856 L 1128,856 L 1127,856 L 1126,856 L 1125,855 L 1124,854 L 1124,853 L 1123,853 L 1122,853 L 1121,853 L 1121,854 L 1120,854 L 1120,855 L 1120,856 L 1120,857 L 1119,858 L 1116,859 L 1112,860 L 1108,863 L 1105,867 L 1104,868 L 1103,869 L 1102,870 L 1100,870 L 1099,869 L 1098,869 L 1098,868 L 1097,866 L 1097,865 L 1098,864 L 1098,863 L 1097,863 L 1097,862 L 1096,862 L 1095,863 L 1095,864 L 1095,866 L 1096,869 L 1096,873 L 1095,875 L 1093,877 L 1091,878 L 1090,878 L 1089,878 L 1088,878 L 1087,878 L 1087,877 L 1086,876 L 1086,875 L 1086,874 L 1085,874 L 1085,875 L 1085,876 L 1085,877 L 1086,877 L 1087,878 L 1088,880 L 1088,882 L 1087,884 L 1086,886 L 1085,886 L 1085,885 L 1085,884 L 1085,882 L 1085,881 L 1084,881 L 1084,882 L 1084,883 L 1084,885 L 1083,888 L 1082,890 L 1080,891 L 1078,892 L 1078,893 L 1077,893 L 1076,893 L 1075,893 L 1075,894 L 1074,894 L 1072,897 L 1069,900 L 1066,903 L 1062,906 L 1057,908 L 1052,908 L 1049,907 L 1048,906 L 1047,905 L 1047,904 L 1047,902 L 1048,900 L 1049,897 L 1050,892 L 1051,891 L 1052,890 L 1054,890 L 1055,890 L 1056,889 L 1056,886 L 1057,883 L 1057,881 L 1058,878 L 1060,877 L 1062,876 L 1064,875 L 1065,874 L 1065,873 L 1065,872 L 1065,871 L 1065,870 L 1066,869 L 1066,868 L 1068,866 L 1071,865 L 1080,851 L 1081,849 L 1081,847 L 1081,845 L 1080,844 L 1078,842 L 1077,841 L 1077,839 L 1078,835 L 1080,833 L 1083,832 L 1085,830 L 1087,827 L 1087,821 L 1092,813 L 1102,804 L 1104,801 L 1105,797 L 1106,793 L 1105,791 L 1105,789 L 1104,789 L 1105,788 L 1105,787 L 1106,787 L 1107,787 L 1108,788 L 1109,787 L 1110,787 L 1111,785 L 1111,783 L 1112,781 L 1113,776 L 1114,772 L 1115,771 L 1116,770 L 1116,769 L 1117,769 L 1118,769 L 1118,770 L 1118,771 L 1117,777 L 1117,778 L 1118,778 L 1118,779 L 1118,778 L 1119,778 L 1119,777 L 1119,776 L 1120,774 L 1121,773 L 1123,773 L 1124,774 L 1125,774 L 1126,774 L 1127,774 L 1128,773 L 1128,772 L 1129,771 L 1131,770 L 1132,770 L 1133,770 L 1134,770 L 1135,772 L 1135,773 L 1136,773 L 1136,774 L 1137,774 L 1138,774 L 1138,773 L 1139,771 L 1141,769 L 1143,768 L 1146,765 L 1147,762 L 1149,756 L 1151,749 L 1150,742 L 1150,740 L 1150,739 L 1151,738 L 1152,738 L 1162,733 L 1163,733 L 1165,728 " />
</g>
<g id="newfoundland-and-labrador-generalized_4" inkscape:label="West_Coast--Northern_Peninsula--Labrador___Cate-ouest--Northern_Peninsula--Labrador">
<path d="M 1012,478 L 1013,477 L 1014,477 L 1016,478 L 1018,479 L 1018,481 L 1018,483 L 1019,484 L 1019,485 L 1020,485 L 1020,486 L 1021,486 L 1023,484 L 1025,482 L 1028,481 L 1029,481 L 1030,481 L 1030,480 L 1030,479 L 1030,478 L 1027,477 L 1026,477 L 1025,477 L 1024,476 L 1024,475 L 1025,475 L 1025,473 L 1027,472 L 1029,469 L 1033,466 L 1034,465 L 1035,465 L 1036,464 L 1037,464 L 1038,465 L 1039,466 L 1040,468 L 1040,470 L 1039,471 L 1039,472 L 1039,473 L 1039,474 L 1040,474 L 1041,475 L 1043,476 L 1045,478 L 1046,481 L 1046,482 L 1046,483 L 1045,484 L 1045,483 L 1043,483 L 1042,483 L 1042,484 L 1042,485 L 1043,486 L 1044,489 L 1044,490 L 1044,491 L 1043,492 L 1042,493 L 1041,493 L 1039,493 L 1036,493 L 1032,495 L 1030,498 L 1026,500 L 1023,500 L 1021,501 L 1020,501 L 1019,502 L 1019,503 L 1019,504 L 1019,505 L 1021,506 L 1022,507 L 1026,509 L 1030,512 L 1031,514 L 1031,516 L 1031,518 L 1030,519 L 1030,520 L 1031,520 L 1031,519 L 1033,513 L 1036,508 L 1040,505 L 1042,504 L 1044,505 L 1046,506 L 1048,509 L 1050,512 L 1050,515 L 1050,518 L 1051,521 L 1052,524 L 1053,530 L 1052,536 L 1053,551 L 1053,552 L 1052,553 L 1051,552 L 1051,551 L 1050,550 L 1050,549 L 1049,549 L 1048,549 L 1048,550 L 1049,550 L 1049,551 L 1050,551 L 1050,552 L 1049,552 L 1048,552 L 1047,551 L 1047,550 L 1045,547 L 1043,543 L 1043,542 L 1042,541 L 1041,541 L 1040,541 L 1040,543 L 1040,544 L 1039,545 L 1038,546 L 1036,545 L 1037,545 L 1038,545 L 1041,546 L 1042,546 L 1043,547 L 1044,548 L 1047,554 L 1048,555 L 1048,556 L 1049,556 L 1050,557 L 1051,556 L 1052,556 L 1053,557 L 1054,558 L 1055,559 L 1055,560 L 1054,563 L 1053,566 L 1054,569 L 1055,571 L 1055,572 L 1055,573 L 1054,574 L 1053,574 L 1053,575 L 1053,576 L 1054,576 L 1055,577 L 1056,577 L 1056,578 L 1056,581 L 1055,585 L 1055,587 L 1054,589 L 1052,590 L 1052,591 L 1052,592 L 1052,593 L 1053,593 L 1054,593 L 1055,593 L 1056,593 L 1056,594 L 1057,595 L 1057,597 L 1058,599 L 1059,614 L 1059,615 L 1059,616 L 1058,616 L 1057,616 L 1056,617 L 1056,618 L 1057,618 L 1057,619 L 1058,620 L 1059,621 L 1059,622 L 1058,623 L 1058,627 L 1058,630 L 1059,633 L 1061,636 L 1063,637 L 1066,641 L 1067,646 L 1067,647 L 1066,650 L 1065,653 L 1065,654 L 1065,655 L 1066,655 L 1066,656 L 1067,656 L 1068,655 L 1069,654 L 1070,654 L 1071,654 L 1071,655 L 1072,655 L 1073,657 L 1076,666 L 1077,666 L 1077,668 L 1077,670 L 1077,671 L 1078,671 L 1078,670 L 1077,667 L 1077,665 L 1079,663 L 1080,662 L 1082,662 L 1083,662 L 1084,662 L 1085,664 L 1087,667 L 1087,672 L 1086,676 L 1087,680 L 1086,683 L 1084,687 L 1083,691 L 1084,695 L 1087,699 L 1088,699 L 1089,699 L 1090,699 L 1092,699 L 1094,698 L 1096,697 L 1104,691 L 1105,691 L 1106,691 L 1107,691 L 1107,692 L 1108,692 L 1109,693 L 1109,695 L 1109,698 L 1112,704 L 1113,711 L 1111,718 L 1108,728 L 1106,730 L 1104,733 L 1103,734 L 1101,734 L 1100,734 L 1098,734 L 1096,734 L 1095,735 L 1094,736 L 1090,741 L 1089,746 L 1090,751 L 1092,754 L 1092,755 L 1092,757 L 1091,759 L 1091,760 L 1091,761 L 1092,762 L 1093,762 L 1094,763 L 1096,763 L 1097,764 L 1098,764 L 1098,765 L 1098,766 L 1097,768 L 1098,769 L 1098,768 L 1099,767 L 1101,767 L 1102,768 L 1103,769 L 1103,770 L 1103,771 L 1101,773 L 1099,774 L 1097,776 L 1096,778 L 1095,779 L 1094,781 L 1095,782 L 1095,783 L 1096,783 L 1097,784 L 1098,784 L 1099,783 L 1100,783 L 1101,783 L 1101,784 L 1102,786 L 1101,788 L 1101,794 L 1101,795 L 1100,795 L 1099,797 L 1099,798 L 1098,799 L 1097,799 L 1096,799 L 1095,799 L 1093,800 L 1092,801 L 1091,802 L 1090,803 L 1090,806 L 1089,810 L 1091,814 L 1090,818 L 1087,822 L 1087,828 L 1085,830 L 1083,832 L 1080,833 L 1078,836 L 1077,838 L 1077,840 L 1078,843 L 1080,844 L 1081,846 L 1081,848 L 1081,849 L 1080,851 L 1071,865 L 1068,866 L 1066,868 L 1066,869 L 1065,870 L 1065,871 L 1065,872 L 1065,873 L 1065,874 L 1064,875 L 1062,876 L 1060,877 L 1058,878 L 1057,881 L 1057,883 L 1056,886 L 1056,889 L 1055,890 L 1054,890 L 1052,890 L 1051,891 L 1050,892 L 1049,897 L 1049,899 L 1049,900 L 1048,901 L 1048,902 L 1047,902 L 1045,902 L 1044,901 L 1043,900 L 1041,897 L 1038,895 L 1036,893 L 1033,892 L 1031,891 L 1030,890 L 1029,890 L 1029,889 L 1029,888 L 1029,887 L 1031,883 L 1032,875 L 1033,871 L 1035,867 L 1037,862 L 1040,856 L 1043,841 L 1045,836 L 1046,824 L 1046,822 L 1051,817 L 1052,815 L 1053,812 L 1053,811 L 1052,809 L 1051,808 L 1050,808 L 1049,808 L 1048,808 L 1047,809 L 1045,809 L 1041,810 L 1037,812 L 1035,812 L 1023,824 L 1018,827 L 1016,829 L 1010,838 L 1009,839 L 1008,839 L 1008,838 L 1007,831 L 1008,826 L 1010,820 L 1013,814 L 1017,805 L 1017,803 L 1017,801 L 1018,800 L 1018,801 L 1018,802 L 1017,805 L 1016,808 L 1016,809 L 1015,813 L 1015,815 L 1016,816 L 1019,817 L 1021,818 L 1022,818 L 1023,819 L 1024,819 L 1024,818 L 1024,817 L 1024,816 L 1024,815 L 1023,815 L 1023,814 L 1022,814 L 1023,814 L 1023,813 L 1024,813 L 1024,814 L 1025,815 L 1026,815 L 1027,815 L 1028,815 L 1033,813 L 1033,811 L 1032,808 L 1027,798 L 1027,794 L 1026,791 L 1026,781 L 1024,777 L 1022,772 L 1021,764 L 1020,758 L 1020,756 L 1020,755 L 1021,755 L 1021,754 L 1022,754 L 1023,755 L 1024,757 L 1024,759 L 1024,760 L 1025,761 L 1026,761 L 1027,761 L 1027,760 L 1028,759 L 1029,758 L 1031,756 L 1035,755 L 1040,755 L 1043,757 L 1046,757 L 1050,756 L 1051,756 L 1052,755 L 1053,754 L 1054,753 L 1055,753 L 1055,752 L 1054,752 L 1047,755 L 1046,755 L 1040,754 L 1037,752 L 1035,750 L 1034,749 L 1034,748 L 1034,747 L 1035,747 L 1036,747 L 1039,746 L 1040,744 L 1040,743 L 1041,742 L 1041,741 L 1040,741 L 1039,741 L 1039,742 L 1038,743 L 1037,744 L 1036,744 L 1034,745 L 1034,744 L 1033,744 L 1033,743 L 1033,742 L 1034,742 L 1035,741 L 1036,741 L 1037,741 L 1037,740 L 1038,740 L 1038,738 L 1039,737 L 1039,734 L 1038,733 L 1036,738 L 1035,738 L 1034,739 L 1029,741 L 1024,741 L 1020,739 L 1019,739 L 1015,727 L 1015,722 L 1016,719 L 1016,715 L 1017,711 L 1018,710 L 1019,709 L 1020,709 L 1020,708 L 1021,708 L 1022,708 L 1023,709 L 1024,710 L 1026,710 L 1026,709 L 1026,708 L 1026,707 L 1025,707 L 1023,705 L 1021,705 L 1017,702 L 1014,699 L 1013,693 L 1011,677 L 1008,663 L 1007,656 L 1007,654 L 1006,650 L 1004,640 L 1003,637 L 999,627 L 997,617 L 998,615 L 998,612 L 997,609 L 996,606 L 997,603 L 999,602 L 1001,602 L 1003,601 L 1004,601 L 1005,599 L 1005,598 L 1005,596 L 1004,596 L 1003,598 L 1002,599 L 1000,600 L 998,600 L 996,599 L 993,599 L 992,599 L 991,598 L 991,597 L 991,596 L 991,595 L 992,593 L 993,592 L 995,591 L 1000,582 L 1001,579 L 1001,576 L 1001,573 L 999,570 L 996,568 L 994,567 L 994,566 L 994,564 L 994,562 L 995,561 L 996,560 L 996,558 L 995,556 L 994,552 L 994,547 L 995,543 L 993,539 L 991,536 L 990,531 L 990,527 L 991,523 L 991,522 L 997,511 L 1003,501 L 1003,500 L 1005,495 L 1005,494 L 1008,490 L 1009,488 L 1011,480 L 1012,478 " />
<path d="M 485,228 L 487,225 L 489,223 L 491,223 L 493,223 L 494,224 L 496,225 L 497,227 L 497,228 L 497,230 L 496,231 L 495,231 L 494,232 L 493,233 L 493,234 L 493,235 L 494,235 L 495,236 L 497,235 L 498,234 L 499,234 L 500,234 L 501,235 L 504,239 L 506,244 L 506,245 L 506,246 L 505,247 L 504,248 L 503,248 L 502,248 L 501,248 L 500,247 L 499,247 L 498,247 L 496,247 L 494,247 L 493,248 L 493,249 L 492,249 L 491,249 L 490,249 L 490,248 L 490,247 L 490,244 L 489,241 L 488,238 L 487,236 L 485,234 L 485,232 L 485,228 " />
<path d="M 807,328 L 811,330 L 813,333 L 818,335 L 822,337 L 823,338 L 825,338 L 827,338 L 828,338 L 830,338 L 831,338 L 831,339 L 830,339 L 830,340 L 829,340 L 829,341 L 830,342 L 831,343 L 832,344 L 834,345 L 835,345 L 836,345 L 837,345 L 838,344 L 839,345 L 839,346 L 839,347 L 838,348 L 837,348 L 835,349 L 834,349 L 834,350 L 835,349 L 837,348 L 838,348 L 840,348 L 841,349 L 842,350 L 842,354 L 841,357 L 839,363 L 835,369 L 834,373 L 833,373 L 833,374 L 834,374 L 834,375 L 835,375 L 836,374 L 838,372 L 839,371 L 840,371 L 841,371 L 842,371 L 847,375 L 848,376 L 849,377 L 850,377 L 852,377 L 852,376 L 853,375 L 853,374 L 853,373 L 853,372 L 853,369 L 853,368 L 850,364 L 850,358 L 851,352 L 853,348 L 857,344 L 862,341 L 866,337 L 869,332 L 870,330 L 871,329 L 872,329 L 873,329 L 874,329 L 875,329 L 875,330 L 876,331 L 876,332 L 875,333 L 875,334 L 873,335 L 873,336 L 872,337 L 872,338 L 872,339 L 871,340 L 870,340 L 869,341 L 868,341 L 868,342 L 868,343 L 869,344 L 870,344 L 875,343 L 879,342 L 881,341 L 882,340 L 883,338 L 885,337 L 886,336 L 887,336 L 888,336 L 888,337 L 889,338 L 888,339 L 887,341 L 887,343 L 886,345 L 886,346 L 886,347 L 887,347 L 887,346 L 887,343 L 889,340 L 891,338 L 901,332 L 903,331 L 904,331 L 905,331 L 906,332 L 906,333 L 906,334 L 906,335 L 905,336 L 904,336 L 903,336 L 899,337 L 894,338 L 894,339 L 893,339 L 892,340 L 893,340 L 898,340 L 905,340 L 908,340 L 911,341 L 913,342 L 914,343 L 914,344 L 914,345 L 913,345 L 913,346 L 914,346 L 914,345 L 915,344 L 915,343 L 916,342 L 917,342 L 919,341 L 921,342 L 922,343 L 923,343 L 924,344 L 924,345 L 923,346 L 924,347 L 924,348 L 925,348 L 925,347 L 927,347 L 928,347 L 928,348 L 929,348 L 929,349 L 930,349 L 931,348 L 932,348 L 933,348 L 933,349 L 934,351 L 934,352 L 935,354 L 936,355 L 937,355 L 938,356 L 938,357 L 938,358 L 938,359 L 937,361 L 936,361 L 935,361 L 934,361 L 933,361 L 933,362 L 933,363 L 934,363 L 935,363 L 936,363 L 936,364 L 937,367 L 937,369 L 936,370 L 935,372 L 932,373 L 929,373 L 927,374 L 927,375 L 927,376 L 928,376 L 929,376 L 929,375 L 930,374 L 931,374 L 932,374 L 932,375 L 931,375 L 931,376 L 931,377 L 930,378 L 930,379 L 930,380 L 930,381 L 931,381 L 931,380 L 932,380 L 932,379 L 932,377 L 934,375 L 936,373 L 939,372 L 945,373 L 948,375 L 950,378 L 950,380 L 950,382 L 949,383 L 947,385 L 946,387 L 946,389 L 945,391 L 943,392 L 941,392 L 940,392 L 938,392 L 936,392 L 935,392 L 935,393 L 947,395 L 950,396 L 952,396 L 955,395 L 958,393 L 958,392 L 959,391 L 960,391 L 961,390 L 962,391 L 962,392 L 962,393 L 962,395 L 960,396 L 960,397 L 959,398 L 961,396 L 962,395 L 962,394 L 963,393 L 964,393 L 965,393 L 965,394 L 966,395 L 965,396 L 964,398 L 962,400 L 960,400 L 955,400 L 951,402 L 947,404 L 947,405 L 948,405 L 948,404 L 949,404 L 950,404 L 951,403 L 954,403 L 955,402 L 955,403 L 956,403 L 956,404 L 956,405 L 955,405 L 955,406 L 955,407 L 956,407 L 957,407 L 958,407 L 959,407 L 959,408 L 958,408 L 954,410 L 953,411 L 950,415 L 947,417 L 946,418 L 943,417 L 940,418 L 939,419 L 937,420 L 935,421 L 933,421 L 932,421 L 932,422 L 933,422 L 935,421 L 938,421 L 943,418 L 948,418 L 952,415 L 956,412 L 961,411 L 967,408 L 972,406 L 977,406 L 983,407 L 984,408 L 985,410 L 986,411 L 986,412 L 985,413 L 984,413 L 982,413 L 981,413 L 979,414 L 978,415 L 977,416 L 977,417 L 978,417 L 978,418 L 979,418 L 980,418 L 980,417 L 981,417 L 981,418 L 980,418 L 979,419 L 974,420 L 971,420 L 961,422 L 959,422 L 956,423 L 955,423 L 955,424 L 957,424 L 959,424 L 968,422 L 973,422 L 979,422 L 984,421 L 985,420 L 986,420 L 987,420 L 987,421 L 986,422 L 986,423 L 986,424 L 987,425 L 987,424 L 988,424 L 988,423 L 988,422 L 989,422 L 990,421 L 991,422 L 992,422 L 993,423 L 993,424 L 993,425 L 992,426 L 991,426 L 990,426 L 989,427 L 988,427 L 988,428 L 992,428 L 994,429 L 995,430 L 996,431 L 997,434 L 997,437 L 996,442 L 994,446 L 993,447 L 992,447 L 991,447 L 990,448 L 990,449 L 991,449 L 992,449 L 993,449 L 994,449 L 995,450 L 995,451 L 995,452 L 995,454 L 991,465 L 988,476 L 985,479 L 979,498 L 978,499 L 977,500 L 975,501 L 975,502 L 974,503 L 975,503 L 975,504 L 975,505 L 976,506 L 976,509 L 975,513 L 976,521 L 975,521 L 974,521 L 973,521 L 972,521 L 972,522 L 971,522 L 971,523 L 971,524 L 971,525 L 972,525 L 972,526 L 973,526 L 973,527 L 971,529 L 970,530 L 968,532 L 967,532 L 966,532 L 966,533 L 965,532 L 964,531 L 963,529 L 962,527 L 959,523 L 954,515 L 953,514 L 949,508 L 946,504 L 939,493 L 938,492 L 937,490 L 936,490 L 934,489 L 932,490 L 928,492 L 925,495 L 920,498 L 897,513 L 894,515 L 893,516 L 884,522 L 876,527 L 863,535 L 859,538 L 854,541 L 845,547 L 842,549 L 838,551 L 831,556 L 824,560 L 819,563 L 807,571 L 793,580 L 789,582 L 785,584 L 772,592 L 769,594 L 755,602 L 750,605 L 744,609 L 739,612 L 738,613 L 732,616 L 723,621 L 715,626 L 711,628 L 708,630 L 704,632 L 702,633 L 677,647 L 668,653 L 659,658 L 651,662 L 645,665 L 643,666 L 637,670 L 632,673 L 631,673 L 616,681 L 615,682 L 609,685 L 605,687 L 603,688 L 602,687 L 600,687 L 599,685 L 598,685 L 598,684 L 597,683 L 597,682 L 598,682 L 599,682 L 599,683 L 600,683 L 601,683 L 602,682 L 603,682 L 604,680 L 604,678 L 603,677 L 601,673 L 599,670 L 598,669 L 592,664 L 584,662 L 579,663 L 573,662 L 568,658 L 567,657 L 566,656 L 566,648 L 567,646 L 568,643 L 570,640 L 572,639 L 573,638 L 585,629 L 588,627 L 590,626 L 592,625 L 592,624 L 593,623 L 592,622 L 590,621 L 588,620 L 583,619 L 581,619 L 579,619 L 578,618 L 577,618 L 577,617 L 577,616 L 577,614 L 576,614 L 575,613 L 574,613 L 573,613 L 573,614 L 572,614 L 572,615 L 572,617 L 573,618 L 573,620 L 572,621 L 570,624 L 567,625 L 565,626 L 564,628 L 564,629 L 563,631 L 562,632 L 561,632 L 560,632 L 558,633 L 556,635 L 555,638 L 555,641 L 556,646 L 557,651 L 569,663 L 569,664 L 568,669 L 568,673 L 569,678 L 572,681 L 574,683 L 576,686 L 577,686 L 577,687 L 577,688 L 576,689 L 575,689 L 574,689 L 574,690 L 574,691 L 574,692 L 575,693 L 575,694 L 576,697 L 577,698 L 579,699 L 580,700 L 580,701 L 581,702 L 580,703 L 579,703 L 578,703 L 577,703 L 576,703 L 575,703 L 575,704 L 575,705 L 576,706 L 576,707 L 578,711 L 581,716 L 584,719 L 587,721 L 589,724 L 589,727 L 589,732 L 587,736 L 585,738 L 582,740 L 580,740 L 575,740 L 572,737 L 570,735 L 567,734 L 564,734 L 561,734 L 559,734 L 557,736 L 556,738 L 557,741 L 557,742 L 556,743 L 555,743 L 552,742 L 550,742 L 548,742 L 547,743 L 546,744 L 545,744 L 544,744 L 542,743 L 540,742 L 535,741 L 534,740 L 532,740 L 531,740 L 531,741 L 531,742 L 530,742 L 529,743 L 527,742 L 525,739 L 524,738 L 524,737 L 524,736 L 524,735 L 524,734 L 523,733 L 521,732 L 519,732 L 516,731 L 514,730 L 513,729 L 513,728 L 512,727 L 511,727 L 510,727 L 510,728 L 510,729 L 509,734 L 508,735 L 508,737 L 508,738 L 507,738 L 507,739 L 506,738 L 505,737 L 505,735 L 505,734 L 504,733 L 503,732 L 500,731 L 497,731 L 493,732 L 492,733 L 491,734 L 490,736 L 489,738 L 487,740 L 485,741 L 483,741 L 482,740 L 480,739 L 479,738 L 479,736 L 478,735 L 477,734 L 476,733 L 474,732 L 472,732 L 469,731 L 466,729 L 464,728 L 463,728 L 462,728 L 462,729 L 461,729 L 461,730 L 462,731 L 465,735 L 468,740 L 468,741 L 467,742 L 466,742 L 465,742 L 462,742 L 460,740 L 455,736 L 450,732 L 450,731 L 449,729 L 450,728 L 451,726 L 453,725 L 455,725 L 456,724 L 456,723 L 455,722 L 451,719 L 450,714 L 447,710 L 443,707 L 440,703 L 440,699 L 441,699 L 442,699 L 448,703 L 449,703 L 449,702 L 448,701 L 446,699 L 445,698 L 439,690 L 432,685 L 432,684 L 432,683 L 432,682 L 433,682 L 434,682 L 436,683 L 437,683 L 438,683 L 438,682 L 439,682 L 439,681 L 439,680 L 439,679 L 438,678 L 434,675 L 432,672 L 429,671 L 426,669 L 424,669 L 423,669 L 422,669 L 422,670 L 423,673 L 423,675 L 424,677 L 423,678 L 423,679 L 422,679 L 420,681 L 419,684 L 419,687 L 420,692 L 422,697 L 422,698 L 421,699 L 421,700 L 420,700 L 420,699 L 419,699 L 418,699 L 417,700 L 417,701 L 418,702 L 420,704 L 421,706 L 422,707 L 422,708 L 422,709 L 421,709 L 420,708 L 419,708 L 417,706 L 415,704 L 414,704 L 414,703 L 413,703 L 413,704 L 414,705 L 415,706 L 415,707 L 415,708 L 415,709 L 414,710 L 413,710 L 412,710 L 411,710 L 410,709 L 410,708 L 409,707 L 408,707 L 405,707 L 403,707 L 401,705 L 400,701 L 399,700 L 399,699 L 398,699 L 397,699 L 397,700 L 397,701 L 396,702 L 395,703 L 394,704 L 392,705 L 390,705 L 387,704 L 383,703 L 382,702 L 381,701 L 381,700 L 381,699 L 381,698 L 382,697 L 383,696 L 384,695 L 383,695 L 381,696 L 380,696 L 379,696 L 373,689 L 372,688 L 372,686 L 373,684 L 374,683 L 375,682 L 376,681 L 376,680 L 378,678 L 381,677 L 384,677 L 387,679 L 389,680 L 390,681 L 391,680 L 392,680 L 393,679 L 393,678 L 393,677 L 392,675 L 390,672 L 389,669 L 389,665 L 387,662 L 384,660 L 383,659 L 382,658 L 382,657 L 382,655 L 383,653 L 383,650 L 383,648 L 380,645 L 377,643 L 374,643 L 373,643 L 367,645 L 359,646 L 355,645 L 352,643 L 349,640 L 346,638 L 344,638 L 341,637 L 340,636 L 338,633 L 337,630 L 337,629 L 336,628 L 335,627 L 334,627 L 333,627 L 331,627 L 330,625 L 329,624 L 328,623 L 326,622 L 323,622 L 320,621 L 317,619 L 315,614 L 313,612 L 312,610 L 312,609 L 312,607 L 312,606 L 313,606 L 314,606 L 316,604 L 317,603 L 317,602 L 317,601 L 317,599 L 305,587 L 304,586 L 302,584 L 302,583 L 302,582 L 302,581 L 303,580 L 306,577 L 310,573 L 311,572 L 311,570 L 312,570 L 312,569 L 311,568 L 310,568 L 309,566 L 309,565 L 309,564 L 310,563 L 311,563 L 312,564 L 317,566 L 318,566 L 319,566 L 320,567 L 322,566 L 323,566 L 323,565 L 323,564 L 323,563 L 322,561 L 322,556 L 322,552 L 325,547 L 325,545 L 325,544 L 323,543 L 322,542 L 316,540 L 315,540 L 298,528 L 294,527 L 293,524 L 292,522 L 293,521 L 293,520 L 295,518 L 297,517 L 299,517 L 301,517 L 302,519 L 303,520 L 305,522 L 307,523 L 309,524 L 317,527 L 323,531 L 324,531 L 334,531 L 337,532 L 339,532 L 340,533 L 341,534 L 342,534 L 343,534 L 343,533 L 343,532 L 342,532 L 341,530 L 339,530 L 338,529 L 337,527 L 339,528 L 340,528 L 341,528 L 342,528 L 343,527 L 343,525 L 343,524 L 342,523 L 341,522 L 340,521 L 333,515 L 331,514 L 330,513 L 329,513 L 329,512 L 329,511 L 330,511 L 332,511 L 333,511 L 334,511 L 334,510 L 335,510 L 334,510 L 334,509 L 332,509 L 331,508 L 327,506 L 324,503 L 323,501 L 322,499 L 322,497 L 322,495 L 322,493 L 322,492 L 320,491 L 318,490 L 315,489 L 314,488 L 313,488 L 313,487 L 313,486 L 312,484 L 312,483 L 313,483 L 318,484 L 330,488 L 346,496 L 350,499 L 355,500 L 360,499 L 364,500 L 369,500 L 373,497 L 374,497 L 375,497 L 376,498 L 377,499 L 378,501 L 378,502 L 379,503 L 380,504 L 384,505 L 386,506 L 388,508 L 390,510 L 391,510 L 392,509 L 393,508 L 394,507 L 395,506 L 398,505 L 400,505 L 401,504 L 402,504 L 402,503 L 403,502 L 403,501 L 402,500 L 401,499 L 400,498 L 398,497 L 398,496 L 398,495 L 399,494 L 402,493 L 405,492 L 407,490 L 408,488 L 408,486 L 408,484 L 408,481 L 409,478 L 411,476 L 414,475 L 417,475 L 422,476 L 427,478 L 431,479 L 432,480 L 433,482 L 434,484 L 434,485 L 434,486 L 435,486 L 436,486 L 437,486 L 440,485 L 442,484 L 446,482 L 447,480 L 447,479 L 447,477 L 447,476 L 448,474 L 449,473 L 451,473 L 454,473 L 466,475 L 474,479 L 475,479 L 479,478 L 481,475 L 483,472 L 485,471 L 487,470 L 488,470 L 488,469 L 489,468 L 488,467 L 488,466 L 486,465 L 485,464 L 482,463 L 479,462 L 477,462 L 476,461 L 475,460 L 474,459 L 475,457 L 476,456 L 476,455 L 476,454 L 476,453 L 475,452 L 474,452 L 473,451 L 472,449 L 472,447 L 472,446 L 472,445 L 473,444 L 474,444 L 475,444 L 477,445 L 479,445 L 480,444 L 481,443 L 482,442 L 483,440 L 482,438 L 481,436 L 480,434 L 474,424 L 474,421 L 475,417 L 478,414 L 478,413 L 478,411 L 477,411 L 477,410 L 476,410 L 475,411 L 473,413 L 472,415 L 470,415 L 466,416 L 465,416 L 465,415 L 464,415 L 464,414 L 465,414 L 465,412 L 469,404 L 474,401 L 474,400 L 475,400 L 475,399 L 475,398 L 474,398 L 473,397 L 471,396 L 468,396 L 465,397 L 462,400 L 456,402 L 455,402 L 453,402 L 452,402 L 451,401 L 451,400 L 451,398 L 452,396 L 453,394 L 452,393 L 452,392 L 451,391 L 450,389 L 450,387 L 449,386 L 449,385 L 448,385 L 446,385 L 445,384 L 444,384 L 444,383 L 444,382 L 444,380 L 444,378 L 443,377 L 442,376 L 440,375 L 438,374 L 437,374 L 436,373 L 436,372 L 435,371 L 434,370 L 433,370 L 431,369 L 430,369 L 430,368 L 429,367 L 430,365 L 430,364 L 432,359 L 436,356 L 438,353 L 439,350 L 440,349 L 440,348 L 440,347 L 439,347 L 439,348 L 438,349 L 437,349 L 434,351 L 430,351 L 428,351 L 427,351 L 426,352 L 424,353 L 424,354 L 423,354 L 422,354 L 422,353 L 421,352 L 420,351 L 419,350 L 418,350 L 417,350 L 416,350 L 415,352 L 415,353 L 415,354 L 415,356 L 414,357 L 413,357 L 412,357 L 412,356 L 411,356 L 411,355 L 410,352 L 410,349 L 411,346 L 413,344 L 413,343 L 414,343 L 414,342 L 413,342 L 413,341 L 412,341 L 410,341 L 409,340 L 408,340 L 407,340 L 406,341 L 405,342 L 404,342 L 401,342 L 399,341 L 397,339 L 395,335 L 394,334 L 394,333 L 394,331 L 394,330 L 395,328 L 396,328 L 398,328 L 399,328 L 399,329 L 400,328 L 401,328 L 402,327 L 402,326 L 402,325 L 402,323 L 401,322 L 399,321 L 397,319 L 395,317 L 393,315 L 390,315 L 385,311 L 382,310 L 381,308 L 380,305 L 380,303 L 382,300 L 382,298 L 381,296 L 380,295 L 380,294 L 380,293 L 380,292 L 380,291 L 381,290 L 382,290 L 383,289 L 384,288 L 384,287 L 383,286 L 382,286 L 380,282 L 377,278 L 376,274 L 377,267 L 375,256 L 375,255 L 374,255 L 373,254 L 372,254 L 371,254 L 371,255 L 371,256 L 371,257 L 371,258 L 371,259 L 370,259 L 369,259 L 368,259 L 368,258 L 368,257 L 366,255 L 366,254 L 365,252 L 366,251 L 367,249 L 368,248 L 369,246 L 369,244 L 369,242 L 367,239 L 364,237 L 361,234 L 360,231 L 359,227 L 361,221 L 362,217 L 361,215 L 360,213 L 359,212 L 358,211 L 358,212 L 357,212 L 357,213 L 357,216 L 355,218 L 354,220 L 352,220 L 350,220 L 348,219 L 346,218 L 345,216 L 343,214 L 341,214 L 340,214 L 339,214 L 338,215 L 338,216 L 338,217 L 338,218 L 337,218 L 336,219 L 334,218 L 333,217 L 321,205 L 319,202 L 316,201 L 312,201 L 310,202 L 308,201 L 306,200 L 305,198 L 304,196 L 304,194 L 304,191 L 305,190 L 307,188 L 309,186 L 309,184 L 309,183 L 309,181 L 308,178 L 307,175 L 307,173 L 308,172 L 309,171 L 310,171 L 311,170 L 312,169 L 312,168 L 312,166 L 311,164 L 311,163 L 312,163 L 312,162 L 313,162 L 314,161 L 315,161 L 316,160 L 316,158 L 316,156 L 315,153 L 313,151 L 312,150 L 311,149 L 310,149 L 310,150 L 309,150 L 309,151 L 308,153 L 308,154 L 307,156 L 306,156 L 304,156 L 302,156 L 301,154 L 299,153 L 299,151 L 298,150 L 298,145 L 299,143 L 301,141 L 303,139 L 314,131 L 317,129 L 318,127 L 318,126 L 319,125 L 318,124 L 317,123 L 316,122 L 312,120 L 310,119 L 307,120 L 304,121 L 302,121 L 301,123 L 301,124 L 300,126 L 299,127 L 298,128 L 295,131 L 294,132 L 294,133 L 294,135 L 294,136 L 293,137 L 293,138 L 292,139 L 290,140 L 288,140 L 286,139 L 285,137 L 284,136 L 283,134 L 282,133 L 279,133 L 276,133 L 271,135 L 268,137 L 266,138 L 264,137 L 262,137 L 261,136 L 260,137 L 259,137 L 258,138 L 258,139 L 257,140 L 256,141 L 255,141 L 253,140 L 252,140 L 250,137 L 250,133 L 250,132 L 250,130 L 251,128 L 253,127 L 255,127 L 261,127 L 264,128 L 267,127 L 269,126 L 272,124 L 273,124 L 274,123 L 274,122 L 274,121 L 273,120 L 272,120 L 268,118 L 265,118 L 262,118 L 259,116 L 257,113 L 256,110 L 251,104 L 248,97 L 248,93 L 248,89 L 250,85 L 250,84 L 251,84 L 251,83 L 250,83 L 250,82 L 249,82 L 247,82 L 245,83 L 243,86 L 242,88 L 242,90 L 241,92 L 240,93 L 238,94 L 236,94 L 233,93 L 231,91 L 229,91 L 227,90 L 224,89 L 222,87 L 221,84 L 221,82 L 223,80 L 223,78 L 223,75 L 222,74 L 220,70 L 218,67 L 217,64 L 218,62 L 219,61 L 220,57 L 219,56 L 218,54 L 217,53 L 214,54 L 209,55 L 208,55 L 207,54 L 206,53 L 205,52 L 205,51 L 206,50 L 206,49 L 207,48 L 211,44 L 212,40 L 212,38 L 212,36 L 211,35 L 211,34 L 210,35 L 208,35 L 206,36 L 203,36 L 200,35 L 199,34 L 198,33 L 197,32 L 197,31 L 199,28 L 201,26 L 203,24 L 206,23 L 209,22 L 213,22 L 216,23 L 218,25 L 219,28 L 220,33 L 219,38 L 213,46 L 213,47 L 213,48 L 214,48 L 214,47 L 215,46 L 216,44 L 216,43 L 217,41 L 219,41 L 221,40 L 222,39 L 222,38 L 222,37 L 221,36 L 221,35 L 222,35 L 223,35 L 224,36 L 226,39 L 226,40 L 226,41 L 226,42 L 226,43 L 225,43 L 224,43 L 223,43 L 223,44 L 224,44 L 224,45 L 225,45 L 226,45 L 228,45 L 228,46 L 229,47 L 229,48 L 228,49 L 228,50 L 227,52 L 227,53 L 226,53 L 226,54 L 227,54 L 228,54 L 228,53 L 229,53 L 229,51 L 230,49 L 230,47 L 230,45 L 230,44 L 230,43 L 231,43 L 232,43 L 232,42 L 232,41 L 231,41 L 231,40 L 230,41 L 229,40 L 228,40 L 228,39 L 228,38 L 228,37 L 229,37 L 230,37 L 231,36 L 233,37 L 235,37 L 236,38 L 237,39 L 237,40 L 237,41 L 236,41 L 235,43 L 233,44 L 233,45 L 233,46 L 234,46 L 234,45 L 236,45 L 238,45 L 242,46 L 242,47 L 242,48 L 242,49 L 242,51 L 243,53 L 243,54 L 244,54 L 245,54 L 246,53 L 246,52 L 246,51 L 245,51 L 245,50 L 245,49 L 246,48 L 247,48 L 248,49 L 249,51 L 250,52 L 251,53 L 252,54 L 254,54 L 256,53 L 256,54 L 256,55 L 256,57 L 255,59 L 254,60 L 252,61 L 250,61 L 248,61 L 247,59 L 246,58 L 245,58 L 244,57 L 242,57 L 242,58 L 242,59 L 242,60 L 243,61 L 245,62 L 248,63 L 249,64 L 251,64 L 252,63 L 253,63 L 254,61 L 256,61 L 257,60 L 258,60 L 259,61 L 260,62 L 260,63 L 260,64 L 259,64 L 258,65 L 257,65 L 257,66 L 257,67 L 259,72 L 258,73 L 258,75 L 258,76 L 259,76 L 259,75 L 260,73 L 260,71 L 259,69 L 258,67 L 258,66 L 259,66 L 260,66 L 261,65 L 263,65 L 267,66 L 271,67 L 274,68 L 275,69 L 277,71 L 277,73 L 277,77 L 276,79 L 274,81 L 272,82 L 271,83 L 269,83 L 268,83 L 268,84 L 267,85 L 267,86 L 267,87 L 268,87 L 269,87 L 269,86 L 269,85 L 269,84 L 270,84 L 275,82 L 279,82 L 281,82 L 283,83 L 284,85 L 284,86 L 284,88 L 285,90 L 284,91 L 285,91 L 285,92 L 286,92 L 286,90 L 286,82 L 287,80 L 288,79 L 289,79 L 291,79 L 293,80 L 294,82 L 295,84 L 294,87 L 294,88 L 294,89 L 294,90 L 295,90 L 296,90 L 296,89 L 296,86 L 297,84 L 298,82 L 298,81 L 299,81 L 300,81 L 301,81 L 301,82 L 300,83 L 300,85 L 301,86 L 302,87 L 302,88 L 303,88 L 304,88 L 304,87 L 305,87 L 305,88 L 305,89 L 306,92 L 305,95 L 304,99 L 302,101 L 296,107 L 295,107 L 285,109 L 285,110 L 284,112 L 284,114 L 284,115 L 284,116 L 285,116 L 285,115 L 285,113 L 285,112 L 286,112 L 286,111 L 287,111 L 288,111 L 289,111 L 289,112 L 291,114 L 292,117 L 293,118 L 293,117 L 293,116 L 292,115 L 291,113 L 290,112 L 291,111 L 291,110 L 292,110 L 295,109 L 297,109 L 299,108 L 300,106 L 301,105 L 303,105 L 304,104 L 305,103 L 306,100 L 308,97 L 310,95 L 311,94 L 312,94 L 314,95 L 316,95 L 318,94 L 320,94 L 320,93 L 321,94 L 321,95 L 320,96 L 320,97 L 315,98 L 313,99 L 313,100 L 314,100 L 315,100 L 316,99 L 317,99 L 318,99 L 319,100 L 319,101 L 319,103 L 318,104 L 318,105 L 318,106 L 319,106 L 319,105 L 320,104 L 320,102 L 321,100 L 322,99 L 322,100 L 323,100 L 323,101 L 325,107 L 325,109 L 323,111 L 321,112 L 321,113 L 322,113 L 323,111 L 325,110 L 327,111 L 329,111 L 330,113 L 331,116 L 331,117 L 332,117 L 332,116 L 331,116 L 331,114 L 330,113 L 329,110 L 329,109 L 329,107 L 330,106 L 332,105 L 334,105 L 338,106 L 341,108 L 343,110 L 344,113 L 344,114 L 343,115 L 342,116 L 341,116 L 340,117 L 340,118 L 341,118 L 341,119 L 342,119 L 343,119 L 344,119 L 345,118 L 345,116 L 346,115 L 347,115 L 348,115 L 348,116 L 349,116 L 350,117 L 350,120 L 349,128 L 345,134 L 344,138 L 342,140 L 342,141 L 336,144 L 334,144 L 333,144 L 333,143 L 332,143 L 331,143 L 331,144 L 332,144 L 333,145 L 332,147 L 331,147 L 331,148 L 331,149 L 331,148 L 332,148 L 333,147 L 333,146 L 334,145 L 337,145 L 338,145 L 339,146 L 339,147 L 338,148 L 338,151 L 338,155 L 336,159 L 334,165 L 335,165 L 336,163 L 336,162 L 338,158 L 340,155 L 341,147 L 341,146 L 341,145 L 342,144 L 346,140 L 347,140 L 348,140 L 349,141 L 349,142 L 349,143 L 349,145 L 349,147 L 349,148 L 350,148 L 350,149 L 350,148 L 351,148 L 351,147 L 351,146 L 351,145 L 351,143 L 356,136 L 357,135 L 362,130 L 368,126 L 369,126 L 370,126 L 371,127 L 370,132 L 372,137 L 374,139 L 375,142 L 375,145 L 374,147 L 372,149 L 370,150 L 368,151 L 367,152 L 367,154 L 368,155 L 368,156 L 369,156 L 369,155 L 369,153 L 369,152 L 369,151 L 379,147 L 380,147 L 381,147 L 381,148 L 381,150 L 381,151 L 380,154 L 378,155 L 376,156 L 374,157 L 373,158 L 369,161 L 365,166 L 364,171 L 365,176 L 365,179 L 364,180 L 363,181 L 362,181 L 362,182 L 361,182 L 360,183 L 360,184 L 359,185 L 359,186 L 360,186 L 360,185 L 361,185 L 362,183 L 363,182 L 368,179 L 368,178 L 367,173 L 369,167 L 372,163 L 378,159 L 383,156 L 385,154 L 387,151 L 387,150 L 388,150 L 389,149 L 390,150 L 390,151 L 390,152 L 390,153 L 390,154 L 391,155 L 392,155 L 393,155 L 394,155 L 396,155 L 399,155 L 400,155 L 401,156 L 401,157 L 401,158 L 401,159 L 401,160 L 401,161 L 400,161 L 394,165 L 392,167 L 391,169 L 391,171 L 391,172 L 392,172 L 392,171 L 394,169 L 394,168 L 395,166 L 396,166 L 397,165 L 398,165 L 399,165 L 400,166 L 401,167 L 401,168 L 403,170 L 403,171 L 404,171 L 405,171 L 405,170 L 404,170 L 404,168 L 403,167 L 402,164 L 402,163 L 403,162 L 404,163 L 406,164 L 408,164 L 409,164 L 410,163 L 411,162 L 411,161 L 411,159 L 412,158 L 413,158 L 414,158 L 415,159 L 415,160 L 416,160 L 416,161 L 417,161 L 418,162 L 419,161 L 420,161 L 420,160 L 420,159 L 421,158 L 422,158 L 423,158 L 426,158 L 428,160 L 429,160 L 430,164 L 430,165 L 430,166 L 429,166 L 428,168 L 426,168 L 422,168 L 419,167 L 418,166 L 418,167 L 417,167 L 417,168 L 417,169 L 418,169 L 419,170 L 421,171 L 427,171 L 433,173 L 437,178 L 438,178 L 438,179 L 438,180 L 437,181 L 436,182 L 434,183 L 433,185 L 432,187 L 433,189 L 433,191 L 432,193 L 431,194 L 430,194 L 429,194 L 428,194 L 427,194 L 426,195 L 426,196 L 427,197 L 427,199 L 427,201 L 426,202 L 424,204 L 422,205 L 420,205 L 416,204 L 415,204 L 415,205 L 416,205 L 418,206 L 419,206 L 422,207 L 425,207 L 428,205 L 431,203 L 433,200 L 436,198 L 439,197 L 443,196 L 447,196 L 451,197 L 452,197 L 453,198 L 453,199 L 453,200 L 452,201 L 452,203 L 452,204 L 453,205 L 454,205 L 455,206 L 455,207 L 455,208 L 454,209 L 454,210 L 453,211 L 452,211 L 451,211 L 451,212 L 451,213 L 452,213 L 455,214 L 457,213 L 459,213 L 460,214 L 462,214 L 463,214 L 464,213 L 465,212 L 466,210 L 466,208 L 466,206 L 466,205 L 467,205 L 467,204 L 467,205 L 468,205 L 468,206 L 467,207 L 468,210 L 467,211 L 468,212 L 468,213 L 469,213 L 477,207 L 481,206 L 483,206 L 487,208 L 488,210 L 489,213 L 490,216 L 488,219 L 486,221 L 485,224 L 484,226 L 485,227 L 485,229 L 484,230 L 484,232 L 484,233 L 485,236 L 486,237 L 485,239 L 484,241 L 482,243 L 481,244 L 480,244 L 479,244 L 478,245 L 477,245 L 476,246 L 476,247 L 476,248 L 477,249 L 478,250 L 478,251 L 479,252 L 479,253 L 480,253 L 480,254 L 480,253 L 480,251 L 479,250 L 479,249 L 479,248 L 480,248 L 482,246 L 484,246 L 487,246 L 488,247 L 489,248 L 489,249 L 488,250 L 487,250 L 486,250 L 485,251 L 485,252 L 486,252 L 487,253 L 488,253 L 489,252 L 492,252 L 493,253 L 493,254 L 493,255 L 490,257 L 487,258 L 452,263 L 451,263 L 451,264 L 452,264 L 461,264 L 471,262 L 476,263 L 478,263 L 480,262 L 480,261 L 481,261 L 481,260 L 482,260 L 483,260 L 484,261 L 484,262 L 483,262 L 482,263 L 480,264 L 477,265 L 470,268 L 469,269 L 469,270 L 470,270 L 471,269 L 472,269 L 481,265 L 490,261 L 497,260 L 498,260 L 499,261 L 499,262 L 499,263 L 499,264 L 498,266 L 496,268 L 489,270 L 485,270 L 484,270 L 483,270 L 483,271 L 484,270 L 485,270 L 486,271 L 486,272 L 485,273 L 484,273 L 483,273 L 482,274 L 481,275 L 481,276 L 482,276 L 483,276 L 484,276 L 485,274 L 486,274 L 487,273 L 488,273 L 489,274 L 489,275 L 489,276 L 488,276 L 486,277 L 484,277 L 481,279 L 480,279 L 480,280 L 481,281 L 482,281 L 484,281 L 496,276 L 497,276 L 498,276 L 499,277 L 501,278 L 501,279 L 501,280 L 500,280 L 499,281 L 498,282 L 497,282 L 498,282 L 499,282 L 500,282 L 504,280 L 508,279 L 509,278 L 510,278 L 511,278 L 511,279 L 512,279 L 512,280 L 512,281 L 511,281 L 510,282 L 508,283 L 506,282 L 506,283 L 505,283 L 504,283 L 504,284 L 505,284 L 506,283 L 508,283 L 509,282 L 510,282 L 510,283 L 511,283 L 511,284 L 510,285 L 510,286 L 509,286 L 507,287 L 506,287 L 504,286 L 502,286 L 500,286 L 498,286 L 497,286 L 495,288 L 495,289 L 495,291 L 496,292 L 497,293 L 498,294 L 502,294 L 505,293 L 508,291 L 511,288 L 514,287 L 518,286 L 519,285 L 520,284 L 521,283 L 522,281 L 523,280 L 525,280 L 526,281 L 528,281 L 529,283 L 530,285 L 531,286 L 531,287 L 531,288 L 531,289 L 530,290 L 530,291 L 530,292 L 530,293 L 531,293 L 532,293 L 534,293 L 534,292 L 535,290 L 536,289 L 537,289 L 538,289 L 539,289 L 539,290 L 539,291 L 538,291 L 537,293 L 535,295 L 533,296 L 531,297 L 530,297 L 530,298 L 531,298 L 532,299 L 533,298 L 536,299 L 539,298 L 541,297 L 543,295 L 545,294 L 548,293 L 553,293 L 554,294 L 555,295 L 555,296 L 555,297 L 554,298 L 552,299 L 550,301 L 550,302 L 557,302 L 562,297 L 565,295 L 570,293 L 572,293 L 574,293 L 575,294 L 576,296 L 576,297 L 575,299 L 574,300 L 573,301 L 571,304 L 570,305 L 569,305 L 569,306 L 569,307 L 570,307 L 570,306 L 573,304 L 576,302 L 578,300 L 578,298 L 578,296 L 578,294 L 578,293 L 578,292 L 579,292 L 579,291 L 580,292 L 581,293 L 584,295 L 585,298 L 586,302 L 588,306 L 588,308 L 589,308 L 589,309 L 590,309 L 591,308 L 591,307 L 591,306 L 588,301 L 588,295 L 587,292 L 588,290 L 589,288 L 591,287 L 593,288 L 595,289 L 597,290 L 598,291 L 598,293 L 597,295 L 596,298 L 594,299 L 594,302 L 594,303 L 595,305 L 595,306 L 596,306 L 596,305 L 596,304 L 596,303 L 596,302 L 597,301 L 598,301 L 600,301 L 601,301 L 601,302 L 602,304 L 602,305 L 602,307 L 602,308 L 603,308 L 604,307 L 604,306 L 604,303 L 605,301 L 606,301 L 608,310 L 606,316 L 606,317 L 607,318 L 607,319 L 608,321 L 608,323 L 609,324 L 609,325 L 610,325 L 610,324 L 610,323 L 608,313 L 608,311 L 608,309 L 609,309 L 609,308 L 610,308 L 609,310 L 610,312 L 610,313 L 611,313 L 612,313 L 612,312 L 612,311 L 611,309 L 611,308 L 611,307 L 612,306 L 613,306 L 614,306 L 615,306 L 615,307 L 616,309 L 616,312 L 615,314 L 613,317 L 613,321 L 614,324 L 613,326 L 613,328 L 613,331 L 613,333 L 614,334 L 615,335 L 616,335 L 617,335 L 618,334 L 618,333 L 618,332 L 618,331 L 617,330 L 618,329 L 619,329 L 619,330 L 619,332 L 618,337 L 619,344 L 618,345 L 616,349 L 616,350 L 616,351 L 616,357 L 616,358 L 616,359 L 617,359 L 617,358 L 617,357 L 617,356 L 618,353 L 618,349 L 620,345 L 623,328 L 624,325 L 625,323 L 626,323 L 626,322 L 627,322 L 628,322 L 628,323 L 629,326 L 629,329 L 628,334 L 628,337 L 629,338 L 631,323 L 631,320 L 632,320 L 632,319 L 633,319 L 633,320 L 633,321 L 633,323 L 634,328 L 634,329 L 634,333 L 632,337 L 632,344 L 632,345 L 632,346 L 633,346 L 634,346 L 634,345 L 634,344 L 634,343 L 634,341 L 637,332 L 637,331 L 635,326 L 641,306 L 645,308 L 648,312 L 648,317 L 648,319 L 646,321 L 644,323 L 643,324 L 643,325 L 643,326 L 644,326 L 647,326 L 649,325 L 650,324 L 650,322 L 651,321 L 653,320 L 654,320 L 655,319 L 656,318 L 657,317 L 656,316 L 656,315 L 655,314 L 655,313 L 655,312 L 656,312 L 657,313 L 659,313 L 660,312 L 660,311 L 660,310 L 660,309 L 661,309 L 662,310 L 662,311 L 662,316 L 662,317 L 662,318 L 663,318 L 663,317 L 663,316 L 663,315 L 663,313 L 664,312 L 664,311 L 665,310 L 666,310 L 666,311 L 667,311 L 667,312 L 667,313 L 666,323 L 662,334 L 663,337 L 662,340 L 661,342 L 661,344 L 661,345 L 662,346 L 662,347 L 663,348 L 664,348 L 664,349 L 664,350 L 664,351 L 664,352 L 663,353 L 663,354 L 663,355 L 663,356 L 664,356 L 665,356 L 665,355 L 666,353 L 666,350 L 665,347 L 664,345 L 663,341 L 665,337 L 667,332 L 669,324 L 669,321 L 670,319 L 669,318 L 670,318 L 670,317 L 671,317 L 671,318 L 672,318 L 673,318 L 673,317 L 673,316 L 672,313 L 672,310 L 672,307 L 671,302 L 672,301 L 672,300 L 673,300 L 674,301 L 675,301 L 675,302 L 675,301 L 675,298 L 675,297 L 676,297 L 677,297 L 677,298 L 679,300 L 677,315 L 676,318 L 676,321 L 677,323 L 682,303 L 682,304 L 683,304 L 683,305 L 684,306 L 684,307 L 685,307 L 685,305 L 684,303 L 683,302 L 684,300 L 684,299 L 685,299 L 686,299 L 690,302 L 691,302 L 691,303 L 691,304 L 691,305 L 691,306 L 691,307 L 691,309 L 693,310 L 694,311 L 696,312 L 698,311 L 699,312 L 700,313 L 700,314 L 700,315 L 700,316 L 699,317 L 698,318 L 698,319 L 698,320 L 699,320 L 700,320 L 700,319 L 700,318 L 701,317 L 701,316 L 702,316 L 703,316 L 704,317 L 704,318 L 705,320 L 704,322 L 704,323 L 703,323 L 702,324 L 701,324 L 700,325 L 700,326 L 700,325 L 701,325 L 704,322 L 708,320 L 710,319 L 711,319 L 713,319 L 714,319 L 714,317 L 715,316 L 716,316 L 717,315 L 718,316 L 719,316 L 720,316 L 721,316 L 722,315 L 722,314 L 723,313 L 724,313 L 725,314 L 725,315 L 725,316 L 725,317 L 726,316 L 727,315 L 728,314 L 729,314 L 730,314 L 732,314 L 733,314 L 733,313 L 733,312 L 732,312 L 732,311 L 732,310 L 732,309 L 733,308 L 734,308 L 734,307 L 736,307 L 737,306 L 738,305 L 738,303 L 738,301 L 737,299 L 737,297 L 737,296 L 738,295 L 740,294 L 741,292 L 742,290 L 742,289 L 743,288 L 744,288 L 745,288 L 746,288 L 747,289 L 748,291 L 748,292 L 748,293 L 748,294 L 749,295 L 751,295 L 752,295 L 752,294 L 753,294 L 753,293 L 753,292 L 753,291 L 754,291 L 754,290 L 755,291 L 755,292 L 755,293 L 753,297 L 750,301 L 746,303 L 744,305 L 743,305 L 743,306 L 743,307 L 744,307 L 745,306 L 747,305 L 750,304 L 754,300 L 760,298 L 766,299 L 771,301 L 773,300 L 774,299 L 775,297 L 776,296 L 776,294 L 778,294 L 779,293 L 782,293 L 783,293 L 783,294 L 784,294 L 785,295 L 786,295 L 787,295 L 789,296 L 791,298 L 792,300 L 792,302 L 791,303 L 791,304 L 789,305 L 784,309 L 779,312 L 779,313 L 779,314 L 780,314 L 780,313 L 789,306 L 790,306 L 791,306 L 791,307 L 791,308 L 790,309 L 789,311 L 788,313 L 788,316 L 786,319 L 785,321 L 773,326 L 763,337 L 762,339 L 762,340 L 762,341 L 762,342 L 763,342 L 764,342 L 765,342 L 765,341 L 765,340 L 766,339 L 767,338 L 768,338 L 768,339 L 768,340 L 767,340 L 766,342 L 765,345 L 764,347 L 764,349 L 762,351 L 759,353 L 753,360 L 752,366 L 750,369 L 747,372 L 741,375 L 739,379 L 737,380 L 730,387 L 728,390 L 725,396 L 724,397 L 723,399 L 721,400 L 717,402 L 715,403 L 715,404 L 715,405 L 716,405 L 718,405 L 719,404 L 726,400 L 732,391 L 735,388 L 740,385 L 743,380 L 748,373 L 751,369 L 754,364 L 756,359 L 757,357 L 758,355 L 759,354 L 760,354 L 761,355 L 761,357 L 761,359 L 759,375 L 759,376 L 754,380 L 748,382 L 743,385 L 741,386 L 741,387 L 741,388 L 742,388 L 743,388 L 744,387 L 745,386 L 746,386 L 746,387 L 746,389 L 746,390 L 746,391 L 745,393 L 744,394 L 740,397 L 737,400 L 736,402 L 728,417 L 725,421 L 717,423 L 713,425 L 711,426 L 710,427 L 710,428 L 710,429 L 711,429 L 712,429 L 713,429 L 714,429 L 715,428 L 715,429 L 715,430 L 714,430 L 714,431 L 712,432 L 710,433 L 707,435 L 706,436 L 705,437 L 704,438 L 704,439 L 704,440 L 705,441 L 706,442 L 707,443 L 707,444 L 707,447 L 707,450 L 708,453 L 713,458 L 718,461 L 721,463 L 723,465 L 724,466 L 725,466 L 726,466 L 727,464 L 726,461 L 727,458 L 728,456 L 730,455 L 731,454 L 731,453 L 730,453 L 729,453 L 726,454 L 725,454 L 724,454 L 725,452 L 726,451 L 728,450 L 732,449 L 736,447 L 739,444 L 741,439 L 741,438 L 741,434 L 743,427 L 748,421 L 754,417 L 755,415 L 756,413 L 756,412 L 755,411 L 754,410 L 753,409 L 752,408 L 751,407 L 751,405 L 751,404 L 753,398 L 754,396 L 754,394 L 754,392 L 753,390 L 754,388 L 755,386 L 757,385 L 765,373 L 773,365 L 775,359 L 780,355 L 785,353 L 789,352 L 792,350 L 794,349 L 795,348 L 795,347 L 795,346 L 794,346 L 793,346 L 776,353 L 775,354 L 774,356 L 773,359 L 772,360 L 770,361 L 768,362 L 765,361 L 764,360 L 763,358 L 762,356 L 762,355 L 763,354 L 767,352 L 767,351 L 772,345 L 779,341 L 786,338 L 790,336 L 796,333 L 799,331 L 803,329 L 807,328 " />
</g>
</g>
</g></svg>