<?xml version="1.0" standalone="no"?>
<!DOCTYPE svg PUBLIC "-//W3C//DTD SVG 1.1//EN" "http://www.w3.org/Graphics/SVG/1.1/DTD/svg11.dtd">
<svg xmlns="http://www.w3.org/2000/svg" xmlns:inkscape="http://www.inkscape.org/namespaces/inkscape" xmlns:xlink="http://www.w3.org/1999/xlink" viewBox = "0 0 1635 933" version = "1.1">
<!-- svg generated using QGIS www.qgis.org -->
<g id="nova-scotia" inkscape:groupmode="layer" inkscape:label="nova-scotia">
<g stroke="rgb(35,35,35)" fill="#06b924" stroke-linejoin="round" stroke-width="0.40">
<g id="nova-scotia_1" inkscape:label="Southern___Sud">
<path d="M 709,610 L 725,615 L 739,618 L 751,624 L 761,632 L 767,637 L 769,642 L 769,647 L 767,652 L 766,652 L 765,652 L 763,651 L 762,650 L 758,647 L 757,645 L 756,643 L 755,642 L 752,641 L 749,640 L 747,641 L 745,642 L 744,644 L 744,645 L 744,646 L 744,648 L 743,649 L 742,650 L 740,651 L 738,650 L 736,651 L 735,652 L 735,653 L 734,654 L 735,656 L 736,657 L 738,663 L 740,669 L 740,672 L 741,674 L 742,676 L 743,677 L 745,677 L 746,676 L 747,675 L 749,674 L 750,673 L 751,673 L 752,673 L 753,673 L 752,673 L 751,673 L 750,673 L 749,674 L 749,675 L 749,677 L 750,677 L 752,678 L 753,678 L 755,677 L 757,677 L 758,677 L 759,677 L 760,676 L 760,677 L 761,677 L 760,678 L 759,680 L 756,680 L 754,680 L 751,682 L 749,682 L 748,684 L 747,685 L 747,686 L 748,687 L 749,688 L 751,689 L 753,689 L 754,688 L 757,688 L 759,689 L 760,691 L 761,693 L 761,696 L 759,699 L 758,700 L 756,700 L 754,700 L 752,701 L 750,702 L 749,705 L 749,708 L 747,719 L 747,723 L 746,727 L 743,730 L 739,733 L 734,733 L 733,733 L 733,734 L 733,735 L 733,736 L 734,737 L 734,738 L 736,738 L 738,738 L 740,737 L 742,737 L 743,738 L 744,739 L 745,741 L 745,744 L 744,746 L 742,747 L 738,749 L 737,750 L 736,753 L 735,755 L 736,758 L 738,760 L 738,762 L 738,764 L 736,768 L 733,770 L 729,778 L 728,780 L 727,782 L 728,785 L 729,786 L 730,787 L 732,788 L 733,788 L 734,789 L 735,790 L 735,791 L 736,793 L 736,795 L 735,797 L 734,798 L 732,799 L 729,799 L 727,799 L 725,797 L 722,797 L 721,797 L 720,797 L 720,798 L 728,802 L 728,803 L 729,806 L 729,808 L 729,809 L 728,810 L 727,810 L 726,810 L 725,810 L 725,809 L 721,806 L 718,803 L 716,802 L 715,802 L 714,802 L 714,803 L 714,804 L 722,808 L 723,809 L 724,810 L 725,810 L 725,811 L 725,813 L 725,814 L 724,817 L 724,819 L 721,827 L 719,835 L 718,836 L 717,837 L 716,836 L 715,835 L 715,834 L 713,831 L 712,830 L 711,830 L 710,830 L 710,831 L 710,832 L 711,834 L 712,836 L 712,838 L 712,840 L 711,842 L 711,843 L 710,843 L 710,844 L 709,843 L 708,842 L 708,841 L 707,837 L 706,837 L 706,836 L 705,836 L 705,835 L 704,835 L 704,836 L 703,839 L 703,840 L 702,840 L 701,840 L 700,839 L 697,837 L 694,834 L 692,832 L 691,832 L 691,831 L 690,830 L 689,830 L 689,831 L 689,832 L 690,834 L 691,835 L 695,840 L 697,847 L 697,854 L 697,856 L 698,859 L 698,860 L 698,861 L 697,860 L 696,859 L 695,858 L 693,858 L 692,858 L 691,859 L 690,861 L 690,863 L 690,865 L 691,867 L 693,870 L 694,873 L 693,876 L 691,879 L 688,880 L 685,881 L 683,883 L 682,885 L 682,887 L 682,888 L 684,890 L 685,891 L 686,893 L 686,894 L 686,895 L 686,896 L 685,897 L 683,898 L 681,898 L 680,898 L 679,897 L 678,896 L 678,894 L 676,893 L 674,892 L 673,890 L 671,890 L 669,890 L 667,891 L 666,893 L 665,895 L 666,897 L 665,900 L 664,902 L 657,908 L 656,908 L 655,908 L 654,907 L 653,906 L 651,904 L 647,900 L 642,896 L 637,882 L 637,881 L 636,880 L 635,879 L 634,880 L 633,880 L 633,881 L 633,882 L 633,883 L 634,885 L 639,895 L 639,896 L 638,896 L 637,896 L 629,882 L 619,870 L 617,868 L 617,867 L 616,867 L 615,867 L 615,868 L 615,869 L 616,871 L 617,872 L 618,873 L 617,874 L 617,873 L 616,873 L 615,871 L 613,870 L 611,869 L 609,868 L 607,867 L 606,868 L 605,868 L 605,869 L 604,870 L 604,871 L 606,874 L 606,876 L 606,877 L 606,878 L 605,878 L 605,877 L 604,877 L 602,876 L 600,874 L 598,869 L 597,866 L 597,865 L 597,864 L 596,864 L 595,864 L 595,865 L 595,868 L 596,871 L 597,874 L 600,877 L 604,879 L 605,881 L 606,884 L 605,886 L 603,889 L 600,890 L 592,890 L 586,887 L 581,881 L 572,869 L 564,850 L 558,843 L 552,839 L 549,833 L 548,826 L 548,812 L 541,794 L 542,789 L 546,765 L 553,751 L 553,748 L 555,744 L 555,743 L 555,742 L 555,741 L 555,740 L 554,740 L 553,740 L 551,740 L 549,740 L 544,743 L 542,748 L 538,756 L 536,764 L 532,779 L 530,789 L 529,791 L 529,792 L 528,792 L 528,791 L 526,787 L 526,785 L 526,784 L 530,770 L 533,756 L 535,752 L 536,749 L 548,727 L 552,721 L 559,719 L 565,719 L 570,721 L 574,724 L 582,729 L 590,733 L 596,735 L 607,740 L 613,742 L 630,749 L 631,750 L 632,751 L 634,751 L 636,750 L 637,748 L 639,745 L 639,741 L 641,729 L 646,720 L 653,715 L 658,708 L 660,699 L 665,681 L 683,624 L 687,614 L 687,611 L 688,609 L 690,607 L 691,606 L 693,606 L 696,606 L 698,606 L 704,608 L 709,610 " />
</g>
<g id="nova-scotia_2" inkscape:label="Halifax">
<path d="M 847,445 L 851,442 L 856,440 L 857,440 L 861,440 L 861,441 L 870,442 L 876,443 L 887,445 L 898,446 L 936,451 L 938,452 L 938,453 L 938,454 L 938,455 L 937,459 L 935,463 L 929,472 L 922,481 L 921,485 L 920,487 L 919,489 L 918,490 L 917,491 L 916,491 L 914,491 L 913,490 L 913,489 L 913,488 L 913,487 L 912,486 L 911,485 L 910,485 L 908,485 L 906,485 L 906,484 L 906,485 L 905,485 L 905,486 L 906,486 L 909,486 L 910,486 L 911,486 L 911,487 L 912,488 L 912,489 L 912,490 L 905,505 L 889,523 L 888,524 L 887,524 L 886,524 L 885,523 L 884,522 L 883,522 L 882,522 L 881,522 L 881,523 L 880,523 L 880,524 L 880,525 L 881,525 L 881,526 L 882,526 L 883,526 L 884,525 L 885,525 L 886,526 L 887,527 L 887,528 L 888,531 L 887,534 L 885,537 L 882,539 L 879,539 L 876,541 L 874,544 L 873,546 L 872,547 L 871,547 L 870,547 L 870,546 L 869,543 L 867,542 L 865,541 L 863,541 L 862,542 L 861,543 L 860,544 L 860,546 L 861,546 L 862,547 L 863,547 L 865,547 L 866,547 L 867,548 L 868,548 L 868,550 L 869,551 L 869,553 L 868,554 L 867,555 L 865,556 L 863,557 L 858,558 L 856,559 L 854,559 L 852,558 L 851,556 L 851,555 L 850,554 L 851,553 L 850,553 L 850,552 L 849,551 L 848,552 L 847,554 L 848,555 L 849,557 L 850,559 L 850,561 L 850,562 L 849,563 L 848,563 L 846,564 L 845,563 L 844,563 L 843,561 L 842,560 L 842,559 L 841,559 L 841,558 L 840,558 L 839,559 L 839,560 L 839,561 L 840,563 L 841,564 L 843,566 L 844,568 L 845,571 L 844,573 L 842,577 L 838,579 L 835,580 L 833,579 L 831,578 L 830,578 L 829,578 L 828,578 L 827,579 L 826,580 L 826,581 L 826,582 L 827,584 L 828,585 L 829,586 L 829,588 L 829,591 L 829,592 L 829,593 L 828,594 L 827,594 L 824,594 L 822,593 L 796,587 L 796,586 L 795,587 L 795,588 L 795,589 L 796,590 L 798,591 L 800,592 L 804,592 L 808,591 L 809,592 L 810,592 L 821,607 L 824,608 L 826,610 L 827,612 L 828,616 L 827,619 L 824,623 L 820,626 L 813,629 L 805,631 L 802,631 L 800,631 L 799,630 L 798,629 L 796,628 L 795,628 L 794,628 L 793,628 L 792,629 L 792,630 L 791,631 L 790,634 L 788,636 L 785,638 L 783,638 L 781,637 L 780,636 L 779,634 L 779,630 L 779,626 L 778,622 L 775,620 L 772,618 L 768,617 L 765,618 L 763,619 L 760,621 L 758,623 L 757,624 L 756,624 L 755,624 L 753,623 L 747,622 L 740,620 L 732,617 L 731,617 L 729,617 L 728,616 L 728,615 L 727,614 L 728,612 L 730,610 L 733,609 L 740,603 L 756,592 L 761,590 L 765,586 L 767,582 L 768,577 L 768,571 L 768,569 L 768,565 L 768,564 L 771,559 L 774,554 L 775,552 L 778,549 L 784,547 L 789,542 L 792,537 L 794,529 L 793,525 L 794,521 L 795,519 L 797,517 L 800,517 L 802,516 L 805,514 L 807,510 L 821,490 L 830,478 L 837,465 L 839,463 L 845,450 L 847,445 " />
</g>
<g id="nova-scotia_3" inkscape:label="North_Shore___C_te-nord">
<path d="M 633,416 L 640,407 L 651,402 L 658,400 L 659,400 L 675,406 L 676,407 L 676,408 L 677,408 L 677,409 L 678,409 L 682,408 L 687,408 L 694,406 L 700,402 L 705,397 L 712,393 L 716,391 L 721,390 L 722,390 L 723,390 L 723,391 L 724,391 L 723,391 L 723,392 L 722,392 L 721,392 L 720,393 L 720,394 L 720,395 L 720,396 L 721,396 L 722,396 L 723,395 L 725,395 L 726,396 L 725,397 L 724,398 L 723,398 L 721,399 L 718,399 L 716,399 L 715,400 L 715,401 L 715,402 L 715,403 L 716,403 L 717,404 L 719,404 L 720,403 L 724,400 L 734,397 L 747,389 L 748,388 L 749,388 L 749,389 L 748,389 L 748,390 L 747,390 L 746,392 L 745,394 L 741,399 L 741,401 L 740,402 L 741,403 L 741,405 L 742,405 L 743,406 L 744,406 L 746,405 L 747,404 L 753,397 L 759,393 L 765,389 L 767,387 L 769,385 L 769,383 L 769,382 L 769,381 L 768,379 L 769,377 L 770,375 L 772,374 L 775,374 L 779,375 L 784,374 L 788,372 L 795,369 L 803,366 L 805,366 L 806,366 L 807,366 L 808,366 L 810,367 L 811,368 L 816,367 L 818,367 L 820,366 L 821,366 L 822,366 L 822,369 L 821,372 L 818,375 L 815,377 L 813,380 L 812,380 L 812,381 L 812,382 L 813,382 L 813,383 L 814,383 L 816,382 L 822,382 L 824,382 L 826,382 L 827,381 L 828,381 L 827,381 L 826,380 L 825,380 L 822,378 L 821,377 L 821,376 L 821,375 L 821,374 L 821,373 L 822,373 L 823,372 L 836,369 L 848,363 L 857,353 L 862,348 L 871,326 L 876,319 L 882,298 L 884,295 L 885,295 L 886,294 L 887,295 L 888,295 L 888,296 L 889,297 L 890,300 L 891,304 L 893,306 L 896,309 L 900,315 L 903,323 L 905,329 L 905,330 L 906,331 L 907,332 L 908,332 L 909,331 L 909,330 L 909,329 L 910,326 L 911,324 L 913,323 L 915,323 L 919,323 L 925,323 L 932,322 L 937,318 L 940,315 L 942,311 L 942,307 L 943,304 L 945,301 L 950,298 L 950,297 L 951,298 L 953,298 L 961,301 L 980,310 L 984,310 L 987,310 L 991,310 L 992,310 L 993,310 L 994,310 L 995,311 L 996,313 L 997,315 L 996,318 L 996,320 L 993,325 L 990,330 L 984,336 L 980,339 L 978,343 L 978,345 L 979,347 L 980,348 L 982,349 L 983,349 L 986,348 L 1009,335 L 1017,329 L 1037,321 L 1039,321 L 1040,322 L 1040,323 L 1039,340 L 1034,349 L 1033,350 L 1031,350 L 1030,350 L 1029,350 L 1029,349 L 1029,348 L 1029,347 L 1029,345 L 1029,344 L 1028,343 L 1027,343 L 1026,343 L 1025,344 L 1024,345 L 1020,350 L 1015,353 L 1012,354 L 1009,356 L 1007,359 L 1006,363 L 1006,364 L 1006,365 L 1007,366 L 1008,366 L 1009,366 L 1012,365 L 1013,365 L 1013,366 L 1014,366 L 1014,367 L 1013,367 L 1012,368 L 1011,369 L 1010,371 L 1007,374 L 987,390 L 980,391 L 973,390 L 966,387 L 958,386 L 957,387 L 958,387 L 959,387 L 962,387 L 965,387 L 981,397 L 983,397 L 984,398 L 985,399 L 985,400 L 985,402 L 984,403 L 982,404 L 981,405 L 978,406 L 974,407 L 971,409 L 969,412 L 968,417 L 970,421 L 970,422 L 970,423 L 969,423 L 968,423 L 967,423 L 966,423 L 964,423 L 953,421 L 952,420 L 947,417 L 946,415 L 946,414 L 945,413 L 944,414 L 945,415 L 946,416 L 947,417 L 947,418 L 953,421 L 964,425 L 965,425 L 966,426 L 966,427 L 966,428 L 965,428 L 964,429 L 962,428 L 961,427 L 960,427 L 959,427 L 958,427 L 957,428 L 956,430 L 955,436 L 954,438 L 952,440 L 950,441 L 949,442 L 949,443 L 950,443 L 951,442 L 952,442 L 953,441 L 954,440 L 955,440 L 955,439 L 956,439 L 956,440 L 957,440 L 957,441 L 957,442 L 956,443 L 955,445 L 951,450 L 945,453 L 943,453 L 933,451 L 930,451 L 898,446 L 887,445 L 876,443 L 870,442 L 861,441 L 861,440 L 857,440 L 856,440 L 851,442 L 847,445 L 845,450 L 839,463 L 837,465 L 830,478 L 821,490 L 807,510 L 805,514 L 803,516 L 801,518 L 799,519 L 799,520 L 798,520 L 797,520 L 796,519 L 796,518 L 794,515 L 793,513 L 786,498 L 779,493 L 766,485 L 765,485 L 762,478 L 762,477 L 763,475 L 765,474 L 767,473 L 768,471 L 768,470 L 768,469 L 767,469 L 767,468 L 766,468 L 765,469 L 764,470 L 761,471 L 752,474 L 742,476 L 732,482 L 723,485 L 718,489 L 717,494 L 714,497 L 710,498 L 707,498 L 706,497 L 704,497 L 702,497 L 701,498 L 697,499 L 694,502 L 690,503 L 682,506 L 674,511 L 668,517 L 655,526 L 634,530 L 633,530 L 633,531 L 626,537 L 625,538 L 623,540 L 622,543 L 622,545 L 623,548 L 623,551 L 622,553 L 619,556 L 615,557 L 612,557 L 610,556 L 608,556 L 607,555 L 606,555 L 605,556 L 598,565 L 597,565 L 596,565 L 596,564 L 592,550 L 594,544 L 611,509 L 619,488 L 625,451 L 625,450 L 626,449 L 627,449 L 628,449 L 629,449 L 630,449 L 630,450 L 630,451 L 630,452 L 629,453 L 629,456 L 629,457 L 628,459 L 629,460 L 630,461 L 631,461 L 631,460 L 633,455 L 633,449 L 630,443 L 629,435 L 631,428 L 633,416 " />
</g>
<g id="nova-scotia_4" inkscape:label="Annapolis_Valley">
<path d="M 752,485 L 757,483 L 761,483 L 765,484 L 774,488 L 781,494 L 786,498 L 788,501 L 794,517 L 792,536 L 792,537 L 789,542 L 784,547 L 778,549 L 775,552 L 774,554 L 771,559 L 768,564 L 768,565 L 768,569 L 768,571 L 768,577 L 767,582 L 765,586 L 761,590 L 756,592 L 748,598 L 733,609 L 729,612 L 725,614 L 720,613 L 716,612 L 709,610 L 704,608 L 698,606 L 696,606 L 693,606 L 691,606 L 690,607 L 688,609 L 687,611 L 687,614 L 683,624 L 665,681 L 660,699 L 658,708 L 653,715 L 646,720 L 641,729 L 639,741 L 639,745 L 637,748 L 636,750 L 634,751 L 632,751 L 631,750 L 630,749 L 613,742 L 607,740 L 596,735 L 590,733 L 582,729 L 574,724 L 560,719 L 558,718 L 557,717 L 556,716 L 555,715 L 555,714 L 556,711 L 558,705 L 562,697 L 573,679 L 577,670 L 583,660 L 594,641 L 597,633 L 604,623 L 611,609 L 616,600 L 620,595 L 621,593 L 622,592 L 631,581 L 647,564 L 659,549 L 662,543 L 663,541 L 662,540 L 661,538 L 660,537 L 659,537 L 656,538 L 653,538 L 652,538 L 651,538 L 650,538 L 650,537 L 651,537 L 651,536 L 653,536 L 655,536 L 656,535 L 660,534 L 662,534 L 663,534 L 669,534 L 669,535 L 670,535 L 670,536 L 670,537 L 670,538 L 671,540 L 671,545 L 672,550 L 673,552 L 674,557 L 676,562 L 677,564 L 679,565 L 679,566 L 680,567 L 681,567 L 682,567 L 683,566 L 683,565 L 684,564 L 684,562 L 684,561 L 684,560 L 684,559 L 694,559 L 695,558 L 696,558 L 697,557 L 697,556 L 697,553 L 697,548 L 698,542 L 700,536 L 719,514 L 732,498 L 749,487 L 752,485 " />
</g>
<g id="nova-scotia_5" inkscape:label="Cape_Breton">
<path d="M 926,33 L 929,31 L 933,31 L 939,31 L 939,30 L 940,30 L 940,27 L 940,25 L 942,23 L 943,22 L 945,22 L 946,22 L 947,23 L 947,24 L 945,29 L 944,34 L 945,39 L 949,43 L 954,46 L 957,47 L 961,46 L 964,45 L 967,43 L 968,42 L 969,43 L 971,43 L 971,44 L 973,47 L 973,50 L 976,56 L 978,63 L 977,68 L 978,74 L 981,79 L 985,82 L 988,88 L 988,94 L 991,111 L 997,160 L 998,160 L 999,159 L 999,158 L 999,157 L 1000,153 L 998,144 L 1002,130 L 1003,130 L 1004,129 L 1005,129 L 1006,129 L 1007,129 L 1007,130 L 1008,134 L 1009,138 L 1008,141 L 1007,150 L 1005,159 L 1005,170 L 1002,178 L 987,195 L 982,199 L 978,204 L 976,209 L 977,219 L 973,224 L 969,230 L 967,232 L 966,234 L 966,235 L 965,236 L 965,237 L 966,237 L 970,234 L 976,227 L 980,219 L 981,210 L 994,193 L 995,192 L 996,191 L 997,191 L 998,193 L 996,198 L 997,204 L 999,209 L 999,212 L 999,215 L 998,217 L 995,220 L 992,223 L 984,231 L 981,233 L 980,234 L 980,235 L 981,235 L 981,236 L 982,236 L 984,235 L 985,234 L 986,233 L 987,232 L 988,232 L 990,232 L 991,233 L 992,233 L 992,234 L 993,234 L 993,235 L 992,236 L 992,237 L 991,237 L 990,237 L 989,237 L 989,238 L 990,238 L 991,238 L 993,239 L 994,241 L 994,242 L 993,244 L 992,245 L 988,249 L 985,253 L 983,257 L 982,263 L 984,269 L 984,271 L 986,272 L 987,273 L 988,273 L 990,273 L 992,272 L 993,270 L 995,267 L 997,263 L 1000,254 L 1001,252 L 1003,251 L 1006,250 L 1014,247 L 1017,247 L 1020,248 L 1021,249 L 1022,251 L 1022,252 L 1022,254 L 1022,255 L 1021,256 L 1021,257 L 1022,257 L 1022,258 L 1023,258 L 1024,258 L 1025,257 L 1027,254 L 1028,251 L 1029,248 L 1027,244 L 1024,240 L 1023,233 L 1024,226 L 1027,220 L 1031,207 L 1036,191 L 1036,189 L 1037,187 L 1039,185 L 1039,184 L 1039,183 L 1039,182 L 1038,181 L 1037,181 L 1036,182 L 1034,184 L 1034,185 L 1033,189 L 1027,197 L 1024,205 L 1019,211 L 1015,213 L 1012,215 L 1009,215 L 1007,214 L 1005,212 L 1004,208 L 1004,203 L 1006,199 L 1009,196 L 1014,184 L 1018,174 L 1024,148 L 1026,145 L 1027,141 L 1027,135 L 1026,130 L 1025,128 L 1024,126 L 1024,125 L 1023,124 L 1024,124 L 1029,126 L 1033,129 L 1035,130 L 1036,131 L 1037,132 L 1037,134 L 1037,137 L 1036,139 L 1035,141 L 1035,144 L 1035,145 L 1036,146 L 1037,146 L 1038,146 L 1039,146 L 1039,145 L 1039,144 L 1040,141 L 1041,142 L 1041,143 L 1042,143 L 1043,143 L 1044,143 L 1045,142 L 1045,141 L 1045,140 L 1045,139 L 1044,138 L 1042,134 L 1042,129 L 1042,128 L 1042,127 L 1043,126 L 1044,124 L 1045,123 L 1047,122 L 1050,121 L 1054,121 L 1064,120 L 1075,120 L 1078,119 L 1081,118 L 1084,120 L 1085,121 L 1086,123 L 1086,126 L 1085,128 L 1084,131 L 1085,132 L 1085,134 L 1086,135 L 1088,136 L 1088,137 L 1088,138 L 1088,139 L 1087,140 L 1086,140 L 1084,143 L 1084,144 L 1083,145 L 1083,146 L 1083,147 L 1084,148 L 1086,149 L 1088,148 L 1098,142 L 1101,142 L 1103,143 L 1105,144 L 1106,146 L 1106,149 L 1105,151 L 1104,152 L 1102,154 L 1098,161 L 1094,170 L 1088,177 L 1084,178 L 1081,180 L 1078,183 L 1078,184 L 1078,188 L 1079,189 L 1080,189 L 1081,189 L 1082,188 L 1084,188 L 1088,188 L 1090,188 L 1091,189 L 1092,190 L 1092,191 L 1092,192 L 1091,194 L 1085,199 L 1083,201 L 1083,203 L 1084,209 L 1082,215 L 1077,219 L 1072,233 L 1070,236 L 1058,247 L 1055,250 L 1054,251 L 1047,262 L 1035,268 L 1022,268 L 1018,270 L 1014,273 L 1011,277 L 1008,284 L 1002,290 L 994,293 L 989,295 L 986,299 L 984,303 L 984,305 L 983,306 L 981,307 L 979,307 L 977,306 L 973,304 L 969,301 L 956,296 L 954,294 L 941,282 L 912,246 L 914,241 L 915,239 L 916,238 L 918,237 L 919,237 L 920,237 L 920,236 L 921,236 L 921,235 L 920,234 L 919,233 L 918,233 L 917,233 L 916,234 L 915,234 L 914,234 L 914,233 L 914,232 L 914,231 L 913,228 L 913,224 L 912,216 L 913,216 L 913,215 L 918,207 L 920,203 L 921,197 L 920,188 L 920,187 L 922,177 L 922,150 L 920,142 L 915,120 L 917,109 L 916,104 L 914,90 L 915,87 L 921,73 L 924,60 L 924,57 L 921,49 L 920,45 L 920,41 L 921,37 L 922,35 L 923,34 L 926,33 " />
</g>
</g>
</g></svg>