<?xml version="1.0" standalone="no"?>
<!DOCTYPE svg PUBLIC "-//W3C//DTD SVG 1.1//EN" "http://www.w3.org/Graphics/SVG/1.1/DTD/svg11.dtd">
<svg xmlns="http://www.w3.org/2000/svg" xmlns:inkscape="http://www.inkscape.org/namespaces/inkscape" xmlns:xlink="http://www.w3.org/1999/xlink" viewBox = "0 0 1635 933" version = "1.1">
<!-- svg generated using QGIS www.qgis.org -->
<g id="northwest-territories" inkscape:groupmode="layer" inkscape:label="northwest-territories">
<g stroke="rgb(35,35,35)" fill="rgb(183,72,75)" stroke-linejoin="round" stroke-width="0.40">
<g id="northwest-territories_1" inkscape:label="Northwest_Territories___Territoires_du_Nord-Ouest">
<path d="M 751,302 L 752,305 L 753,308 L 753,311 L 753,318 L 753,321 L 752,328 L 752,330 L 751,332 L 750,334 L 749,337 L 749,340 L 749,341 L 749,344 L 749,345 L 749,348 L 750,349 L 750,352 L 752,359 L 752,362 L 753,362 L 753,363 L 754,363 L 755,364 L 756,365 L 756,366 L 756,367 L 757,367 L 757,368 L 758,368 L 759,367 L 760,366 L 759,365 L 758,365 L 758,364 L 759,364 L 759,365 L 760,365 L 760,366 L 761,367 L 762,367 L 763,367 L 764,367 L 764,366 L 764,365 L 764,364 L 763,364 L 761,363 L 761,362 L 760,362 L 759,362 L 758,362 L 758,361 L 758,360 L 759,360 L 761,360 L 763,361 L 765,363 L 766,363 L 765,363 L 765,362 L 765,361 L 765,360 L 764,358 L 764,356 L 765,355 L 766,354 L 767,353 L 768,354 L 769,354 L 770,353 L 771,353 L 772,353 L 773,354 L 773,355 L 772,355 L 772,356 L 772,357 L 773,357 L 774,357 L 775,356 L 774,355 L 773,354 L 771,352 L 770,351 L 770,350 L 770,349 L 770,348 L 771,348 L 772,348 L 772,349 L 772,350 L 771,350 L 771,351 L 772,351 L 773,351 L 774,351 L 775,349 L 777,347 L 778,346 L 779,346 L 780,346 L 781,346 L 782,346 L 783,346 L 783,345 L 782,345 L 781,344 L 779,344 L 777,344 L 776,344 L 775,344 L 775,343 L 775,342 L 775,341 L 776,341 L 777,341 L 779,340 L 779,341 L 779,342 L 780,342 L 781,342 L 782,342 L 784,342 L 785,343 L 784,344 L 785,345 L 786,345 L 787,345 L 787,344 L 787,343 L 786,342 L 785,341 L 785,340 L 785,339 L 786,338 L 787,338 L 788,338 L 789,338 L 789,339 L 788,339 L 787,339 L 786,339 L 786,340 L 788,341 L 789,342 L 789,343 L 789,344 L 789,345 L 788,346 L 786,348 L 784,351 L 783,354 L 782,355 L 781,357 L 780,357 L 780,358 L 780,359 L 781,359 L 783,360 L 784,360 L 784,361 L 785,362 L 785,363 L 784,363 L 784,364 L 783,364 L 782,364 L 782,365 L 781,365 L 781,366 L 779,367 L 777,368 L 776,368 L 775,369 L 774,370 L 773,372 L 773,374 L 774,375 L 776,376 L 776,377 L 777,377 L 778,377 L 779,376 L 780,376 L 781,376 L 782,377 L 782,378 L 784,379 L 785,380 L 788,380 L 789,379 L 790,378 L 790,377 L 791,376 L 793,376 L 794,376 L 795,376 L 796,374 L 797,372 L 798,372 L 799,370 L 800,368 L 801,366 L 802,365 L 803,365 L 804,365 L 805,366 L 805,367 L 806,367 L 807,367 L 810,368 L 813,369 L 815,371 L 820,373 L 822,374 L 822,375 L 824,376 L 825,377 L 826,378 L 827,380 L 828,383 L 829,383 L 831,385 L 832,386 L 832,388 L 832,390 L 817,431 L 813,441 L 810,448 L 810,449 L 809,450 L 801,467 L 804,472 L 807,477 L 808,479 L 812,486 L 813,488 L 814,490 L 816,492 L 818,495 L 824,506 L 827,509 L 830,511 L 833,514 L 836,517 L 839,521 L 841,523 L 843,525 L 846,527 L 851,536 L 888,595 L 905,618 L 923,624 L 943,629 L 959,654 L 965,663 L 966,666 L 967,668 L 969,669 L 971,670 L 972,670 L 978,672 L 981,673 L 983,674 L 988,676 L 1001,681 L 1005,682 L 1008,683 L 1010,684 L 1014,685 L 1022,688 L 1025,689 L 1026,689 L 1028,690 L 1031,691 L 1037,693 L 1043,695 L 1045,696 L 1046,696 L 1051,698 L 1055,700 L 1068,704 L 1073,706 L 1077,708 L 1080,709 L 1085,711 L 1087,712 L 1093,714 L 1096,715 L 1097,715 L 1098,716 L 1098,717 L 1098,718 L 1098,720 L 1097,724 L 1097,727 L 1097,729 L 1096,733 L 1096,735 L 1096,736 L 1096,738 L 1095,740 L 1095,747 L 1094,750 L 1092,773 L 1091,777 L 1091,780 L 1091,785 L 1090,792 L 1089,795 L 1089,799 L 1088,805 L 1088,811 L 1087,816 L 1086,823 L 1086,827 L 1085,838 L 1084,844 L 1083,852 L 1082,859 L 1082,866 L 1081,874 L 1080,882 L 1080,884 L 1079,894 L 1078,897 L 1078,900 L 1077,903 L 1078,905 L 1077,907 L 1077,908 L 1076,908 L 1075,908 L 1072,908 L 1071,908 L 1070,908 L 1066,907 L 1065,907 L 1064,907 L 1060,906 L 1059,906 L 1055,906 L 1054,906 L 1053,906 L 1048,905 L 1042,904 L 1037,903 L 1031,903 L 1026,902 L 1025,902 L 1024,902 L 1019,901 L 1014,900 L 1011,900 L 1008,899 L 1002,898 L 1001,898 L 996,897 L 994,897 L 991,896 L 990,896 L 988,896 L 985,895 L 980,894 L 979,894 L 974,893 L 973,893 L 971,893 L 968,892 L 962,891 L 961,891 L 958,890 L 956,890 L 955,890 L 951,889 L 948,888 L 947,888 L 946,888 L 945,888 L 944,888 L 939,887 L 934,885 L 931,885 L 928,884 L 927,884 L 924,883 L 923,883 L 922,883 L 918,882 L 917,882 L 916,882 L 915,881 L 912,881 L 911,880 L 908,880 L 906,879 L 905,879 L 900,878 L 899,878 L 896,877 L 894,877 L 894,876 L 891,876 L 888,875 L 883,874 L 879,873 L 877,872 L 871,871 L 866,869 L 861,868 L 860,868 L 856,867 L 855,866 L 850,865 L 849,865 L 843,863 L 842,863 L 838,862 L 835,861 L 833,861 L 832,860 L 831,860 L 827,859 L 825,858 L 823,858 L 821,857 L 815,855 L 810,854 L 805,852 L 804,852 L 802,851 L 799,850 L 797,850 L 795,849 L 793,848 L 791,848 L 788,847 L 787,847 L 787,846 L 782,845 L 777,843 L 774,842 L 771,841 L 767,840 L 766,839 L 760,838 L 756,836 L 755,836 L 754,836 L 749,834 L 748,833 L 744,832 L 738,830 L 737,829 L 736,829 L 733,828 L 732,828 L 730,827 L 727,826 L 724,825 L 722,824 L 716,822 L 712,820 L 711,820 L 707,818 L 706,818 L 705,818 L 700,816 L 700,815 L 695,814 L 695,813 L 692,812 L 689,811 L 688,811 L 684,809 L 681,808 L 679,807 L 674,805 L 673,805 L 669,803 L 668,802 L 667,802 L 665,801 L 662,800 L 658,798 L 657,798 L 656,797 L 655,797 L 652,796 L 651,795 L 649,795 L 647,793 L 646,793 L 643,792 L 641,791 L 636,789 L 631,787 L 631,786 L 629,786 L 627,784 L 625,784 L 622,782 L 620,781 L 615,779 L 614,778 L 611,777 L 610,777 L 609,776 L 604,774 L 599,772 L 599,771 L 597,770 L 594,769 L 592,767 L 592,765 L 591,763 L 590,758 L 591,754 L 591,752 L 591,750 L 593,748 L 593,747 L 593,746 L 593,745 L 592,745 L 591,744 L 590,743 L 591,742 L 591,740 L 591,738 L 591,737 L 590,734 L 590,733 L 590,732 L 591,732 L 592,731 L 594,731 L 594,730 L 595,729 L 595,727 L 595,726 L 596,725 L 596,723 L 595,721 L 594,720 L 593,720 L 592,719 L 591,720 L 590,721 L 590,722 L 589,722 L 589,723 L 588,723 L 587,722 L 585,721 L 584,721 L 582,720 L 580,721 L 578,721 L 576,720 L 575,719 L 574,717 L 572,716 L 571,714 L 570,712 L 570,711 L 569,711 L 568,711 L 567,711 L 566,712 L 566,713 L 565,713 L 564,713 L 564,712 L 563,712 L 563,711 L 564,711 L 564,710 L 563,710 L 563,709 L 562,709 L 561,709 L 561,710 L 560,711 L 559,711 L 558,711 L 557,711 L 557,710 L 556,710 L 556,709 L 555,708 L 553,708 L 552,708 L 551,708 L 550,707 L 549,706 L 548,706 L 548,705 L 548,704 L 548,702 L 549,699 L 551,696 L 551,695 L 551,694 L 551,693 L 551,692 L 550,692 L 550,693 L 549,692 L 549,691 L 550,690 L 553,687 L 554,686 L 555,683 L 556,679 L 557,675 L 557,673 L 556,672 L 555,670 L 554,670 L 552,670 L 550,667 L 549,664 L 547,660 L 547,658 L 546,657 L 546,655 L 546,654 L 546,652 L 548,651 L 548,650 L 548,649 L 547,648 L 546,648 L 545,647 L 545,646 L 545,645 L 546,644 L 546,636 L 545,632 L 544,631 L 543,631 L 542,631 L 541,632 L 540,632 L 539,632 L 539,631 L 538,630 L 538,629 L 537,628 L 536,627 L 534,626 L 533,625 L 533,624 L 533,623 L 534,622 L 535,622 L 535,621 L 535,619 L 535,618 L 536,616 L 538,613 L 540,612 L 541,611 L 541,610 L 541,609 L 541,608 L 540,608 L 540,607 L 540,606 L 540,605 L 540,604 L 539,604 L 538,604 L 538,603 L 538,602 L 539,602 L 540,602 L 540,601 L 540,600 L 539,598 L 539,596 L 540,595 L 540,591 L 541,589 L 542,587 L 544,586 L 547,584 L 547,583 L 548,583 L 547,582 L 546,581 L 545,581 L 545,580 L 545,579 L 545,578 L 545,576 L 545,574 L 545,573 L 545,572 L 544,571 L 543,570 L 543,569 L 543,568 L 544,568 L 546,568 L 549,568 L 550,568 L 550,567 L 551,566 L 551,565 L 552,564 L 553,564 L 554,563 L 554,562 L 554,561 L 554,560 L 554,558 L 553,557 L 553,556 L 553,555 L 553,554 L 554,554 L 554,553 L 553,553 L 553,552 L 552,552 L 551,552 L 550,552 L 550,551 L 550,550 L 551,549 L 552,549 L 553,550 L 554,550 L 555,550 L 556,550 L 556,549 L 557,548 L 557,547 L 557,546 L 557,545 L 556,545 L 555,544 L 554,545 L 553,544 L 553,543 L 553,542 L 553,541 L 553,540 L 550,536 L 550,532 L 550,529 L 550,527 L 550,526 L 551,525 L 552,524 L 553,523 L 553,521 L 553,519 L 554,515 L 554,513 L 553,511 L 552,510 L 551,509 L 550,509 L 549,509 L 548,510 L 546,510 L 544,509 L 543,509 L 542,508 L 542,507 L 542,505 L 543,505 L 544,505 L 545,505 L 546,504 L 546,503 L 546,502 L 546,500 L 545,499 L 545,497 L 545,495 L 546,493 L 545,491 L 544,488 L 544,487 L 543,485 L 541,485 L 540,483 L 540,482 L 540,481 L 541,481 L 541,480 L 542,480 L 543,480 L 544,480 L 546,477 L 548,476 L 549,476 L 549,475 L 550,475 L 550,474 L 549,474 L 549,473 L 548,472 L 548,471 L 549,470 L 550,469 L 549,468 L 548,468 L 547,468 L 547,467 L 547,465 L 548,464 L 550,463 L 552,463 L 553,463 L 555,461 L 556,461 L 558,461 L 560,460 L 563,459 L 566,457 L 567,454 L 568,451 L 568,448 L 568,447 L 567,442 L 567,441 L 568,441 L 569,440 L 571,440 L 572,439 L 573,439 L 573,438 L 573,437 L 572,436 L 571,435 L 570,435 L 566,436 L 565,437 L 564,437 L 563,437 L 562,436 L 562,435 L 562,434 L 563,434 L 564,433 L 565,433 L 565,432 L 565,431 L 564,430 L 563,429 L 561,429 L 560,429 L 557,429 L 555,429 L 554,428 L 553,427 L 553,426 L 553,425 L 554,425 L 555,425 L 555,424 L 556,423 L 556,422 L 556,421 L 557,420 L 559,420 L 560,420 L 562,416 L 563,415 L 562,414 L 562,413 L 561,412 L 560,412 L 560,411 L 560,410 L 561,409 L 563,408 L 565,408 L 566,408 L 566,407 L 567,406 L 567,405 L 567,404 L 568,404 L 569,404 L 570,403 L 570,402 L 570,400 L 570,398 L 570,396 L 571,395 L 573,394 L 574,391 L 574,388 L 573,385 L 572,384 L 573,383 L 574,383 L 575,383 L 575,384 L 576,384 L 576,385 L 577,385 L 577,384 L 577,383 L 576,383 L 575,383 L 575,382 L 574,382 L 573,382 L 573,381 L 572,381 L 572,380 L 571,380 L 571,379 L 570,379 L 569,379 L 569,378 L 568,378 L 568,377 L 567,377 L 566,377 L 566,376 L 565,376 L 565,375 L 564,375 L 564,374 L 563,374 L 562,374 L 562,373 L 561,373 L 561,372 L 560,372 L 559,372 L 559,371 L 558,371 L 558,370 L 557,370 L 557,369 L 556,369 L 555,369 L 555,368 L 554,368 L 554,367 L 553,367 L 553,366 L 552,366 L 551,366 L 551,365 L 550,365 L 550,364 L 549,364 L 549,363 L 548,363 L 547,363 L 547,362 L 546,362 L 546,361 L 545,361 L 545,360 L 544,360 L 544,359 L 544,358 L 546,355 L 548,353 L 551,351 L 553,349 L 555,344 L 557,341 L 559,337 L 560,336 L 559,335 L 558,333 L 558,332 L 562,327 L 565,323 L 566,321 L 569,317 L 571,315 L 574,312 L 575,310 L 576,308 L 584,298 L 585,297 L 588,292 L 590,289 L 591,288 L 592,288 L 592,287 L 593,287 L 593,288 L 594,288 L 595,289 L 595,290 L 596,290 L 597,291 L 597,290 L 599,289 L 602,287 L 604,285 L 606,282 L 607,280 L 609,279 L 612,278 L 613,278 L 614,278 L 617,279 L 618,280 L 618,281 L 618,282 L 619,282 L 620,282 L 620,281 L 620,280 L 620,279 L 621,279 L 621,280 L 622,280 L 623,279 L 624,278 L 626,278 L 630,280 L 632,283 L 632,284 L 633,284 L 633,285 L 634,286 L 635,286 L 635,285 L 636,285 L 636,284 L 636,283 L 635,283 L 635,284 L 634,284 L 634,283 L 639,280 L 640,279 L 640,278 L 641,276 L 641,275 L 641,276 L 643,280 L 643,281 L 642,282 L 641,283 L 641,284 L 641,286 L 643,288 L 644,288 L 645,288 L 646,288 L 646,289 L 645,290 L 644,291 L 643,292 L 642,292 L 642,293 L 642,294 L 643,295 L 644,296 L 646,296 L 647,297 L 649,299 L 649,300 L 650,300 L 651,300 L 651,299 L 653,299 L 654,299 L 654,300 L 653,300 L 653,301 L 654,301 L 654,300 L 655,299 L 657,296 L 658,294 L 660,293 L 660,292 L 661,292 L 666,297 L 667,297 L 668,297 L 668,296 L 668,295 L 667,294 L 666,294 L 665,294 L 665,295 L 664,295 L 664,294 L 666,293 L 667,293 L 668,293 L 669,293 L 669,294 L 670,294 L 670,296 L 671,296 L 672,297 L 674,297 L 676,297 L 679,297 L 682,296 L 683,295 L 684,296 L 685,296 L 686,296 L 687,295 L 688,294 L 689,294 L 689,295 L 690,296 L 690,297 L 690,298 L 689,299 L 688,300 L 688,301 L 693,297 L 698,294 L 699,293 L 700,293 L 701,293 L 701,294 L 701,295 L 702,295 L 703,295 L 703,294 L 704,294 L 705,294 L 705,295 L 704,295 L 704,296 L 705,296 L 706,296 L 707,296 L 707,295 L 707,296 L 706,297 L 707,299 L 708,299 L 708,300 L 707,301 L 707,302 L 707,301 L 708,301 L 709,300 L 710,300 L 710,301 L 709,301 L 709,302 L 711,302 L 716,299 L 717,299 L 717,298 L 716,298 L 716,299 L 715,300 L 715,299 L 716,299 L 716,298 L 717,298 L 718,298 L 719,299 L 719,300 L 720,302 L 720,304 L 719,305 L 717,307 L 715,308 L 699,309 L 697,309 L 695,309 L 694,311 L 692,311 L 690,311 L 687,313 L 686,313 L 685,313 L 684,312 L 684,311 L 685,311 L 684,310 L 683,310 L 682,309 L 680,309 L 673,307 L 671,306 L 669,306 L 667,307 L 666,308 L 665,310 L 664,310 L 663,311 L 661,311 L 660,311 L 659,311 L 659,312 L 658,313 L 658,312 L 658,311 L 658,310 L 657,311 L 656,312 L 656,313 L 656,312 L 656,311 L 655,313 L 655,314 L 654,315 L 653,315 L 653,314 L 654,314 L 654,312 L 655,311 L 655,310 L 654,310 L 653,309 L 652,309 L 651,310 L 648,312 L 645,315 L 645,317 L 644,318 L 643,318 L 643,317 L 644,316 L 644,315 L 644,314 L 643,314 L 642,313 L 641,314 L 639,314 L 638,315 L 637,316 L 637,317 L 636,318 L 635,318 L 634,318 L 633,318 L 632,318 L 631,318 L 631,319 L 630,319 L 630,320 L 631,322 L 633,327 L 633,328 L 634,329 L 635,329 L 635,328 L 634,327 L 633,325 L 632,324 L 633,322 L 633,323 L 633,324 L 633,323 L 633,322 L 632,321 L 632,320 L 632,319 L 633,319 L 634,319 L 635,320 L 635,321 L 636,322 L 636,323 L 636,324 L 637,324 L 638,324 L 638,323 L 639,323 L 640,324 L 640,325 L 641,326 L 642,328 L 644,329 L 645,329 L 646,329 L 646,328 L 647,328 L 647,326 L 646,325 L 645,325 L 644,326 L 643,325 L 642,325 L 642,324 L 642,323 L 642,322 L 642,321 L 643,321 L 643,322 L 644,322 L 644,323 L 645,323 L 646,323 L 647,322 L 648,322 L 648,321 L 647,321 L 646,322 L 645,322 L 644,322 L 644,321 L 644,319 L 644,317 L 645,316 L 646,316 L 647,316 L 648,316 L 649,317 L 651,317 L 653,316 L 654,315 L 655,314 L 656,313 L 656,314 L 655,315 L 654,316 L 653,317 L 653,318 L 654,318 L 654,317 L 655,317 L 655,316 L 656,315 L 657,315 L 657,314 L 658,314 L 658,315 L 657,315 L 657,316 L 656,316 L 657,317 L 658,316 L 658,317 L 657,318 L 658,318 L 659,317 L 659,316 L 660,316 L 660,317 L 660,318 L 660,317 L 661,317 L 662,316 L 663,316 L 664,316 L 664,317 L 665,316 L 666,316 L 667,316 L 667,315 L 668,315 L 669,314 L 669,313 L 668,313 L 667,313 L 667,312 L 668,311 L 669,311 L 672,312 L 673,313 L 674,313 L 674,314 L 674,315 L 673,315 L 672,316 L 672,317 L 673,317 L 675,315 L 675,314 L 676,313 L 676,312 L 676,313 L 676,316 L 675,317 L 674,317 L 673,318 L 673,319 L 672,319 L 673,319 L 673,318 L 675,317 L 676,316 L 676,315 L 677,314 L 677,313 L 678,313 L 677,314 L 676,318 L 677,317 L 677,316 L 679,313 L 679,314 L 679,315 L 678,316 L 677,317 L 677,318 L 676,318 L 676,319 L 675,319 L 674,319 L 675,319 L 675,320 L 676,319 L 677,319 L 679,316 L 680,315 L 680,314 L 680,313 L 680,311 L 680,310 L 681,310 L 681,311 L 681,312 L 681,313 L 680,315 L 680,317 L 678,318 L 677,319 L 677,320 L 676,320 L 677,320 L 678,320 L 679,319 L 680,316 L 681,315 L 681,312 L 682,311 L 682,310 L 683,310 L 683,311 L 683,312 L 682,313 L 682,314 L 682,315 L 681,316 L 680,319 L 679,319 L 678,320 L 677,320 L 677,321 L 678,321 L 679,320 L 680,319 L 682,317 L 682,316 L 683,315 L 683,314 L 683,316 L 682,318 L 681,319 L 680,320 L 679,320 L 679,321 L 679,322 L 680,322 L 680,321 L 681,320 L 682,319 L 684,316 L 684,315 L 685,315 L 685,316 L 684,319 L 684,320 L 683,320 L 684,320 L 685,320 L 686,320 L 687,320 L 688,320 L 689,321 L 689,322 L 690,325 L 691,325 L 691,326 L 692,326 L 691,325 L 690,325 L 690,324 L 689,323 L 688,322 L 688,320 L 689,319 L 691,318 L 696,314 L 697,314 L 698,314 L 699,314 L 700,315 L 703,315 L 706,315 L 711,315 L 714,316 L 716,317 L 717,317 L 718,317 L 719,317 L 721,315 L 722,314 L 723,314 L 723,315 L 722,315 L 722,316 L 722,317 L 721,317 L 720,318 L 719,318 L 717,317 L 716,318 L 716,319 L 715,320 L 714,322 L 713,322 L 713,323 L 714,324 L 714,325 L 715,326 L 716,326 L 716,325 L 715,325 L 715,324 L 716,323 L 718,323 L 720,323 L 723,322 L 726,320 L 730,320 L 731,320 L 731,321 L 731,322 L 730,323 L 730,324 L 732,318 L 732,314 L 733,314 L 733,313 L 734,313 L 735,312 L 736,312 L 738,313 L 743,314 L 745,314 L 746,315 L 747,315 L 747,316 L 747,317 L 746,317 L 746,318 L 747,318 L 747,319 L 748,319 L 749,318 L 750,317 L 751,317 L 750,317 L 749,317 L 748,319 L 747,319 L 747,318 L 747,317 L 748,316 L 748,315 L 748,314 L 744,311 L 742,308 L 742,307 L 742,306 L 743,306 L 744,306 L 744,307 L 745,307 L 745,306 L 746,306 L 745,305 L 744,305 L 743,305 L 743,304 L 742,304 L 742,303 L 743,302 L 744,301 L 746,299 L 747,298 L 748,298 L 749,298 L 750,299 L 751,301 L 751,302 " />
<path d="M 1029,287 L 1032,288 L 1034,289 L 1035,290 L 1036,291 L 1036,292 L 1036,293 L 1035,297 L 1035,299 L 1035,300 L 1034,301 L 1033,302 L 1033,301 L 1032,301 L 1032,300 L 1031,300 L 1030,301 L 1029,301 L 1029,300 L 1030,299 L 1031,298 L 1031,297 L 1030,297 L 1030,296 L 1029,296 L 1028,296 L 1027,295 L 1027,294 L 1026,294 L 1025,290 L 1025,289 L 1025,288 L 1025,287 L 1026,287 L 1028,287 L 1029,287 " />
<path d="M 981,256 L 982,257 L 983,258 L 984,259 L 985,264 L 985,266 L 985,268 L 985,269 L 981,276 L 980,280 L 980,281 L 980,282 L 980,283 L 979,283 L 977,283 L 975,283 L 974,285 L 974,287 L 973,288 L 972,289 L 971,289 L 970,289 L 969,290 L 969,291 L 970,291 L 970,292 L 971,292 L 972,292 L 975,292 L 976,290 L 978,290 L 979,290 L 980,291 L 981,291 L 982,291 L 983,290 L 984,290 L 985,290 L 984,290 L 984,291 L 983,291 L 982,292 L 981,292 L 981,293 L 982,293 L 984,292 L 986,291 L 986,289 L 986,288 L 984,287 L 984,286 L 987,284 L 987,283 L 989,281 L 992,278 L 993,278 L 994,278 L 995,278 L 996,279 L 1000,282 L 1001,282 L 1001,283 L 1003,285 L 1003,286 L 1004,286 L 1007,287 L 1009,291 L 1013,293 L 1014,296 L 1015,299 L 1015,302 L 1014,303 L 1014,304 L 1013,305 L 1012,305 L 1011,306 L 1010,307 L 1010,308 L 1009,309 L 1008,310 L 1007,310 L 1004,311 L 1001,312 L 999,314 L 999,315 L 1000,314 L 1001,314 L 1002,313 L 1003,313 L 1004,313 L 1004,314 L 1005,314 L 1005,315 L 1004,316 L 1003,317 L 1002,318 L 1002,319 L 1003,319 L 1004,317 L 1006,315 L 1007,315 L 1008,315 L 1008,314 L 1007,314 L 1006,314 L 1006,313 L 1006,312 L 1007,312 L 1009,311 L 1011,309 L 1012,309 L 1013,309 L 1013,310 L 1012,310 L 1012,311 L 1011,311 L 1011,312 L 1010,312 L 1010,314 L 1011,314 L 1012,315 L 1013,316 L 1013,317 L 1013,318 L 1013,317 L 1013,314 L 1020,307 L 1021,306 L 1022,307 L 1023,308 L 1023,309 L 1022,309 L 1022,310 L 1022,311 L 1022,312 L 1023,312 L 1023,313 L 1024,313 L 1024,312 L 1023,310 L 1023,309 L 1024,309 L 1025,309 L 1026,310 L 1027,311 L 1028,313 L 1028,314 L 1029,314 L 1030,314 L 1031,315 L 1031,316 L 1030,319 L 1030,321 L 1029,325 L 1028,328 L 1027,331 L 1027,332 L 1026,335 L 1025,340 L 1024,344 L 1022,351 L 1022,354 L 1021,358 L 1020,360 L 1020,363 L 1017,372 L 1017,373 L 1017,374 L 1016,377 L 1016,379 L 1015,382 L 1014,384 L 1014,386 L 1014,387 L 1013,389 L 1013,392 L 1010,402 L 1010,405 L 1008,412 L 1007,414 L 1007,417 L 1004,426 L 971,418 L 969,416 L 967,416 L 966,416 L 964,417 L 963,418 L 963,420 L 962,421 L 961,422 L 960,422 L 959,422 L 958,421 L 957,420 L 957,419 L 958,417 L 959,414 L 942,409 L 933,406 L 905,397 L 895,393 L 894,395 L 895,399 L 896,404 L 896,405 L 897,407 L 896,408 L 896,409 L 895,409 L 894,409 L 893,409 L 892,409 L 892,408 L 891,408 L 891,407 L 889,405 L 888,404 L 888,403 L 888,400 L 889,395 L 889,393 L 890,391 L 891,390 L 892,389 L 894,389 L 897,388 L 906,389 L 907,389 L 910,389 L 912,389 L 926,391 L 929,391 L 932,392 L 935,392 L 938,392 L 941,393 L 943,394 L 945,396 L 946,397 L 950,398 L 955,399 L 963,405 L 965,405 L 967,406 L 968,405 L 969,406 L 970,406 L 971,407 L 972,407 L 971,406 L 970,405 L 971,405 L 972,405 L 972,404 L 971,403 L 972,403 L 975,406 L 978,406 L 980,406 L 982,406 L 983,406 L 983,405 L 984,405 L 984,404 L 983,404 L 983,403 L 982,403 L 982,402 L 982,403 L 981,403 L 980,403 L 979,402 L 977,401 L 977,400 L 976,399 L 976,397 L 976,396 L 975,394 L 974,393 L 972,392 L 965,388 L 963,386 L 961,383 L 960,382 L 958,382 L 956,381 L 954,379 L 953,378 L 951,377 L 948,378 L 945,377 L 944,377 L 943,377 L 942,378 L 931,376 L 930,376 L 928,375 L 925,374 L 921,374 L 920,373 L 919,372 L 918,371 L 917,371 L 915,369 L 913,368 L 909,369 L 907,368 L 904,366 L 898,364 L 897,364 L 896,362 L 895,361 L 896,358 L 895,355 L 893,352 L 892,351 L 892,350 L 892,349 L 891,347 L 891,345 L 891,344 L 891,342 L 892,341 L 896,340 L 899,339 L 903,338 L 905,339 L 906,339 L 907,339 L 914,339 L 918,339 L 921,339 L 922,340 L 922,341 L 922,342 L 921,342 L 920,342 L 919,341 L 918,341 L 918,342 L 919,342 L 919,343 L 920,344 L 921,345 L 921,347 L 923,349 L 924,349 L 925,349 L 925,348 L 923,348 L 922,347 L 922,346 L 921,345 L 922,344 L 922,342 L 922,340 L 922,339 L 921,339 L 919,339 L 918,339 L 918,338 L 919,338 L 920,338 L 925,337 L 928,337 L 931,339 L 935,339 L 936,339 L 933,337 L 932,337 L 931,337 L 931,336 L 931,335 L 932,335 L 935,334 L 937,334 L 939,335 L 939,336 L 941,337 L 944,337 L 945,336 L 946,336 L 947,336 L 947,335 L 946,335 L 943,336 L 942,336 L 941,335 L 941,334 L 941,333 L 940,332 L 939,331 L 938,331 L 935,332 L 934,332 L 926,331 L 922,331 L 921,331 L 919,331 L 918,330 L 917,330 L 915,331 L 914,331 L 913,331 L 913,330 L 912,330 L 912,329 L 913,328 L 913,327 L 913,326 L 912,326 L 911,325 L 910,325 L 910,326 L 910,327 L 910,328 L 910,329 L 909,329 L 908,329 L 904,329 L 901,327 L 900,326 L 900,325 L 900,323 L 901,322 L 902,321 L 903,321 L 903,320 L 905,320 L 906,320 L 907,321 L 908,322 L 909,322 L 910,322 L 910,321 L 911,321 L 910,320 L 910,319 L 909,319 L 908,318 L 908,317 L 909,317 L 910,317 L 910,316 L 910,315 L 909,315 L 908,315 L 906,316 L 904,317 L 903,317 L 902,316 L 901,316 L 901,315 L 901,314 L 901,313 L 900,313 L 900,312 L 898,311 L 897,311 L 896,311 L 896,312 L 896,313 L 895,313 L 894,313 L 894,312 L 893,312 L 893,311 L 893,310 L 894,305 L 895,304 L 896,301 L 898,298 L 899,298 L 900,297 L 901,296 L 902,295 L 905,295 L 905,294 L 907,292 L 909,290 L 913,290 L 914,290 L 915,290 L 916,290 L 917,287 L 918,286 L 917,285 L 917,284 L 916,284 L 914,283 L 913,282 L 913,281 L 913,280 L 914,278 L 914,277 L 915,276 L 916,275 L 923,272 L 927,270 L 932,268 L 936,264 L 937,263 L 945,263 L 948,262 L 949,261 L 952,261 L 954,260 L 955,260 L 957,260 L 967,258 L 972,257 L 976,257 L 976,256 L 978,256 L 979,255 L 981,256 " />
<path d="M 915,171 L 916,172 L 919,175 L 919,176 L 919,178 L 919,179 L 921,183 L 923,187 L 925,189 L 927,191 L 928,192 L 930,194 L 931,195 L 931,196 L 930,196 L 930,197 L 929,198 L 929,199 L 930,199 L 931,198 L 932,197 L 932,196 L 933,196 L 934,196 L 934,197 L 935,197 L 936,198 L 937,198 L 937,199 L 937,200 L 936,201 L 936,203 L 935,204 L 934,205 L 934,206 L 934,207 L 935,207 L 935,208 L 936,208 L 937,207 L 938,206 L 938,205 L 939,204 L 939,203 L 939,202 L 939,201 L 941,200 L 943,200 L 944,200 L 946,200 L 950,200 L 951,200 L 952,201 L 956,204 L 958,206 L 959,207 L 959,208 L 961,211 L 961,214 L 962,214 L 963,218 L 965,223 L 965,225 L 967,230 L 968,233 L 971,239 L 972,242 L 972,243 L 972,244 L 972,246 L 972,247 L 971,248 L 969,249 L 967,250 L 964,252 L 953,253 L 948,255 L 945,256 L 933,259 L 931,260 L 928,261 L 925,262 L 924,262 L 922,263 L 921,264 L 919,265 L 917,264 L 909,267 L 907,270 L 903,276 L 903,277 L 902,278 L 901,279 L 898,279 L 897,280 L 894,281 L 893,281 L 892,281 L 891,280 L 890,278 L 889,277 L 888,278 L 888,279 L 888,281 L 888,282 L 887,283 L 886,285 L 884,287 L 881,289 L 880,290 L 879,291 L 879,293 L 878,295 L 876,299 L 876,301 L 874,304 L 873,306 L 872,306 L 872,307 L 871,307 L 869,308 L 868,309 L 867,309 L 866,309 L 863,309 L 862,309 L 861,309 L 858,309 L 857,309 L 856,309 L 856,308 L 855,306 L 855,305 L 855,304 L 855,303 L 854,302 L 853,301 L 852,301 L 852,302 L 852,303 L 853,303 L 854,303 L 854,304 L 853,304 L 853,303 L 853,304 L 852,304 L 851,304 L 850,305 L 849,305 L 849,306 L 848,306 L 846,308 L 845,308 L 845,309 L 843,309 L 839,309 L 838,309 L 836,309 L 835,310 L 834,310 L 834,311 L 832,312 L 829,311 L 828,311 L 827,310 L 826,310 L 826,309 L 826,308 L 826,306 L 825,303 L 826,300 L 828,290 L 827,287 L 827,286 L 827,285 L 827,284 L 827,281 L 827,280 L 826,276 L 825,275 L 825,274 L 824,274 L 822,271 L 821,271 L 819,267 L 819,264 L 817,262 L 817,261 L 817,260 L 818,260 L 819,261 L 820,261 L 820,262 L 821,262 L 820,261 L 819,260 L 817,258 L 816,258 L 814,257 L 812,257 L 811,257 L 810,256 L 809,256 L 807,254 L 808,254 L 808,255 L 809,255 L 809,256 L 810,255 L 811,255 L 811,254 L 812,254 L 813,252 L 813,251 L 814,249 L 816,248 L 817,248 L 817,247 L 817,246 L 818,245 L 819,245 L 820,245 L 827,238 L 830,237 L 832,236 L 833,236 L 833,235 L 834,235 L 834,234 L 833,233 L 834,232 L 835,231 L 836,231 L 837,230 L 837,228 L 838,225 L 838,224 L 838,223 L 838,222 L 839,223 L 840,223 L 841,224 L 845,224 L 847,224 L 848,224 L 848,223 L 848,222 L 848,221 L 847,220 L 846,219 L 845,217 L 846,215 L 846,214 L 849,213 L 853,210 L 854,208 L 855,207 L 857,205 L 859,203 L 861,202 L 863,202 L 865,200 L 866,198 L 867,196 L 869,195 L 871,195 L 872,194 L 873,192 L 873,191 L 873,190 L 873,189 L 872,188 L 871,187 L 870,186 L 872,184 L 872,180 L 872,176 L 873,173 L 874,168 L 874,166 L 874,164 L 874,163 L 875,163 L 876,163 L 881,164 L 884,165 L 887,166 L 897,168 L 900,170 L 901,170 L 905,171 L 907,171 L 912,171 L 913,171 L 915,171 " />
<path d="M 986,120 L 987,121 L 987,122 L 987,123 L 987,124 L 986,125 L 984,128 L 980,130 L 979,133 L 975,137 L 975,138 L 973,139 L 970,141 L 969,142 L 967,143 L 966,143 L 965,143 L 963,141 L 963,140 L 959,137 L 958,136 L 958,135 L 960,133 L 962,133 L 964,132 L 964,131 L 972,125 L 976,124 L 982,122 L 984,120 L 985,120 L 986,120 " />
<path d="M 1022,113 L 1026,115 L 1029,117 L 1029,118 L 1029,119 L 1029,120 L 1029,121 L 1027,123 L 1027,126 L 1027,128 L 1027,129 L 1027,130 L 1028,131 L 1029,131 L 1031,131 L 1035,129 L 1037,130 L 1039,131 L 1040,133 L 1044,136 L 1044,137 L 1043,137 L 1043,136 L 1042,136 L 1041,136 L 1040,136 L 1039,136 L 1040,136 L 1041,136 L 1042,136 L 1042,137 L 1042,138 L 1042,140 L 1042,141 L 1043,143 L 1044,144 L 1045,145 L 1048,150 L 1048,151 L 1047,151 L 1046,151 L 1045,151 L 1044,151 L 1043,151 L 1042,152 L 1042,153 L 1043,154 L 1044,154 L 1045,154 L 1046,155 L 1047,155 L 1048,154 L 1049,154 L 1049,155 L 1050,155 L 1050,156 L 1049,156 L 1049,161 L 1048,166 L 1048,167 L 1048,168 L 1049,169 L 1050,170 L 1051,170 L 1052,170 L 1055,169 L 1058,170 L 1061,171 L 1063,173 L 1064,174 L 1064,175 L 1064,177 L 1064,178 L 1063,181 L 1063,182 L 1061,188 L 1061,191 L 1060,194 L 1059,197 L 1059,198 L 1059,200 L 1058,202 L 1058,203 L 1057,204 L 1056,204 L 1055,205 L 1054,204 L 1053,204 L 1052,204 L 1051,204 L 1051,205 L 1050,205 L 1049,205 L 1048,205 L 1047,206 L 1046,208 L 1046,209 L 1045,210 L 1044,211 L 1040,212 L 1031,215 L 1024,216 L 1021,216 L 1020,216 L 1017,216 L 1016,216 L 1015,216 L 1015,215 L 1014,215 L 1011,214 L 1009,213 L 1007,212 L 1006,211 L 1004,207 L 1003,207 L 1002,205 L 1002,204 L 1001,202 L 1000,199 L 1000,198 L 1000,197 L 1001,196 L 1005,194 L 1007,194 L 1008,194 L 1010,193 L 1012,193 L 1015,194 L 1017,193 L 1018,192 L 1019,191 L 1020,190 L 1021,190 L 1022,190 L 1023,189 L 1028,190 L 1029,190 L 1033,191 L 1034,191 L 1036,193 L 1037,193 L 1038,192 L 1044,188 L 1047,187 L 1048,186 L 1048,185 L 1048,183 L 1048,182 L 1047,182 L 1046,182 L 1045,183 L 1044,184 L 1042,185 L 1042,186 L 1031,184 L 1030,184 L 1030,183 L 1031,183 L 1031,182 L 1032,182 L 1032,181 L 1032,180 L 1031,180 L 1031,181 L 1030,181 L 1029,181 L 1029,180 L 1030,178 L 1030,177 L 1029,177 L 1028,178 L 1028,179 L 1027,182 L 1027,183 L 1026,183 L 1024,184 L 1023,184 L 1022,184 L 1022,183 L 1022,182 L 1022,181 L 1022,182 L 1021,183 L 1020,184 L 1017,183 L 1012,182 L 1011,182 L 1011,181 L 1012,181 L 1012,180 L 1012,179 L 1013,178 L 1014,178 L 1015,178 L 1016,177 L 1015,177 L 1014,177 L 1013,177 L 1013,176 L 1015,174 L 1016,171 L 1017,170 L 1020,169 L 1021,169 L 1022,168 L 1023,168 L 1023,167 L 1022,167 L 1017,168 L 1016,168 L 1016,163 L 1016,164 L 1015,164 L 1015,165 L 1015,168 L 1013,170 L 1012,172 L 1012,173 L 1011,173 L 1011,174 L 1010,173 L 1010,170 L 1009,170 L 1008,169 L 1008,168 L 1008,169 L 1007,169 L 1007,170 L 1008,171 L 1009,171 L 1009,172 L 1009,173 L 1009,174 L 1009,175 L 1009,176 L 1008,177 L 1008,178 L 1007,178 L 1007,179 L 1006,180 L 999,182 L 998,182 L 997,182 L 996,180 L 996,179 L 996,178 L 997,177 L 998,175 L 998,174 L 998,173 L 998,172 L 997,173 L 997,174 L 996,174 L 995,175 L 994,174 L 994,173 L 994,172 L 993,172 L 993,173 L 993,177 L 992,178 L 992,179 L 990,179 L 990,180 L 990,179 L 989,179 L 988,178 L 986,175 L 985,174 L 985,173 L 986,173 L 987,172 L 987,171 L 986,171 L 985,171 L 987,168 L 987,167 L 987,166 L 986,166 L 984,167 L 982,167 L 981,169 L 980,169 L 978,166 L 974,164 L 973,163 L 973,162 L 972,162 L 972,161 L 972,160 L 972,159 L 972,158 L 973,156 L 974,155 L 975,155 L 979,151 L 980,151 L 981,151 L 984,152 L 987,153 L 991,154 L 994,155 L 999,152 L 1000,152 L 1002,152 L 1004,151 L 1006,150 L 1007,150 L 1007,149 L 1008,149 L 1007,149 L 1004,150 L 1003,150 L 1000,149 L 998,150 L 996,150 L 994,150 L 993,150 L 992,150 L 991,150 L 990,150 L 989,149 L 985,148 L 984,147 L 983,147 L 983,146 L 982,146 L 982,145 L 983,143 L 984,143 L 986,140 L 988,138 L 989,138 L 990,138 L 995,139 L 999,140 L 1002,140 L 1006,141 L 1009,141 L 1012,142 L 1013,142 L 1013,141 L 1014,141 L 1013,140 L 1012,140 L 1009,140 L 1006,139 L 1003,138 L 1000,138 L 999,138 L 995,136 L 993,135 L 993,134 L 993,133 L 993,132 L 993,131 L 994,131 L 995,131 L 996,131 L 997,131 L 997,130 L 997,129 L 996,129 L 996,128 L 995,128 L 996,126 L 997,125 L 999,124 L 1000,123 L 1003,122 L 1004,123 L 1008,125 L 1011,125 L 1013,126 L 1015,128 L 1018,129 L 1019,129 L 1018,129 L 1017,128 L 1016,128 L 1014,125 L 1014,124 L 1013,124 L 1009,123 L 1009,122 L 1008,122 L 1008,121 L 1007,121 L 1007,120 L 1007,119 L 1010,116 L 1013,114 L 1014,114 L 1016,114 L 1022,113 " />
<path d="M 1038,99 L 1039,99 L 1040,101 L 1041,103 L 1041,105 L 1040,106 L 1039,107 L 1038,107 L 1037,107 L 1036,107 L 1033,106 L 1031,105 L 1026,102 L 1026,101 L 1027,99 L 1028,98 L 1029,98 L 1030,98 L 1035,98 L 1038,99 " />
<path d="M 1021,60 L 1022,60 L 1022,61 L 1023,62 L 1025,67 L 1026,68 L 1027,70 L 1028,72 L 1028,73 L 1028,74 L 1027,75 L 1026,76 L 1024,76 L 1022,76 L 1020,77 L 1018,78 L 1017,80 L 1016,81 L 1016,84 L 1017,86 L 1018,87 L 1019,90 L 1019,91 L 1018,91 L 1016,91 L 1015,90 L 1014,89 L 1013,88 L 1013,89 L 1013,90 L 1013,91 L 1013,92 L 1014,93 L 1014,95 L 1014,96 L 1014,98 L 1014,100 L 1011,104 L 1006,104 L 1005,104 L 1003,103 L 1001,103 L 1000,104 L 1000,105 L 999,106 L 999,107 L 998,109 L 997,112 L 997,113 L 995,114 L 994,115 L 993,115 L 992,115 L 991,115 L 990,114 L 989,113 L 988,110 L 987,108 L 987,106 L 988,104 L 990,100 L 991,97 L 993,95 L 995,93 L 996,90 L 996,89 L 996,88 L 995,89 L 994,90 L 993,90 L 992,90 L 991,89 L 991,88 L 990,88 L 990,89 L 987,93 L 987,96 L 986,98 L 985,99 L 983,100 L 983,99 L 982,99 L 982,98 L 982,97 L 981,97 L 980,97 L 979,98 L 979,99 L 981,101 L 981,104 L 980,108 L 979,108 L 978,108 L 977,108 L 976,109 L 975,109 L 975,110 L 974,111 L 974,113 L 973,114 L 972,115 L 971,115 L 970,114 L 969,113 L 969,112 L 970,110 L 970,105 L 970,104 L 971,103 L 970,103 L 969,103 L 968,104 L 967,106 L 967,109 L 966,109 L 966,110 L 965,111 L 966,112 L 965,112 L 964,112 L 964,111 L 963,111 L 963,112 L 964,113 L 964,114 L 965,114 L 965,115 L 965,116 L 965,117 L 965,118 L 964,118 L 963,118 L 962,119 L 961,119 L 961,120 L 960,122 L 959,122 L 957,123 L 956,122 L 955,122 L 955,121 L 956,120 L 956,119 L 955,119 L 953,122 L 952,123 L 952,122 L 951,122 L 951,121 L 951,120 L 952,118 L 953,116 L 954,115 L 954,114 L 953,113 L 952,113 L 952,112 L 952,111 L 952,110 L 954,108 L 954,106 L 954,105 L 954,104 L 953,104 L 952,104 L 951,104 L 951,105 L 950,106 L 950,107 L 950,109 L 949,111 L 949,112 L 948,112 L 948,111 L 947,111 L 946,111 L 945,112 L 945,113 L 944,113 L 943,113 L 943,112 L 943,111 L 943,110 L 943,109 L 942,107 L 941,106 L 940,105 L 937,105 L 935,106 L 933,108 L 932,108 L 931,107 L 930,106 L 931,104 L 932,102 L 934,101 L 935,100 L 935,99 L 934,99 L 933,98 L 934,98 L 935,98 L 935,97 L 935,96 L 934,96 L 933,96 L 932,97 L 931,97 L 931,98 L 930,98 L 929,97 L 930,97 L 930,96 L 931,96 L 931,95 L 932,95 L 933,93 L 935,93 L 936,92 L 937,90 L 938,89 L 940,88 L 942,87 L 944,87 L 946,88 L 947,89 L 949,89 L 951,89 L 953,88 L 954,87 L 955,85 L 959,82 L 966,80 L 967,79 L 969,79 L 970,78 L 970,77 L 971,76 L 972,75 L 974,74 L 981,68 L 986,66 L 987,66 L 990,62 L 990,61 L 991,61 L 993,61 L 995,61 L 996,61 L 999,62 L 1002,63 L 1005,64 L 1008,66 L 1009,68 L 1010,69 L 1011,69 L 1012,70 L 1012,69 L 1012,68 L 1011,67 L 1011,66 L 1012,66 L 1012,68 L 1013,68 L 1014,69 L 1015,69 L 1016,69 L 1016,68 L 1016,67 L 1016,66 L 1015,66 L 1014,65 L 1014,64 L 1014,63 L 1014,62 L 1015,62 L 1017,62 L 1017,61 L 1019,60 L 1020,60 L 1021,60 " />
<path d="M 1049,43 L 1050,44 L 1049,46 L 1049,47 L 1050,48 L 1051,49 L 1051,50 L 1051,52 L 1052,52 L 1052,53 L 1053,53 L 1053,54 L 1054,56 L 1053,58 L 1052,59 L 1051,60 L 1049,61 L 1047,61 L 1046,61 L 1045,61 L 1045,60 L 1044,59 L 1044,58 L 1043,55 L 1042,53 L 1042,51 L 1041,50 L 1041,49 L 1041,48 L 1042,47 L 1043,46 L 1046,44 L 1047,44 L 1048,43 L 1049,43 " />
<path d="M 1088,52 L 1092,53 L 1093,53 L 1093,54 L 1093,55 L 1093,56 L 1092,59 L 1092,61 L 1091,62 L 1090,62 L 1083,62 L 1080,62 L 1080,63 L 1080,64 L 1081,66 L 1082,67 L 1084,68 L 1085,68 L 1086,68 L 1087,68 L 1087,69 L 1087,70 L 1086,72 L 1086,75 L 1085,78 L 1083,80 L 1083,81 L 1080,82 L 1077,83 L 1074,83 L 1072,82 L 1070,82 L 1068,83 L 1067,83 L 1065,84 L 1063,84 L 1062,84 L 1060,83 L 1059,81 L 1059,80 L 1059,79 L 1058,78 L 1058,77 L 1057,76 L 1056,75 L 1054,73 L 1054,71 L 1056,63 L 1056,59 L 1056,57 L 1057,57 L 1057,56 L 1060,55 L 1063,53 L 1066,52 L 1071,52 L 1075,52 L 1078,51 L 1080,51 L 1081,51 L 1082,52 L 1083,52 L 1083,53 L 1084,52 L 1085,52 L 1086,52 L 1087,52 L 1088,52 " />
<path d="M 1095,22 L 1096,22 L 1096,23 L 1097,24 L 1098,26 L 1099,27 L 1099,29 L 1099,30 L 1098,34 L 1096,41 L 1096,42 L 1096,43 L 1095,44 L 1094,44 L 1093,44 L 1092,44 L 1091,44 L 1090,44 L 1089,44 L 1087,42 L 1086,41 L 1086,39 L 1085,38 L 1084,38 L 1083,38 L 1081,40 L 1080,42 L 1079,42 L 1078,42 L 1077,41 L 1077,40 L 1077,39 L 1076,38 L 1076,37 L 1075,36 L 1074,36 L 1073,36 L 1071,36 L 1070,36 L 1069,36 L 1067,37 L 1065,38 L 1064,38 L 1063,37 L 1063,36 L 1063,35 L 1064,33 L 1066,31 L 1069,30 L 1076,27 L 1077,27 L 1078,27 L 1081,28 L 1084,27 L 1085,25 L 1088,23 L 1090,22 L 1092,22 L 1093,22 L 1095,22 " />
</g>
</g>
</g></svg>