<?xml version="1.0" standalone="no"?>
<!DOCTYPE svg PUBLIC "-//W3C//DTD SVG 1.1//EN" "http://www.w3.org/Graphics/SVG/1.1/DTD/svg11.dtd">
<svg xmlns="http://www.w3.org/2000/svg" xmlns:inkscape="http://www.inkscape.org/namespaces/inkscape" xmlns:xlink="http://www.w3.org/1999/xlink" viewBox = "0 0 1635 933" version = "1.1">
<!-- svg generated using QGIS www.qgis.org -->
<g id="ontario-generalized" inkscape:groupmode="layer" inkscape:label="ontario-generalized">
<g stroke="rgb(35,35,35)" fill="rgb(229,182,54)" stroke-linejoin="round" stroke-width="0.40">
<g id="ontario-generalized_1" inkscape:label="London">
<path d="M 1038,802 L 1039,804 L 1041,805 L 1041,806 L 1041,807 L 1041,808 L 1040,809 L 1039,809 L 1038,810 L 1035,811 L 1035,812 L 1034,812 L 1035,814 L 1041,825 L 1042,826 L 1042,827 L 1043,827 L 1042,828 L 1041,828 L 1037,830 L 1035,831 L 1034,832 L 1034,834 L 1034,837 L 1035,840 L 1036,842 L 1036,844 L 1035,845 L 1034,846 L 1033,847 L 1031,846 L 1029,846 L 1028,846 L 1027,846 L 1026,846 L 1025,846 L 1022,847 L 1018,848 L 1012,849 L 1009,850 L 1008,851 L 1004,855 L 1000,858 L 998,860 L 996,863 L 996,864 L 995,865 L 994,865 L 993,864 L 992,863 L 989,862 L 989,861 L 985,858 L 984,853 L 983,849 L 983,840 L 983,836 L 982,834 L 982,832 L 980,826 L 978,822 L 978,821 L 978,820 L 979,819 L 980,819 L 981,818 L 984,817 L 985,816 L 988,815 L 989,815 L 992,814 L 994,811 L 995,811 L 999,813 L 1001,814 L 1003,814 L 1004,815 L 1005,815 L 1006,814 L 1007,814 L 1009,812 L 1012,810 L 1017,806 L 1018,806 L 1022,803 L 1024,802 L 1026,802 L 1027,802 L 1028,802 L 1029,802 L 1030,801 L 1032,800 L 1034,799 L 1035,799 L 1036,799 L 1037,800 L 1038,801 L 1038,802 " />
</g>
<g id="ontario-generalized_2" inkscape:label="Northwest___Nord-ouest">
<path d="M 377,477 L 378,478 L 378,479 L 377,482 L 375,483 L 372,484 L 371,484 L 370,485 L 369,486 L 369,487 L 369,488 L 368,488 L 367,489 L 366,489 L 366,490 L 366,492 L 365,493 L 364,494 L 363,494 L 362,494 L 358,494 L 357,494 L 357,493 L 357,492 L 357,491 L 358,490 L 359,488 L 361,487 L 363,487 L 364,486 L 366,485 L 370,481 L 376,477 L 377,477 " />
<path d="M 568,22 L 569,22 L 570,23 L 572,26 L 578,31 L 579,31 L 581,32 L 583,33 L 584,35 L 585,35 L 587,37 L 590,38 L 592,39 L 597,40 L 601,42 L 602,45 L 606,49 L 611,55 L 613,59 L 615,63 L 625,69 L 627,70 L 629,71 L 632,71 L 641,71 L 649,74 L 661,78 L 664,80 L 665,80 L 665,81 L 672,82 L 677,82 L 681,84 L 686,86 L 692,90 L 694,92 L 698,95 L 706,97 L 707,97 L 707,98 L 708,98 L 708,100 L 709,101 L 711,101 L 712,101 L 715,101 L 718,101 L 721,101 L 723,101 L 727,100 L 730,100 L 733,98 L 735,97 L 738,96 L 740,96 L 742,96 L 744,96 L 746,96 L 747,94 L 749,93 L 750,93 L 753,94 L 758,96 L 759,95 L 759,94 L 758,94 L 758,93 L 767,95 L 779,93 L 780,93 L 781,92 L 782,92 L 783,92 L 783,91 L 784,91 L 785,92 L 786,94 L 787,95 L 789,96 L 790,96 L 791,96 L 792,94 L 793,94 L 794,93 L 796,93 L 798,94 L 802,95 L 805,97 L 808,97 L 807,94 L 807,93 L 806,93 L 806,92 L 807,92 L 808,93 L 809,94 L 810,95 L 810,97 L 810,99 L 811,102 L 811,105 L 812,106 L 812,107 L 813,108 L 814,108 L 814,109 L 815,109 L 815,111 L 815,112 L 815,114 L 814,117 L 814,119 L 814,125 L 814,126 L 814,130 L 813,141 L 813,143 L 813,144 L 813,146 L 814,149 L 817,153 L 820,155 L 823,158 L 825,161 L 827,165 L 830,170 L 830,173 L 830,174 L 829,178 L 829,179 L 829,182 L 829,185 L 830,187 L 830,188 L 833,193 L 835,197 L 835,198 L 836,200 L 837,202 L 837,203 L 836,205 L 835,207 L 834,209 L 833,210 L 833,211 L 833,217 L 835,224 L 836,225 L 838,226 L 839,226 L 842,227 L 847,231 L 849,233 L 851,236 L 851,237 L 853,238 L 853,239 L 856,240 L 858,241 L 863,246 L 864,247 L 865,247 L 866,248 L 867,248 L 868,249 L 868,250 L 868,251 L 868,252 L 868,253 L 869,254 L 870,256 L 870,257 L 869,258 L 868,260 L 866,261 L 863,262 L 862,263 L 861,264 L 859,265 L 857,268 L 856,269 L 853,273 L 848,275 L 845,275 L 845,276 L 844,276 L 843,280 L 841,282 L 838,284 L 838,285 L 837,285 L 835,288 L 831,289 L 829,290 L 827,291 L 825,292 L 823,294 L 821,298 L 819,300 L 817,302 L 816,303 L 813,314 L 812,316 L 810,320 L 809,321 L 808,322 L 807,322 L 806,322 L 805,323 L 805,324 L 804,325 L 804,326 L 800,328 L 797,330 L 795,334 L 789,337 L 788,338 L 786,340 L 778,343 L 776,345 L 775,346 L 775,348 L 774,349 L 773,350 L 770,351 L 768,351 L 763,350 L 759,348 L 756,346 L 755,345 L 754,344 L 753,345 L 752,344 L 750,344 L 749,343 L 749,341 L 748,340 L 748,339 L 747,338 L 747,337 L 744,336 L 743,336 L 741,333 L 736,330 L 732,327 L 731,326 L 729,325 L 728,324 L 725,325 L 723,326 L 719,327 L 715,328 L 713,328 L 711,328 L 709,326 L 707,324 L 704,323 L 702,322 L 700,322 L 698,322 L 696,323 L 694,324 L 694,326 L 694,327 L 694,328 L 694,329 L 694,331 L 693,334 L 693,335 L 692,336 L 690,338 L 690,340 L 690,342 L 690,347 L 691,352 L 692,361 L 693,365 L 695,381 L 696,387 L 696,391 L 696,392 L 697,395 L 697,399 L 698,405 L 699,410 L 699,413 L 700,417 L 700,418 L 701,425 L 701,427 L 701,429 L 702,432 L 702,433 L 703,434 L 704,434 L 705,434 L 706,433 L 709,433 L 710,433 L 713,432 L 720,432 L 722,431 L 724,431 L 732,430 L 733,430 L 739,429 L 741,428 L 744,428 L 750,427 L 751,427 L 751,431 L 752,435 L 752,438 L 753,442 L 753,445 L 754,452 L 755,455 L 755,458 L 755,459 L 756,459 L 756,465 L 757,466 L 757,470 L 758,473 L 758,474 L 759,481 L 759,482 L 760,485 L 761,493 L 761,498 L 762,502 L 763,505 L 763,509 L 764,513 L 764,516 L 764,517 L 764,518 L 765,519 L 765,522 L 766,526 L 766,527 L 766,530 L 767,531 L 767,532 L 767,534 L 768,538 L 768,539 L 768,541 L 769,547 L 769,548 L 769,549 L 770,550 L 770,551 L 770,552 L 769,553 L 768,554 L 765,555 L 761,555 L 761,556 L 760,556 L 755,556 L 754,556 L 751,555 L 750,555 L 747,554 L 746,553 L 743,550 L 741,549 L 737,544 L 734,539 L 729,528 L 727,525 L 725,519 L 721,514 L 719,512 L 719,510 L 718,509 L 717,508 L 715,508 L 714,509 L 713,509 L 712,510 L 711,511 L 710,511 L 709,511 L 709,510 L 709,509 L 709,508 L 708,508 L 706,507 L 705,507 L 704,508 L 703,509 L 701,510 L 698,511 L 696,510 L 692,510 L 688,511 L 687,512 L 685,512 L 683,512 L 680,512 L 678,511 L 677,510 L 676,509 L 674,509 L 673,509 L 672,509 L 672,510 L 671,510 L 670,509 L 670,508 L 670,507 L 669,508 L 668,508 L 667,508 L 665,507 L 661,506 L 657,505 L 655,505 L 653,505 L 651,504 L 650,502 L 649,502 L 648,501 L 647,502 L 646,502 L 645,504 L 643,505 L 642,506 L 641,507 L 641,509 L 642,511 L 643,512 L 643,513 L 644,513 L 646,514 L 648,516 L 649,518 L 649,521 L 648,522 L 646,525 L 646,526 L 645,527 L 644,528 L 643,528 L 642,528 L 641,526 L 640,526 L 640,525 L 639,525 L 639,526 L 639,527 L 640,528 L 640,529 L 639,530 L 638,532 L 636,533 L 635,534 L 634,535 L 634,537 L 633,539 L 632,539 L 631,539 L 631,538 L 630,536 L 631,534 L 636,526 L 638,524 L 639,522 L 640,520 L 639,517 L 638,514 L 634,513 L 633,513 L 632,513 L 632,514 L 632,515 L 631,516 L 630,518 L 630,520 L 631,521 L 631,524 L 630,525 L 630,527 L 629,528 L 628,528 L 628,529 L 627,530 L 627,531 L 626,540 L 625,544 L 624,545 L 623,546 L 622,547 L 621,547 L 620,548 L 619,547 L 618,546 L 618,545 L 618,544 L 618,543 L 619,542 L 620,540 L 620,538 L 622,535 L 622,534 L 622,533 L 622,532 L 622,531 L 621,531 L 611,537 L 610,537 L 607,538 L 607,539 L 605,542 L 604,545 L 605,548 L 605,551 L 603,553 L 603,556 L 601,562 L 597,566 L 593,569 L 588,570 L 587,570 L 583,569 L 582,570 L 581,571 L 580,572 L 578,572 L 576,571 L 575,570 L 574,568 L 572,567 L 571,566 L 570,566 L 567,565 L 561,566 L 559,566 L 547,567 L 545,568 L 543,568 L 541,567 L 539,565 L 538,562 L 538,561 L 537,560 L 537,559 L 536,559 L 535,559 L 534,560 L 527,564 L 526,564 L 520,570 L 507,573 L 507,572 L 507,571 L 506,570 L 504,569 L 503,569 L 501,568 L 500,567 L 498,564 L 496,563 L 495,562 L 493,562 L 491,562 L 490,561 L 489,559 L 488,558 L 487,556 L 485,555 L 482,555 L 477,556 L 476,556 L 476,557 L 476,558 L 477,559 L 476,561 L 476,562 L 475,563 L 474,563 L 473,563 L 472,562 L 472,561 L 471,560 L 469,557 L 469,556 L 469,554 L 469,553 L 468,551 L 467,551 L 467,550 L 466,550 L 464,550 L 462,551 L 461,551 L 459,550 L 458,549 L 459,548 L 460,548 L 461,546 L 461,545 L 461,544 L 460,544 L 457,544 L 447,539 L 440,539 L 435,539 L 429,541 L 425,545 L 424,546 L 418,547 L 416,547 L 415,547 L 414,547 L 413,547 L 413,546 L 412,546 L 412,545 L 413,543 L 412,543 L 412,541 L 411,540 L 406,540 L 401,540 L 396,539 L 393,536 L 392,535 L 390,535 L 384,536 L 381,535 L 378,533 L 377,532 L 376,531 L 375,529 L 376,527 L 377,525 L 378,523 L 379,522 L 380,521 L 380,520 L 381,520 L 382,520 L 385,519 L 386,517 L 388,514 L 389,514 L 390,513 L 391,513 L 391,512 L 392,512 L 391,512 L 390,512 L 390,511 L 390,510 L 391,509 L 392,509 L 393,509 L 394,510 L 395,511 L 396,511 L 398,510 L 399,510 L 400,511 L 401,512 L 403,512 L 404,512 L 406,511 L 407,509 L 407,507 L 407,506 L 406,506 L 406,507 L 406,508 L 406,509 L 405,510 L 403,511 L 401,510 L 400,509 L 400,508 L 401,508 L 402,508 L 403,508 L 404,507 L 403,506 L 402,506 L 401,506 L 402,506 L 403,506 L 404,506 L 405,506 L 405,505 L 404,505 L 403,505 L 401,505 L 400,506 L 397,506 L 396,505 L 395,505 L 394,504 L 393,502 L 392,501 L 391,500 L 389,500 L 388,501 L 387,502 L 385,502 L 384,502 L 383,502 L 381,500 L 381,499 L 380,499 L 379,498 L 378,498 L 378,497 L 377,497 L 378,496 L 378,495 L 378,494 L 378,493 L 376,493 L 375,491 L 374,490 L 374,489 L 374,487 L 375,487 L 375,486 L 376,486 L 376,487 L 377,487 L 378,488 L 379,489 L 380,489 L 383,488 L 388,487 L 389,487 L 391,487 L 392,488 L 392,489 L 392,490 L 391,491 L 391,492 L 391,493 L 392,493 L 393,492 L 394,492 L 394,491 L 395,491 L 395,492 L 395,493 L 395,494 L 394,495 L 394,496 L 395,496 L 395,497 L 396,497 L 397,498 L 399,499 L 400,500 L 400,501 L 400,502 L 399,503 L 399,504 L 398,504 L 399,504 L 400,504 L 401,503 L 402,502 L 402,501 L 402,500 L 402,499 L 402,498 L 401,498 L 401,497 L 401,496 L 402,496 L 403,496 L 404,496 L 404,495 L 404,494 L 403,494 L 402,493 L 401,493 L 400,493 L 398,491 L 397,490 L 397,489 L 396,489 L 397,489 L 397,488 L 398,488 L 400,489 L 402,490 L 403,490 L 403,489 L 402,489 L 397,488 L 391,484 L 389,483 L 388,482 L 388,481 L 388,480 L 388,479 L 389,479 L 390,479 L 390,480 L 391,481 L 392,481 L 392,480 L 392,479 L 391,479 L 390,479 L 389,478 L 388,478 L 387,478 L 388,478 L 389,478 L 390,478 L 390,477 L 391,477 L 391,476 L 391,475 L 390,474 L 388,473 L 387,472 L 384,470 L 381,468 L 381,466 L 381,464 L 382,462 L 382,460 L 380,458 L 379,457 L 378,456 L 377,456 L 376,456 L 375,458 L 375,459 L 376,460 L 377,460 L 378,462 L 379,463 L 378,464 L 378,465 L 377,466 L 376,466 L 375,466 L 375,467 L 376,467 L 376,466 L 377,466 L 378,465 L 379,465 L 380,465 L 381,466 L 381,467 L 380,468 L 379,468 L 378,469 L 379,470 L 381,471 L 382,473 L 382,474 L 381,475 L 380,476 L 379,476 L 378,476 L 377,476 L 376,475 L 377,474 L 378,474 L 379,474 L 380,474 L 380,473 L 379,473 L 378,473 L 377,472 L 372,473 L 368,475 L 367,476 L 366,476 L 367,477 L 368,477 L 369,477 L 369,476 L 370,476 L 371,477 L 371,478 L 371,479 L 370,479 L 368,481 L 367,482 L 366,482 L 365,482 L 364,482 L 364,481 L 364,480 L 364,479 L 364,478 L 363,478 L 362,477 L 361,477 L 360,478 L 359,478 L 358,478 L 357,477 L 357,476 L 357,474 L 357,467 L 357,466 L 357,463 L 357,459 L 357,454 L 357,445 L 357,437 L 357,427 L 357,420 L 357,416 L 357,415 L 357,412 L 357,407 L 357,400 L 357,397 L 357,394 L 357,389 L 357,388 L 357,384 L 357,381 L 357,373 L 357,370 L 357,366 L 357,364 L 357,352 L 357,346 L 357,341 L 357,337 L 357,332 L 357,329 L 357,324 L 357,320 L 357,314 L 357,310 L 357,306 L 357,300 L 357,296 L 357,281 L 357,280 L 357,279 L 358,277 L 361,274 L 364,271 L 373,262 L 376,259 L 380,254 L 385,250 L 389,245 L 390,245 L 393,242 L 397,238 L 401,234 L 407,228 L 410,224 L 413,222 L 413,221 L 417,216 L 424,208 L 425,206 L 428,202 L 429,200 L 430,199 L 432,196 L 436,191 L 438,189 L 446,178 L 447,177 L 452,171 L 454,168 L 455,166 L 456,165 L 460,161 L 463,157 L 465,154 L 469,148 L 473,142 L 474,141 L 478,137 L 481,132 L 488,123 L 489,122 L 497,111 L 506,98 L 507,98 L 508,96 L 510,94 L 513,90 L 520,80 L 522,78 L 525,74 L 529,69 L 535,61 L 538,57 L 542,52 L 545,48 L 547,45 L 549,42 L 550,41 L 554,36 L 557,32 L 560,28 L 564,22 L 565,22 L 566,22 L 568,22 " />
</g>
<g id="ontario-generalized_3" inkscape:label="Northeast___Nord-est">
<path d="M 899,656 L 898,658 L 898,659 L 898,660 L 899,661 L 899,662 L 900,662 L 902,663 L 905,663 L 906,663 L 907,663 L 908,664 L 911,664 L 912,664 L 913,664 L 914,663 L 914,662 L 913,662 L 912,662 L 911,661 L 910,661 L 910,660 L 910,659 L 911,658 L 913,656 L 915,654 L 917,653 L 919,652 L 920,652 L 921,652 L 921,653 L 921,654 L 922,654 L 923,655 L 924,655 L 925,655 L 926,655 L 927,657 L 928,658 L 928,659 L 929,660 L 929,659 L 930,654 L 931,651 L 933,650 L 935,649 L 937,648 L 938,648 L 938,649 L 939,650 L 939,651 L 939,652 L 939,653 L 940,654 L 941,654 L 942,654 L 943,654 L 943,655 L 943,659 L 943,660 L 944,661 L 945,662 L 946,663 L 946,659 L 948,653 L 948,652 L 948,651 L 949,651 L 950,651 L 950,652 L 950,653 L 950,655 L 949,656 L 949,657 L 948,657 L 948,658 L 949,658 L 950,658 L 951,658 L 952,657 L 953,657 L 954,657 L 954,658 L 954,659 L 948,675 L 947,676 L 946,676 L 944,676 L 942,675 L 941,674 L 941,673 L 941,672 L 942,671 L 944,671 L 945,670 L 946,669 L 947,667 L 948,666 L 947,665 L 946,665 L 945,666 L 944,666 L 943,667 L 941,671 L 939,673 L 937,676 L 923,670 L 920,670 L 917,670 L 916,670 L 915,669 L 913,668 L 911,668 L 907,668 L 896,668 L 887,666 L 883,666 L 882,666 L 882,665 L 881,664 L 881,663 L 882,661 L 883,660 L 884,660 L 885,661 L 886,662 L 887,662 L 887,661 L 888,661 L 888,660 L 888,659 L 889,659 L 893,660 L 896,658 L 897,657 L 897,656 L 898,656 L 898,655 L 899,655 L 899,656 " />
<path d="M 869,259 L 871,258 L 872,259 L 873,260 L 875,263 L 877,267 L 878,267 L 879,268 L 880,268 L 894,271 L 895,271 L 899,276 L 904,277 L 910,282 L 914,285 L 916,289 L 919,295 L 923,299 L 923,302 L 925,304 L 926,306 L 928,307 L 931,307 L 938,307 L 943,308 L 946,311 L 947,312 L 948,312 L 949,312 L 950,312 L 951,312 L 952,311 L 953,309 L 954,306 L 954,305 L 954,304 L 953,303 L 952,301 L 951,299 L 952,298 L 952,296 L 955,294 L 955,293 L 956,292 L 957,292 L 958,292 L 958,293 L 959,293 L 959,294 L 959,295 L 961,303 L 961,304 L 962,307 L 964,315 L 965,319 L 965,322 L 971,343 L 974,356 L 976,364 L 978,372 L 978,374 L 980,381 L 981,385 L 982,390 L 985,401 L 986,405 L 987,408 L 988,413 L 989,417 L 992,428 L 995,439 L 995,442 L 996,444 L 996,445 L 997,448 L 997,449 L 997,450 L 997,451 L 998,451 L 998,455 L 1000,460 L 1001,465 L 1001,467 L 1002,471 L 1003,474 L 1008,492 L 1009,496 L 1009,497 L 1010,500 L 1010,501 L 1011,504 L 1011,505 L 1013,515 L 1015,520 L 1015,523 L 1017,528 L 1015,536 L 1016,536 L 1016,537 L 1018,539 L 1021,542 L 1023,544 L 1025,546 L 1025,548 L 1026,550 L 1026,553 L 1026,554 L 1027,555 L 1027,556 L 1028,557 L 1029,557 L 1032,560 L 1034,563 L 1035,564 L 1037,566 L 1039,568 L 1043,570 L 1045,573 L 1048,577 L 1049,578 L 1052,579 L 1053,581 L 1054,584 L 1059,587 L 1060,588 L 1066,591 L 1068,591 L 1069,593 L 1069,594 L 1070,595 L 1071,595 L 1072,594 L 1074,594 L 1075,594 L 1076,594 L 1079,594 L 1080,594 L 1081,593 L 1082,593 L 1083,594 L 1084,595 L 1085,596 L 1085,598 L 1088,601 L 1088,602 L 1089,602 L 1089,603 L 1091,603 L 1092,602 L 1094,601 L 1095,600 L 1096,600 L 1096,599 L 1097,599 L 1098,600 L 1099,601 L 1100,603 L 1101,603 L 1102,601 L 1104,600 L 1106,600 L 1107,600 L 1108,601 L 1109,601 L 1110,601 L 1115,597 L 1115,596 L 1116,596 L 1117,597 L 1125,607 L 1125,608 L 1126,609 L 1128,612 L 1129,613 L 1130,614 L 1130,615 L 1129,616 L 1128,617 L 1126,618 L 1124,620 L 1122,621 L 1120,622 L 1119,624 L 1119,625 L 1119,627 L 1120,629 L 1121,630 L 1122,630 L 1122,631 L 1122,632 L 1121,632 L 1119,633 L 1118,634 L 1118,635 L 1118,636 L 1118,637 L 1120,638 L 1121,639 L 1121,640 L 1121,641 L 1120,643 L 1119,644 L 1115,647 L 1112,649 L 1111,650 L 1110,650 L 1109,650 L 1108,650 L 1107,649 L 1107,647 L 1104,644 L 1104,643 L 1100,639 L 1100,638 L 1099,637 L 1098,638 L 1097,638 L 1096,639 L 1090,644 L 1087,645 L 1083,648 L 1079,651 L 1078,652 L 1077,652 L 1077,651 L 1075,648 L 1074,647 L 1072,646 L 1071,647 L 1070,647 L 1069,648 L 1068,649 L 1067,650 L 1064,651 L 1064,652 L 1057,657 L 1054,659 L 1053,660 L 1050,662 L 1048,662 L 1046,664 L 1045,666 L 1045,668 L 1046,670 L 1047,671 L 1048,672 L 1048,673 L 1047,674 L 1046,675 L 1045,675 L 1037,680 L 1034,683 L 1031,685 L 1030,685 L 1029,685 L 1029,684 L 1030,684 L 1031,684 L 1031,683 L 1032,683 L 1032,682 L 1032,681 L 1031,681 L 1031,680 L 1028,678 L 1027,678 L 1026,677 L 1025,677 L 1025,676 L 1025,675 L 1026,675 L 1028,673 L 1028,672 L 1027,672 L 1027,673 L 1026,674 L 1025,675 L 1024,676 L 1023,676 L 1022,675 L 1021,675 L 1020,675 L 1020,674 L 1020,673 L 1020,672 L 1020,671 L 1019,670 L 1018,670 L 1017,670 L 1016,670 L 1015,669 L 1014,669 L 1014,668 L 1014,667 L 1013,667 L 1012,667 L 1011,667 L 1011,666 L 1010,665 L 1010,660 L 1009,659 L 1008,659 L 1007,658 L 1006,659 L 1005,660 L 1004,660 L 1003,659 L 1003,658 L 1003,657 L 1002,657 L 1001,656 L 998,654 L 996,651 L 994,648 L 991,646 L 988,643 L 985,641 L 982,641 L 979,641 L 976,642 L 974,643 L 972,644 L 971,644 L 970,643 L 970,642 L 970,641 L 970,640 L 969,640 L 965,641 L 960,643 L 952,645 L 948,649 L 948,648 L 949,647 L 950,646 L 951,645 L 951,644 L 950,644 L 949,644 L 948,644 L 949,643 L 951,642 L 953,642 L 954,641 L 955,641 L 955,640 L 954,640 L 953,641 L 952,641 L 949,643 L 947,644 L 946,645 L 945,645 L 945,644 L 946,644 L 951,641 L 952,640 L 951,640 L 951,639 L 950,639 L 949,640 L 949,639 L 948,639 L 948,638 L 949,638 L 949,639 L 950,639 L 950,638 L 949,638 L 947,637 L 947,638 L 946,638 L 947,639 L 947,640 L 947,641 L 946,641 L 944,642 L 944,643 L 944,644 L 944,645 L 943,645 L 942,645 L 942,644 L 942,643 L 942,642 L 943,641 L 944,640 L 944,639 L 943,639 L 942,639 L 941,639 L 939,640 L 936,641 L 933,642 L 929,642 L 925,642 L 922,641 L 912,640 L 910,640 L 909,641 L 908,642 L 902,644 L 901,644 L 901,643 L 902,642 L 903,641 L 902,641 L 901,641 L 900,642 L 894,644 L 891,644 L 888,646 L 878,645 L 873,645 L 870,645 L 866,645 L 853,644 L 852,645 L 850,645 L 849,644 L 848,643 L 847,643 L 846,643 L 844,644 L 843,644 L 842,644 L 841,644 L 840,644 L 840,645 L 840,646 L 841,647 L 842,646 L 843,645 L 844,645 L 846,645 L 847,646 L 850,648 L 852,650 L 853,652 L 853,654 L 852,657 L 850,659 L 849,659 L 848,659 L 847,659 L 845,657 L 845,655 L 844,654 L 843,654 L 842,653 L 841,652 L 839,649 L 838,645 L 836,641 L 836,639 L 836,636 L 836,634 L 836,633 L 835,632 L 834,632 L 833,632 L 832,633 L 831,633 L 830,634 L 830,635 L 829,636 L 825,635 L 824,636 L 822,637 L 822,638 L 820,639 L 819,640 L 817,640 L 816,639 L 815,638 L 814,637 L 814,635 L 814,634 L 815,632 L 817,630 L 817,628 L 818,627 L 820,626 L 820,625 L 820,624 L 820,623 L 820,622 L 819,621 L 819,620 L 818,620 L 817,620 L 817,621 L 816,624 L 816,625 L 815,625 L 814,625 L 814,624 L 814,623 L 814,622 L 814,620 L 814,619 L 814,618 L 815,617 L 816,616 L 817,616 L 818,616 L 819,616 L 821,615 L 821,614 L 821,613 L 822,613 L 822,612 L 820,610 L 818,610 L 813,609 L 812,609 L 812,610 L 811,610 L 811,611 L 811,612 L 811,613 L 810,613 L 809,613 L 809,612 L 809,611 L 808,610 L 807,609 L 806,609 L 806,610 L 804,610 L 803,609 L 802,608 L 802,607 L 802,606 L 802,604 L 804,602 L 804,600 L 804,598 L 804,595 L 806,593 L 807,590 L 807,589 L 807,588 L 806,586 L 806,585 L 805,585 L 803,584 L 801,583 L 800,580 L 797,578 L 791,576 L 789,575 L 787,572 L 786,570 L 786,567 L 787,565 L 788,563 L 788,562 L 789,560 L 788,558 L 788,557 L 788,556 L 789,555 L 790,553 L 790,552 L 789,551 L 789,550 L 788,549 L 787,549 L 786,548 L 784,549 L 781,550 L 779,551 L 776,552 L 772,551 L 771,550 L 770,548 L 769,547 L 768,541 L 768,539 L 768,538 L 767,534 L 767,532 L 767,531 L 766,530 L 766,527 L 766,526 L 765,522 L 765,519 L 764,518 L 764,516 L 764,513 L 763,509 L 763,505 L 762,502 L 761,498 L 761,493 L 760,485 L 759,482 L 759,481 L 758,474 L 758,473 L 757,470 L 757,466 L 756,465 L 755,459 L 755,458 L 755,455 L 754,452 L 753,445 L 753,442 L 752,438 L 752,435 L 751,431 L 751,427 L 750,427 L 744,428 L 741,428 L 739,429 L 733,430 L 732,430 L 724,431 L 722,431 L 720,432 L 713,432 L 710,433 L 709,433 L 706,433 L 705,434 L 704,434 L 703,434 L 702,433 L 702,432 L 701,429 L 701,427 L 701,425 L 700,418 L 700,417 L 699,413 L 699,410 L 698,403 L 698,399 L 697,395 L 696,391 L 696,387 L 695,381 L 693,366 L 692,361 L 691,350 L 690,346 L 690,342 L 690,338 L 692,336 L 693,335 L 693,334 L 694,331 L 694,329 L 694,328 L 694,327 L 694,326 L 694,324 L 696,323 L 698,322 L 700,322 L 702,322 L 704,323 L 707,324 L 709,326 L 711,328 L 713,328 L 715,328 L 719,327 L 723,326 L 725,325 L 728,324 L 729,325 L 731,326 L 732,327 L 736,330 L 741,333 L 743,336 L 744,336 L 747,337 L 747,338 L 748,339 L 748,340 L 749,341 L 749,343 L 750,344 L 752,344 L 753,345 L 754,344 L 755,345 L 756,346 L 759,348 L 763,350 L 768,351 L 770,351 L 773,350 L 774,349 L 775,348 L 775,346 L 776,345 L 778,343 L 786,340 L 788,338 L 789,337 L 795,334 L 797,330 L 800,328 L 804,326 L 804,325 L 805,324 L 805,323 L 806,322 L 807,322 L 808,322 L 809,321 L 810,320 L 812,316 L 813,314 L 816,303 L 817,302 L 819,300 L 821,298 L 823,294 L 825,292 L 827,291 L 829,290 L 831,289 L 835,288 L 837,285 L 838,285 L 838,284 L 841,282 L 843,280 L 844,276 L 845,276 L 845,275 L 848,275 L 853,273 L 856,269 L 857,268 L 859,265 L 861,264 L 862,263 L 863,262 L 864,262 L 866,261 L 867,260 L 868,259 L 869,259 " />
</g>
<g id="ontario-generalized_4" inkscape:label="Muskoka--Kawarthas">
<path d="M 1104,644 L 1109,650 L 1109,651 L 1111,654 L 1112,655 L 1114,657 L 1116,661 L 1119,664 L 1122,669 L 1129,678 L 1130,680 L 1132,683 L 1136,689 L 1139,692 L 1139,693 L 1141,696 L 1143,699 L 1146,702 L 1147,704 L 1149,707 L 1149,708 L 1149,709 L 1148,710 L 1147,711 L 1147,712 L 1146,713 L 1147,713 L 1147,714 L 1149,717 L 1151,719 L 1152,720 L 1152,721 L 1153,723 L 1152,724 L 1151,725 L 1149,726 L 1147,727 L 1144,729 L 1132,734 L 1128,735 L 1126,737 L 1125,738 L 1124,739 L 1123,739 L 1121,739 L 1120,738 L 1118,737 L 1117,735 L 1115,731 L 1114,730 L 1114,729 L 1110,732 L 1109,733 L 1108,733 L 1107,733 L 1106,733 L 1105,731 L 1104,730 L 1104,729 L 1104,728 L 1103,727 L 1102,727 L 1101,727 L 1100,727 L 1099,727 L 1098,727 L 1097,726 L 1096,726 L 1095,727 L 1095,728 L 1094,729 L 1093,729 L 1093,728 L 1092,728 L 1092,727 L 1092,726 L 1091,723 L 1090,722 L 1089,720 L 1086,716 L 1084,713 L 1082,709 L 1079,705 L 1076,700 L 1075,698 L 1074,697 L 1073,696 L 1071,695 L 1068,696 L 1066,697 L 1065,697 L 1064,696 L 1064,695 L 1063,694 L 1062,694 L 1060,694 L 1058,694 L 1056,694 L 1053,693 L 1052,693 L 1051,693 L 1051,694 L 1050,695 L 1050,697 L 1050,698 L 1050,699 L 1049,700 L 1048,700 L 1047,699 L 1045,696 L 1043,693 L 1040,693 L 1038,692 L 1037,691 L 1037,689 L 1036,688 L 1034,687 L 1032,687 L 1031,686 L 1030,686 L 1031,685 L 1033,685 L 1035,685 L 1035,684 L 1035,685 L 1034,685 L 1033,685 L 1032,685 L 1032,684 L 1033,683 L 1034,683 L 1037,680 L 1045,675 L 1046,675 L 1047,674 L 1048,673 L 1048,672 L 1047,671 L 1046,670 L 1045,669 L 1045,667 L 1045,666 L 1045,665 L 1046,664 L 1047,664 L 1050,662 L 1054,659 L 1057,657 L 1064,652 L 1064,651 L 1067,650 L 1068,649 L 1069,648 L 1070,647 L 1071,647 L 1072,646 L 1073,647 L 1074,647 L 1077,651 L 1078,652 L 1079,652 L 1080,651 L 1081,650 L 1083,649 L 1083,648 L 1084,648 L 1087,646 L 1090,644 L 1096,639 L 1097,638 L 1098,638 L 1099,637 L 1100,638 L 1100,639 L 1104,643 L 1104,644 " />
</g>
<g id="ontario-generalized_5" inkscape:label="Kitchener--Waterloo--Barrie">
<path d="M 1053,693 L 1056,694 L 1058,694 L 1060,694 L 1062,694 L 1063,694 L 1064,695 L 1064,696 L 1065,697 L 1066,697 L 1068,696 L 1071,695 L 1073,696 L 1074,697 L 1075,698 L 1076,700 L 1079,704 L 1080,706 L 1081,709 L 1081,711 L 1080,713 L 1078,715 L 1077,715 L 1069,719 L 1067,719 L 1066,720 L 1066,721 L 1065,722 L 1065,723 L 1066,723 L 1066,727 L 1067,732 L 1068,736 L 1068,739 L 1068,743 L 1068,744 L 1065,747 L 1064,748 L 1063,748 L 1057,752 L 1056,753 L 1049,757 L 1048,757 L 1047,759 L 1046,760 L 1046,761 L 1045,761 L 1045,762 L 1045,763 L 1046,763 L 1050,765 L 1050,766 L 1052,767 L 1053,768 L 1054,768 L 1054,769 L 1054,770 L 1053,772 L 1052,774 L 1052,775 L 1051,776 L 1050,779 L 1050,780 L 1049,780 L 1049,781 L 1050,782 L 1051,783 L 1053,783 L 1054,784 L 1055,786 L 1054,788 L 1053,790 L 1050,792 L 1049,795 L 1049,797 L 1048,798 L 1048,799 L 1046,800 L 1043,801 L 1041,802 L 1040,802 L 1040,803 L 1039,802 L 1038,802 L 1038,801 L 1037,800 L 1036,799 L 1035,799 L 1034,799 L 1032,800 L 1030,801 L 1029,802 L 1028,802 L 1027,802 L 1026,802 L 1026,801 L 1025,799 L 1025,798 L 1024,796 L 1022,795 L 1021,794 L 1018,793 L 1017,792 L 1018,792 L 1018,791 L 1018,790 L 1018,789 L 1019,788 L 1019,787 L 1020,785 L 1020,784 L 1020,783 L 1019,782 L 1017,781 L 1016,781 L 1015,781 L 1015,780 L 1014,780 L 1015,779 L 1016,775 L 1016,774 L 1017,772 L 1017,771 L 1017,770 L 1016,770 L 1016,771 L 1015,771 L 1013,772 L 1012,773 L 1010,773 L 1009,772 L 1008,772 L 1007,770 L 1007,769 L 1006,767 L 1006,766 L 1005,765 L 1006,764 L 1006,763 L 1007,763 L 1008,762 L 1014,762 L 1020,760 L 1024,758 L 1025,758 L 1028,756 L 1029,756 L 1030,755 L 1031,755 L 1031,754 L 1031,752 L 1031,751 L 1030,749 L 1029,747 L 1029,744 L 1030,742 L 1032,740 L 1034,740 L 1035,739 L 1035,738 L 1032,732 L 1030,726 L 1029,725 L 1029,724 L 1029,723 L 1030,723 L 1031,723 L 1033,723 L 1034,724 L 1036,724 L 1037,724 L 1038,724 L 1039,724 L 1039,723 L 1039,722 L 1040,722 L 1041,720 L 1041,719 L 1041,718 L 1040,715 L 1040,711 L 1040,710 L 1039,710 L 1039,709 L 1038,708 L 1037,708 L 1036,708 L 1034,707 L 1033,707 L 1032,707 L 1032,706 L 1033,703 L 1034,701 L 1036,699 L 1039,698 L 1040,698 L 1041,698 L 1041,699 L 1041,700 L 1040,700 L 1040,701 L 1040,702 L 1041,702 L 1042,702 L 1042,701 L 1043,701 L 1044,703 L 1046,704 L 1047,704 L 1048,704 L 1049,704 L 1050,703 L 1050,702 L 1050,701 L 1050,698 L 1050,697 L 1050,695 L 1050,694 L 1051,694 L 1051,693 L 1052,693 L 1053,693 " />
</g>
<g id="ontario-generalized_6" inkscape:label="Ottawa">
<path d="M 1252,587 L 1254,586 L 1256,585 L 1259,586 L 1262,586 L 1264,586 L 1265,586 L 1266,586 L 1267,586 L 1267,587 L 1267,589 L 1268,593 L 1268,594 L 1268,595 L 1268,598 L 1268,600 L 1269,603 L 1270,604 L 1272,605 L 1274,606 L 1275,607 L 1275,608 L 1275,609 L 1274,610 L 1272,612 L 1271,614 L 1271,616 L 1270,618 L 1269,620 L 1264,624 L 1263,624 L 1262,625 L 1261,625 L 1260,625 L 1258,625 L 1256,626 L 1254,627 L 1246,638 L 1242,642 L 1234,655 L 1233,659 L 1228,668 L 1226,671 L 1225,675 L 1225,676 L 1223,679 L 1223,680 L 1217,684 L 1216,685 L 1215,686 L 1213,686 L 1212,686 L 1210,685 L 1209,682 L 1208,679 L 1208,678 L 1206,676 L 1204,675 L 1201,674 L 1201,673 L 1200,673 L 1198,671 L 1195,669 L 1190,666 L 1190,665 L 1186,660 L 1177,650 L 1177,649 L 1175,647 L 1174,645 L 1174,642 L 1175,640 L 1176,638 L 1179,634 L 1180,633 L 1183,628 L 1183,627 L 1186,622 L 1189,618 L 1190,614 L 1194,613 L 1195,613 L 1195,612 L 1201,613 L 1202,614 L 1204,616 L 1205,616 L 1206,617 L 1208,618 L 1209,618 L 1210,617 L 1211,617 L 1214,610 L 1218,608 L 1221,605 L 1226,601 L 1227,601 L 1229,598 L 1230,597 L 1231,596 L 1234,596 L 1235,596 L 1239,593 L 1240,593 L 1240,592 L 1242,589 L 1243,589 L 1252,587 " />
</g>
<g id="ontario-generalized_7" inkscape:label="Toronto">
<path d="M 1080,712 L 1080,711 L 1081,711 L 1082,711 L 1083,711 L 1084,712 L 1084,713 L 1086,716 L 1089,720 L 1090,722 L 1091,723 L 1092,726 L 1092,727 L 1092,728 L 1093,728 L 1093,729 L 1094,729 L 1095,728 L 1095,727 L 1096,726 L 1097,726 L 1098,727 L 1099,727 L 1100,727 L 1101,727 L 1102,727 L 1103,727 L 1104,728 L 1104,730 L 1105,731 L 1106,733 L 1107,733 L 1108,734 L 1109,733 L 1110,732 L 1114,729 L 1114,730 L 1115,731 L 1117,735 L 1119,736 L 1120,738 L 1120,739 L 1120,740 L 1120,741 L 1119,741 L 1118,742 L 1117,742 L 1115,743 L 1112,743 L 1110,745 L 1100,750 L 1093,754 L 1089,760 L 1087,764 L 1084,768 L 1079,770 L 1076,775 L 1074,776 L 1072,776 L 1070,776 L 1066,772 L 1059,772 L 1058,772 L 1057,770 L 1057,769 L 1056,769 L 1057,769 L 1057,770 L 1057,771 L 1058,772 L 1059,772 L 1060,773 L 1062,773 L 1065,772 L 1066,772 L 1070,776 L 1071,776 L 1072,776 L 1073,776 L 1074,776 L 1074,777 L 1075,777 L 1075,778 L 1075,779 L 1075,780 L 1073,784 L 1072,786 L 1072,787 L 1072,788 L 1071,788 L 1070,788 L 1069,787 L 1068,786 L 1066,786 L 1064,785 L 1063,785 L 1062,785 L 1061,785 L 1060,787 L 1060,788 L 1059,788 L 1056,786 L 1054,785 L 1051,783 L 1050,782 L 1050,781 L 1050,780 L 1050,779 L 1051,776 L 1052,775 L 1052,774 L 1053,772 L 1054,770 L 1054,769 L 1054,768 L 1053,768 L 1052,767 L 1050,766 L 1050,765 L 1046,763 L 1045,763 L 1045,762 L 1045,761 L 1046,761 L 1046,760 L 1047,759 L 1048,757 L 1049,757 L 1056,753 L 1057,752 L 1063,748 L 1064,748 L 1065,747 L 1068,744 L 1068,743 L 1068,739 L 1068,736 L 1067,732 L 1066,727 L 1066,723 L 1065,723 L 1065,722 L 1066,721 L 1066,720 L 1067,719 L 1069,719 L 1077,715 L 1079,714 L 1080,713 L 1080,712 " />
</g>
<g id="ontario-generalized_8" inkscape:label="Kingston--Pembroke">
<path d="M 1177,707 L 1178,707 L 1178,708 L 1178,709 L 1178,711 L 1177,713 L 1177,714 L 1177,715 L 1178,715 L 1179,716 L 1181,715 L 1183,714 L 1185,713 L 1188,708 L 1189,709 L 1188,709 L 1188,710 L 1181,721 L 1183,721 L 1185,721 L 1187,720 L 1188,719 L 1189,719 L 1190,719 L 1191,719 L 1190,719 L 1190,720 L 1188,721 L 1187,721 L 1184,724 L 1181,727 L 1179,728 L 1177,728 L 1176,728 L 1175,727 L 1174,726 L 1173,726 L 1173,725 L 1173,724 L 1173,723 L 1172,723 L 1172,722 L 1171,723 L 1170,724 L 1168,725 L 1166,726 L 1164,727 L 1162,727 L 1160,727 L 1158,725 L 1157,723 L 1157,721 L 1158,718 L 1160,716 L 1165,713 L 1166,713 L 1167,713 L 1167,714 L 1168,714 L 1167,715 L 1168,715 L 1168,716 L 1169,716 L 1169,715 L 1169,714 L 1169,713 L 1170,712 L 1172,711 L 1174,709 L 1177,707 " />
<path d="M 1094,591 L 1108,592 L 1111,592 L 1116,591 L 1120,591 L 1121,592 L 1124,593 L 1127,594 L 1131,595 L 1134,596 L 1136,598 L 1136,600 L 1138,602 L 1139,603 L 1142,605 L 1145,606 L 1148,606 L 1152,607 L 1153,607 L 1154,607 L 1154,606 L 1155,606 L 1155,605 L 1154,604 L 1153,603 L 1153,602 L 1153,601 L 1154,600 L 1155,599 L 1156,599 L 1158,599 L 1159,600 L 1160,600 L 1160,602 L 1161,604 L 1162,606 L 1164,608 L 1166,610 L 1168,613 L 1169,616 L 1170,617 L 1171,617 L 1173,618 L 1177,618 L 1180,618 L 1181,618 L 1184,619 L 1185,619 L 1187,619 L 1187,620 L 1187,621 L 1186,622 L 1183,627 L 1183,628 L 1180,633 L 1179,634 L 1176,638 L 1175,640 L 1174,642 L 1174,645 L 1175,647 L 1177,649 L 1177,650 L 1186,660 L 1190,665 L 1190,666 L 1195,669 L 1198,671 L 1200,673 L 1201,673 L 1201,674 L 1204,675 L 1206,676 L 1208,678 L 1208,679 L 1210,682 L 1210,685 L 1210,689 L 1208,692 L 1205,694 L 1205,695 L 1201,697 L 1194,700 L 1192,700 L 1192,701 L 1188,705 L 1186,708 L 1184,711 L 1183,712 L 1181,713 L 1180,713 L 1179,713 L 1179,712 L 1180,711 L 1181,709 L 1182,707 L 1183,707 L 1184,707 L 1185,706 L 1186,706 L 1185,705 L 1184,705 L 1183,705 L 1183,706 L 1179,711 L 1178,711 L 1178,710 L 1178,708 L 1179,707 L 1179,706 L 1179,705 L 1178,705 L 1178,706 L 1176,707 L 1175,708 L 1165,711 L 1164,712 L 1161,714 L 1160,715 L 1158,717 L 1156,719 L 1156,720 L 1155,721 L 1155,722 L 1154,722 L 1154,723 L 1153,723 L 1153,722 L 1152,722 L 1151,719 L 1149,717 L 1147,714 L 1147,713 L 1146,712 L 1147,712 L 1147,711 L 1148,710 L 1149,709 L 1149,708 L 1149,707 L 1149,706 L 1147,704 L 1146,702 L 1143,699 L 1141,696 L 1139,693 L 1139,692 L 1136,689 L 1136,688 L 1135,687 L 1132,683 L 1130,680 L 1129,678 L 1129,677 L 1122,669 L 1119,664 L 1116,661 L 1114,657 L 1112,655 L 1111,654 L 1111,653 L 1110,652 L 1110,651 L 1110,650 L 1111,649 L 1112,649 L 1115,647 L 1119,644 L 1120,643 L 1121,641 L 1121,640 L 1121,639 L 1120,638 L 1118,637 L 1118,636 L 1118,635 L 1118,634 L 1119,633 L 1121,632 L 1122,632 L 1122,631 L 1122,630 L 1121,630 L 1120,629 L 1119,628 L 1119,626 L 1119,625 L 1119,624 L 1121,622 L 1122,621 L 1124,620 L 1126,618 L 1128,617 L 1129,616 L 1130,615 L 1130,614 L 1129,613 L 1128,612 L 1126,609 L 1125,608 L 1125,607 L 1117,597 L 1116,597 L 1114,597 L 1113,598 L 1110,601 L 1109,601 L 1108,601 L 1107,600 L 1105,600 L 1103,600 L 1102,601 L 1101,603 L 1100,603 L 1099,601 L 1098,600 L 1097,599 L 1096,599 L 1095,600 L 1094,601 L 1092,602 L 1091,603 L 1089,603 L 1089,602 L 1088,602 L 1088,601 L 1085,598 L 1084,595 L 1083,595 L 1083,594 L 1084,594 L 1084,593 L 1085,593 L 1086,594 L 1089,594 L 1091,593 L 1094,591 " />
</g>
<g id="ontario-generalized_9" inkscape:label="Stratford--Bruce_Peninsula">
<path d="M 960,691 L 964,690 L 967,690 L 968,690 L 970,689 L 972,689 L 973,688 L 974,688 L 975,689 L 975,690 L 973,692 L 973,693 L 973,694 L 974,695 L 975,696 L 976,696 L 977,697 L 978,698 L 978,700 L 979,702 L 980,704 L 983,704 L 986,704 L 986,705 L 986,706 L 985,707 L 985,708 L 986,708 L 986,707 L 988,707 L 989,707 L 989,706 L 989,704 L 989,703 L 990,703 L 991,703 L 992,703 L 993,703 L 992,704 L 992,705 L 991,705 L 991,706 L 991,707 L 991,708 L 992,709 L 992,710 L 991,710 L 988,716 L 988,717 L 988,718 L 990,715 L 992,713 L 993,713 L 994,712 L 996,712 L 997,712 L 997,713 L 998,713 L 999,714 L 999,715 L 999,719 L 998,724 L 998,725 L 999,725 L 1000,724 L 1000,723 L 1001,721 L 1003,718 L 1004,716 L 1006,715 L 1008,715 L 1009,714 L 1010,714 L 1010,715 L 1011,715 L 1011,716 L 1012,719 L 1013,720 L 1014,721 L 1020,721 L 1022,723 L 1025,723 L 1028,724 L 1030,726 L 1032,729 L 1032,732 L 1035,738 L 1035,739 L 1034,740 L 1032,740 L 1030,742 L 1029,744 L 1029,746 L 1030,749 L 1031,751 L 1031,752 L 1031,753 L 1031,755 L 1030,755 L 1029,756 L 1028,756 L 1025,758 L 1024,758 L 1020,760 L 1014,762 L 1008,762 L 1007,762 L 1006,763 L 1006,764 L 1005,765 L 1005,766 L 1006,767 L 1007,769 L 1007,770 L 1008,772 L 1009,772 L 1010,773 L 1012,773 L 1013,772 L 1015,771 L 1016,771 L 1016,770 L 1017,770 L 1017,771 L 1017,772 L 1016,773 L 1016,774 L 1016,775 L 1014,780 L 1015,780 L 1015,781 L 1016,781 L 1017,781 L 1019,782 L 1020,783 L 1020,784 L 1020,785 L 1019,787 L 1019,788 L 1018,789 L 1018,790 L 1018,791 L 1018,792 L 1017,792 L 1018,793 L 1021,794 L 1022,795 L 1025,797 L 1025,798 L 1025,799 L 1025,800 L 1025,801 L 1024,802 L 1021,804 L 1018,806 L 1017,806 L 1012,810 L 1009,812 L 1007,814 L 1006,814 L 1005,815 L 1004,815 L 1003,814 L 1001,814 L 999,813 L 995,811 L 994,811 L 992,814 L 989,815 L 988,815 L 985,816 L 984,816 L 984,817 L 981,818 L 980,818 L 979,818 L 980,812 L 980,809 L 980,808 L 979,805 L 979,803 L 979,799 L 978,798 L 978,796 L 976,790 L 974,780 L 973,776 L 971,768 L 970,767 L 969,766 L 970,765 L 970,764 L 970,763 L 971,763 L 971,762 L 973,759 L 974,755 L 973,749 L 976,742 L 977,742 L 978,741 L 979,741 L 979,740 L 980,740 L 980,739 L 980,738 L 980,737 L 981,734 L 983,728 L 984,728 L 984,727 L 984,726 L 982,723 L 981,717 L 980,715 L 976,710 L 975,707 L 973,705 L 970,704 L 968,702 L 967,699 L 962,696 L 957,695 L 957,694 L 956,694 L 956,693 L 957,692 L 959,691 L 960,691 " />
</g>
<g id="ontario-generalized_10" inkscape:label="Hamilton--Niagara_Peninsula">
<path d="M 1064,785 L 1066,786 L 1068,786 L 1069,787 L 1070,788 L 1071,788 L 1071,789 L 1071,790 L 1070,790 L 1070,791 L 1069,792 L 1069,793 L 1070,794 L 1070,795 L 1071,795 L 1071,796 L 1072,796 L 1078,797 L 1083,797 L 1085,797 L 1088,796 L 1091,796 L 1092,796 L 1096,793 L 1100,789 L 1102,788 L 1103,788 L 1106,795 L 1105,797 L 1105,798 L 1106,800 L 1108,801 L 1109,802 L 1109,803 L 1109,804 L 1109,805 L 1114,806 L 1115,806 L 1115,807 L 1116,808 L 1115,809 L 1114,811 L 1112,811 L 1109,813 L 1100,814 L 1095,816 L 1086,820 L 1079,821 L 1074,824 L 1065,828 L 1062,829 L 1058,831 L 1057,831 L 1055,835 L 1053,839 L 1050,842 L 1049,843 L 1049,844 L 1049,845 L 1050,845 L 1051,845 L 1053,845 L 1054,845 L 1056,845 L 1058,845 L 1060,845 L 1062,845 L 1064,844 L 1067,844 L 1068,844 L 1067,845 L 1066,845 L 1065,845 L 1064,845 L 1060,845 L 1053,845 L 1052,845 L 1052,846 L 1048,847 L 1046,847 L 1042,848 L 1041,848 L 1040,847 L 1039,847 L 1038,847 L 1037,846 L 1037,845 L 1036,845 L 1036,842 L 1035,840 L 1034,837 L 1034,834 L 1034,832 L 1035,831 L 1037,830 L 1041,828 L 1042,828 L 1043,827 L 1042,826 L 1042,825 L 1041,824 L 1036,815 L 1034,812 L 1035,812 L 1035,811 L 1038,810 L 1039,809 L 1040,809 L 1041,808 L 1041,807 L 1041,806 L 1040,805 L 1040,804 L 1040,803 L 1040,802 L 1041,802 L 1044,801 L 1046,799 L 1048,798 L 1049,797 L 1049,795 L 1050,793 L 1051,792 L 1053,791 L 1054,789 L 1055,787 L 1055,786 L 1056,786 L 1057,786 L 1058,787 L 1059,788 L 1060,788 L 1060,787 L 1061,785 L 1062,785 L 1063,785 L 1064,785 " />
</g>
<g id="ontario-generalized_11" inkscape:label="Windsor--Sarnia">
<path d="M 979,813 L 980,814 L 980,816 L 979,817 L 978,822 L 979,825 L 982,833 L 982,834 L 983,836 L 983,840 L 983,849 L 985,858 L 989,861 L 989,862 L 992,863 L 994,865 L 994,866 L 994,867 L 993,867 L 993,868 L 991,870 L 990,870 L 990,871 L 989,872 L 989,873 L 989,874 L 988,874 L 988,875 L 988,876 L 989,880 L 989,881 L 988,881 L 987,881 L 987,880 L 988,879 L 988,877 L 988,876 L 987,876 L 987,877 L 986,877 L 985,880 L 983,881 L 981,882 L 980,882 L 979,883 L 978,883 L 978,884 L 976,885 L 973,889 L 972,889 L 968,892 L 966,894 L 965,895 L 964,895 L 964,896 L 964,897 L 963,899 L 962,901 L 962,902 L 962,904 L 962,905 L 962,906 L 962,907 L 961,907 L 961,906 L 960,906 L 960,905 L 959,904 L 958,903 L 957,903 L 957,902 L 956,902 L 955,902 L 953,903 L 951,903 L 950,904 L 947,906 L 942,908 L 941,908 L 938,907 L 937,907 L 937,906 L 933,906 L 932,906 L 932,905 L 931,903 L 930,892 L 930,890 L 931,889 L 931,888 L 932,888 L 937,886 L 939,886 L 944,887 L 945,887 L 946,887 L 947,887 L 951,886 L 952,885 L 955,884 L 958,884 L 959,884 L 960,883 L 960,882 L 961,881 L 961,880 L 961,877 L 961,876 L 961,874 L 960,873 L 959,872 L 957,872 L 955,872 L 952,872 L 951,872 L 950,872 L 949,871 L 949,870 L 949,869 L 950,868 L 951,868 L 952,866 L 953,865 L 953,860 L 954,854 L 952,852 L 952,845 L 952,844 L 953,842 L 953,840 L 954,839 L 954,838 L 955,838 L 957,837 L 960,836 L 960,835 L 961,835 L 962,835 L 962,834 L 963,834 L 963,833 L 964,833 L 968,826 L 969,823 L 971,822 L 973,820 L 974,820 L 974,819 L 975,819 L 975,818 L 976,818 L 976,817 L 977,817 L 977,816 L 979,813 " />
</g>
</g>
</g></svg>