<?xml version="1.0" standalone="no"?>
<!DOCTYPE svg PUBLIC "-//W3C//DTD SVG 1.1//EN" "http://www.w3.org/Graphics/SVG/1.1/DTD/svg11.dtd">
<svg xmlns="http://www.w3.org/2000/svg" xmlns:inkscape="http://www.inkscape.org/namespaces/inkscape" xmlns:xlink="http://www.w3.org/1999/xlink" viewBox = "0 0 1635 933" version = "1.1">
<!-- svg generated using QGIS www.qgis.org -->
<g id="pei-generalized" inkscape:groupmode="layer" inkscape:label="pei-generalized">
<g stroke="rgb(35,35,35)" fill="rgb(125,139,143)" stroke-linejoin="round" stroke-width="0.40">
<g id="pei-generalized_1" inkscape:label="Prince_Edward_Island___mle-du-Prince-udouard">
<path d="M 141,255 L 175,325 L 192,341 L 204,360 L 210,382 L 208,402 L 202,421 L 208,473 L 217,498 L 235,516 L 260,525 L 288,522 L 338,539 L 379,555 L 478,670 L 504,689 L 536,695 L 550,693 L 562,686 L 568,681 L 571,674 L 572,666 L 569,655 L 563,646 L 554,638 L 541,632 L 531,621 L 525,607 L 526,589 L 533,573 L 570,545 L 605,536 L 640,536 L 674,546 L 701,549 L 722,543 L 740,531 L 748,520 L 758,511 L 771,507 L 777,506 L 784,507 L 790,509 L 803,516 L 817,526 L 832,532 L 849,534 L 884,527 L 934,509 L 950,500 L 966,491 L 978,485 L 991,484 L 1004,488 L 1015,493 L 1027,493 L 1033,490 L 1036,487 L 1037,483 L 1038,479 L 1036,473 L 1033,469 L 1032,460 L 1035,451 L 1044,436 L 1058,426 L 1095,396 L 1136,371 L 1251,333 L 1252,333 L 1253,332 L 1253,331 L 1253,330 L 1253,329 L 1252,329 L 1252,328 L 1237,327 L 1232,326 L 1230,327 L 1229,327 L 1159,353 L 1157,353 L 1156,353 L 1155,353 L 1154,353 L 1154,352 L 1166,336 L 1201,303 L 1295,244 L 1341,223 L 1355,213 L 1356,212 L 1465,135 L 1467,134 L 1538,111 L 1581,95 L 1585,94 L 1590,95 L 1592,96 L 1593,98 L 1594,100 L 1593,101 L 1592,107 L 1590,112 L 1566,160 L 1561,176 L 1556,190 L 1554,196 L 1552,200 L 1551,202 L 1550,203 L 1550,204 L 1549,204 L 1548,204 L 1548,203 L 1547,203 L 1547,202 L 1547,201 L 1546,201 L 1546,200 L 1546,201 L 1545,201 L 1544,202 L 1544,204 L 1542,210 L 1539,216 L 1530,235 L 1520,252 L 1500,269 L 1494,274 L 1472,279 L 1454,291 L 1441,309 L 1438,336 L 1445,361 L 1438,418 L 1412,468 L 1402,486 L 1399,505 L 1404,525 L 1417,541 L 1434,553 L 1454,558 L 1471,561 L 1478,561 L 1484,564 L 1487,569 L 1489,574 L 1488,580 L 1480,602 L 1476,616 L 1478,630 L 1481,637 L 1487,642 L 1492,644 L 1497,645 L 1503,643 L 1509,637 L 1513,635 L 1517,635 L 1520,636 L 1522,639 L 1523,641 L 1522,644 L 1521,647 L 1520,650 L 1508,679 L 1507,681 L 1498,690 L 1480,706 L 1407,754 L 1344,786 L 1324,794 L 1322,794 L 1311,794 L 1230,767 L 1215,762 L 1199,763 L 1186,772 L 1179,775 L 1174,779 L 1169,784 L 1167,786 L 1166,787 L 1164,787 L 1162,787 L 1160,786 L 1159,785 L 1158,783 L 1159,780 L 1160,778 L 1191,742 L 1206,714 L 1212,704 L 1216,692 L 1216,681 L 1214,676 L 1210,672 L 1205,671 L 1200,672 L 1196,674 L 1189,679 L 1184,685 L 1181,693 L 1174,700 L 1171,701 L 1168,701 L 1166,700 L 1162,698 L 1160,694 L 1155,687 L 1152,679 L 1136,664 L 1124,657 L 1110,655 L 1096,657 L 1079,667 L 1066,678 L 1061,682 L 1054,684 L 1047,684 L 1042,681 L 1036,680 L 1031,681 L 1027,684 L 1024,687 L 1021,696 L 1023,706 L 1024,728 L 1018,749 L 1006,767 L 979,788 L 946,796 L 874,810 L 802,808 L 736,836 L 707,834 L 656,831 L 609,810 L 595,804 L 585,793 L 580,779 L 582,770 L 588,762 L 596,758 L 604,756 L 605,756 L 607,756 L 608,754 L 609,754 L 609,753 L 608,752 L 607,751 L 606,751 L 600,749 L 593,748 L 573,744 L 550,744 L 527,749 L 506,760 L 486,759 L 466,765 L 453,776 L 443,789 L 440,799 L 434,808 L 425,814 L 394,828 L 361,832 L 343,826 L 330,815 L 324,801 L 323,786 L 328,772 L 333,748 L 329,723 L 316,702 L 292,685 L 264,678 L 262,678 L 260,679 L 243,679 L 196,669 L 189,671 L 153,692 L 140,708 L 123,719 L 103,724 L 79,719 L 59,705 L 51,693 L 50,691 L 39,664 L 38,656 L 43,621 L 43,620 L 67,538 L 70,511 L 64,439 L 71,387 L 73,382 L 114,303 L 120,276 L 121,261 L 122,255 L 122,249 L 122,243 L 121,240 L 122,239 L 123,237 L 124,236 L 126,235 L 128,235 L 129,236 L 131,237 L 133,239 L 141,255 " />
</g>
</g>
</g></svg>