<?xml version="1.0" standalone="no"?>
<!DOCTYPE svg PUBLIC "-//W3C//DTD SVG 1.1//EN" "http://www.w3.org/Graphics/SVG/1.1/DTD/svg11.dtd">
<svg xmlns="http://www.w3.org/2000/svg" xmlns:inkscape="http://www.inkscape.org/namespaces/inkscape" xmlns:xlink="http://www.w3.org/1999/xlink" viewBox = "0 0 1635 933" version = "1.1">
<!-- svg generated using QGIS www.qgis.org -->
<g id="quebec-generalized" inkscape:groupmode="layer" inkscape:label="quebec-generalized">
<g stroke="rgb(35,35,35)" fill="rgb(196,60,57)" stroke-linejoin="round" stroke-width="0.40">
<g id="quebec-generalized_1" inkscape:label="Estrie">
<path d="M 933,814 L 934,815 L 934,816 L 932,818 L 930,821 L 928,826 L 927,828 L 927,830 L 927,831 L 928,832 L 929,833 L 930,833 L 931,834 L 932,835 L 933,835 L 933,836 L 932,837 L 930,836 L 928,836 L 927,836 L 926,836 L 926,837 L 926,838 L 926,839 L 927,841 L 928,843 L 928,844 L 928,846 L 928,847 L 927,847 L 926,847 L 926,846 L 925,845 L 924,845 L 924,844 L 923,844 L 922,844 L 921,844 L 920,845 L 919,846 L 918,847 L 918,848 L 918,850 L 917,851 L 915,851 L 914,851 L 913,850 L 912,850 L 911,850 L 911,851 L 910,851 L 909,853 L 908,855 L 908,856 L 909,858 L 909,860 L 909,861 L 909,863 L 908,864 L 909,866 L 908,867 L 908,868 L 888,876 L 885,877 L 884,877 L 882,878 L 881,878 L 881,879 L 879,880 L 878,880 L 876,880 L 874,880 L 873,878 L 872,878 L 871,876 L 871,875 L 872,874 L 872,873 L 873,873 L 873,872 L 873,871 L 873,870 L 872,868 L 872,867 L 871,866 L 870,865 L 869,865 L 869,864 L 868,864 L 868,863 L 867,862 L 867,861 L 867,854 L 867,852 L 868,849 L 870,848 L 870,847 L 870,846 L 870,845 L 869,845 L 868,844 L 867,844 L 867,843 L 867,842 L 868,841 L 868,840 L 869,840 L 870,841 L 871,841 L 872,839 L 872,838 L 873,834 L 873,833 L 874,833 L 874,832 L 875,832 L 877,832 L 878,833 L 879,833 L 880,833 L 880,832 L 881,831 L 881,830 L 882,829 L 882,828 L 882,827 L 883,827 L 884,827 L 885,827 L 888,828 L 891,828 L 894,827 L 895,826 L 896,826 L 897,827 L 898,827 L 899,827 L 899,826 L 899,825 L 899,824 L 898,823 L 898,822 L 899,822 L 900,822 L 901,822 L 902,822 L 904,822 L 905,821 L 905,820 L 905,819 L 904,818 L 904,817 L 904,815 L 905,814 L 906,814 L 908,814 L 909,814 L 910,814 L 912,814 L 913,815 L 915,818 L 916,819 L 917,819 L 920,819 L 922,817 L 926,815 L 927,813 L 928,813 L 929,812 L 930,812 L 931,813 L 933,813 L 933,814 " />
</g>
<g id="quebec-generalized_2" inkscape:label="C4te-Nord">
<path d="M 1043,514 L 1048,513 L 1050,513 L 1053,513 L 1059,511 L 1062,510 L 1067,508 L 1070,507 L 1074,507 L 1078,506 L 1082,505 L 1086,505 L 1095,504 L 1102,504 L 1104,504 L 1107,506 L 1110,506 L 1112,506 L 1117,507 L 1125,505 L 1129,505 L 1131,506 L 1133,507 L 1134,507 L 1137,508 L 1139,509 L 1140,510 L 1140,512 L 1140,513 L 1139,515 L 1138,516 L 1124,524 L 1115,525 L 1106,528 L 1104,528 L 1100,529 L 1094,530 L 1090,531 L 1089,531 L 1086,530 L 1081,530 L 1079,531 L 1076,531 L 1073,529 L 1071,527 L 1071,526 L 1069,525 L 1068,525 L 1065,525 L 1061,523 L 1059,523 L 1054,523 L 1051,524 L 1046,524 L 1040,524 L 1038,524 L 1036,524 L 1035,524 L 1034,523 L 1035,521 L 1035,520 L 1038,518 L 1041,515 L 1042,515 L 1043,514 " />
<path d="M 846,313 L 847,312 L 848,312 L 850,313 L 851,314 L 854,317 L 855,318 L 856,318 L 856,319 L 856,320 L 856,321 L 855,321 L 854,321 L 853,321 L 853,322 L 854,322 L 855,323 L 856,323 L 856,324 L 855,324 L 854,324 L 853,324 L 851,323 L 845,323 L 841,321 L 838,319 L 837,319 L 836,319 L 836,318 L 837,317 L 838,317 L 841,315 L 842,315 L 845,313 L 846,313 " />
<path d="M 1174,363 L 1173,367 L 1172,369 L 1171,371 L 1171,373 L 1171,375 L 1171,376 L 1171,377 L 1170,377 L 1170,376 L 1170,374 L 1170,373 L 1169,373 L 1168,374 L 1168,375 L 1168,376 L 1168,378 L 1168,379 L 1168,378 L 1168,377 L 1169,377 L 1169,378 L 1170,378 L 1171,379 L 1171,381 L 1174,386 L 1174,387 L 1174,389 L 1173,389 L 1172,389 L 1171,389 L 1171,388 L 1170,387 L 1170,384 L 1169,383 L 1169,384 L 1170,388 L 1166,402 L 1166,403 L 1166,404 L 1167,405 L 1167,406 L 1167,407 L 1166,409 L 1165,409 L 1164,409 L 1164,408 L 1163,408 L 1163,409 L 1164,410 L 1165,411 L 1165,412 L 1165,413 L 1163,415 L 1161,418 L 1160,419 L 1160,421 L 1161,422 L 1162,422 L 1163,423 L 1163,424 L 1163,425 L 1163,426 L 1162,426 L 1161,426 L 1160,426 L 1159,425 L 1159,424 L 1158,424 L 1157,425 L 1158,425 L 1158,426 L 1159,426 L 1160,427 L 1160,428 L 1159,430 L 1159,431 L 1157,432 L 1157,433 L 1157,434 L 1156,434 L 1156,433 L 1155,433 L 1154,432 L 1153,433 L 1153,434 L 1153,435 L 1152,435 L 1151,434 L 1150,433 L 1150,432 L 1150,431 L 1150,430 L 1149,430 L 1149,431 L 1149,432 L 1150,433 L 1150,434 L 1151,435 L 1150,436 L 1149,437 L 1148,438 L 1146,439 L 1145,439 L 1145,440 L 1144,441 L 1143,442 L 1141,443 L 1140,443 L 1139,444 L 1138,445 L 1137,445 L 1137,446 L 1136,446 L 1136,445 L 1136,444 L 1137,443 L 1137,442 L 1137,441 L 1136,441 L 1135,441 L 1135,442 L 1136,443 L 1136,444 L 1135,445 L 1135,447 L 1135,448 L 1134,448 L 1133,448 L 1133,447 L 1132,447 L 1132,448 L 1131,448 L 1130,449 L 1127,449 L 1125,448 L 1122,449 L 1121,448 L 1120,447 L 1120,446 L 1120,445 L 1119,446 L 1119,447 L 1120,448 L 1121,449 L 1123,449 L 1127,448 L 1128,449 L 1129,449 L 1129,450 L 1129,451 L 1129,452 L 1127,453 L 1125,454 L 1120,458 L 1118,460 L 1116,464 L 1115,466 L 1113,467 L 1112,468 L 1111,467 L 1110,467 L 1109,466 L 1109,465 L 1107,464 L 1106,464 L 1104,464 L 1100,467 L 1096,468 L 1091,469 L 1085,472 L 1083,474 L 1080,475 L 1078,475 L 1076,476 L 1075,477 L 1072,478 L 1070,479 L 1067,480 L 1066,483 L 1065,485 L 1063,488 L 1060,489 L 1056,489 L 1055,489 L 1053,491 L 1050,492 L 1049,491 L 1047,492 L 1046,492 L 1042,494 L 1041,494 L 1037,497 L 1036,499 L 1034,500 L 1032,500 L 1029,501 L 1026,501 L 1025,501 L 1025,502 L 1023,504 L 1013,510 L 1013,511 L 999,515 L 997,517 L 996,517 L 989,523 L 987,524 L 985,525 L 983,525 L 981,525 L 980,526 L 980,527 L 979,528 L 979,531 L 979,532 L 978,532 L 978,533 L 977,533 L 974,533 L 973,533 L 973,534 L 972,534 L 971,536 L 970,536 L 969,536 L 968,536 L 968,535 L 967,534 L 966,534 L 965,534 L 965,535 L 964,536 L 964,537 L 964,538 L 965,539 L 965,540 L 966,540 L 967,539 L 968,539 L 968,540 L 968,541 L 967,541 L 966,541 L 965,541 L 964,542 L 962,545 L 961,545 L 961,546 L 962,547 L 962,548 L 961,550 L 959,552 L 958,553 L 957,553 L 957,554 L 956,556 L 956,557 L 957,559 L 957,562 L 957,563 L 957,564 L 956,564 L 955,565 L 954,566 L 954,567 L 955,569 L 955,571 L 956,572 L 957,574 L 956,576 L 956,578 L 957,580 L 958,582 L 959,584 L 959,585 L 958,587 L 958,590 L 958,592 L 958,593 L 958,594 L 957,594 L 955,595 L 954,595 L 953,596 L 950,597 L 949,598 L 947,600 L 946,601 L 945,602 L 944,603 L 943,603 L 941,603 L 940,604 L 938,605 L 937,605 L 936,607 L 936,608 L 936,609 L 936,610 L 935,611 L 934,612 L 933,613 L 932,613 L 932,614 L 933,614 L 934,614 L 935,614 L 936,614 L 937,614 L 937,615 L 937,616 L 937,617 L 936,617 L 933,619 L 932,622 L 931,622 L 930,622 L 929,622 L 928,622 L 927,622 L 925,624 L 925,625 L 925,626 L 925,628 L 925,629 L 926,630 L 927,631 L 926,632 L 926,633 L 925,633 L 924,634 L 923,635 L 921,637 L 919,641 L 917,645 L 917,647 L 917,649 L 918,652 L 918,653 L 918,656 L 917,656 L 916,656 L 915,657 L 914,658 L 914,659 L 914,660 L 915,663 L 915,664 L 914,671 L 914,673 L 911,679 L 910,681 L 909,684 L 908,685 L 907,686 L 905,686 L 903,686 L 902,686 L 901,685 L 900,684 L 898,684 L 896,684 L 895,684 L 894,683 L 894,682 L 893,680 L 893,679 L 893,678 L 891,672 L 889,668 L 888,665 L 883,654 L 881,648 L 879,645 L 878,643 L 872,627 L 870,623 L 869,620 L 868,618 L 865,612 L 864,609 L 862,606 L 860,601 L 858,594 L 856,589 L 853,584 L 852,580 L 851,577 L 850,575 L 847,569 L 847,567 L 845,563 L 844,560 L 842,556 L 840,551 L 834,537 L 830,528 L 828,522 L 827,520 L 826,518 L 825,515 L 825,514 L 824,513 L 824,512 L 823,510 L 822,508 L 822,507 L 821,505 L 820,502 L 818,499 L 818,498 L 817,496 L 816,493 L 815,491 L 815,490 L 814,488 L 812,485 L 811,482 L 810,479 L 809,476 L 806,470 L 805,467 L 804,464 L 803,462 L 802,459 L 800,455 L 800,452 L 799,450 L 796,443 L 795,440 L 792,434 L 791,431 L 789,425 L 786,419 L 783,412 L 782,409 L 780,405 L 778,400 L 776,395 L 776,394 L 775,391 L 774,389 L 773,386 L 768,376 L 766,371 L 764,365 L 763,364 L 760,356 L 759,355 L 759,353 L 759,352 L 759,351 L 760,351 L 764,350 L 765,349 L 766,349 L 772,346 L 777,344 L 779,343 L 786,340 L 793,337 L 795,336 L 800,334 L 806,331 L 807,331 L 810,330 L 814,328 L 817,327 L 821,325 L 824,323 L 826,322 L 828,321 L 830,321 L 832,322 L 835,324 L 838,326 L 841,328 L 844,329 L 845,330 L 846,330 L 846,331 L 846,332 L 845,334 L 844,337 L 845,340 L 845,341 L 845,342 L 844,343 L 843,343 L 842,343 L 839,341 L 838,341 L 837,341 L 837,342 L 837,343 L 838,344 L 839,344 L 839,345 L 838,345 L 838,346 L 837,347 L 836,349 L 834,351 L 833,351 L 833,352 L 833,353 L 834,354 L 835,355 L 841,361 L 842,362 L 842,363 L 842,364 L 841,364 L 840,365 L 839,365 L 839,366 L 839,367 L 839,369 L 840,370 L 842,373 L 843,374 L 845,374 L 846,374 L 848,375 L 849,376 L 850,377 L 851,377 L 852,377 L 852,378 L 853,378 L 853,379 L 853,381 L 854,382 L 855,383 L 857,383 L 858,383 L 860,385 L 861,386 L 863,387 L 865,388 L 870,387 L 873,386 L 874,386 L 876,387 L 878,388 L 879,390 L 879,392 L 878,393 L 878,394 L 878,395 L 879,395 L 880,396 L 881,397 L 882,399 L 882,401 L 883,403 L 884,404 L 884,406 L 884,407 L 883,407 L 882,407 L 881,406 L 880,405 L 878,405 L 876,406 L 875,407 L 874,408 L 873,409 L 873,410 L 873,411 L 873,412 L 876,416 L 877,416 L 878,416 L 879,415 L 879,416 L 878,417 L 878,418 L 878,419 L 879,420 L 881,421 L 883,421 L 884,421 L 885,421 L 886,420 L 887,419 L 887,418 L 888,418 L 888,419 L 889,421 L 890,422 L 891,423 L 893,422 L 894,423 L 895,424 L 896,424 L 897,423 L 897,422 L 897,421 L 896,421 L 896,420 L 897,421 L 898,422 L 899,423 L 900,423 L 901,423 L 901,422 L 900,422 L 900,420 L 898,419 L 898,418 L 899,418 L 900,418 L 901,418 L 901,417 L 901,416 L 900,414 L 899,411 L 899,409 L 900,408 L 901,407 L 901,406 L 902,406 L 902,405 L 902,404 L 901,403 L 901,401 L 902,401 L 903,401 L 905,402 L 906,403 L 908,404 L 910,406 L 911,407 L 911,408 L 910,408 L 909,409 L 907,408 L 906,409 L 907,410 L 911,412 L 914,417 L 915,418 L 915,419 L 916,420 L 912,418 L 912,417 L 911,417 L 911,418 L 911,420 L 913,422 L 915,424 L 916,426 L 917,429 L 919,431 L 920,431 L 920,432 L 919,433 L 918,433 L 917,433 L 917,434 L 916,435 L 916,436 L 917,436 L 920,439 L 922,441 L 924,442 L 925,442 L 926,442 L 927,442 L 927,441 L 925,438 L 923,436 L 923,435 L 923,434 L 924,434 L 925,435 L 927,436 L 929,437 L 930,437 L 931,437 L 932,438 L 933,439 L 933,440 L 934,441 L 935,441 L 936,441 L 938,441 L 939,440 L 939,439 L 940,438 L 940,437 L 941,437 L 941,436 L 943,436 L 945,436 L 947,436 L 947,437 L 948,437 L 948,438 L 948,439 L 948,440 L 949,440 L 949,439 L 950,438 L 950,437 L 950,435 L 950,434 L 951,434 L 951,433 L 952,433 L 952,434 L 952,435 L 953,435 L 953,436 L 954,436 L 955,436 L 957,437 L 958,437 L 959,438 L 959,439 L 959,440 L 959,441 L 960,442 L 961,442 L 962,442 L 962,441 L 963,441 L 964,441 L 965,441 L 968,442 L 969,443 L 970,443 L 971,443 L 972,442 L 973,442 L 974,442 L 976,443 L 977,442 L 977,441 L 977,440 L 977,439 L 978,438 L 979,437 L 981,438 L 983,438 L 984,438 L 986,439 L 988,441 L 990,441 L 991,441 L 993,440 L 994,439 L 995,436 L 995,434 L 995,432 L 994,430 L 993,429 L 990,427 L 989,425 L 988,422 L 987,421 L 987,420 L 988,420 L 989,420 L 990,420 L 990,419 L 989,418 L 988,417 L 987,415 L 987,414 L 987,413 L 987,412 L 988,412 L 988,411 L 988,410 L 987,409 L 985,408 L 984,406 L 983,403 L 984,401 L 984,398 L 977,390 L 977,388 L 976,385 L 976,384 L 976,382 L 977,381 L 978,380 L 979,380 L 980,380 L 981,379 L 981,378 L 983,376 L 984,375 L 986,374 L 986,373 L 986,372 L 986,371 L 986,370 L 986,369 L 987,369 L 988,370 L 988,371 L 989,372 L 990,372 L 991,373 L 992,373 L 995,373 L 996,374 L 997,374 L 997,375 L 997,376 L 996,376 L 994,377 L 993,378 L 986,383 L 985,384 L 984,386 L 983,388 L 982,389 L 982,393 L 983,394 L 983,395 L 986,397 L 989,397 L 993,397 L 997,398 L 1000,401 L 1001,402 L 1002,403 L 1003,405 L 1004,406 L 1004,407 L 1004,408 L 1003,408 L 1002,409 L 1001,409 L 1001,408 L 1000,408 L 1000,409 L 1000,410 L 1001,410 L 1002,411 L 1003,411 L 1004,411 L 1006,410 L 1010,408 L 1011,408 L 1019,403 L 1023,401 L 1025,399 L 1030,397 L 1035,394 L 1040,392 L 1045,389 L 1060,380 L 1062,379 L 1064,378 L 1066,376 L 1071,374 L 1076,371 L 1079,369 L 1080,369 L 1083,367 L 1086,365 L 1089,363 L 1097,358 L 1099,357 L 1106,353 L 1108,351 L 1118,345 L 1125,341 L 1128,339 L 1132,337 L 1136,334 L 1138,333 L 1140,332 L 1145,329 L 1148,327 L 1150,325 L 1157,320 L 1162,318 L 1167,314 L 1170,312 L 1182,304 L 1185,302 L 1187,301 L 1189,300 L 1190,299 L 1191,299 L 1192,300 L 1192,301 L 1193,302 L 1197,308 L 1199,310 L 1201,313 L 1201,314 L 1204,318 L 1206,321 L 1207,322 L 1207,323 L 1207,324 L 1207,325 L 1206,326 L 1205,326 L 1205,325 L 1204,324 L 1203,324 L 1202,324 L 1201,325 L 1200,325 L 1197,328 L 1196,330 L 1191,334 L 1187,340 L 1186,346 L 1185,346 L 1185,345 L 1184,346 L 1185,346 L 1185,347 L 1185,348 L 1184,348 L 1184,349 L 1183,348 L 1182,347 L 1183,347 L 1182,347 L 1182,346 L 1182,347 L 1183,348 L 1183,349 L 1183,350 L 1182,351 L 1181,351 L 1180,351 L 1180,350 L 1179,349 L 1178,349 L 1178,350 L 1178,351 L 1179,352 L 1180,352 L 1180,353 L 1179,353 L 1177,353 L 1175,354 L 1174,354 L 1173,356 L 1172,358 L 1172,359 L 1173,361 L 1174,363 " />
<path d="M 875,299 L 880,296 L 882,295 L 885,294 L 889,292 L 892,290 L 896,288 L 901,286 L 903,285 L 907,283 L 909,282 L 916,278 L 923,274 L 926,273 L 929,271 L 930,270 L 932,269 L 933,269 L 934,270 L 935,271 L 936,272 L 935,273 L 935,274 L 934,274 L 932,274 L 931,274 L 930,274 L 929,274 L 929,275 L 929,277 L 930,277 L 930,278 L 931,278 L 931,279 L 931,280 L 931,281 L 931,282 L 931,283 L 931,284 L 932,284 L 933,284 L 935,285 L 936,285 L 937,285 L 938,286 L 938,287 L 939,287 L 939,288 L 938,288 L 936,289 L 935,290 L 934,292 L 933,293 L 931,294 L 930,294 L 925,291 L 919,290 L 917,290 L 916,290 L 916,291 L 915,291 L 915,292 L 915,293 L 915,294 L 914,295 L 912,296 L 911,297 L 910,297 L 909,298 L 908,298 L 908,297 L 908,296 L 907,295 L 907,294 L 906,293 L 903,293 L 901,292 L 898,291 L 896,291 L 895,292 L 894,293 L 893,295 L 893,296 L 893,298 L 893,299 L 892,300 L 891,301 L 890,301 L 888,302 L 887,302 L 887,303 L 887,304 L 888,304 L 889,305 L 890,305 L 890,306 L 890,307 L 889,308 L 888,308 L 886,309 L 884,310 L 884,311 L 883,311 L 881,310 L 881,309 L 879,308 L 877,308 L 876,307 L 876,306 L 875,305 L 875,304 L 874,304 L 873,304 L 870,305 L 868,306 L 865,306 L 864,306 L 864,305 L 863,305 L 864,304 L 865,304 L 866,303 L 867,303 L 870,302 L 872,300 L 875,299 " />
</g>
<g id="quebec-generalized_3" inkscape:label="Lanaudi">
<path d="M 755,767 L 762,770 L 764,771 L 765,772 L 767,773 L 769,774 L 770,774 L 772,775 L 775,777 L 776,777 L 777,778 L 778,779 L 778,780 L 777,781 L 778,783 L 778,786 L 779,788 L 779,790 L 781,791 L 782,791 L 783,792 L 784,792 L 784,791 L 785,791 L 785,790 L 786,790 L 787,790 L 788,790 L 789,791 L 794,795 L 795,796 L 796,796 L 796,797 L 796,798 L 797,800 L 797,801 L 798,801 L 799,801 L 801,799 L 802,798 L 803,797 L 804,797 L 805,798 L 806,799 L 807,802 L 807,805 L 808,807 L 809,810 L 810,811 L 811,811 L 812,811 L 813,810 L 814,810 L 814,811 L 815,812 L 816,813 L 816,815 L 817,816 L 818,817 L 819,817 L 820,818 L 822,819 L 823,820 L 823,822 L 823,823 L 824,825 L 825,826 L 829,828 L 830,828 L 831,829 L 831,830 L 831,831 L 830,832 L 829,834 L 829,836 L 830,839 L 830,840 L 829,843 L 829,847 L 826,852 L 826,856 L 825,857 L 824,858 L 823,859 L 820,861 L 817,862 L 813,863 L 812,863 L 812,862 L 813,862 L 813,861 L 814,861 L 815,861 L 815,860 L 814,859 L 813,858 L 812,858 L 804,852 L 801,849 L 800,849 L 800,848 L 800,847 L 801,846 L 800,846 L 800,845 L 799,845 L 798,845 L 797,845 L 797,844 L 796,843 L 796,842 L 795,841 L 793,841 L 793,840 L 791,839 L 790,840 L 789,841 L 788,842 L 787,842 L 786,842 L 785,841 L 783,841 L 783,840 L 782,840 L 782,839 L 781,839 L 781,838 L 782,837 L 782,836 L 782,835 L 781,835 L 780,834 L 779,834 L 777,833 L 776,832 L 776,831 L 777,829 L 778,828 L 778,827 L 779,827 L 778,826 L 778,825 L 777,825 L 776,824 L 775,824 L 773,823 L 772,822 L 771,820 L 771,818 L 769,811 L 770,810 L 769,809 L 769,808 L 768,808 L 767,808 L 766,807 L 765,805 L 764,804 L 764,802 L 765,801 L 766,800 L 766,798 L 766,797 L 765,795 L 764,794 L 763,793 L 762,793 L 761,793 L 760,793 L 759,793 L 758,793 L 757,792 L 757,791 L 756,790 L 757,789 L 758,787 L 759,785 L 758,783 L 759,781 L 760,780 L 760,779 L 759,778 L 758,778 L 757,778 L 756,779 L 750,775 L 747,773 L 744,772 L 742,772 L 742,771 L 741,771 L 741,770 L 741,769 L 742,768 L 743,769 L 743,768 L 747,767 L 749,766 L 751,766 L 752,766 L 754,766 L 755,767 " />
</g>
<g id="quebec-generalized_4" inkscape:label="Montrcal">
<path d="M 825,875 L 824,875 L 823,875 L 823,874 L 824,874 L 824,873 L 823,874 L 823,875 L 822,875 L 820,875 L 819,875 L 818,876 L 814,880 L 813,880 L 813,879 L 812,879 L 812,878 L 813,877 L 814,875 L 815,873 L 816,872 L 818,871 L 820,870 L 820,868 L 821,864 L 822,862 L 822,861 L 823,860 L 824,860 L 825,860 L 826,861 L 826,862 L 826,866 L 826,872 L 826,873 L 825,874 L 825,875 " />
</g>
<g id="quebec-generalized_5" inkscape:label="Mauricie">
<path d="M 706,710 L 715,708 L 719,706 L 725,704 L 729,705 L 732,704 L 735,704 L 737,705 L 739,707 L 745,710 L 748,711 L 751,713 L 755,714 L 758,716 L 764,719 L 768,721 L 772,723 L 775,724 L 776,725 L 781,727 L 784,728 L 795,733 L 797,734 L 798,735 L 799,735 L 801,735 L 805,733 L 809,732 L 811,731 L 812,731 L 814,730 L 818,729 L 819,728 L 823,727 L 825,726 L 827,725 L 829,725 L 831,725 L 834,727 L 836,729 L 839,731 L 840,731 L 841,733 L 841,734 L 841,735 L 840,738 L 838,741 L 836,745 L 835,746 L 835,748 L 835,749 L 835,750 L 836,750 L 837,751 L 838,752 L 839,753 L 840,755 L 840,756 L 839,757 L 839,760 L 839,761 L 839,763 L 838,763 L 837,763 L 836,763 L 835,764 L 834,763 L 833,763 L 832,762 L 832,761 L 831,761 L 830,761 L 829,762 L 828,762 L 828,764 L 829,766 L 829,767 L 830,769 L 830,770 L 831,771 L 831,772 L 832,772 L 833,772 L 834,772 L 835,772 L 836,772 L 837,772 L 838,773 L 838,774 L 837,774 L 837,775 L 837,776 L 838,776 L 838,777 L 841,778 L 843,779 L 846,780 L 847,781 L 848,781 L 849,782 L 849,783 L 849,784 L 848,784 L 847,785 L 846,786 L 844,788 L 843,788 L 844,789 L 845,790 L 846,790 L 852,793 L 853,793 L 855,794 L 855,795 L 856,796 L 855,798 L 854,799 L 854,800 L 854,801 L 854,802 L 854,803 L 854,804 L 854,805 L 853,805 L 853,806 L 852,806 L 848,811 L 847,814 L 845,816 L 843,818 L 840,820 L 838,821 L 837,822 L 836,824 L 835,825 L 834,827 L 833,828 L 833,829 L 832,829 L 831,829 L 830,829 L 829,828 L 825,826 L 824,825 L 823,823 L 823,822 L 823,820 L 822,819 L 820,818 L 819,817 L 818,817 L 817,816 L 816,815 L 816,813 L 815,812 L 814,811 L 814,810 L 813,810 L 812,811 L 811,811 L 810,811 L 809,810 L 808,807 L 807,805 L 807,802 L 806,799 L 805,798 L 804,797 L 803,797 L 802,798 L 801,799 L 799,801 L 798,801 L 797,801 L 797,800 L 796,798 L 796,797 L 796,796 L 795,796 L 794,795 L 789,791 L 788,790 L 787,790 L 786,790 L 785,790 L 785,791 L 784,791 L 784,792 L 783,792 L 782,791 L 781,791 L 779,790 L 779,788 L 778,786 L 778,783 L 777,781 L 778,780 L 778,779 L 777,778 L 776,777 L 775,777 L 772,775 L 770,774 L 769,774 L 767,773 L 765,772 L 764,771 L 762,770 L 760,769 L 756,767 L 755,767 L 754,766 L 752,766 L 751,766 L 749,766 L 747,767 L 743,768 L 743,769 L 740,770 L 736,771 L 722,775 L 718,776 L 717,776 L 717,774 L 716,772 L 714,766 L 713,762 L 712,759 L 711,758 L 711,755 L 708,749 L 707,745 L 705,737 L 705,736 L 703,733 L 702,730 L 700,722 L 698,717 L 698,715 L 699,713 L 700,712 L 702,711 L 705,711 L 706,710 " />
</g>
<g id="quebec-generalized_6" inkscape:label="Outaouais">
<path d="M 716,773 L 717,773 L 717,774 L 717,778 L 718,779 L 728,786 L 726,797 L 727,800 L 727,801 L 726,803 L 725,805 L 725,806 L 724,807 L 723,807 L 723,806 L 722,805 L 722,804 L 720,804 L 719,804 L 718,804 L 717,803 L 716,803 L 715,803 L 714,803 L 713,804 L 713,805 L 711,808 L 711,810 L 710,811 L 708,811 L 707,812 L 707,813 L 708,816 L 709,820 L 708,822 L 708,824 L 709,826 L 710,827 L 711,827 L 712,827 L 716,827 L 717,827 L 717,828 L 719,829 L 720,829 L 721,829 L 722,827 L 723,827 L 724,827 L 725,828 L 726,831 L 728,840 L 729,841 L 729,842 L 730,844 L 733,851 L 734,852 L 734,853 L 733,854 L 732,855 L 732,856 L 731,857 L 732,858 L 732,860 L 734,862 L 738,869 L 738,871 L 739,871 L 740,872 L 741,871 L 742,871 L 743,870 L 744,869 L 745,869 L 746,869 L 750,868 L 751,868 L 751,867 L 750,867 L 750,865 L 749,863 L 750,861 L 751,860 L 752,860 L 754,859 L 755,859 L 756,858 L 756,857 L 756,856 L 756,855 L 757,854 L 758,854 L 758,853 L 759,853 L 759,854 L 760,854 L 760,855 L 760,856 L 760,857 L 761,857 L 763,856 L 765,856 L 766,856 L 769,858 L 771,860 L 772,861 L 773,861 L 774,861 L 775,860 L 776,860 L 777,861 L 777,863 L 777,864 L 777,869 L 777,872 L 778,876 L 778,878 L 777,878 L 774,879 L 773,879 L 772,882 L 771,882 L 771,883 L 767,885 L 766,885 L 764,886 L 763,886 L 762,887 L 761,889 L 760,889 L 760,890 L 755,893 L 753,895 L 750,897 L 746,903 L 746,904 L 745,904 L 743,903 L 742,903 L 741,902 L 739,900 L 738,900 L 733,899 L 732,899 L 729,900 L 729,901 L 728,902 L 727,904 L 725,905 L 724,905 L 723,905 L 721,904 L 720,904 L 717,904 L 714,904 L 713,904 L 712,903 L 711,903 L 711,902 L 710,900 L 709,898 L 706,896 L 705,894 L 704,892 L 703,890 L 703,889 L 702,888 L 701,888 L 700,888 L 699,888 L 698,888 L 698,889 L 697,889 L 697,890 L 697,891 L 698,892 L 699,893 L 699,894 L 698,894 L 697,895 L 696,895 L 693,894 L 690,893 L 687,893 L 685,891 L 684,890 L 683,889 L 682,887 L 680,885 L 678,884 L 674,883 L 672,883 L 670,881 L 669,881 L 666,881 L 661,882 L 660,882 L 659,882 L 659,881 L 658,881 L 658,880 L 658,879 L 658,876 L 658,874 L 659,870 L 658,866 L 656,863 L 656,861 L 654,860 L 653,860 L 653,859 L 652,859 L 652,858 L 652,857 L 652,856 L 652,853 L 651,851 L 649,850 L 648,849 L 648,848 L 648,846 L 648,845 L 648,844 L 649,844 L 649,845 L 649,846 L 649,845 L 649,844 L 648,841 L 647,836 L 645,833 L 645,831 L 644,830 L 643,828 L 642,827 L 643,826 L 643,825 L 644,825 L 646,826 L 647,825 L 649,825 L 652,823 L 655,822 L 657,822 L 659,823 L 659,824 L 660,826 L 659,827 L 660,828 L 660,829 L 664,828 L 664,827 L 665,827 L 669,826 L 674,825 L 675,824 L 675,823 L 674,821 L 674,819 L 674,817 L 675,816 L 677,815 L 679,815 L 680,815 L 687,813 L 688,813 L 688,812 L 686,804 L 685,804 L 685,803 L 685,801 L 684,799 L 684,798 L 684,797 L 685,797 L 686,797 L 687,798 L 688,798 L 689,799 L 690,799 L 690,798 L 690,797 L 690,796 L 689,796 L 689,795 L 688,795 L 687,795 L 687,794 L 688,793 L 692,790 L 693,787 L 695,786 L 697,786 L 699,785 L 700,783 L 702,780 L 703,779 L 704,779 L 705,779 L 706,780 L 707,781 L 707,782 L 708,783 L 708,784 L 709,784 L 709,783 L 709,782 L 709,781 L 708,778 L 708,777 L 708,776 L 709,775 L 709,774 L 711,774 L 713,773 L 714,773 L 715,773 L 716,773 " />
</g>
<g id="quebec-generalized_7" inkscape:label="Mont">
<path d="M 798,879 L 802,880 L 805,879 L 806,879 L 808,879 L 809,880 L 810,880 L 811,881 L 812,882 L 813,883 L 813,884 L 813,885 L 812,886 L 808,887 L 806,890 L 804,893 L 804,894 L 803,895 L 802,895 L 799,894 L 796,891 L 796,888 L 795,884 L 795,883 L 795,882 L 795,879 L 795,878 L 795,877 L 796,877 L 798,879 " />
<path d="M 833,834 L 836,833 L 840,834 L 841,833 L 843,834 L 844,835 L 846,837 L 846,838 L 846,839 L 845,840 L 844,841 L 844,842 L 845,842 L 845,843 L 847,843 L 848,844 L 849,845 L 851,845 L 853,845 L 855,844 L 858,844 L 861,846 L 863,847 L 865,847 L 867,849 L 868,850 L 868,852 L 867,854 L 867,861 L 867,862 L 868,863 L 868,864 L 869,864 L 869,865 L 870,865 L 871,866 L 872,867 L 872,868 L 873,870 L 873,871 L 873,872 L 873,873 L 872,873 L 872,874 L 871,875 L 871,876 L 872,878 L 873,878 L 873,879 L 873,880 L 873,881 L 872,881 L 871,882 L 869,882 L 868,883 L 867,883 L 866,883 L 865,884 L 860,885 L 859,886 L 856,887 L 855,888 L 854,888 L 853,888 L 852,888 L 852,887 L 851,887 L 851,886 L 850,886 L 849,886 L 849,887 L 848,887 L 848,888 L 848,889 L 847,890 L 846,891 L 845,892 L 843,892 L 839,893 L 838,894 L 835,895 L 831,897 L 830,897 L 827,898 L 824,899 L 823,899 L 821,900 L 818,901 L 818,902 L 814,903 L 813,903 L 809,905 L 807,906 L 803,907 L 801,907 L 799,908 L 798,908 L 797,908 L 797,907 L 800,905 L 802,899 L 803,899 L 803,898 L 803,897 L 804,897 L 808,894 L 809,892 L 811,891 L 813,891 L 813,890 L 814,890 L 814,889 L 815,889 L 815,888 L 816,888 L 816,887 L 816,885 L 817,884 L 818,883 L 819,881 L 819,880 L 820,878 L 822,876 L 825,875 L 826,875 L 828,875 L 828,874 L 829,874 L 829,873 L 829,872 L 828,871 L 827,869 L 827,868 L 826,868 L 826,867 L 827,866 L 827,865 L 827,864 L 827,863 L 826,858 L 826,857 L 827,856 L 827,855 L 829,850 L 831,847 L 831,846 L 830,842 L 830,837 L 831,837 L 833,834 " />
</g>
<g id="quebec-generalized_8" inkscape:label="Bas-Saint-Laurent">
<path d="M 977,603 L 978,602 L 979,602 L 981,602 L 982,602 L 984,601 L 985,600 L 985,599 L 986,599 L 987,599 L 987,600 L 988,601 L 988,602 L 989,603 L 989,604 L 990,602 L 992,599 L 993,599 L 996,600 L 997,600 L 1000,601 L 1010,604 L 1013,606 L 1016,607 L 1019,608 L 1020,608 L 1020,609 L 1020,610 L 1019,611 L 1018,612 L 1016,614 L 1015,615 L 1013,617 L 1010,620 L 1008,622 L 1008,623 L 1002,628 L 1000,631 L 999,631 L 997,634 L 996,634 L 996,635 L 995,636 L 995,637 L 995,638 L 996,639 L 997,639 L 999,641 L 1000,641 L 1001,641 L 1001,642 L 1000,642 L 999,642 L 998,642 L 998,643 L 999,643 L 1000,643 L 1000,644 L 1000,645 L 999,645 L 997,647 L 996,649 L 994,651 L 991,654 L 990,655 L 988,653 L 987,651 L 986,650 L 984,650 L 983,650 L 981,651 L 979,653 L 978,654 L 977,655 L 976,656 L 976,657 L 977,658 L 978,658 L 979,659 L 980,659 L 980,660 L 980,661 L 980,662 L 979,662 L 977,663 L 975,664 L 970,666 L 965,668 L 964,669 L 964,670 L 964,671 L 965,672 L 964,673 L 964,674 L 963,675 L 961,675 L 958,677 L 957,677 L 957,678 L 958,680 L 959,684 L 960,684 L 962,689 L 963,692 L 964,695 L 964,698 L 963,700 L 961,704 L 959,707 L 957,709 L 955,711 L 950,716 L 949,717 L 948,717 L 947,717 L 947,716 L 947,715 L 946,714 L 945,712 L 944,711 L 942,711 L 940,712 L 939,712 L 938,713 L 938,714 L 936,721 L 935,727 L 934,734 L 933,737 L 922,733 L 921,733 L 918,732 L 915,732 L 913,731 L 912,730 L 912,728 L 911,726 L 911,723 L 911,722 L 912,721 L 912,720 L 913,719 L 916,713 L 916,712 L 917,706 L 919,704 L 919,698 L 919,695 L 919,691 L 920,688 L 923,685 L 926,677 L 927,673 L 930,666 L 935,660 L 937,657 L 940,653 L 941,649 L 942,647 L 944,645 L 947,639 L 949,638 L 954,633 L 955,629 L 965,617 L 968,614 L 971,611 L 975,607 L 977,603 " />
</g>
<g id="quebec-generalized_9" inkscape:label="Saguenay--Lac-Saint-Jean">
<path d="M 901,687 L 901,689 L 901,691 L 901,692 L 900,693 L 899,693 L 897,692 L 895,692 L 894,692 L 893,693 L 892,694 L 893,695 L 892,698 L 891,700 L 890,701 L 887,702 L 881,704 L 878,706 L 872,708 L 870,709 L 868,710 L 865,711 L 861,712 L 860,712 L 857,714 L 856,714 L 855,715 L 854,715 L 854,716 L 855,716 L 855,717 L 852,719 L 849,720 L 841,723 L 836,725 L 834,726 L 832,726 L 830,725 L 827,725 L 825,726 L 823,727 L 819,728 L 818,729 L 814,730 L 812,731 L 811,731 L 809,732 L 805,733 L 801,735 L 799,735 L 798,735 L 797,734 L 795,734 L 793,732 L 779,726 L 776,725 L 775,724 L 772,723 L 768,721 L 766,720 L 758,716 L 755,714 L 751,713 L 748,711 L 745,710 L 742,708 L 739,707 L 738,707 L 737,706 L 736,706 L 736,705 L 736,704 L 737,703 L 738,703 L 738,702 L 738,701 L 738,700 L 738,699 L 737,693 L 737,689 L 736,688 L 736,685 L 735,685 L 734,686 L 732,686 L 731,685 L 730,685 L 729,684 L 728,682 L 727,680 L 728,678 L 729,676 L 730,674 L 732,658 L 733,657 L 733,656 L 734,656 L 734,655 L 735,652 L 736,651 L 735,648 L 735,647 L 737,640 L 735,634 L 735,632 L 735,631 L 736,631 L 737,631 L 738,630 L 738,629 L 738,628 L 738,627 L 738,626 L 737,621 L 737,620 L 737,621 L 738,622 L 739,622 L 741,621 L 742,617 L 742,614 L 742,610 L 743,604 L 745,599 L 745,598 L 746,598 L 747,599 L 749,600 L 750,600 L 751,600 L 752,599 L 752,598 L 752,596 L 753,594 L 753,592 L 754,592 L 755,591 L 756,590 L 757,590 L 757,591 L 758,591 L 759,592 L 760,593 L 761,592 L 761,591 L 761,587 L 761,586 L 761,585 L 762,585 L 762,586 L 762,587 L 762,588 L 763,589 L 763,590 L 764,590 L 765,590 L 766,590 L 767,589 L 767,588 L 768,587 L 768,584 L 768,581 L 769,577 L 769,576 L 770,575 L 771,575 L 772,575 L 772,576 L 772,575 L 772,574 L 771,573 L 771,567 L 772,567 L 773,565 L 774,564 L 773,562 L 775,557 L 774,555 L 775,554 L 776,553 L 777,552 L 778,552 L 778,551 L 779,551 L 779,550 L 778,547 L 779,545 L 780,543 L 780,542 L 779,539 L 777,537 L 776,534 L 775,527 L 775,526 L 776,525 L 780,523 L 780,516 L 780,514 L 780,509 L 781,506 L 782,502 L 784,500 L 785,499 L 786,498 L 787,497 L 788,496 L 790,496 L 792,495 L 793,494 L 793,493 L 796,490 L 798,489 L 800,487 L 801,487 L 802,486 L 803,485 L 803,484 L 803,483 L 803,482 L 803,480 L 803,474 L 802,472 L 802,470 L 803,468 L 804,468 L 804,467 L 805,467 L 806,467 L 806,468 L 807,468 L 807,469 L 807,471 L 808,474 L 809,476 L 810,479 L 811,482 L 812,485 L 814,488 L 815,490 L 815,491 L 816,493 L 817,496 L 818,498 L 818,499 L 820,502 L 821,505 L 822,507 L 822,508 L 823,510 L 824,512 L 824,513 L 825,515 L 826,518 L 827,520 L 828,522 L 830,528 L 834,536 L 840,551 L 842,556 L 844,560 L 845,563 L 846,567 L 850,575 L 851,577 L 852,580 L 853,584 L 856,589 L 858,594 L 860,601 L 862,606 L 864,609 L 865,612 L 868,619 L 874,632 L 877,641 L 879,644 L 879,645 L 881,648 L 883,653 L 885,659 L 888,664 L 889,667 L 890,671 L 893,678 L 893,682 L 893,683 L 894,684 L 895,684 L 896,684 L 898,683 L 900,684 L 901,684 L 901,686 L 901,687 " />
</g>
<g id="quebec-generalized_10" inkscape:label="Abitibi-TQmiscamingue">
<path d="M 692,715 L 695,714 L 696,714 L 697,714 L 698,715 L 699,718 L 699,719 L 700,722 L 702,730 L 703,733 L 705,736 L 705,737 L 707,745 L 708,749 L 711,755 L 711,758 L 712,759 L 713,762 L 714,766 L 715,767 L 716,769 L 716,771 L 714,772 L 713,773 L 711,774 L 709,774 L 709,775 L 708,776 L 708,777 L 708,778 L 709,781 L 709,782 L 709,783 L 709,784 L 708,784 L 708,783 L 707,782 L 707,781 L 706,780 L 705,779 L 704,779 L 703,779 L 702,780 L 700,783 L 699,785 L 697,786 L 695,786 L 693,787 L 692,790 L 688,793 L 687,794 L 687,795 L 688,795 L 689,795 L 689,796 L 690,796 L 690,797 L 690,798 L 690,799 L 689,799 L 688,798 L 687,798 L 686,797 L 685,797 L 684,797 L 684,798 L 684,799 L 685,801 L 685,803 L 685,804 L 686,804 L 688,812 L 688,813 L 687,813 L 680,815 L 679,815 L 677,815 L 675,816 L 674,817 L 674,819 L 674,821 L 675,823 L 675,824 L 674,825 L 669,826 L 665,827 L 664,827 L 664,828 L 660,829 L 660,828 L 659,827 L 659,825 L 658,823 L 658,822 L 657,822 L 656,822 L 655,822 L 652,823 L 649,825 L 645,826 L 643,826 L 642,827 L 642,828 L 642,829 L 643,829 L 644,830 L 645,831 L 645,833 L 647,836 L 648,841 L 649,844 L 649,845 L 649,846 L 649,845 L 649,844 L 648,844 L 648,845 L 648,846 L 648,848 L 648,849 L 649,850 L 651,851 L 652,853 L 652,856 L 652,857 L 652,858 L 652,859 L 653,859 L 653,860 L 654,860 L 656,861 L 656,863 L 658,866 L 659,870 L 658,874 L 658,876 L 658,879 L 659,881 L 659,882 L 658,882 L 657,882 L 656,882 L 646,881 L 644,883 L 641,883 L 638,883 L 637,883 L 634,884 L 631,883 L 630,883 L 629,883 L 628,884 L 627,884 L 626,884 L 625,884 L 625,883 L 625,882 L 624,881 L 623,881 L 617,879 L 616,878 L 613,875 L 611,872 L 610,871 L 608,870 L 607,869 L 605,865 L 603,863 L 600,861 L 597,859 L 596,858 L 595,857 L 594,854 L 591,852 L 590,852 L 589,851 L 589,850 L 588,848 L 588,846 L 588,844 L 587,842 L 586,840 L 584,839 L 581,836 L 580,835 L 580,834 L 579,834 L 580,827 L 579,823 L 579,820 L 578,817 L 578,816 L 575,807 L 575,806 L 574,804 L 574,803 L 574,801 L 574,800 L 573,800 L 573,796 L 569,781 L 568,778 L 567,774 L 567,773 L 566,769 L 565,764 L 564,761 L 564,760 L 563,759 L 563,758 L 563,755 L 562,755 L 562,754 L 562,753 L 562,752 L 562,751 L 563,751 L 564,750 L 566,750 L 571,749 L 575,748 L 580,747 L 582,746 L 588,745 L 591,744 L 595,743 L 600,742 L 605,740 L 606,740 L 611,738 L 616,737 L 619,736 L 622,736 L 626,734 L 630,733 L 636,732 L 639,731 L 640,731 L 643,730 L 645,729 L 647,729 L 647,728 L 653,727 L 656,726 L 658,725 L 664,723 L 670,722 L 672,721 L 673,721 L 678,719 L 681,718 L 684,717 L 689,716 L 690,716 L 692,715 " />
</g>
<g id="quebec-generalized_11" inkscape:label="Capitale-Nationale">
<path d="M 901,689 L 902,687 L 904,685 L 905,685 L 906,685 L 907,686 L 908,687 L 908,689 L 908,691 L 909,694 L 909,697 L 908,701 L 909,705 L 907,710 L 904,715 L 903,717 L 903,719 L 904,721 L 904,723 L 904,724 L 903,726 L 899,729 L 897,733 L 896,737 L 896,738 L 896,741 L 895,747 L 895,748 L 895,750 L 895,751 L 893,754 L 889,758 L 885,769 L 883,775 L 883,776 L 876,780 L 869,786 L 867,787 L 866,787 L 864,787 L 863,788 L 862,789 L 862,790 L 861,792 L 860,794 L 859,795 L 858,795 L 857,795 L 856,795 L 854,794 L 852,793 L 846,790 L 845,790 L 844,789 L 843,788 L 844,788 L 846,786 L 847,785 L 848,784 L 849,783 L 849,782 L 848,781 L 846,780 L 843,779 L 841,778 L 838,777 L 838,776 L 837,776 L 837,775 L 837,774 L 838,774 L 838,773 L 838,772 L 837,772 L 836,772 L 835,772 L 834,772 L 833,772 L 832,772 L 831,771 L 830,770 L 830,769 L 829,767 L 829,766 L 828,764 L 828,762 L 829,762 L 830,761 L 831,761 L 832,761 L 832,762 L 833,763 L 834,763 L 835,764 L 836,763 L 837,763 L 838,763 L 839,763 L 839,761 L 839,760 L 839,757 L 840,756 L 840,755 L 839,753 L 838,752 L 837,751 L 836,750 L 835,749 L 835,748 L 835,747 L 836,745 L 837,743 L 841,734 L 842,733 L 841,733 L 841,732 L 840,731 L 839,731 L 836,729 L 835,728 L 834,728 L 834,727 L 833,726 L 834,726 L 834,725 L 835,725 L 836,725 L 841,723 L 849,720 L 852,719 L 855,717 L 855,716 L 854,716 L 854,715 L 855,715 L 856,714 L 857,714 L 860,712 L 861,712 L 865,711 L 868,710 L 870,709 L 872,708 L 878,706 L 881,704 L 887,702 L 889,701 L 891,700 L 892,699 L 892,698 L 893,697 L 893,696 L 892,695 L 893,693 L 894,692 L 895,692 L 897,692 L 899,693 L 900,693 L 901,693 L 901,692 L 901,691 L 901,689 " />
</g>
<g id="quebec-generalized_12" inkscape:label="Laurentides">
<path d="M 717,777 L 722,775 L 725,774 L 731,772 L 739,770 L 740,770 L 744,772 L 750,775 L 756,779 L 757,778 L 758,778 L 759,778 L 760,779 L 760,780 L 759,781 L 758,783 L 759,785 L 758,787 L 757,789 L 756,790 L 757,791 L 757,792 L 758,793 L 759,793 L 760,793 L 761,793 L 762,793 L 763,793 L 764,794 L 765,795 L 766,797 L 766,798 L 766,800 L 765,801 L 764,802 L 764,804 L 765,805 L 766,807 L 767,808 L 768,808 L 769,809 L 770,809 L 770,810 L 770,813 L 770,815 L 771,818 L 771,820 L 772,822 L 773,823 L 775,824 L 776,825 L 778,825 L 778,826 L 779,826 L 779,827 L 778,828 L 777,829 L 777,830 L 777,831 L 777,832 L 777,833 L 779,834 L 780,834 L 781,835 L 782,835 L 782,836 L 782,837 L 781,838 L 781,839 L 782,839 L 782,840 L 783,840 L 783,841 L 785,841 L 786,842 L 787,842 L 788,842 L 789,841 L 790,840 L 791,840 L 791,839 L 792,840 L 793,841 L 795,841 L 796,842 L 796,843 L 797,844 L 797,845 L 798,845 L 799,845 L 800,845 L 800,846 L 801,846 L 801,847 L 800,847 L 800,848 L 800,849 L 801,849 L 804,852 L 812,858 L 813,858 L 814,859 L 815,860 L 815,861 L 814,861 L 813,861 L 813,862 L 812,862 L 812,863 L 813,863 L 814,863 L 815,863 L 815,864 L 815,865 L 813,871 L 811,875 L 810,876 L 809,878 L 806,878 L 803,877 L 801,877 L 800,877 L 798,878 L 797,878 L 796,877 L 795,877 L 788,877 L 786,876 L 783,876 L 781,877 L 781,878 L 780,877 L 778,877 L 777,875 L 777,874 L 777,872 L 777,869 L 777,864 L 777,863 L 777,861 L 776,860 L 775,860 L 774,861 L 773,861 L 772,861 L 771,860 L 769,858 L 766,856 L 765,856 L 763,856 L 761,857 L 760,857 L 760,856 L 759,855 L 759,853 L 759,852 L 758,852 L 757,853 L 757,854 L 756,856 L 757,857 L 757,858 L 756,858 L 755,859 L 754,859 L 752,860 L 751,860 L 750,861 L 749,863 L 750,865 L 750,867 L 751,867 L 751,868 L 750,868 L 746,869 L 744,869 L 743,870 L 742,870 L 742,871 L 741,871 L 741,872 L 740,872 L 739,871 L 738,870 L 735,864 L 732,859 L 732,858 L 731,857 L 732,856 L 732,855 L 733,854 L 734,854 L 734,853 L 734,852 L 733,851 L 730,844 L 729,842 L 729,841 L 728,840 L 726,831 L 725,828 L 724,827 L 723,827 L 722,827 L 721,829 L 720,829 L 719,829 L 717,828 L 717,827 L 716,827 L 712,827 L 711,827 L 710,827 L 709,826 L 708,824 L 708,822 L 709,820 L 708,816 L 707,813 L 707,812 L 708,811 L 710,811 L 711,810 L 711,808 L 713,805 L 713,804 L 714,803 L 715,803 L 716,803 L 717,803 L 718,804 L 719,804 L 720,804 L 722,804 L 722,805 L 723,806 L 723,807 L 724,807 L 725,806 L 725,805 L 726,803 L 727,801 L 727,800 L 726,797 L 728,786 L 718,779 L 717,778 L 717,777 " />
</g>
<g id="quebec-generalized_13" inkscape:label="Chaudi_re-Appalaches">
<path d="M 909,732 L 911,731 L 912,731 L 913,731 L 915,732 L 918,732 L 921,733 L 922,733 L 933,737 L 932,744 L 930,751 L 929,755 L 928,761 L 928,762 L 929,765 L 930,768 L 931,772 L 931,775 L 930,779 L 929,782 L 928,785 L 928,788 L 928,789 L 929,790 L 929,791 L 930,792 L 931,793 L 931,794 L 931,796 L 931,798 L 931,799 L 931,800 L 932,801 L 933,802 L 934,802 L 935,803 L 935,804 L 936,805 L 935,806 L 935,807 L 933,809 L 933,810 L 932,811 L 932,812 L 931,812 L 931,813 L 930,812 L 928,813 L 927,813 L 926,815 L 922,817 L 920,819 L 917,819 L 916,819 L 915,818 L 913,815 L 912,814 L 910,814 L 909,814 L 908,814 L 906,814 L 905,814 L 904,815 L 904,817 L 904,818 L 905,819 L 905,820 L 905,821 L 904,822 L 902,822 L 901,822 L 900,822 L 899,822 L 898,822 L 898,823 L 899,824 L 899,825 L 899,826 L 899,827 L 898,827 L 897,827 L 896,827 L 895,826 L 894,825 L 894,824 L 894,823 L 893,823 L 892,823 L 887,822 L 886,822 L 885,822 L 885,821 L 884,820 L 884,819 L 885,816 L 886,813 L 886,810 L 886,807 L 888,804 L 889,803 L 888,802 L 888,801 L 887,801 L 886,801 L 884,801 L 883,800 L 883,799 L 883,798 L 883,797 L 882,797 L 882,796 L 880,796 L 878,796 L 876,797 L 875,798 L 875,800 L 874,801 L 873,802 L 872,802 L 871,802 L 871,801 L 870,800 L 864,798 L 863,798 L 862,797 L 861,796 L 861,795 L 862,794 L 862,791 L 864,789 L 864,788 L 865,788 L 866,789 L 868,789 L 870,788 L 871,788 L 872,787 L 876,782 L 877,782 L 880,779 L 884,775 L 885,774 L 885,773 L 885,772 L 885,771 L 886,771 L 886,770 L 887,770 L 889,769 L 891,768 L 892,765 L 897,761 L 899,759 L 901,756 L 903,754 L 904,753 L 904,752 L 905,748 L 908,742 L 908,738 L 909,734 L 909,732 " />
</g>
<g id="quebec-generalized_14" inkscape:label="Nord-du-Qu-bec">
<path d="M 436,45 L 446,44 L 453,43 L 455,43 L 458,45 L 461,45 L 465,45 L 472,46 L 482,46 L 484,46 L 486,46 L 487,46 L 488,45 L 488,44 L 489,43 L 491,43 L 492,43 L 493,43 L 495,43 L 496,43 L 496,44 L 496,45 L 497,45 L 497,44 L 497,43 L 498,42 L 499,42 L 500,42 L 505,45 L 509,47 L 510,47 L 511,47 L 512,47 L 511,46 L 509,46 L 508,46 L 507,45 L 506,44 L 506,43 L 506,42 L 507,41 L 508,40 L 510,39 L 512,39 L 513,39 L 514,37 L 515,35 L 516,33 L 518,32 L 520,29 L 521,26 L 522,24 L 525,22 L 526,22 L 529,25 L 531,25 L 532,25 L 534,25 L 537,26 L 544,31 L 548,31 L 549,32 L 549,33 L 550,33 L 551,33 L 551,32 L 552,32 L 552,31 L 553,31 L 554,30 L 555,31 L 556,31 L 557,34 L 559,36 L 559,37 L 559,38 L 558,39 L 558,40 L 559,40 L 559,39 L 560,39 L 562,39 L 564,40 L 565,40 L 569,39 L 570,39 L 571,40 L 571,41 L 571,42 L 571,43 L 572,44 L 573,44 L 575,44 L 577,45 L 578,45 L 580,45 L 581,45 L 587,45 L 589,46 L 590,46 L 590,47 L 591,47 L 591,48 L 590,48 L 589,49 L 588,49 L 588,50 L 587,50 L 587,52 L 587,53 L 588,55 L 587,56 L 586,57 L 587,58 L 588,58 L 589,58 L 590,57 L 591,57 L 592,57 L 592,58 L 592,59 L 591,59 L 589,60 L 588,60 L 587,60 L 586,60 L 587,60 L 588,60 L 590,60 L 591,61 L 592,61 L 592,62 L 592,63 L 592,64 L 593,64 L 594,64 L 595,64 L 596,64 L 596,65 L 597,66 L 597,67 L 598,68 L 599,68 L 599,67 L 599,66 L 599,65 L 599,64 L 600,64 L 604,67 L 606,67 L 608,67 L 610,65 L 611,65 L 613,65 L 614,66 L 615,66 L 616,66 L 617,66 L 618,66 L 619,67 L 619,66 L 619,65 L 618,65 L 619,65 L 620,65 L 622,65 L 623,66 L 624,66 L 624,65 L 625,65 L 625,64 L 625,63 L 626,64 L 627,64 L 628,63 L 628,62 L 628,61 L 629,60 L 631,59 L 632,59 L 633,59 L 634,59 L 634,60 L 634,61 L 634,62 L 635,63 L 636,64 L 637,65 L 637,67 L 638,68 L 639,68 L 641,69 L 642,70 L 643,70 L 644,70 L 644,69 L 645,68 L 644,68 L 644,67 L 644,66 L 644,65 L 645,65 L 646,64 L 647,64 L 648,64 L 649,64 L 649,63 L 646,60 L 645,58 L 645,56 L 645,55 L 646,54 L 646,53 L 647,53 L 648,53 L 650,56 L 654,60 L 655,62 L 656,63 L 656,65 L 655,67 L 654,68 L 653,71 L 652,71 L 652,72 L 652,73 L 652,74 L 653,75 L 654,77 L 654,79 L 654,81 L 653,83 L 654,85 L 654,86 L 655,87 L 656,88 L 657,89 L 658,90 L 658,91 L 659,93 L 660,94 L 661,94 L 662,94 L 663,95 L 664,96 L 664,98 L 664,99 L 665,100 L 665,102 L 665,103 L 664,103 L 663,104 L 662,104 L 661,105 L 661,106 L 662,107 L 663,107 L 664,108 L 665,108 L 666,110 L 666,111 L 667,112 L 668,112 L 669,112 L 670,111 L 671,112 L 671,113 L 672,114 L 672,115 L 672,116 L 673,117 L 673,118 L 673,119 L 673,120 L 673,121 L 674,121 L 675,120 L 676,120 L 677,121 L 677,122 L 677,123 L 677,124 L 676,125 L 675,127 L 674,128 L 674,130 L 675,131 L 676,132 L 678,133 L 679,134 L 679,135 L 679,136 L 679,137 L 678,138 L 678,139 L 677,140 L 678,140 L 679,140 L 680,140 L 681,139 L 682,138 L 683,137 L 683,136 L 684,135 L 685,135 L 687,135 L 690,135 L 690,136 L 691,137 L 692,138 L 691,139 L 691,140 L 690,141 L 689,141 L 688,141 L 687,142 L 686,143 L 686,144 L 686,145 L 687,146 L 688,146 L 688,147 L 690,146 L 691,146 L 692,146 L 692,147 L 692,148 L 691,149 L 691,150 L 690,150 L 690,149 L 689,149 L 689,150 L 690,150 L 691,152 L 691,153 L 693,155 L 693,156 L 693,157 L 693,158 L 693,160 L 693,161 L 693,162 L 692,163 L 692,164 L 691,164 L 690,164 L 689,163 L 689,162 L 688,160 L 687,157 L 686,156 L 686,155 L 685,156 L 686,156 L 686,157 L 685,157 L 685,156 L 684,155 L 684,156 L 685,157 L 684,157 L 683,156 L 682,155 L 681,154 L 680,154 L 680,155 L 681,155 L 687,164 L 686,164 L 685,164 L 685,163 L 684,163 L 684,164 L 683,164 L 684,164 L 684,165 L 683,165 L 683,166 L 682,167 L 681,167 L 681,168 L 680,168 L 680,169 L 681,170 L 682,170 L 682,171 L 683,170 L 684,169 L 684,168 L 685,168 L 685,169 L 685,170 L 686,171 L 686,172 L 687,171 L 687,170 L 688,170 L 689,171 L 689,172 L 689,173 L 688,173 L 689,174 L 689,175 L 690,175 L 690,176 L 691,175 L 691,174 L 691,173 L 691,170 L 692,170 L 692,169 L 693,170 L 693,169 L 693,168 L 692,167 L 692,165 L 693,164 L 695,163 L 695,162 L 696,161 L 696,160 L 696,159 L 696,158 L 698,156 L 700,155 L 701,153 L 704,153 L 707,152 L 710,150 L 713,148 L 714,148 L 718,148 L 722,151 L 724,154 L 725,155 L 726,156 L 727,158 L 728,159 L 729,159 L 729,160 L 730,161 L 730,162 L 730,163 L 730,164 L 730,165 L 730,164 L 730,163 L 731,162 L 731,161 L 732,161 L 733,161 L 734,161 L 735,160 L 736,160 L 736,159 L 736,158 L 737,158 L 737,157 L 738,157 L 739,158 L 741,159 L 743,160 L 745,159 L 746,160 L 747,161 L 748,162 L 748,164 L 748,165 L 749,167 L 750,167 L 751,168 L 753,168 L 757,165 L 761,159 L 763,157 L 763,154 L 764,152 L 764,150 L 765,149 L 766,149 L 767,149 L 767,150 L 768,150 L 768,149 L 768,148 L 768,147 L 769,146 L 770,145 L 771,145 L 771,146 L 772,147 L 773,147 L 773,146 L 773,145 L 772,145 L 771,143 L 771,142 L 770,140 L 771,130 L 770,129 L 770,128 L 770,127 L 770,126 L 771,125 L 772,125 L 774,126 L 776,126 L 779,128 L 780,128 L 781,129 L 782,129 L 782,128 L 782,127 L 781,127 L 780,125 L 779,124 L 779,123 L 779,122 L 780,121 L 781,120 L 783,119 L 786,119 L 798,122 L 808,121 L 813,119 L 815,117 L 817,116 L 820,115 L 827,111 L 828,109 L 828,108 L 829,107 L 828,103 L 829,102 L 828,102 L 828,103 L 829,107 L 828,109 L 827,110 L 826,112 L 823,113 L 820,114 L 816,117 L 811,120 L 807,121 L 799,122 L 792,120 L 789,119 L 786,118 L 784,119 L 781,118 L 780,117 L 780,116 L 780,115 L 781,114 L 781,113 L 781,112 L 782,112 L 783,112 L 784,112 L 785,112 L 786,112 L 786,111 L 785,111 L 782,111 L 782,110 L 781,110 L 782,110 L 783,109 L 783,108 L 782,109 L 781,109 L 781,108 L 782,108 L 783,107 L 783,106 L 783,105 L 783,104 L 782,103 L 781,103 L 779,103 L 779,102 L 778,100 L 777,99 L 777,98 L 778,98 L 778,97 L 779,97 L 780,98 L 782,100 L 783,101 L 783,100 L 782,100 L 782,99 L 781,98 L 781,97 L 780,97 L 780,96 L 781,97 L 782,98 L 783,99 L 784,100 L 785,100 L 784,99 L 783,98 L 779,92 L 778,91 L 778,90 L 779,90 L 780,90 L 784,92 L 786,94 L 787,94 L 787,93 L 786,93 L 785,92 L 783,91 L 782,90 L 781,88 L 781,87 L 780,87 L 779,87 L 778,86 L 778,85 L 778,84 L 779,84 L 780,83 L 779,83 L 779,82 L 777,80 L 775,78 L 773,76 L 774,76 L 774,77 L 775,77 L 771,75 L 771,74 L 771,72 L 771,71 L 773,68 L 774,65 L 774,64 L 775,62 L 774,62 L 774,61 L 773,61 L 773,60 L 774,60 L 775,59 L 776,59 L 777,59 L 778,59 L 778,60 L 778,59 L 775,58 L 775,57 L 776,57 L 775,56 L 774,56 L 773,55 L 772,54 L 773,54 L 773,53 L 774,53 L 774,52 L 773,51 L 773,50 L 773,49 L 774,50 L 775,50 L 774,49 L 773,48 L 773,47 L 774,47 L 774,48 L 775,48 L 774,47 L 773,44 L 772,43 L 772,42 L 772,41 L 773,40 L 773,39 L 773,38 L 772,37 L 771,36 L 775,36 L 777,36 L 778,36 L 777,36 L 776,35 L 775,35 L 777,35 L 778,34 L 779,34 L 779,35 L 779,36 L 777,37 L 776,38 L 775,39 L 774,41 L 774,42 L 775,42 L 776,43 L 777,43 L 779,43 L 780,43 L 781,43 L 782,42 L 782,43 L 782,44 L 782,45 L 782,48 L 780,50 L 779,51 L 778,52 L 779,53 L 779,54 L 780,54 L 781,54 L 784,53 L 785,53 L 786,54 L 787,54 L 787,55 L 786,57 L 786,58 L 785,59 L 785,61 L 787,63 L 788,65 L 788,66 L 789,67 L 788,68 L 788,69 L 787,71 L 788,72 L 789,73 L 790,74 L 792,74 L 793,75 L 794,76 L 796,76 L 797,76 L 798,76 L 799,75 L 799,74 L 799,73 L 800,71 L 801,70 L 802,69 L 803,69 L 804,69 L 804,70 L 804,71 L 803,73 L 802,76 L 803,78 L 804,82 L 807,85 L 807,87 L 808,88 L 810,89 L 812,90 L 814,90 L 816,91 L 817,91 L 817,92 L 817,93 L 816,93 L 815,94 L 813,95 L 811,95 L 810,95 L 807,95 L 805,95 L 804,96 L 804,97 L 804,98 L 804,100 L 805,102 L 806,102 L 807,102 L 808,102 L 808,101 L 809,100 L 810,100 L 811,100 L 812,101 L 813,101 L 814,100 L 816,99 L 818,98 L 820,98 L 822,98 L 822,99 L 823,100 L 824,101 L 825,102 L 826,102 L 827,102 L 828,101 L 828,100 L 828,99 L 828,98 L 829,97 L 831,95 L 832,94 L 832,93 L 833,92 L 834,91 L 836,91 L 838,90 L 839,91 L 841,92 L 842,92 L 842,93 L 842,94 L 842,95 L 841,96 L 840,97 L 834,102 L 832,103 L 831,104 L 831,106 L 831,107 L 831,108 L 832,109 L 832,110 L 833,111 L 834,111 L 835,111 L 836,111 L 836,110 L 836,109 L 837,108 L 838,107 L 839,108 L 840,109 L 841,111 L 841,112 L 841,113 L 840,114 L 839,114 L 839,115 L 838,115 L 838,116 L 839,117 L 839,118 L 838,119 L 837,120 L 836,120 L 836,121 L 836,122 L 836,124 L 837,125 L 837,126 L 837,127 L 837,128 L 836,129 L 835,130 L 834,131 L 834,132 L 834,133 L 835,135 L 835,136 L 836,137 L 837,137 L 839,137 L 841,136 L 843,137 L 844,139 L 851,145 L 851,146 L 852,146 L 853,146 L 853,145 L 854,144 L 855,144 L 856,144 L 857,145 L 858,146 L 860,147 L 861,147 L 862,147 L 863,146 L 864,145 L 864,143 L 865,142 L 865,143 L 866,143 L 867,144 L 867,145 L 867,146 L 867,148 L 866,150 L 866,152 L 866,154 L 868,157 L 870,158 L 871,159 L 871,161 L 871,162 L 870,163 L 870,164 L 869,165 L 869,166 L 870,167 L 870,168 L 870,169 L 871,169 L 872,169 L 872,168 L 872,167 L 873,167 L 874,167 L 874,168 L 876,174 L 875,178 L 876,180 L 877,182 L 878,184 L 879,184 L 879,185 L 879,186 L 878,187 L 877,187 L 877,188 L 877,189 L 877,190 L 878,190 L 878,191 L 878,192 L 877,194 L 877,195 L 878,197 L 879,198 L 880,199 L 883,201 L 884,201 L 886,202 L 887,203 L 888,204 L 889,205 L 889,206 L 890,206 L 890,207 L 889,208 L 888,209 L 888,208 L 887,208 L 886,208 L 885,209 L 885,210 L 885,211 L 885,212 L 886,212 L 887,214 L 888,216 L 889,216 L 890,216 L 891,216 L 892,216 L 892,215 L 893,215 L 894,215 L 895,216 L 896,216 L 896,217 L 894,219 L 894,220 L 894,222 L 895,224 L 896,225 L 896,224 L 897,224 L 897,223 L 897,222 L 897,221 L 898,221 L 899,221 L 900,221 L 901,222 L 901,223 L 902,223 L 903,222 L 904,221 L 905,221 L 906,221 L 908,221 L 909,220 L 910,220 L 910,219 L 911,219 L 911,220 L 911,221 L 910,222 L 909,224 L 907,226 L 905,228 L 905,229 L 905,230 L 905,231 L 906,231 L 906,232 L 907,232 L 908,232 L 909,233 L 909,234 L 910,234 L 911,235 L 912,235 L 913,236 L 913,237 L 913,239 L 913,240 L 914,240 L 915,240 L 916,240 L 916,241 L 917,242 L 917,243 L 917,244 L 918,244 L 918,245 L 918,246 L 918,247 L 917,248 L 917,249 L 918,250 L 919,250 L 920,250 L 924,249 L 925,247 L 927,247 L 929,247 L 930,247 L 930,248 L 931,248 L 931,249 L 930,249 L 927,251 L 925,256 L 925,257 L 925,258 L 928,258 L 929,257 L 930,256 L 931,255 L 932,255 L 933,256 L 932,257 L 931,258 L 930,260 L 930,262 L 931,263 L 932,264 L 933,267 L 933,268 L 932,269 L 931,270 L 929,271 L 926,273 L 923,274 L 916,278 L 909,282 L 907,283 L 903,285 L 896,288 L 892,290 L 889,292 L 885,294 L 882,295 L 880,296 L 875,299 L 872,300 L 870,302 L 867,303 L 866,303 L 865,304 L 863,305 L 862,305 L 861,305 L 859,304 L 858,303 L 849,299 L 842,296 L 840,296 L 839,295 L 839,296 L 839,297 L 839,298 L 840,298 L 840,299 L 841,299 L 842,300 L 843,300 L 844,301 L 845,302 L 844,304 L 844,305 L 845,306 L 846,307 L 847,309 L 849,310 L 850,310 L 851,311 L 852,311 L 851,311 L 850,312 L 848,312 L 847,312 L 845,313 L 842,315 L 841,315 L 838,317 L 837,317 L 836,318 L 835,318 L 834,317 L 833,316 L 833,315 L 832,315 L 831,315 L 829,316 L 828,316 L 828,317 L 828,318 L 828,319 L 829,319 L 829,320 L 829,321 L 828,321 L 828,322 L 824,323 L 821,325 L 817,327 L 814,328 L 810,330 L 807,331 L 806,331 L 800,334 L 796,336 L 795,336 L 793,337 L 786,340 L 779,343 L 777,344 L 772,346 L 766,349 L 765,349 L 764,350 L 760,351 L 759,351 L 759,352 L 759,353 L 759,355 L 760,356 L 763,364 L 764,365 L 766,371 L 768,376 L 775,392 L 782,409 L 783,412 L 784,415 L 789,427 L 791,431 L 792,434 L 795,440 L 796,442 L 800,451 L 800,452 L 800,455 L 802,459 L 803,462 L 804,464 L 804,466 L 804,468 L 803,469 L 802,471 L 802,473 L 803,474 L 803,480 L 803,482 L 803,483 L 803,484 L 803,485 L 802,486 L 801,487 L 800,487 L 798,489 L 796,490 L 793,493 L 792,495 L 791,496 L 790,496 L 788,496 L 787,497 L 786,498 L 785,499 L 784,500 L 782,502 L 781,506 L 780,509 L 780,514 L 780,516 L 780,523 L 776,525 L 775,526 L 775,527 L 776,534 L 777,537 L 779,539 L 780,542 L 780,543 L 779,545 L 778,547 L 779,550 L 779,551 L 778,551 L 778,552 L 777,552 L 776,553 L 775,554 L 774,555 L 775,557 L 773,562 L 774,564 L 773,565 L 772,567 L 771,567 L 771,573 L 772,574 L 772,575 L 772,576 L 772,575 L 771,575 L 770,575 L 769,576 L 769,577 L 768,581 L 768,584 L 768,587 L 767,588 L 767,589 L 766,590 L 765,590 L 764,590 L 763,590 L 763,589 L 762,588 L 762,587 L 762,586 L 762,585 L 761,585 L 761,586 L 761,587 L 761,591 L 761,592 L 761,593 L 760,593 L 759,593 L 759,592 L 758,591 L 757,591 L 757,590 L 756,590 L 755,591 L 754,592 L 753,592 L 753,594 L 752,596 L 752,598 L 752,599 L 751,600 L 750,600 L 749,600 L 747,599 L 746,598 L 745,598 L 745,599 L 743,604 L 742,610 L 742,614 L 742,617 L 741,621 L 739,622 L 738,622 L 737,621 L 737,620 L 737,621 L 738,626 L 738,627 L 738,628 L 738,629 L 738,630 L 737,631 L 736,631 L 735,631 L 735,632 L 735,634 L 737,640 L 735,647 L 735,648 L 736,651 L 735,652 L 734,655 L 734,656 L 733,656 L 733,657 L 732,658 L 730,674 L 729,676 L 728,678 L 727,680 L 728,682 L 729,684 L 730,685 L 731,685 L 732,686 L 734,686 L 735,685 L 736,685 L 736,688 L 737,689 L 737,693 L 738,699 L 738,701 L 738,702 L 738,703 L 737,704 L 736,704 L 734,704 L 733,703 L 732,703 L 731,703 L 729,705 L 727,705 L 724,705 L 722,705 L 719,706 L 715,708 L 706,710 L 705,711 L 698,713 L 697,713 L 696,714 L 690,716 L 689,716 L 684,717 L 681,718 L 678,719 L 673,721 L 672,721 L 670,722 L 664,723 L 658,725 L 656,726 L 653,727 L 647,728 L 647,729 L 645,729 L 643,730 L 640,731 L 639,731 L 636,732 L 630,733 L 626,734 L 622,736 L 619,736 L 616,737 L 611,738 L 606,740 L 605,740 L 600,742 L 595,743 L 591,744 L 588,745 L 582,746 L 580,747 L 575,748 L 571,749 L 566,750 L 565,750 L 564,751 L 563,750 L 561,749 L 561,748 L 559,745 L 559,741 L 557,732 L 556,729 L 556,728 L 555,725 L 554,721 L 553,719 L 551,709 L 550,704 L 549,701 L 547,695 L 547,694 L 545,687 L 544,680 L 541,669 L 538,656 L 537,654 L 536,650 L 536,648 L 535,644 L 533,638 L 533,635 L 532,634 L 531,627 L 530,622 L 529,621 L 529,620 L 529,619 L 529,618 L 530,617 L 531,616 L 532,614 L 532,613 L 533,612 L 534,612 L 535,612 L 536,613 L 537,613 L 537,614 L 537,616 L 537,617 L 538,618 L 540,618 L 541,618 L 542,618 L 543,618 L 544,618 L 547,619 L 549,623 L 549,624 L 550,626 L 551,626 L 552,625 L 552,623 L 552,621 L 552,619 L 553,619 L 553,618 L 553,617 L 552,614 L 550,612 L 550,611 L 549,610 L 548,610 L 547,609 L 545,608 L 543,606 L 542,605 L 542,604 L 542,603 L 543,603 L 544,602 L 545,602 L 546,601 L 546,600 L 547,599 L 547,598 L 546,598 L 546,597 L 545,597 L 545,596 L 544,595 L 545,595 L 545,594 L 548,591 L 549,591 L 549,588 L 550,585 L 551,583 L 552,581 L 552,579 L 552,578 L 551,578 L 550,575 L 550,572 L 550,569 L 548,563 L 547,562 L 546,562 L 545,562 L 544,563 L 543,562 L 542,562 L 542,561 L 541,560 L 541,559 L 541,558 L 540,557 L 539,557 L 538,557 L 538,556 L 539,556 L 539,555 L 538,554 L 537,554 L 535,553 L 535,552 L 535,551 L 536,550 L 537,550 L 538,549 L 538,548 L 537,547 L 535,546 L 534,546 L 533,546 L 532,546 L 531,545 L 531,544 L 531,543 L 532,542 L 533,542 L 533,541 L 532,541 L 532,540 L 531,540 L 530,540 L 528,540 L 527,540 L 526,528 L 521,518 L 520,518 L 519,518 L 518,518 L 517,517 L 516,516 L 516,515 L 517,514 L 518,513 L 522,512 L 522,511 L 521,511 L 521,510 L 519,510 L 518,509 L 516,507 L 515,505 L 515,502 L 514,500 L 513,498 L 512,497 L 513,496 L 514,495 L 515,495 L 516,495 L 515,495 L 514,495 L 513,495 L 513,494 L 513,493 L 513,492 L 512,492 L 511,491 L 512,490 L 513,490 L 513,489 L 513,488 L 511,488 L 510,488 L 509,487 L 508,487 L 508,486 L 508,485 L 509,485 L 510,484 L 510,483 L 509,483 L 509,482 L 508,482 L 507,483 L 505,483 L 504,483 L 503,483 L 502,482 L 502,481 L 501,480 L 500,479 L 498,478 L 496,478 L 496,477 L 495,477 L 495,476 L 496,476 L 497,476 L 498,476 L 499,475 L 499,474 L 498,474 L 498,475 L 497,475 L 496,476 L 495,475 L 494,475 L 494,474 L 493,471 L 492,468 L 490,465 L 489,464 L 489,463 L 488,463 L 488,462 L 487,462 L 486,462 L 485,462 L 484,461 L 484,460 L 484,459 L 485,458 L 486,457 L 497,450 L 500,449 L 502,446 L 504,444 L 504,443 L 510,439 L 516,434 L 516,433 L 519,431 L 520,430 L 521,427 L 523,425 L 526,421 L 532,415 L 533,411 L 537,405 L 539,401 L 541,399 L 544,392 L 545,389 L 545,387 L 546,387 L 546,386 L 545,386 L 544,389 L 543,390 L 544,387 L 545,384 L 547,381 L 547,378 L 548,377 L 549,373 L 549,371 L 550,369 L 551,368 L 552,363 L 551,357 L 551,356 L 552,354 L 552,353 L 552,352 L 551,347 L 548,340 L 547,336 L 546,332 L 545,327 L 542,320 L 540,316 L 540,314 L 538,309 L 536,305 L 535,303 L 533,301 L 531,297 L 528,295 L 527,293 L 524,290 L 524,289 L 524,288 L 525,287 L 524,287 L 523,287 L 523,286 L 522,285 L 521,283 L 514,277 L 511,274 L 507,271 L 500,267 L 498,265 L 493,263 L 483,260 L 482,260 L 480,258 L 478,257 L 476,256 L 475,254 L 474,254 L 474,253 L 473,254 L 472,254 L 471,253 L 470,252 L 469,251 L 469,250 L 468,250 L 467,250 L 467,251 L 468,252 L 469,253 L 470,253 L 470,254 L 469,254 L 468,254 L 467,253 L 465,251 L 464,248 L 464,246 L 462,242 L 461,239 L 460,238 L 460,236 L 460,235 L 461,235 L 462,235 L 462,236 L 462,237 L 463,237 L 463,236 L 464,235 L 465,235 L 466,234 L 466,233 L 466,230 L 466,228 L 466,226 L 468,225 L 468,223 L 468,222 L 468,220 L 468,219 L 469,218 L 469,217 L 470,217 L 471,217 L 473,219 L 473,218 L 471,217 L 471,216 L 471,215 L 471,214 L 472,214 L 473,214 L 473,213 L 473,212 L 473,211 L 474,209 L 476,208 L 476,207 L 476,206 L 475,206 L 474,205 L 473,205 L 473,206 L 472,206 L 471,207 L 470,207 L 470,206 L 470,205 L 471,204 L 470,203 L 470,201 L 471,200 L 472,199 L 472,198 L 472,197 L 471,196 L 470,196 L 470,195 L 470,194 L 470,192 L 471,191 L 472,191 L 473,190 L 474,190 L 476,190 L 477,189 L 476,189 L 475,189 L 475,188 L 475,187 L 477,185 L 478,184 L 479,184 L 480,184 L 480,183 L 481,183 L 480,182 L 479,182 L 478,181 L 478,180 L 477,179 L 476,178 L 476,177 L 476,176 L 477,175 L 478,173 L 478,172 L 478,171 L 477,171 L 476,171 L 475,171 L 474,171 L 472,172 L 471,172 L 470,172 L 469,172 L 469,171 L 468,171 L 468,170 L 468,169 L 469,169 L 470,169 L 470,168 L 471,168 L 471,167 L 470,167 L 470,166 L 469,166 L 469,165 L 469,164 L 468,162 L 467,160 L 465,158 L 463,157 L 462,157 L 461,156 L 460,155 L 460,153 L 461,152 L 464,148 L 464,147 L 465,147 L 465,146 L 464,146 L 463,146 L 462,147 L 461,147 L 459,147 L 458,147 L 456,146 L 456,145 L 455,144 L 455,143 L 456,142 L 457,140 L 458,138 L 459,136 L 458,136 L 458,137 L 457,137 L 457,136 L 458,136 L 457,136 L 456,137 L 455,137 L 456,137 L 457,136 L 459,134 L 460,133 L 460,132 L 457,134 L 454,137 L 450,138 L 448,138 L 446,138 L 445,139 L 444,139 L 444,140 L 444,139 L 443,139 L 444,139 L 446,137 L 447,135 L 445,137 L 445,138 L 444,138 L 443,137 L 444,136 L 445,132 L 446,129 L 447,126 L 449,124 L 449,121 L 449,119 L 449,118 L 449,117 L 450,117 L 450,116 L 450,114 L 449,114 L 448,112 L 447,109 L 447,107 L 446,107 L 444,103 L 445,102 L 445,103 L 446,103 L 447,104 L 448,105 L 449,105 L 450,105 L 449,105 L 449,104 L 448,104 L 447,104 L 447,103 L 447,102 L 448,102 L 448,101 L 449,101 L 450,101 L 450,100 L 449,100 L 447,99 L 447,98 L 447,97 L 448,97 L 449,97 L 450,97 L 451,97 L 451,96 L 450,96 L 449,96 L 447,96 L 445,95 L 443,93 L 441,92 L 440,92 L 438,92 L 437,92 L 432,84 L 431,81 L 429,77 L 426,70 L 425,66 L 425,63 L 425,60 L 426,59 L 427,58 L 428,58 L 428,59 L 428,58 L 428,57 L 429,56 L 436,45 " />
</g>
<g id="quebec-generalized_15" inkscape:label="Gasp">
<path d="M 1016,569 L 1022,567 L 1027,565 L 1028,565 L 1032,563 L 1034,563 L 1038,562 L 1041,561 L 1045,562 L 1051,561 L 1055,561 L 1059,562 L 1065,564 L 1067,565 L 1068,566 L 1069,566 L 1070,568 L 1070,569 L 1073,570 L 1073,571 L 1072,571 L 1070,570 L 1068,570 L 1064,570 L 1063,570 L 1062,570 L 1061,571 L 1061,572 L 1062,572 L 1063,572 L 1064,572 L 1065,572 L 1066,573 L 1068,574 L 1069,574 L 1072,575 L 1074,576 L 1075,576 L 1075,577 L 1075,578 L 1074,578 L 1073,578 L 1073,579 L 1073,580 L 1073,581 L 1073,582 L 1074,582 L 1075,582 L 1076,582 L 1077,582 L 1077,583 L 1077,584 L 1077,585 L 1076,586 L 1076,588 L 1075,590 L 1075,591 L 1074,592 L 1072,592 L 1070,595 L 1068,597 L 1067,600 L 1067,603 L 1067,606 L 1065,609 L 1063,611 L 1062,613 L 1062,615 L 1060,618 L 1059,621 L 1057,623 L 1054,626 L 1052,627 L 1050,627 L 1049,627 L 1048,626 L 1047,626 L 1044,626 L 1040,627 L 1039,627 L 1037,627 L 1036,627 L 1034,627 L 1032,626 L 1031,626 L 1030,627 L 1029,627 L 1029,628 L 1029,629 L 1029,632 L 1028,632 L 1028,633 L 1027,633 L 1026,634 L 1024,634 L 1023,635 L 1022,635 L 1022,636 L 1021,637 L 1021,638 L 1020,638 L 1019,639 L 1019,638 L 1018,638 L 1018,639 L 1017,639 L 1015,640 L 1014,643 L 1013,644 L 1012,645 L 1011,646 L 1010,647 L 1008,648 L 1005,650 L 1004,651 L 1003,652 L 1003,653 L 1003,654 L 1003,655 L 1004,656 L 1004,657 L 1003,657 L 1002,657 L 1000,657 L 999,657 L 998,659 L 997,660 L 997,661 L 993,663 L 989,664 L 985,664 L 984,665 L 983,665 L 982,664 L 981,664 L 981,663 L 980,659 L 979,659 L 978,658 L 977,658 L 976,657 L 976,656 L 977,655 L 978,654 L 979,653 L 980,653 L 981,651 L 983,650 L 984,650 L 986,650 L 987,651 L 988,653 L 990,655 L 991,654 L 994,651 L 996,649 L 997,647 L 999,645 L 1000,645 L 1000,644 L 1000,643 L 999,643 L 998,643 L 998,642 L 999,642 L 1000,642 L 1001,642 L 1001,641 L 1000,641 L 999,641 L 997,639 L 996,639 L 995,638 L 995,637 L 995,636 L 996,635 L 996,634 L 997,634 L 999,631 L 1000,631 L 1002,628 L 1008,623 L 1008,622 L 1010,620 L 1013,617 L 1015,615 L 1016,614 L 1017,612 L 1019,611 L 1020,610 L 1020,609 L 1020,608 L 1019,608 L 1016,607 L 1013,606 L 1011,605 L 1004,603 L 1001,601 L 997,600 L 996,600 L 993,599 L 992,599 L 990,602 L 989,604 L 989,603 L 988,602 L 988,601 L 987,600 L 987,599 L 986,599 L 985,599 L 985,600 L 983,601 L 982,601 L 981,601 L 980,601 L 980,600 L 981,599 L 982,598 L 984,595 L 989,590 L 998,582 L 1002,578 L 1005,577 L 1008,576 L 1013,572 L 1016,569 " />
</g>
<g id="quebec-generalized_16" inkscape:label="Centre-du-Qubbec">
<path d="M 860,796 L 861,797 L 864,798 L 870,800 L 871,801 L 871,802 L 872,802 L 873,802 L 874,801 L 875,800 L 876,798 L 877,797 L 879,796 L 880,796 L 882,796 L 882,797 L 883,797 L 883,798 L 883,799 L 883,800 L 884,800 L 884,801 L 886,801 L 887,801 L 888,801 L 888,802 L 889,802 L 889,803 L 888,804 L 886,807 L 886,810 L 886,813 L 885,816 L 884,819 L 884,820 L 885,821 L 885,822 L 886,822 L 887,822 L 892,823 L 893,823 L 894,823 L 894,824 L 894,825 L 894,826 L 894,827 L 893,828 L 891,828 L 888,828 L 885,827 L 884,827 L 883,827 L 882,828 L 882,829 L 881,830 L 881,831 L 880,832 L 880,833 L 879,833 L 878,833 L 877,832 L 875,832 L 874,832 L 874,833 L 873,833 L 873,834 L 872,838 L 872,839 L 871,841 L 870,841 L 869,840 L 868,841 L 867,842 L 867,843 L 867,844 L 868,844 L 869,845 L 870,845 L 870,846 L 870,847 L 870,848 L 869,848 L 868,849 L 867,848 L 863,847 L 861,846 L 858,844 L 855,844 L 853,845 L 851,845 L 849,845 L 848,844 L 847,843 L 845,843 L 845,842 L 844,842 L 844,841 L 845,840 L 846,839 L 846,838 L 846,837 L 844,835 L 843,834 L 841,833 L 840,834 L 839,833 L 838,832 L 838,831 L 838,830 L 838,829 L 839,828 L 841,827 L 842,826 L 844,824 L 845,819 L 846,817 L 847,816 L 847,814 L 849,812 L 849,811 L 852,809 L 854,807 L 855,806 L 856,804 L 855,801 L 856,799 L 857,797 L 860,796 " />
</g>
</g>
</g></svg>