<?xml version="1.0" standalone="no"?>
<!DOCTYPE svg PUBLIC "-//W3C//DTD SVG 1.1//EN" "http://www.w3.org/Graphics/SVG/1.1/DTD/svg11.dtd">
<svg xmlns="http://www.w3.org/2000/svg" xmlns:inkscape="http://www.inkscape.org/namespaces/inkscape" xmlns:xlink="http://www.w3.org/1999/xlink" viewBox = "0 0 1635 933" version = "1.1">
<!-- svg generated using QGIS www.qgis.org -->
<g id="saskatchewan-generalized" inkscape:groupmode="layer" inkscape:label="saskatchewan-generalized">
<g stroke="rgb(35,35,35)" fill="rgb(190,207,80)" stroke-linejoin="round" stroke-width="0.40">
<g id="saskatchewan-generalized_1" inkscape:label="Saskatoon--Biggar">
<path d="M 855,646 L 856,646 L 857,646 L 857,647 L 856,651 L 855,655 L 855,664 L 855,667 L 854,673 L 853,677 L 852,683 L 852,689 L 852,691 L 852,693 L 851,697 L 850,700 L 850,703 L 850,704 L 850,705 L 850,706 L 851,706 L 852,706 L 853,706 L 855,707 L 856,708 L 856,710 L 856,711 L 856,716 L 855,719 L 856,721 L 855,724 L 854,725 L 853,726 L 851,726 L 848,726 L 845,725 L 841,725 L 835,724 L 828,723 L 817,721 L 801,718 L 800,718 L 795,717 L 786,715 L 780,714 L 776,714 L 775,713 L 771,713 L 768,712 L 763,708 L 762,708 L 760,705 L 760,704 L 760,703 L 759,701 L 759,697 L 736,692 L 733,692 L 722,690 L 721,690 L 720,689 L 720,688 L 720,686 L 720,684 L 719,683 L 718,682 L 717,681 L 715,681 L 713,681 L 707,680 L 700,678 L 697,678 L 692,677 L 684,675 L 675,673 L 670,672 L 668,671 L 665,671 L 657,669 L 652,668 L 648,667 L 646,666 L 634,664 L 629,663 L 623,661 L 621,661 L 616,659 L 615,659 L 613,659 L 613,658 L 612,658 L 613,658 L 613,657 L 613,656 L 613,655 L 614,650 L 615,646 L 617,640 L 618,636 L 618,632 L 619,628 L 622,619 L 623,613 L 624,608 L 625,607 L 626,600 L 627,598 L 627,596 L 629,591 L 630,586 L 631,582 L 632,577 L 633,572 L 635,565 L 637,553 L 638,551 L 639,549 L 639,547 L 641,546 L 643,545 L 647,542 L 649,540 L 652,538 L 654,537 L 659,537 L 660,537 L 663,538 L 663,539 L 667,541 L 673,543 L 674,543 L 675,543 L 676,543 L 677,544 L 678,545 L 678,546 L 677,547 L 677,548 L 678,549 L 679,550 L 680,550 L 681,550 L 682,550 L 683,549 L 684,550 L 685,550 L 686,552 L 686,554 L 688,556 L 690,558 L 692,558 L 695,557 L 696,556 L 697,554 L 697,552 L 697,551 L 697,550 L 698,550 L 699,550 L 700,551 L 701,551 L 701,552 L 702,552 L 711,562 L 713,565 L 713,566 L 712,567 L 712,568 L 712,569 L 712,570 L 715,573 L 721,583 L 723,587 L 723,588 L 724,588 L 725,588 L 729,589 L 731,591 L 732,591 L 733,594 L 739,599 L 741,601 L 741,602 L 743,605 L 747,609 L 752,611 L 757,612 L 758,612 L 759,612 L 760,611 L 762,611 L 764,611 L 765,612 L 766,612 L 770,611 L 773,611 L 777,612 L 780,612 L 781,613 L 785,611 L 790,612 L 793,612 L 796,613 L 797,614 L 797,615 L 797,616 L 797,617 L 796,618 L 795,618 L 794,619 L 793,620 L 792,623 L 792,625 L 792,626 L 791,631 L 791,632 L 791,633 L 791,634 L 792,634 L 793,635 L 795,636 L 796,636 L 799,636 L 803,637 L 804,637 L 809,638 L 811,638 L 818,640 L 822,640 L 823,641 L 830,642 L 834,642 L 843,644 L 848,645 L 853,646 L 855,646 " />
</g>
<g id="saskatchewan-generalized_2" inkscape:label="Prince_Albert">
<path d="M 1018,547 L 1020,548 L 1021,550 L 1022,553 L 1022,556 L 1021,559 L 1020,563 L 1020,567 L 1020,581 L 1019,594 L 1019,607 L 1018,610 L 1017,618 L 1017,620 L 1017,633 L 1017,635 L 1017,640 L 1016,644 L 1015,652 L 1015,653 L 1014,653 L 1011,653 L 1010,653 L 1009,653 L 999,652 L 993,651 L 988,650 L 979,649 L 975,649 L 974,649 L 970,648 L 959,647 L 957,647 L 952,646 L 947,646 L 945,645 L 941,645 L 940,645 L 939,645 L 938,646 L 937,648 L 938,649 L 937,654 L 937,657 L 937,658 L 936,658 L 936,657 L 935,657 L 934,657 L 933,657 L 932,657 L 928,656 L 924,656 L 913,654 L 911,654 L 904,653 L 899,652 L 898,652 L 894,652 L 887,651 L 886,651 L 867,648 L 859,646 L 853,645 L 848,645 L 843,644 L 834,642 L 830,642 L 823,641 L 822,640 L 818,640 L 811,638 L 809,638 L 804,637 L 803,637 L 799,636 L 796,636 L 795,636 L 793,635 L 792,635 L 791,634 L 791,633 L 791,632 L 791,631 L 792,626 L 792,625 L 792,623 L 793,620 L 794,619 L 795,618 L 796,618 L 797,617 L 797,616 L 797,615 L 797,614 L 796,613 L 793,612 L 790,612 L 785,611 L 781,613 L 780,612 L 777,612 L 773,611 L 770,611 L 766,612 L 765,612 L 764,611 L 762,611 L 760,611 L 759,612 L 758,612 L 757,612 L 752,611 L 747,609 L 743,605 L 741,602 L 741,601 L 739,599 L 733,594 L 732,591 L 731,591 L 729,589 L 725,588 L 724,588 L 723,588 L 723,587 L 721,583 L 715,573 L 712,570 L 712,569 L 712,568 L 712,567 L 713,566 L 713,565 L 711,562 L 702,552 L 701,552 L 701,551 L 700,551 L 699,550 L 698,550 L 697,550 L 697,551 L 697,552 L 697,554 L 696,556 L 695,557 L 692,558 L 690,558 L 688,556 L 686,554 L 686,552 L 685,550 L 684,550 L 683,549 L 682,550 L 681,550 L 680,550 L 679,550 L 678,549 L 677,548 L 677,547 L 678,546 L 678,545 L 677,544 L 676,543 L 675,543 L 674,543 L 673,543 L 667,541 L 663,539 L 663,538 L 660,537 L 659,537 L 654,537 L 652,538 L 649,540 L 647,542 L 643,545 L 642,546 L 640,547 L 639,547 L 639,546 L 640,543 L 641,538 L 642,534 L 643,529 L 644,526 L 648,510 L 650,503 L 651,496 L 653,489 L 655,479 L 655,478 L 656,477 L 658,466 L 659,462 L 660,458 L 662,451 L 664,443 L 666,434 L 668,426 L 668,421 L 670,418 L 671,416 L 672,416 L 674,416 L 675,417 L 676,418 L 677,421 L 679,423 L 681,423 L 690,431 L 692,431 L 700,433 L 710,436 L 717,438 L 722,438 L 727,435 L 729,433 L 730,431 L 731,429 L 731,427 L 732,427 L 733,427 L 734,427 L 735,427 L 736,427 L 738,428 L 738,429 L 739,430 L 738,432 L 738,433 L 738,434 L 739,434 L 740,435 L 747,437 L 749,437 L 751,437 L 752,438 L 753,438 L 755,438 L 756,439 L 757,440 L 757,442 L 757,444 L 756,445 L 754,458 L 754,461 L 753,465 L 752,470 L 752,471 L 753,472 L 754,472 L 756,472 L 758,473 L 772,475 L 772,476 L 774,476 L 778,477 L 780,477 L 804,482 L 805,477 L 805,475 L 805,474 L 806,472 L 806,471 L 806,470 L 807,469 L 808,469 L 809,469 L 811,469 L 813,470 L 817,471 L 821,471 L 825,472 L 829,473 L 833,473 L 836,474 L 838,474 L 839,475 L 839,476 L 839,477 L 839,479 L 838,482 L 837,485 L 837,489 L 836,490 L 835,500 L 835,501 L 857,505 L 868,506 L 870,506 L 871,506 L 872,507 L 873,508 L 873,509 L 873,511 L 872,517 L 872,519 L 872,520 L 873,521 L 875,521 L 877,521 L 882,522 L 886,523 L 890,523 L 892,524 L 893,524 L 898,524 L 903,525 L 908,526 L 910,526 L 915,527 L 918,527 L 921,528 L 937,530 L 937,534 L 936,538 L 937,540 L 938,542 L 939,543 L 942,544 L 945,544 L 946,543 L 947,543 L 947,542 L 948,541 L 951,539 L 955,539 L 959,539 L 960,539 L 960,538 L 963,536 L 964,536 L 964,535 L 964,536 L 964,537 L 964,538 L 964,539 L 965,540 L 966,541 L 968,541 L 970,541 L 977,542 L 978,542 L 983,543 L 986,543 L 991,544 L 998,545 L 1005,545 L 1007,545 L 1012,546 L 1018,547 " />
</g>
<g id="saskatchewan-generalized_3" inkscape:label="Regina--Moose_Mountain">
<path d="M 1007,826 L 1007,827 L 1006,830 L 1006,834 L 1006,835 L 1006,836 L 1005,838 L 1007,842 L 1006,846 L 1006,847 L 1006,851 L 1005,854 L 1005,855 L 1004,865 L 1005,870 L 1005,872 L 1005,873 L 1004,877 L 1003,888 L 1003,893 L 1004,896 L 1003,902 L 1003,906 L 1003,907 L 1003,908 L 1002,908 L 1000,908 L 999,908 L 994,908 L 993,907 L 989,907 L 970,905 L 963,904 L 962,904 L 955,903 L 951,903 L 950,903 L 949,903 L 948,903 L 948,902 L 947,902 L 946,902 L 945,902 L 944,902 L 943,902 L 937,901 L 936,901 L 933,901 L 928,900 L 924,900 L 922,899 L 920,899 L 909,898 L 906,897 L 904,897 L 901,897 L 897,896 L 896,896 L 893,896 L 886,895 L 883,894 L 880,894 L 876,893 L 870,892 L 860,891 L 855,890 L 848,889 L 845,889 L 841,888 L 837,887 L 829,886 L 828,886 L 820,885 L 816,884 L 814,885 L 812,884 L 811,883 L 810,881 L 809,879 L 810,872 L 810,870 L 810,868 L 811,866 L 811,865 L 811,864 L 810,863 L 809,863 L 800,861 L 799,861 L 798,860 L 798,859 L 798,858 L 798,857 L 799,856 L 800,855 L 804,853 L 808,854 L 810,854 L 811,853 L 812,853 L 813,851 L 813,849 L 813,847 L 813,839 L 814,835 L 815,830 L 815,827 L 815,826 L 816,826 L 816,822 L 816,821 L 817,812 L 817,809 L 817,808 L 818,803 L 819,798 L 819,794 L 820,792 L 820,786 L 820,783 L 822,769 L 823,765 L 823,763 L 822,762 L 821,761 L 820,761 L 814,755 L 813,753 L 812,751 L 811,749 L 811,747 L 813,738 L 813,730 L 813,727 L 814,724 L 817,722 L 820,720 L 824,721 L 828,723 L 835,724 L 841,725 L 845,725 L 849,726 L 853,726 L 857,724 L 866,722 L 867,722 L 868,722 L 868,723 L 868,724 L 868,726 L 868,727 L 868,728 L 867,729 L 868,729 L 869,729 L 878,731 L 884,731 L 889,732 L 896,733 L 899,733 L 899,734 L 902,734 L 912,733 L 919,734 L 922,734 L 925,735 L 926,736 L 927,737 L 927,738 L 927,740 L 927,741 L 927,742 L 926,745 L 924,753 L 925,757 L 924,763 L 923,773 L 923,774 L 923,775 L 923,779 L 923,780 L 922,780 L 921,780 L 920,779 L 919,778 L 918,777 L 917,777 L 916,778 L 916,779 L 916,780 L 915,788 L 915,791 L 914,793 L 914,794 L 915,796 L 916,797 L 918,798 L 919,797 L 920,797 L 920,798 L 921,798 L 921,799 L 920,800 L 920,801 L 920,807 L 918,810 L 918,813 L 920,816 L 922,818 L 925,818 L 927,819 L 933,819 L 947,821 L 950,821 L 955,822 L 966,823 L 971,824 L 977,825 L 981,824 L 985,824 L 986,824 L 993,825 L 999,826 L 1005,826 L 1006,826 L 1007,826 " />
</g>
<g id="saskatchewan-generalized_4" inkscape:label="Yorkton--Melville">
<path d="M 1015,653 L 1016,653 L 1016,654 L 1017,654 L 1017,655 L 1016,656 L 1016,658 L 1016,660 L 1015,666 L 1015,670 L 1014,677 L 1015,683 L 1015,686 L 1014,691 L 1014,697 L 1012,712 L 1012,716 L 1011,722 L 1011,727 L 1011,736 L 1011,739 L 1011,743 L 1010,746 L 1010,753 L 1009,756 L 1010,761 L 1010,765 L 1009,770 L 1009,773 L 1008,782 L 1009,789 L 1009,792 L 1008,796 L 1008,799 L 1008,804 L 1007,809 L 1008,817 L 1007,824 L 1007,825 L 1006,826 L 1005,826 L 1004,826 L 1002,826 L 999,826 L 993,825 L 986,824 L 985,824 L 981,824 L 977,825 L 971,824 L 966,823 L 955,822 L 950,821 L 947,821 L 933,819 L 927,819 L 925,818 L 922,818 L 920,816 L 918,813 L 918,810 L 920,807 L 920,801 L 920,800 L 921,799 L 921,798 L 920,798 L 920,797 L 919,797 L 918,798 L 917,797 L 916,797 L 915,796 L 914,795 L 914,793 L 915,791 L 915,788 L 916,780 L 916,779 L 916,778 L 917,777 L 918,777 L 919,778 L 920,779 L 921,780 L 922,780 L 923,780 L 923,779 L 923,775 L 923,774 L 923,773 L 924,763 L 925,758 L 924,753 L 926,745 L 927,742 L 927,741 L 927,740 L 927,739 L 927,737 L 926,736 L 925,735 L 922,734 L 919,734 L 912,733 L 902,734 L 899,734 L 899,733 L 896,733 L 889,732 L 884,731 L 878,731 L 869,729 L 868,729 L 868,728 L 868,727 L 868,723 L 868,722 L 855,724 L 855,719 L 856,716 L 856,711 L 856,710 L 856,708 L 855,707 L 853,706 L 852,706 L 851,706 L 850,706 L 850,705 L 850,704 L 850,703 L 850,700 L 851,697 L 852,693 L 852,692 L 852,689 L 852,683 L 853,677 L 854,673 L 855,667 L 855,665 L 856,654 L 856,652 L 856,649 L 858,648 L 860,647 L 863,646 L 867,648 L 887,651 L 894,652 L 898,652 L 899,652 L 904,653 L 911,654 L 913,654 L 924,656 L 928,656 L 932,657 L 933,657 L 934,657 L 935,657 L 936,657 L 936,658 L 937,658 L 937,657 L 938,649 L 938,647 L 938,646 L 939,645 L 940,645 L 941,645 L 945,645 L 947,646 L 952,646 L 957,647 L 959,647 L 970,648 L 974,649 L 975,649 L 979,649 L 988,650 L 993,651 L 999,652 L 1009,653 L 1010,653 L 1011,653 L 1015,653 " />
</g>
<g id="saskatchewan-generalized_5" inkscape:label="Northern___Nord">
<path d="M 1062,74 L 1062,75 L 1062,76 L 1062,77 L 1059,105 L 1058,110 L 1057,119 L 1056,134 L 1055,139 L 1054,153 L 1053,155 L 1052,170 L 1051,173 L 1051,177 L 1050,183 L 1050,189 L 1049,196 L 1049,198 L 1048,204 L 1047,210 L 1045,226 L 1044,237 L 1043,252 L 1042,257 L 1042,262 L 1039,281 L 1038,294 L 1037,301 L 1036,314 L 1035,318 L 1035,323 L 1032,346 L 1032,349 L 1031,361 L 1030,366 L 1029,374 L 1029,378 L 1028,385 L 1029,390 L 1029,395 L 1028,402 L 1027,409 L 1027,411 L 1028,417 L 1027,424 L 1027,430 L 1026,432 L 1026,434 L 1026,447 L 1026,453 L 1025,454 L 1024,464 L 1024,465 L 1025,470 L 1025,473 L 1025,476 L 1025,477 L 1023,486 L 1023,501 L 1023,504 L 1023,507 L 1022,516 L 1023,524 L 1022,534 L 1021,539 L 1022,542 L 1021,544 L 1020,546 L 1018,547 L 1015,547 L 1012,546 L 1007,545 L 1005,545 L 998,545 L 991,544 L 986,543 L 983,543 L 979,542 L 977,542 L 970,541 L 968,541 L 966,541 L 965,540 L 964,539 L 964,538 L 964,537 L 964,536 L 964,535 L 964,536 L 963,536 L 960,538 L 960,539 L 959,539 L 955,539 L 951,539 L 948,541 L 947,542 L 947,543 L 946,543 L 945,544 L 942,544 L 940,543 L 938,542 L 937,540 L 936,537 L 937,534 L 937,530 L 921,528 L 918,527 L 915,527 L 910,526 L 908,526 L 903,525 L 898,524 L 894,524 L 892,524 L 890,523 L 886,523 L 882,522 L 877,521 L 875,521 L 873,521 L 872,520 L 872,519 L 872,517 L 873,511 L 873,509 L 873,508 L 872,507 L 871,506 L 870,506 L 868,506 L 857,505 L 835,501 L 835,500 L 836,490 L 837,489 L 837,485 L 838,482 L 839,479 L 839,477 L 839,476 L 839,475 L 838,474 L 836,474 L 833,473 L 829,473 L 825,472 L 821,471 L 817,471 L 813,470 L 811,469 L 810,469 L 809,469 L 808,469 L 807,470 L 806,471 L 806,472 L 805,474 L 805,475 L 805,477 L 804,482 L 780,477 L 778,477 L 774,476 L 772,476 L 772,475 L 767,474 L 758,473 L 756,472 L 754,472 L 753,472 L 752,471 L 752,470 L 753,465 L 754,461 L 754,458 L 756,445 L 757,444 L 757,442 L 757,440 L 756,439 L 755,438 L 753,438 L 752,438 L 751,437 L 749,437 L 747,437 L 740,435 L 739,434 L 738,434 L 738,433 L 738,432 L 739,430 L 738,429 L 738,428 L 736,427 L 735,427 L 734,427 L 733,427 L 732,427 L 731,427 L 731,429 L 730,431 L 729,433 L 727,435 L 722,438 L 717,438 L 710,436 L 700,433 L 692,431 L 690,431 L 681,423 L 678,422 L 675,419 L 675,417 L 674,415 L 672,414 L 671,413 L 671,411 L 671,409 L 673,407 L 676,392 L 677,388 L 683,365 L 685,357 L 686,354 L 686,352 L 687,347 L 689,341 L 690,337 L 692,327 L 694,320 L 697,309 L 698,302 L 701,292 L 701,288 L 703,283 L 704,278 L 705,273 L 707,265 L 708,260 L 710,254 L 711,247 L 715,233 L 719,215 L 720,209 L 722,205 L 723,200 L 727,180 L 729,175 L 731,164 L 733,155 L 736,146 L 738,135 L 740,127 L 741,124 L 742,119 L 744,110 L 747,98 L 748,95 L 752,76 L 753,73 L 757,58 L 759,48 L 761,39 L 764,27 L 765,22 L 766,22 L 767,22 L 768,22 L 770,22 L 774,23 L 775,24 L 782,25 L 783,26 L 784,26 L 793,28 L 802,30 L 804,30 L 811,32 L 812,32 L 818,34 L 819,34 L 821,34 L 826,35 L 829,36 L 830,36 L 839,38 L 843,39 L 847,40 L 848,40 L 853,41 L 854,41 L 858,42 L 859,42 L 866,43 L 867,43 L 873,45 L 876,45 L 885,47 L 892,48 L 895,49 L 903,50 L 904,50 L 912,52 L 913,52 L 917,53 L 922,54 L 923,54 L 932,55 L 940,57 L 941,57 L 950,58 L 956,59 L 960,60 L 968,61 L 969,61 L 976,62 L 977,62 L 978,63 L 979,63 L 982,63 L 988,64 L 997,65 L 1006,66 L 1007,66 L 1007,67 L 1015,68 L 1016,68 L 1023,69 L 1025,69 L 1026,69 L 1034,70 L 1041,71 L 1044,71 L 1045,71 L 1052,72 L 1053,72 L 1054,72 L 1058,73 L 1059,73 L 1060,73 L 1061,73 L 1062,74 " />
</g>
<g id="saskatchewan-generalized_6" inkscape:label="Swift_Current--Moose_Jaw">
<path d="M 812,720 L 814,722 L 814,725 L 813,728 L 813,730 L 813,738 L 811,747 L 811,749 L 812,751 L 813,753 L 814,755 L 820,761 L 822,762 L 822,763 L 823,764 L 823,765 L 822,769 L 820,783 L 820,786 L 820,792 L 819,794 L 819,798 L 818,803 L 817,808 L 817,811 L 816,821 L 814,835 L 813,839 L 813,847 L 813,849 L 813,851 L 812,853 L 811,853 L 810,854 L 808,854 L 804,853 L 800,855 L 799,856 L 798,857 L 798,858 L 798,859 L 798,860 L 799,861 L 800,861 L 809,863 L 810,863 L 811,864 L 811,865 L 811,866 L 810,868 L 810,870 L 810,872 L 810,877 L 810,879 L 809,881 L 808,882 L 807,883 L 806,883 L 802,882 L 796,881 L 794,881 L 792,880 L 789,880 L 785,879 L 780,878 L 775,877 L 769,876 L 762,875 L 758,874 L 756,874 L 755,874 L 751,873 L 742,872 L 736,870 L 730,869 L 722,868 L 719,867 L 716,867 L 708,865 L 706,865 L 697,863 L 695,863 L 695,862 L 694,862 L 691,862 L 682,860 L 681,860 L 672,858 L 671,858 L 669,857 L 659,855 L 658,855 L 657,855 L 648,853 L 647,853 L 641,851 L 636,850 L 632,849 L 631,849 L 622,847 L 620,847 L 610,844 L 605,843 L 604,843 L 597,841 L 592,840 L 585,839 L 584,838 L 581,838 L 573,836 L 570,835 L 571,832 L 576,809 L 577,805 L 578,801 L 579,795 L 581,788 L 583,782 L 584,778 L 586,770 L 587,764 L 587,763 L 588,760 L 591,748 L 591,746 L 593,738 L 594,735 L 594,734 L 595,729 L 597,724 L 597,721 L 599,716 L 601,706 L 602,703 L 603,698 L 604,692 L 606,686 L 608,678 L 609,673 L 609,672 L 610,667 L 611,665 L 610,664 L 611,662 L 612,660 L 614,659 L 616,659 L 621,661 L 629,663 L 634,664 L 646,666 L 648,667 L 652,668 L 657,669 L 665,671 L 668,671 L 670,672 L 675,673 L 684,675 L 692,677 L 697,678 L 700,678 L 707,680 L 713,681 L 715,681 L 717,681 L 718,682 L 719,683 L 720,684 L 720,686 L 720,688 L 720,689 L 721,690 L 722,690 L 733,692 L 736,693 L 744,694 L 749,695 L 754,696 L 756,696 L 757,697 L 759,698 L 759,699 L 759,701 L 760,703 L 760,704 L 760,705 L 762,708 L 763,708 L 768,712 L 771,713 L 775,713 L 776,714 L 780,714 L 786,715 L 795,717 L 800,718 L 801,718 L 808,719 L 812,720 " />
</g>
</g>
</g></svg>