<?xml version="1.0" standalone="no"?>
<!DOCTYPE svg PUBLIC "-//W3C//DTD SVG 1.1//EN" "http://www.w3.org/Graphics/SVG/1.1/DTD/svg11.dtd">
<svg xmlns="http://www.w3.org/2000/svg" xmlns:inkscape="http://www.inkscape.org/namespaces/inkscape" xmlns:xlink="http://www.w3.org/1999/xlink" viewBox = "0 0 1635 933" version = "1.1">
<!-- svg generated using QGIS www.qgis.org -->
<g id="yukon-generalized" inkscape:groupmode="layer" inkscape:label="yukon-generalized">
<g stroke="rgb(35,35,35)" fill="rgb(231,113,72)" stroke-linejoin="round" stroke-width="0.40">
<g id="yukon-generalized_1" inkscape:label="Yukon">
<path d="M 1015,24 L 1019,29 L 1022,33 L 1023,34 L 1024,35 L 1032,39 L 1034,41 L 1035,42 L 1037,47 L 1037,48 L 1038,49 L 1037,48 L 1036,46 L 1036,45 L 1036,46 L 1035,46 L 1036,47 L 1037,50 L 1038,52 L 1039,52 L 1040,54 L 1041,55 L 1043,63 L 1043,70 L 1044,75 L 1044,80 L 1043,83 L 1043,85 L 1044,87 L 1044,88 L 1045,88 L 1046,88 L 1046,87 L 1048,86 L 1048,85 L 1049,85 L 1049,86 L 1049,87 L 1047,91 L 1047,92 L 1047,95 L 1047,96 L 1047,97 L 1048,100 L 1049,104 L 1050,108 L 1052,113 L 1054,117 L 1055,121 L 1057,125 L 1060,127 L 1062,131 L 1062,135 L 1062,136 L 1063,136 L 1064,137 L 1066,138 L 1067,138 L 1068,138 L 1068,139 L 1069,140 L 1068,141 L 1068,142 L 1067,143 L 1065,147 L 1063,149 L 1058,156 L 1057,157 L 1048,168 L 1044,173 L 1044,174 L 1043,175 L 1036,185 L 1033,188 L 1029,194 L 1026,198 L 1022,203 L 1016,212 L 1015,212 L 1015,213 L 1015,214 L 1017,217 L 1018,219 L 1014,227 L 1010,230 L 1007,239 L 1003,243 L 999,245 L 995,249 L 994,253 L 993,255 L 992,256 L 993,256 L 993,257 L 994,257 L 994,258 L 995,258 L 995,259 L 996,259 L 997,259 L 997,260 L 998,260 L 998,261 L 999,261 L 999,262 L 1000,262 L 1001,263 L 1002,263 L 1002,264 L 1003,264 L 1004,265 L 1005,266 L 1006,266 L 1006,267 L 1007,267 L 1007,268 L 1008,268 L 1009,269 L 1010,269 L 1010,270 L 1011,270 L 1011,271 L 1012,271 L 1013,271 L 1013,272 L 1014,272 L 1014,273 L 1015,273 L 1016,274 L 1017,274 L 1017,275 L 1018,275 L 1018,276 L 1019,276 L 1020,277 L 1021,277 L 1021,278 L 1022,278 L 1023,279 L 1024,279 L 1024,280 L 1025,280 L 1025,281 L 1026,281 L 1027,282 L 1028,282 L 1028,283 L 1029,283 L 1030,284 L 1031,285 L 1032,285 L 1032,286 L 1033,286 L 1034,287 L 1035,287 L 1035,288 L 1036,288 L 1036,289 L 1037,289 L 1038,289 L 1038,290 L 1039,290 L 1039,291 L 1040,291 L 1041,291 L 1041,292 L 1042,292 L 1042,293 L 1043,293 L 1043,294 L 1044,294 L 1045,294 L 1045,295 L 1046,295 L 1045,295 L 1045,296 L 1044,296 L 1043,296 L 1043,295 L 1042,294 L 1041,294 L 1040,294 L 1039,294 L 1038,294 L 1038,295 L 1039,297 L 1040,301 L 1040,302 L 1040,306 L 1038,310 L 1036,312 L 1035,314 L 1034,317 L 1034,320 L 1034,324 L 1034,325 L 1033,326 L 1033,327 L 1032,327 L 1031,327 L 1030,327 L 1030,328 L 1029,328 L 1029,329 L 1029,330 L 1029,332 L 1028,333 L 1027,333 L 1026,333 L 1023,334 L 1020,335 L 1019,336 L 1018,337 L 1018,338 L 1018,339 L 1020,340 L 1022,342 L 1022,343 L 1023,344 L 1022,345 L 1018,352 L 1017,352 L 1013,353 L 1012,353 L 1012,354 L 1011,356 L 1011,357 L 1011,359 L 1010,359 L 1010,360 L 1009,360 L 1008,361 L 1007,362 L 1007,363 L 1008,364 L 1009,365 L 1010,366 L 1014,367 L 1018,367 L 1020,367 L 1023,367 L 1025,368 L 1026,370 L 1027,371 L 1027,372 L 1026,373 L 1025,373 L 1023,375 L 1022,375 L 1022,376 L 1022,377 L 1022,379 L 1023,379 L 1024,380 L 1025,380 L 1026,379 L 1029,377 L 1035,376 L 1036,376 L 1037,377 L 1038,378 L 1039,379 L 1039,381 L 1038,382 L 1038,383 L 1036,384 L 1033,385 L 1031,385 L 1030,386 L 1029,387 L 1029,388 L 1031,396 L 1031,398 L 1031,402 L 1030,406 L 1027,411 L 1023,414 L 1019,417 L 1015,418 L 1011,418 L 1010,419 L 1008,421 L 1005,422 L 1002,422 L 1000,423 L 998,425 L 997,427 L 997,428 L 998,429 L 999,429 L 1000,429 L 1001,429 L 1001,430 L 1002,430 L 1002,431 L 1002,432 L 1001,432 L 1000,433 L 1000,434 L 1000,435 L 1000,437 L 1001,438 L 1003,439 L 1003,440 L 1003,441 L 1002,441 L 1001,441 L 1000,442 L 999,442 L 995,444 L 993,448 L 992,448 L 991,449 L 990,449 L 989,449 L 987,449 L 987,450 L 986,451 L 986,452 L 987,454 L 988,455 L 991,457 L 992,459 L 993,462 L 995,465 L 995,469 L 995,473 L 994,476 L 995,478 L 996,481 L 997,484 L 997,485 L 996,487 L 995,488 L 993,488 L 992,488 L 990,489 L 990,491 L 990,492 L 990,493 L 991,495 L 993,495 L 996,496 L 999,496 L 1001,495 L 1003,495 L 1004,495 L 1006,496 L 1007,499 L 1008,501 L 1008,504 L 1006,510 L 1007,515 L 1007,517 L 1006,518 L 1004,520 L 1003,522 L 1002,524 L 1002,526 L 1002,532 L 1003,537 L 1007,545 L 1007,546 L 1007,547 L 1007,549 L 1007,550 L 1008,551 L 1009,551 L 1011,551 L 1012,552 L 1013,553 L 1013,554 L 1013,555 L 1013,557 L 1012,559 L 1011,559 L 1010,560 L 1009,560 L 1008,559 L 1005,559 L 1004,559 L 1003,560 L 1002,560 L 1002,561 L 1002,563 L 1003,564 L 1004,564 L 1005,564 L 1006,564 L 1007,564 L 1008,564 L 1008,565 L 1008,566 L 1008,567 L 1007,567 L 1007,568 L 1007,569 L 1007,570 L 1008,571 L 1009,573 L 1010,576 L 1009,578 L 1009,580 L 1009,581 L 1008,582 L 1006,583 L 1005,584 L 1004,586 L 1003,587 L 1003,588 L 1002,589 L 1001,589 L 1000,589 L 996,588 L 993,588 L 992,589 L 991,590 L 991,591 L 991,592 L 992,592 L 993,593 L 994,594 L 994,595 L 994,597 L 994,599 L 995,602 L 995,604 L 994,607 L 994,609 L 995,609 L 995,610 L 996,610 L 998,611 L 998,612 L 998,613 L 998,614 L 993,618 L 989,621 L 987,624 L 986,628 L 987,631 L 987,632 L 986,634 L 985,637 L 986,639 L 986,641 L 986,642 L 985,643 L 984,643 L 983,644 L 983,645 L 983,646 L 984,646 L 985,646 L 985,647 L 986,647 L 986,648 L 986,650 L 986,651 L 987,652 L 988,653 L 989,655 L 989,656 L 988,658 L 987,659 L 983,661 L 980,665 L 978,669 L 978,671 L 978,673 L 978,674 L 978,675 L 977,676 L 976,677 L 975,677 L 975,678 L 975,679 L 975,681 L 976,682 L 977,682 L 981,683 L 982,684 L 984,686 L 984,688 L 984,690 L 984,691 L 985,691 L 986,691 L 987,691 L 989,690 L 990,690 L 991,689 L 992,690 L 993,690 L 994,691 L 994,692 L 995,698 L 996,711 L 995,712 L 995,714 L 995,716 L 996,716 L 996,717 L 997,717 L 998,717 L 998,718 L 999,718 L 999,719 L 999,720 L 998,722 L 997,723 L 996,725 L 995,727 L 996,730 L 997,732 L 998,736 L 1001,742 L 1002,747 L 1006,751 L 1008,752 L 1010,753 L 1012,755 L 1013,757 L 1013,760 L 1012,766 L 1010,773 L 1009,778 L 1007,779 L 1002,783 L 1001,785 L 1001,786 L 1001,787 L 1001,788 L 1002,788 L 1003,788 L 1004,788 L 1005,789 L 1005,790 L 1004,792 L 1004,794 L 1001,798 L 999,803 L 999,806 L 999,808 L 999,809 L 1000,810 L 1001,810 L 1002,811 L 1003,812 L 1004,813 L 1006,813 L 1008,812 L 1010,812 L 1011,813 L 1011,814 L 1012,815 L 1012,816 L 1013,816 L 1014,817 L 1015,817 L 1015,818 L 1016,818 L 1017,818 L 1018,818 L 1018,817 L 1019,817 L 1019,816 L 1020,815 L 1021,815 L 1021,814 L 1022,814 L 1023,814 L 1023,815 L 1024,815 L 1024,816 L 1024,817 L 1024,818 L 1024,819 L 1025,820 L 1026,821 L 1027,821 L 1027,820 L 1029,819 L 1030,818 L 1032,817 L 1033,817 L 1034,817 L 1034,818 L 1034,819 L 1035,822 L 1038,826 L 1041,827 L 1042,830 L 1045,832 L 1047,833 L 1051,833 L 1054,832 L 1056,833 L 1059,834 L 1061,835 L 1063,836 L 1064,836 L 1065,835 L 1066,834 L 1066,833 L 1068,831 L 1069,831 L 1071,831 L 1073,832 L 1074,833 L 1076,836 L 1076,840 L 1075,842 L 1075,843 L 1075,845 L 1074,847 L 1073,848 L 1072,849 L 1070,850 L 1068,850 L 1067,851 L 1066,853 L 1066,854 L 1067,859 L 1068,861 L 1068,864 L 1067,866 L 1067,868 L 1067,869 L 1068,870 L 1068,871 L 1070,871 L 1071,872 L 1071,873 L 1071,874 L 1070,877 L 1069,879 L 1068,882 L 1067,886 L 1067,892 L 1068,900 L 1069,903 L 1070,906 L 1070,907 L 1070,908 L 1069,908 L 1068,908 L 1066,907 L 1065,906 L 1064,906 L 1062,905 L 1056,902 L 1055,901 L 1048,898 L 1047,898 L 1047,897 L 1039,894 L 1039,893 L 1035,891 L 1031,889 L 1023,885 L 1022,885 L 1021,884 L 1020,884 L 1014,881 L 1013,880 L 1006,877 L 1006,876 L 999,873 L 998,872 L 997,872 L 993,870 L 990,868 L 988,867 L 981,863 L 980,862 L 973,859 L 970,857 L 965,854 L 964,854 L 957,850 L 955,849 L 953,848 L 950,846 L 949,845 L 948,845 L 945,843 L 941,841 L 933,837 L 933,836 L 932,836 L 931,836 L 929,834 L 925,832 L 924,832 L 918,828 L 917,827 L 909,822 L 908,822 L 902,819 L 901,818 L 900,817 L 893,813 L 892,812 L 885,808 L 878,804 L 877,803 L 870,799 L 869,798 L 868,798 L 861,794 L 859,792 L 853,789 L 851,788 L 846,784 L 845,784 L 840,780 L 837,779 L 830,774 L 829,774 L 824,771 L 822,769 L 818,766 L 814,764 L 812,763 L 809,760 L 807,759 L 806,759 L 804,757 L 799,754 L 798,754 L 798,753 L 791,748 L 789,747 L 783,743 L 776,738 L 775,738 L 768,733 L 760,728 L 760,727 L 752,722 L 751,722 L 746,718 L 745,717 L 739,713 L 737,712 L 733,709 L 730,706 L 729,706 L 722,701 L 718,698 L 715,695 L 708,691 L 707,690 L 700,685 L 700,684 L 693,679 L 692,679 L 688,676 L 686,674 L 685,673 L 680,670 L 677,668 L 677,667 L 671,663 L 670,662 L 663,657 L 663,656 L 657,652 L 655,651 L 654,650 L 648,645 L 641,640 L 641,639 L 640,639 L 634,634 L 633,633 L 632,632 L 628,629 L 626,628 L 624,626 L 619,622 L 618,622 L 614,618 L 612,616 L 606,611 L 605,611 L 604,610 L 601,607 L 597,604 L 596,601 L 596,598 L 596,595 L 611,584 L 613,583 L 594,569 L 579,571 L 571,552 L 565,555 L 556,539 L 579,513 L 588,503 L 598,492 L 601,488 L 603,485 L 612,476 L 613,475 L 617,470 L 619,468 L 622,464 L 625,461 L 626,460 L 629,457 L 632,452 L 633,451 L 637,447 L 639,445 L 643,440 L 646,437 L 656,425 L 661,420 L 665,416 L 666,414 L 667,413 L 674,405 L 677,402 L 681,397 L 685,392 L 688,389 L 691,385 L 700,376 L 703,372 L 725,347 L 737,334 L 747,323 L 760,307 L 766,301 L 769,298 L 770,297 L 770,296 L 771,295 L 772,294 L 775,291 L 778,288 L 779,287 L 786,278 L 790,273 L 800,262 L 813,247 L 822,237 L 827,232 L 831,227 L 835,223 L 842,215 L 851,204 L 860,194 L 865,189 L 877,175 L 884,167 L 887,164 L 897,153 L 905,143 L 914,133 L 926,119 L 933,111 L 943,100 L 953,89 L 959,82 L 966,73 L 975,64 L 982,56 L 983,54 L 990,46 L 996,40 L 1000,35 L 1006,28 L 1008,25 L 1011,23 L 1012,22 L 1013,22 L 1014,22 L 1015,22 L 1015,23 L 1015,24 " />
</g>
</g>
</g></svg>